%TF.GenerationSoftware,KiCad,Pcbnew,8.0.3-8.0.3-0~ubuntu22.04.1*%
%TF.CreationDate,2024-06-29T20:26:50+10:00*%
%TF.ProjectId,lo_cate_pcb,6c6f5f63-6174-4655-9f70-63622e6b6963,rev?*%
%TF.SameCoordinates,Original*%
%TF.FileFunction,Legend,Top*%
%TF.FilePolarity,Positive*%
%FSLAX46Y46*%
G04 Gerber Fmt 4.6, Leading zero omitted, Abs format (unit mm)*
G04 Created by KiCad (PCBNEW 8.0.3-8.0.3-0~ubuntu22.04.1) date 2024-06-29 20:26:50*
%MOMM*%
%LPD*%
G01*
G04 APERTURE LIST*
G04 Aperture macros list*
%AMRoundRect*
0 Rectangle with rounded corners*
0 $1 Rounding radius*
0 $2 $3 $4 $5 $6 $7 $8 $9 X,Y pos of 4 corners*
0 Add a 4 corners polygon primitive as box body*
4,1,4,$2,$3,$4,$5,$6,$7,$8,$9,$2,$3,0*
0 Add four circle primitives for the rounded corners*
1,1,$1+$1,$2,$3*
1,1,$1+$1,$4,$5*
1,1,$1+$1,$6,$7*
1,1,$1+$1,$8,$9*
0 Add four rect primitives between the rounded corners*
20,1,$1+$1,$2,$3,$4,$5,0*
20,1,$1+$1,$4,$5,$6,$7,0*
20,1,$1+$1,$6,$7,$8,$9,0*
20,1,$1+$1,$8,$9,$2,$3,0*%
G04 Aperture macros list end*
%ADD10C,0.100000*%
%ADD11C,0.200000*%
%ADD12C,0.080000*%
%ADD13C,0.150000*%
%ADD14C,0.120000*%
%ADD15C,0.010000*%
%ADD16C,0.152400*%
%ADD17C,0.000000*%
%ADD18C,0.127000*%
%ADD19R,1.000000X1.000000*%
%ADD20O,1.000000X1.000000*%
%ADD21RoundRect,0.250000X0.525000X0.250000X-0.525000X0.250000X-0.525000X-0.250000X0.525000X-0.250000X0*%
%ADD22R,1.700000X2.100000*%
%ADD23RoundRect,0.250000X-0.337500X-0.475000X0.337500X-0.475000X0.337500X0.475000X-0.337500X0.475000X0*%
%ADD24RoundRect,0.250000X0.450000X-0.350000X0.450000X0.350000X-0.450000X0.350000X-0.450000X-0.350000X0*%
%ADD25C,2.000000*%
%ADD26RoundRect,0.250000X0.475000X-0.337500X0.475000X0.337500X-0.475000X0.337500X-0.475000X-0.337500X0*%
%ADD27RoundRect,0.250000X-0.450000X0.350000X-0.450000X-0.350000X0.450000X-0.350000X0.450000X0.350000X0*%
%ADD28RoundRect,0.250000X-0.350000X-0.450000X0.350000X-0.450000X0.350000X0.450000X-0.350000X0.450000X0*%
%ADD29R,1.371600X0.863600*%
%ADD30RoundRect,0.102000X-0.975000X-0.525000X0.975000X-0.525000X0.975000X0.525000X-0.975000X0.525000X0*%
%ADD31RoundRect,0.102000X0.975000X0.525000X-0.975000X0.525000X-0.975000X-0.525000X0.975000X-0.525000X0*%
%ADD32R,0.304800X0.584200*%
%ADD33R,0.584200X0.304800*%
%ADD34C,3.200000*%
%ADD35RoundRect,0.250000X0.337500X0.475000X-0.337500X0.475000X-0.337500X-0.475000X0.337500X-0.475000X0*%
%ADD36RoundRect,0.250000X0.350000X0.450000X-0.350000X0.450000X-0.350000X-0.450000X0.350000X-0.450000X0*%
%ADD37RoundRect,0.250000X-0.475000X0.337500X-0.475000X-0.337500X0.475000X-0.337500X0.475000X0.337500X0*%
%ADD38C,0.900000*%
%ADD39RoundRect,0.102000X-1.150000X0.250000X-1.150000X-0.250000X1.150000X-0.250000X1.150000X0.250000X0*%
%ADD40RoundRect,0.102000X-1.250000X1.000000X-1.250000X-1.000000X1.250000X-1.000000X1.250000X1.000000X0*%
%ADD41R,0.990600X0.990600*%
%ADD42R,1.041400X2.209800*%
%ADD43R,0.508000X1.181100*%
%ADD44RoundRect,0.075000X0.700000X0.075000X-0.700000X0.075000X-0.700000X-0.075000X0.700000X-0.075000X0*%
%ADD45RoundRect,0.075000X0.075000X0.700000X-0.075000X0.700000X-0.075000X-0.700000X0.075000X-0.700000X0*%
G04 APERTURE END LIST*
D10*
X106656265Y-119467657D02*
X106703884Y-119420038D01*
X106703884Y-119420038D02*
X106799122Y-119372419D01*
X106799122Y-119372419D02*
X107037217Y-119372419D01*
X107037217Y-119372419D02*
X107132455Y-119420038D01*
X107132455Y-119420038D02*
X107180074Y-119467657D01*
X107180074Y-119467657D02*
X107227693Y-119562895D01*
X107227693Y-119562895D02*
X107227693Y-119658133D01*
X107227693Y-119658133D02*
X107180074Y-119800990D01*
X107180074Y-119800990D02*
X106608646Y-120372419D01*
X106608646Y-120372419D02*
X107227693Y-120372419D01*
X107703884Y-120372419D02*
X107894360Y-120372419D01*
X107894360Y-120372419D02*
X107989598Y-120324800D01*
X107989598Y-120324800D02*
X108037217Y-120277180D01*
X108037217Y-120277180D02*
X108132455Y-120134323D01*
X108132455Y-120134323D02*
X108180074Y-119943847D01*
X108180074Y-119943847D02*
X108180074Y-119562895D01*
X108180074Y-119562895D02*
X108132455Y-119467657D01*
X108132455Y-119467657D02*
X108084836Y-119420038D01*
X108084836Y-119420038D02*
X107989598Y-119372419D01*
X107989598Y-119372419D02*
X107799122Y-119372419D01*
X107799122Y-119372419D02*
X107703884Y-119420038D01*
X107703884Y-119420038D02*
X107656265Y-119467657D01*
X107656265Y-119467657D02*
X107608646Y-119562895D01*
X107608646Y-119562895D02*
X107608646Y-119800990D01*
X107608646Y-119800990D02*
X107656265Y-119896228D01*
X107656265Y-119896228D02*
X107703884Y-119943847D01*
X107703884Y-119943847D02*
X107799122Y-119991466D01*
X107799122Y-119991466D02*
X107989598Y-119991466D01*
X107989598Y-119991466D02*
X108084836Y-119943847D01*
X108084836Y-119943847D02*
X108132455Y-119896228D01*
X108132455Y-119896228D02*
X108180074Y-119800990D01*
X108799122Y-119372419D02*
X108894360Y-119372419D01*
X108894360Y-119372419D02*
X108989598Y-119420038D01*
X108989598Y-119420038D02*
X109037217Y-119467657D01*
X109037217Y-119467657D02*
X109084836Y-119562895D01*
X109084836Y-119562895D02*
X109132455Y-119753371D01*
X109132455Y-119753371D02*
X109132455Y-119991466D01*
X109132455Y-119991466D02*
X109084836Y-120181942D01*
X109084836Y-120181942D02*
X109037217Y-120277180D01*
X109037217Y-120277180D02*
X108989598Y-120324800D01*
X108989598Y-120324800D02*
X108894360Y-120372419D01*
X108894360Y-120372419D02*
X108799122Y-120372419D01*
X108799122Y-120372419D02*
X108703884Y-120324800D01*
X108703884Y-120324800D02*
X108656265Y-120277180D01*
X108656265Y-120277180D02*
X108608646Y-120181942D01*
X108608646Y-120181942D02*
X108561027Y-119991466D01*
X108561027Y-119991466D02*
X108561027Y-119753371D01*
X108561027Y-119753371D02*
X108608646Y-119562895D01*
X108608646Y-119562895D02*
X108656265Y-119467657D01*
X108656265Y-119467657D02*
X108703884Y-119420038D01*
X108703884Y-119420038D02*
X108799122Y-119372419D01*
X109989598Y-119372419D02*
X109799122Y-119372419D01*
X109799122Y-119372419D02*
X109703884Y-119420038D01*
X109703884Y-119420038D02*
X109656265Y-119467657D01*
X109656265Y-119467657D02*
X109561027Y-119610514D01*
X109561027Y-119610514D02*
X109513408Y-119800990D01*
X109513408Y-119800990D02*
X109513408Y-120181942D01*
X109513408Y-120181942D02*
X109561027Y-120277180D01*
X109561027Y-120277180D02*
X109608646Y-120324800D01*
X109608646Y-120324800D02*
X109703884Y-120372419D01*
X109703884Y-120372419D02*
X109894360Y-120372419D01*
X109894360Y-120372419D02*
X109989598Y-120324800D01*
X109989598Y-120324800D02*
X110037217Y-120277180D01*
X110037217Y-120277180D02*
X110084836Y-120181942D01*
X110084836Y-120181942D02*
X110084836Y-119943847D01*
X110084836Y-119943847D02*
X110037217Y-119848609D01*
X110037217Y-119848609D02*
X109989598Y-119800990D01*
X109989598Y-119800990D02*
X109894360Y-119753371D01*
X109894360Y-119753371D02*
X109703884Y-119753371D01*
X109703884Y-119753371D02*
X109608646Y-119800990D01*
X109608646Y-119800990D02*
X109561027Y-119848609D01*
X109561027Y-119848609D02*
X109513408Y-119943847D01*
X110465789Y-119467657D02*
X110513408Y-119420038D01*
X110513408Y-119420038D02*
X110608646Y-119372419D01*
X110608646Y-119372419D02*
X110846741Y-119372419D01*
X110846741Y-119372419D02*
X110941979Y-119420038D01*
X110941979Y-119420038D02*
X110989598Y-119467657D01*
X110989598Y-119467657D02*
X111037217Y-119562895D01*
X111037217Y-119562895D02*
X111037217Y-119658133D01*
X111037217Y-119658133D02*
X110989598Y-119800990D01*
X110989598Y-119800990D02*
X110418170Y-120372419D01*
X110418170Y-120372419D02*
X111037217Y-120372419D01*
X111894360Y-119705752D02*
X111894360Y-120372419D01*
X111656265Y-119324800D02*
X111418170Y-120039085D01*
X111418170Y-120039085D02*
X112037217Y-120039085D01*
D11*
X107445863Y-118767219D02*
X106969673Y-118767219D01*
X106969673Y-118767219D02*
X106969673Y-117767219D01*
X107969673Y-117767219D02*
X108160149Y-117767219D01*
X108160149Y-117767219D02*
X108255387Y-117814838D01*
X108255387Y-117814838D02*
X108350625Y-117910076D01*
X108350625Y-117910076D02*
X108398244Y-118100552D01*
X108398244Y-118100552D02*
X108398244Y-118433885D01*
X108398244Y-118433885D02*
X108350625Y-118624361D01*
X108350625Y-118624361D02*
X108255387Y-118719600D01*
X108255387Y-118719600D02*
X108160149Y-118767219D01*
X108160149Y-118767219D02*
X107969673Y-118767219D01*
X107969673Y-118767219D02*
X107874435Y-118719600D01*
X107874435Y-118719600D02*
X107779197Y-118624361D01*
X107779197Y-118624361D02*
X107731578Y-118433885D01*
X107731578Y-118433885D02*
X107731578Y-118100552D01*
X107731578Y-118100552D02*
X107779197Y-117910076D01*
X107779197Y-117910076D02*
X107874435Y-117814838D01*
X107874435Y-117814838D02*
X107969673Y-117767219D01*
X108826816Y-118386266D02*
X109588721Y-118386266D01*
X110636339Y-118671980D02*
X110588720Y-118719600D01*
X110588720Y-118719600D02*
X110445863Y-118767219D01*
X110445863Y-118767219D02*
X110350625Y-118767219D01*
X110350625Y-118767219D02*
X110207768Y-118719600D01*
X110207768Y-118719600D02*
X110112530Y-118624361D01*
X110112530Y-118624361D02*
X110064911Y-118529123D01*
X110064911Y-118529123D02*
X110017292Y-118338647D01*
X110017292Y-118338647D02*
X110017292Y-118195790D01*
X110017292Y-118195790D02*
X110064911Y-118005314D01*
X110064911Y-118005314D02*
X110112530Y-117910076D01*
X110112530Y-117910076D02*
X110207768Y-117814838D01*
X110207768Y-117814838D02*
X110350625Y-117767219D01*
X110350625Y-117767219D02*
X110445863Y-117767219D01*
X110445863Y-117767219D02*
X110588720Y-117814838D01*
X110588720Y-117814838D02*
X110636339Y-117862457D01*
X111017292Y-118481504D02*
X111493482Y-118481504D01*
X110922054Y-118767219D02*
X111255387Y-117767219D01*
X111255387Y-117767219D02*
X111588720Y-118767219D01*
X111779197Y-117767219D02*
X112350625Y-117767219D01*
X112064911Y-118767219D02*
X112064911Y-117767219D01*
X112683959Y-118243409D02*
X113017292Y-118243409D01*
X113160149Y-118767219D02*
X112683959Y-118767219D01*
X112683959Y-118767219D02*
X112683959Y-117767219D01*
X112683959Y-117767219D02*
X113160149Y-117767219D01*
X114207769Y-117767219D02*
X114541102Y-118767219D01*
X114541102Y-118767219D02*
X114874435Y-117767219D01*
X115731578Y-118767219D02*
X115160150Y-118767219D01*
X115445864Y-118767219D02*
X115445864Y-117767219D01*
X115445864Y-117767219D02*
X115350626Y-117910076D01*
X115350626Y-117910076D02*
X115255388Y-118005314D01*
X115255388Y-118005314D02*
X115160150Y-118052933D01*
D12*
X176826540Y-79447869D02*
X176826540Y-80019297D01*
X175826540Y-79733583D02*
X176826540Y-79733583D01*
X176826540Y-80257393D02*
X175826540Y-80924059D01*
X176826540Y-80924059D02*
X175826540Y-80257393D01*
X174526540Y-79962154D02*
X175002731Y-79628821D01*
X174526540Y-79390726D02*
X175526540Y-79390726D01*
X175526540Y-79390726D02*
X175526540Y-79771678D01*
X175526540Y-79771678D02*
X175478921Y-79866916D01*
X175478921Y-79866916D02*
X175431302Y-79914535D01*
X175431302Y-79914535D02*
X175336064Y-79962154D01*
X175336064Y-79962154D02*
X175193207Y-79962154D01*
X175193207Y-79962154D02*
X175097969Y-79914535D01*
X175097969Y-79914535D02*
X175050350Y-79866916D01*
X175050350Y-79866916D02*
X175002731Y-79771678D01*
X175002731Y-79771678D02*
X175002731Y-79390726D01*
X175526540Y-80295488D02*
X174526540Y-80962154D01*
X175526540Y-80962154D02*
X174526540Y-80295488D01*
X170449160Y-79343107D02*
X170401540Y-79485964D01*
X170401540Y-79485964D02*
X170401540Y-79724059D01*
X170401540Y-79724059D02*
X170449160Y-79819297D01*
X170449160Y-79819297D02*
X170496779Y-79866916D01*
X170496779Y-79866916D02*
X170592017Y-79914535D01*
X170592017Y-79914535D02*
X170687255Y-79914535D01*
X170687255Y-79914535D02*
X170782493Y-79866916D01*
X170782493Y-79866916D02*
X170830112Y-79819297D01*
X170830112Y-79819297D02*
X170877731Y-79724059D01*
X170877731Y-79724059D02*
X170925350Y-79533583D01*
X170925350Y-79533583D02*
X170972969Y-79438345D01*
X170972969Y-79438345D02*
X171020588Y-79390726D01*
X171020588Y-79390726D02*
X171115826Y-79343107D01*
X171115826Y-79343107D02*
X171211064Y-79343107D01*
X171211064Y-79343107D02*
X171306302Y-79390726D01*
X171306302Y-79390726D02*
X171353921Y-79438345D01*
X171353921Y-79438345D02*
X171401540Y-79533583D01*
X171401540Y-79533583D02*
X171401540Y-79771678D01*
X171401540Y-79771678D02*
X171353921Y-79914535D01*
X171401540Y-80247869D02*
X170401540Y-80485964D01*
X170401540Y-80485964D02*
X171115826Y-80676440D01*
X171115826Y-80676440D02*
X170401540Y-80866916D01*
X170401540Y-80866916D02*
X171401540Y-81105012D01*
X171401540Y-81676440D02*
X171401540Y-81866916D01*
X171401540Y-81866916D02*
X171353921Y-81962154D01*
X171353921Y-81962154D02*
X171258683Y-82057392D01*
X171258683Y-82057392D02*
X171068207Y-82105011D01*
X171068207Y-82105011D02*
X170734874Y-82105011D01*
X170734874Y-82105011D02*
X170544398Y-82057392D01*
X170544398Y-82057392D02*
X170449160Y-81962154D01*
X170449160Y-81962154D02*
X170401540Y-81866916D01*
X170401540Y-81866916D02*
X170401540Y-81676440D01*
X170401540Y-81676440D02*
X170449160Y-81581202D01*
X170449160Y-81581202D02*
X170544398Y-81485964D01*
X170544398Y-81485964D02*
X170734874Y-81438345D01*
X170734874Y-81438345D02*
X171068207Y-81438345D01*
X171068207Y-81438345D02*
X171258683Y-81485964D01*
X171258683Y-81485964D02*
X171353921Y-81581202D01*
X171353921Y-81581202D02*
X171401540Y-81676440D01*
D10*
X163328884Y-121472419D02*
X163328884Y-120472419D01*
X163328884Y-120472419D02*
X163662217Y-121186704D01*
X163662217Y-121186704D02*
X163995550Y-120472419D01*
X163995550Y-120472419D02*
X163995550Y-121472419D01*
X165043169Y-121377180D02*
X164995550Y-121424800D01*
X164995550Y-121424800D02*
X164852693Y-121472419D01*
X164852693Y-121472419D02*
X164757455Y-121472419D01*
X164757455Y-121472419D02*
X164614598Y-121424800D01*
X164614598Y-121424800D02*
X164519360Y-121329561D01*
X164519360Y-121329561D02*
X164471741Y-121234323D01*
X164471741Y-121234323D02*
X164424122Y-121043847D01*
X164424122Y-121043847D02*
X164424122Y-120900990D01*
X164424122Y-120900990D02*
X164471741Y-120710514D01*
X164471741Y-120710514D02*
X164519360Y-120615276D01*
X164519360Y-120615276D02*
X164614598Y-120520038D01*
X164614598Y-120520038D02*
X164757455Y-120472419D01*
X164757455Y-120472419D02*
X164852693Y-120472419D01*
X164852693Y-120472419D02*
X164995550Y-120520038D01*
X164995550Y-120520038D02*
X165043169Y-120567657D01*
X165471741Y-120472419D02*
X165471741Y-121281942D01*
X165471741Y-121281942D02*
X165519360Y-121377180D01*
X165519360Y-121377180D02*
X165566979Y-121424800D01*
X165566979Y-121424800D02*
X165662217Y-121472419D01*
X165662217Y-121472419D02*
X165852693Y-121472419D01*
X165852693Y-121472419D02*
X165947931Y-121424800D01*
X165947931Y-121424800D02*
X165995550Y-121377180D01*
X165995550Y-121377180D02*
X166043169Y-121281942D01*
X166043169Y-121281942D02*
X166043169Y-120472419D01*
X167852693Y-121472419D02*
X167519360Y-120996228D01*
X167281265Y-121472419D02*
X167281265Y-120472419D01*
X167281265Y-120472419D02*
X167662217Y-120472419D01*
X167662217Y-120472419D02*
X167757455Y-120520038D01*
X167757455Y-120520038D02*
X167805074Y-120567657D01*
X167805074Y-120567657D02*
X167852693Y-120662895D01*
X167852693Y-120662895D02*
X167852693Y-120805752D01*
X167852693Y-120805752D02*
X167805074Y-120900990D01*
X167805074Y-120900990D02*
X167757455Y-120948609D01*
X167757455Y-120948609D02*
X167662217Y-120996228D01*
X167662217Y-120996228D02*
X167281265Y-120996228D01*
X168233646Y-121424800D02*
X168376503Y-121472419D01*
X168376503Y-121472419D02*
X168614598Y-121472419D01*
X168614598Y-121472419D02*
X168709836Y-121424800D01*
X168709836Y-121424800D02*
X168757455Y-121377180D01*
X168757455Y-121377180D02*
X168805074Y-121281942D01*
X168805074Y-121281942D02*
X168805074Y-121186704D01*
X168805074Y-121186704D02*
X168757455Y-121091466D01*
X168757455Y-121091466D02*
X168709836Y-121043847D01*
X168709836Y-121043847D02*
X168614598Y-120996228D01*
X168614598Y-120996228D02*
X168424122Y-120948609D01*
X168424122Y-120948609D02*
X168328884Y-120900990D01*
X168328884Y-120900990D02*
X168281265Y-120853371D01*
X168281265Y-120853371D02*
X168233646Y-120758133D01*
X168233646Y-120758133D02*
X168233646Y-120662895D01*
X168233646Y-120662895D02*
X168281265Y-120567657D01*
X168281265Y-120567657D02*
X168328884Y-120520038D01*
X168328884Y-120520038D02*
X168424122Y-120472419D01*
X168424122Y-120472419D02*
X168662217Y-120472419D01*
X168662217Y-120472419D02*
X168805074Y-120520038D01*
X169090789Y-120472419D02*
X169662217Y-120472419D01*
X169376503Y-121472419D02*
X169376503Y-120472419D01*
D12*
X169209104Y-79343107D02*
X169161484Y-79485964D01*
X169161484Y-79485964D02*
X169161484Y-79724059D01*
X169161484Y-79724059D02*
X169209104Y-79819297D01*
X169209104Y-79819297D02*
X169256723Y-79866916D01*
X169256723Y-79866916D02*
X169351961Y-79914535D01*
X169351961Y-79914535D02*
X169447199Y-79914535D01*
X169447199Y-79914535D02*
X169542437Y-79866916D01*
X169542437Y-79866916D02*
X169590056Y-79819297D01*
X169590056Y-79819297D02*
X169637675Y-79724059D01*
X169637675Y-79724059D02*
X169685294Y-79533583D01*
X169685294Y-79533583D02*
X169732913Y-79438345D01*
X169732913Y-79438345D02*
X169780532Y-79390726D01*
X169780532Y-79390726D02*
X169875770Y-79343107D01*
X169875770Y-79343107D02*
X169971008Y-79343107D01*
X169971008Y-79343107D02*
X170066246Y-79390726D01*
X170066246Y-79390726D02*
X170113865Y-79438345D01*
X170113865Y-79438345D02*
X170161484Y-79533583D01*
X170161484Y-79533583D02*
X170161484Y-79771678D01*
X170161484Y-79771678D02*
X170113865Y-79914535D01*
X170161484Y-80247869D02*
X169161484Y-80485964D01*
X169161484Y-80485964D02*
X169875770Y-80676440D01*
X169875770Y-80676440D02*
X169161484Y-80866916D01*
X169161484Y-80866916D02*
X170161484Y-81105012D01*
X169256723Y-82057392D02*
X169209104Y-82009773D01*
X169209104Y-82009773D02*
X169161484Y-81866916D01*
X169161484Y-81866916D02*
X169161484Y-81771678D01*
X169161484Y-81771678D02*
X169209104Y-81628821D01*
X169209104Y-81628821D02*
X169304342Y-81533583D01*
X169304342Y-81533583D02*
X169399580Y-81485964D01*
X169399580Y-81485964D02*
X169590056Y-81438345D01*
X169590056Y-81438345D02*
X169732913Y-81438345D01*
X169732913Y-81438345D02*
X169923389Y-81485964D01*
X169923389Y-81485964D02*
X170018627Y-81533583D01*
X170018627Y-81533583D02*
X170113865Y-81628821D01*
X170113865Y-81628821D02*
X170161484Y-81771678D01*
X170161484Y-81771678D02*
X170161484Y-81866916D01*
X170161484Y-81866916D02*
X170113865Y-82009773D01*
X170113865Y-82009773D02*
X170066246Y-82057392D01*
X169161484Y-82962154D02*
X169161484Y-82485964D01*
X169161484Y-82485964D02*
X170161484Y-82485964D01*
X169161484Y-83295488D02*
X170161484Y-83295488D01*
X169161484Y-83866916D02*
X169732913Y-83438345D01*
X170161484Y-83866916D02*
X169590056Y-83295488D01*
D10*
X128612217Y-122473609D02*
X128755074Y-122521228D01*
X128755074Y-122521228D02*
X128802693Y-122568847D01*
X128802693Y-122568847D02*
X128850312Y-122664085D01*
X128850312Y-122664085D02*
X128850312Y-122806942D01*
X128850312Y-122806942D02*
X128802693Y-122902180D01*
X128802693Y-122902180D02*
X128755074Y-122949800D01*
X128755074Y-122949800D02*
X128659836Y-122997419D01*
X128659836Y-122997419D02*
X128278884Y-122997419D01*
X128278884Y-122997419D02*
X128278884Y-121997419D01*
X128278884Y-121997419D02*
X128612217Y-121997419D01*
X128612217Y-121997419D02*
X128707455Y-122045038D01*
X128707455Y-122045038D02*
X128755074Y-122092657D01*
X128755074Y-122092657D02*
X128802693Y-122187895D01*
X128802693Y-122187895D02*
X128802693Y-122283133D01*
X128802693Y-122283133D02*
X128755074Y-122378371D01*
X128755074Y-122378371D02*
X128707455Y-122425990D01*
X128707455Y-122425990D02*
X128612217Y-122473609D01*
X128612217Y-122473609D02*
X128278884Y-122473609D01*
X129278884Y-121997419D02*
X129278884Y-122806942D01*
X129278884Y-122806942D02*
X129326503Y-122902180D01*
X129326503Y-122902180D02*
X129374122Y-122949800D01*
X129374122Y-122949800D02*
X129469360Y-122997419D01*
X129469360Y-122997419D02*
X129659836Y-122997419D01*
X129659836Y-122997419D02*
X129755074Y-122949800D01*
X129755074Y-122949800D02*
X129802693Y-122902180D01*
X129802693Y-122902180D02*
X129850312Y-122806942D01*
X129850312Y-122806942D02*
X129850312Y-121997419D01*
X130183646Y-121997419D02*
X130755074Y-121997419D01*
X130469360Y-122997419D02*
X130469360Y-121997419D01*
X130945551Y-121997419D02*
X131516979Y-121997419D01*
X131231265Y-122997419D02*
X131231265Y-121997419D01*
X132040789Y-121997419D02*
X132231265Y-121997419D01*
X132231265Y-121997419D02*
X132326503Y-122045038D01*
X132326503Y-122045038D02*
X132421741Y-122140276D01*
X132421741Y-122140276D02*
X132469360Y-122330752D01*
X132469360Y-122330752D02*
X132469360Y-122664085D01*
X132469360Y-122664085D02*
X132421741Y-122854561D01*
X132421741Y-122854561D02*
X132326503Y-122949800D01*
X132326503Y-122949800D02*
X132231265Y-122997419D01*
X132231265Y-122997419D02*
X132040789Y-122997419D01*
X132040789Y-122997419D02*
X131945551Y-122949800D01*
X131945551Y-122949800D02*
X131850313Y-122854561D01*
X131850313Y-122854561D02*
X131802694Y-122664085D01*
X131802694Y-122664085D02*
X131802694Y-122330752D01*
X131802694Y-122330752D02*
X131850313Y-122140276D01*
X131850313Y-122140276D02*
X131945551Y-122045038D01*
X131945551Y-122045038D02*
X132040789Y-121997419D01*
X132897932Y-122997419D02*
X132897932Y-121997419D01*
X132897932Y-121997419D02*
X133469360Y-122997419D01*
X133469360Y-122997419D02*
X133469360Y-121997419D01*
X134659837Y-122092657D02*
X134707456Y-122045038D01*
X134707456Y-122045038D02*
X134802694Y-121997419D01*
X134802694Y-121997419D02*
X135040789Y-121997419D01*
X135040789Y-121997419D02*
X135136027Y-122045038D01*
X135136027Y-122045038D02*
X135183646Y-122092657D01*
X135183646Y-122092657D02*
X135231265Y-122187895D01*
X135231265Y-122187895D02*
X135231265Y-122283133D01*
X135231265Y-122283133D02*
X135183646Y-122425990D01*
X135183646Y-122425990D02*
X134612218Y-122997419D01*
X134612218Y-122997419D02*
X135231265Y-122997419D01*
X113805074Y-108972419D02*
X113328884Y-108972419D01*
X113328884Y-108972419D02*
X113328884Y-107972419D01*
X114138408Y-108448609D02*
X114471741Y-108448609D01*
X114614598Y-108972419D02*
X114138408Y-108972419D01*
X114138408Y-108972419D02*
X114138408Y-107972419D01*
X114138408Y-107972419D02*
X114614598Y-107972419D01*
X115043170Y-108972419D02*
X115043170Y-107972419D01*
X115043170Y-107972419D02*
X115281265Y-107972419D01*
X115281265Y-107972419D02*
X115424122Y-108020038D01*
X115424122Y-108020038D02*
X115519360Y-108115276D01*
X115519360Y-108115276D02*
X115566979Y-108210514D01*
X115566979Y-108210514D02*
X115614598Y-108400990D01*
X115614598Y-108400990D02*
X115614598Y-108543847D01*
X115614598Y-108543847D02*
X115566979Y-108734323D01*
X115566979Y-108734323D02*
X115519360Y-108829561D01*
X115519360Y-108829561D02*
X115424122Y-108924800D01*
X115424122Y-108924800D02*
X115281265Y-108972419D01*
X115281265Y-108972419D02*
X115043170Y-108972419D01*
X116566979Y-108972419D02*
X115995551Y-108972419D01*
X116281265Y-108972419D02*
X116281265Y-107972419D01*
X116281265Y-107972419D02*
X116186027Y-108115276D01*
X116186027Y-108115276D02*
X116090789Y-108210514D01*
X116090789Y-108210514D02*
X115995551Y-108258133D01*
D12*
X167949160Y-79343107D02*
X167901540Y-79485964D01*
X167901540Y-79485964D02*
X167901540Y-79724059D01*
X167901540Y-79724059D02*
X167949160Y-79819297D01*
X167949160Y-79819297D02*
X167996779Y-79866916D01*
X167996779Y-79866916D02*
X168092017Y-79914535D01*
X168092017Y-79914535D02*
X168187255Y-79914535D01*
X168187255Y-79914535D02*
X168282493Y-79866916D01*
X168282493Y-79866916D02*
X168330112Y-79819297D01*
X168330112Y-79819297D02*
X168377731Y-79724059D01*
X168377731Y-79724059D02*
X168425350Y-79533583D01*
X168425350Y-79533583D02*
X168472969Y-79438345D01*
X168472969Y-79438345D02*
X168520588Y-79390726D01*
X168520588Y-79390726D02*
X168615826Y-79343107D01*
X168615826Y-79343107D02*
X168711064Y-79343107D01*
X168711064Y-79343107D02*
X168806302Y-79390726D01*
X168806302Y-79390726D02*
X168853921Y-79438345D01*
X168853921Y-79438345D02*
X168901540Y-79533583D01*
X168901540Y-79533583D02*
X168901540Y-79771678D01*
X168901540Y-79771678D02*
X168853921Y-79914535D01*
X168901540Y-80247869D02*
X167901540Y-80485964D01*
X167901540Y-80485964D02*
X168615826Y-80676440D01*
X168615826Y-80676440D02*
X167901540Y-80866916D01*
X167901540Y-80866916D02*
X168901540Y-81105012D01*
X167901540Y-81485964D02*
X168901540Y-81485964D01*
X168901540Y-81485964D02*
X168901540Y-81724059D01*
X168901540Y-81724059D02*
X168853921Y-81866916D01*
X168853921Y-81866916D02*
X168758683Y-81962154D01*
X168758683Y-81962154D02*
X168663445Y-82009773D01*
X168663445Y-82009773D02*
X168472969Y-82057392D01*
X168472969Y-82057392D02*
X168330112Y-82057392D01*
X168330112Y-82057392D02*
X168139636Y-82009773D01*
X168139636Y-82009773D02*
X168044398Y-81962154D01*
X168044398Y-81962154D02*
X167949160Y-81866916D01*
X167949160Y-81866916D02*
X167901540Y-81724059D01*
X167901540Y-81724059D02*
X167901540Y-81485964D01*
X167901540Y-82485964D02*
X168901540Y-82485964D01*
X168901540Y-83152630D02*
X168901540Y-83343106D01*
X168901540Y-83343106D02*
X168853921Y-83438344D01*
X168853921Y-83438344D02*
X168758683Y-83533582D01*
X168758683Y-83533582D02*
X168568207Y-83581201D01*
X168568207Y-83581201D02*
X168234874Y-83581201D01*
X168234874Y-83581201D02*
X168044398Y-83533582D01*
X168044398Y-83533582D02*
X167949160Y-83438344D01*
X167949160Y-83438344D02*
X167901540Y-83343106D01*
X167901540Y-83343106D02*
X167901540Y-83152630D01*
X167901540Y-83152630D02*
X167949160Y-83057392D01*
X167949160Y-83057392D02*
X168044398Y-82962154D01*
X168044398Y-82962154D02*
X168234874Y-82914535D01*
X168234874Y-82914535D02*
X168568207Y-82914535D01*
X168568207Y-82914535D02*
X168758683Y-82962154D01*
X168758683Y-82962154D02*
X168853921Y-83057392D01*
X168853921Y-83057392D02*
X168901540Y-83152630D01*
D10*
X185305074Y-85472419D02*
X184828884Y-85472419D01*
X184828884Y-85472419D02*
X184828884Y-84472419D01*
X185638408Y-84948609D02*
X185971741Y-84948609D01*
X186114598Y-85472419D02*
X185638408Y-85472419D01*
X185638408Y-85472419D02*
X185638408Y-84472419D01*
X185638408Y-84472419D02*
X186114598Y-84472419D01*
X186543170Y-85472419D02*
X186543170Y-84472419D01*
X186543170Y-84472419D02*
X186781265Y-84472419D01*
X186781265Y-84472419D02*
X186924122Y-84520038D01*
X186924122Y-84520038D02*
X187019360Y-84615276D01*
X187019360Y-84615276D02*
X187066979Y-84710514D01*
X187066979Y-84710514D02*
X187114598Y-84900990D01*
X187114598Y-84900990D02*
X187114598Y-85043847D01*
X187114598Y-85043847D02*
X187066979Y-85234323D01*
X187066979Y-85234323D02*
X187019360Y-85329561D01*
X187019360Y-85329561D02*
X186924122Y-85424800D01*
X186924122Y-85424800D02*
X186781265Y-85472419D01*
X186781265Y-85472419D02*
X186543170Y-85472419D01*
X188066979Y-85472419D02*
X187495551Y-85472419D01*
X187781265Y-85472419D02*
X187781265Y-84472419D01*
X187781265Y-84472419D02*
X187686027Y-84615276D01*
X187686027Y-84615276D02*
X187590789Y-84710514D01*
X187590789Y-84710514D02*
X187495551Y-84758133D01*
D12*
X173675350Y-79724059D02*
X173627731Y-79866916D01*
X173627731Y-79866916D02*
X173580112Y-79914535D01*
X173580112Y-79914535D02*
X173484874Y-79962154D01*
X173484874Y-79962154D02*
X173342017Y-79962154D01*
X173342017Y-79962154D02*
X173246779Y-79914535D01*
X173246779Y-79914535D02*
X173199160Y-79866916D01*
X173199160Y-79866916D02*
X173151540Y-79771678D01*
X173151540Y-79771678D02*
X173151540Y-79390726D01*
X173151540Y-79390726D02*
X174151540Y-79390726D01*
X174151540Y-79390726D02*
X174151540Y-79724059D01*
X174151540Y-79724059D02*
X174103921Y-79819297D01*
X174103921Y-79819297D02*
X174056302Y-79866916D01*
X174056302Y-79866916D02*
X173961064Y-79914535D01*
X173961064Y-79914535D02*
X173865826Y-79914535D01*
X173865826Y-79914535D02*
X173770588Y-79866916D01*
X173770588Y-79866916D02*
X173722969Y-79819297D01*
X173722969Y-79819297D02*
X173675350Y-79724059D01*
X173675350Y-79724059D02*
X173675350Y-79390726D01*
X174151540Y-80581202D02*
X174151540Y-80771678D01*
X174151540Y-80771678D02*
X174103921Y-80866916D01*
X174103921Y-80866916D02*
X174008683Y-80962154D01*
X174008683Y-80962154D02*
X173818207Y-81009773D01*
X173818207Y-81009773D02*
X173484874Y-81009773D01*
X173484874Y-81009773D02*
X173294398Y-80962154D01*
X173294398Y-80962154D02*
X173199160Y-80866916D01*
X173199160Y-80866916D02*
X173151540Y-80771678D01*
X173151540Y-80771678D02*
X173151540Y-80581202D01*
X173151540Y-80581202D02*
X173199160Y-80485964D01*
X173199160Y-80485964D02*
X173294398Y-80390726D01*
X173294398Y-80390726D02*
X173484874Y-80343107D01*
X173484874Y-80343107D02*
X173818207Y-80343107D01*
X173818207Y-80343107D02*
X174008683Y-80390726D01*
X174008683Y-80390726D02*
X174103921Y-80485964D01*
X174103921Y-80485964D02*
X174151540Y-80581202D01*
X174151540Y-81628821D02*
X174151540Y-81819297D01*
X174151540Y-81819297D02*
X174103921Y-81914535D01*
X174103921Y-81914535D02*
X174008683Y-82009773D01*
X174008683Y-82009773D02*
X173818207Y-82057392D01*
X173818207Y-82057392D02*
X173484874Y-82057392D01*
X173484874Y-82057392D02*
X173294398Y-82009773D01*
X173294398Y-82009773D02*
X173199160Y-81914535D01*
X173199160Y-81914535D02*
X173151540Y-81819297D01*
X173151540Y-81819297D02*
X173151540Y-81628821D01*
X173151540Y-81628821D02*
X173199160Y-81533583D01*
X173199160Y-81533583D02*
X173294398Y-81438345D01*
X173294398Y-81438345D02*
X173484874Y-81390726D01*
X173484874Y-81390726D02*
X173818207Y-81390726D01*
X173818207Y-81390726D02*
X174008683Y-81438345D01*
X174008683Y-81438345D02*
X174103921Y-81533583D01*
X174103921Y-81533583D02*
X174151540Y-81628821D01*
X174151540Y-82343107D02*
X174151540Y-82914535D01*
X173151540Y-82628821D02*
X174151540Y-82628821D01*
X174151540Y-83438345D02*
X174151540Y-83628821D01*
X174151540Y-83628821D02*
X174103921Y-83724059D01*
X174103921Y-83724059D02*
X174008683Y-83819297D01*
X174008683Y-83819297D02*
X173818207Y-83866916D01*
X173818207Y-83866916D02*
X173484874Y-83866916D01*
X173484874Y-83866916D02*
X173294398Y-83819297D01*
X173294398Y-83819297D02*
X173199160Y-83724059D01*
X173199160Y-83724059D02*
X173151540Y-83628821D01*
X173151540Y-83628821D02*
X173151540Y-83438345D01*
X173151540Y-83438345D02*
X173199160Y-83343107D01*
X173199160Y-83343107D02*
X173294398Y-83247869D01*
X173294398Y-83247869D02*
X173484874Y-83200250D01*
X173484874Y-83200250D02*
X173818207Y-83200250D01*
X173818207Y-83200250D02*
X174008683Y-83247869D01*
X174008683Y-83247869D02*
X174103921Y-83343107D01*
X174103921Y-83343107D02*
X174151540Y-83438345D01*
D10*
X118537217Y-122498609D02*
X118680074Y-122546228D01*
X118680074Y-122546228D02*
X118727693Y-122593847D01*
X118727693Y-122593847D02*
X118775312Y-122689085D01*
X118775312Y-122689085D02*
X118775312Y-122831942D01*
X118775312Y-122831942D02*
X118727693Y-122927180D01*
X118727693Y-122927180D02*
X118680074Y-122974800D01*
X118680074Y-122974800D02*
X118584836Y-123022419D01*
X118584836Y-123022419D02*
X118203884Y-123022419D01*
X118203884Y-123022419D02*
X118203884Y-122022419D01*
X118203884Y-122022419D02*
X118537217Y-122022419D01*
X118537217Y-122022419D02*
X118632455Y-122070038D01*
X118632455Y-122070038D02*
X118680074Y-122117657D01*
X118680074Y-122117657D02*
X118727693Y-122212895D01*
X118727693Y-122212895D02*
X118727693Y-122308133D01*
X118727693Y-122308133D02*
X118680074Y-122403371D01*
X118680074Y-122403371D02*
X118632455Y-122450990D01*
X118632455Y-122450990D02*
X118537217Y-122498609D01*
X118537217Y-122498609D02*
X118203884Y-122498609D01*
X119203884Y-122022419D02*
X119203884Y-122831942D01*
X119203884Y-122831942D02*
X119251503Y-122927180D01*
X119251503Y-122927180D02*
X119299122Y-122974800D01*
X119299122Y-122974800D02*
X119394360Y-123022419D01*
X119394360Y-123022419D02*
X119584836Y-123022419D01*
X119584836Y-123022419D02*
X119680074Y-122974800D01*
X119680074Y-122974800D02*
X119727693Y-122927180D01*
X119727693Y-122927180D02*
X119775312Y-122831942D01*
X119775312Y-122831942D02*
X119775312Y-122022419D01*
X120108646Y-122022419D02*
X120680074Y-122022419D01*
X120394360Y-123022419D02*
X120394360Y-122022419D01*
X120870551Y-122022419D02*
X121441979Y-122022419D01*
X121156265Y-123022419D02*
X121156265Y-122022419D01*
X121965789Y-122022419D02*
X122156265Y-122022419D01*
X122156265Y-122022419D02*
X122251503Y-122070038D01*
X122251503Y-122070038D02*
X122346741Y-122165276D01*
X122346741Y-122165276D02*
X122394360Y-122355752D01*
X122394360Y-122355752D02*
X122394360Y-122689085D01*
X122394360Y-122689085D02*
X122346741Y-122879561D01*
X122346741Y-122879561D02*
X122251503Y-122974800D01*
X122251503Y-122974800D02*
X122156265Y-123022419D01*
X122156265Y-123022419D02*
X121965789Y-123022419D01*
X121965789Y-123022419D02*
X121870551Y-122974800D01*
X121870551Y-122974800D02*
X121775313Y-122879561D01*
X121775313Y-122879561D02*
X121727694Y-122689085D01*
X121727694Y-122689085D02*
X121727694Y-122355752D01*
X121727694Y-122355752D02*
X121775313Y-122165276D01*
X121775313Y-122165276D02*
X121870551Y-122070038D01*
X121870551Y-122070038D02*
X121965789Y-122022419D01*
X122822932Y-123022419D02*
X122822932Y-122022419D01*
X122822932Y-122022419D02*
X123394360Y-123022419D01*
X123394360Y-123022419D02*
X123394360Y-122022419D01*
X124537218Y-122022419D02*
X125156265Y-122022419D01*
X125156265Y-122022419D02*
X124822932Y-122403371D01*
X124822932Y-122403371D02*
X124965789Y-122403371D01*
X124965789Y-122403371D02*
X125061027Y-122450990D01*
X125061027Y-122450990D02*
X125108646Y-122498609D01*
X125108646Y-122498609D02*
X125156265Y-122593847D01*
X125156265Y-122593847D02*
X125156265Y-122831942D01*
X125156265Y-122831942D02*
X125108646Y-122927180D01*
X125108646Y-122927180D02*
X125061027Y-122974800D01*
X125061027Y-122974800D02*
X124965789Y-123022419D01*
X124965789Y-123022419D02*
X124680075Y-123022419D01*
X124680075Y-123022419D02*
X124584837Y-122974800D01*
X124584837Y-122974800D02*
X124537218Y-122927180D01*
X149328884Y-121534919D02*
X149328884Y-120534919D01*
X149328884Y-120534919D02*
X149662217Y-121249204D01*
X149662217Y-121249204D02*
X149995550Y-120534919D01*
X149995550Y-120534919D02*
X149995550Y-121534919D01*
X151043169Y-121439680D02*
X150995550Y-121487300D01*
X150995550Y-121487300D02*
X150852693Y-121534919D01*
X150852693Y-121534919D02*
X150757455Y-121534919D01*
X150757455Y-121534919D02*
X150614598Y-121487300D01*
X150614598Y-121487300D02*
X150519360Y-121392061D01*
X150519360Y-121392061D02*
X150471741Y-121296823D01*
X150471741Y-121296823D02*
X150424122Y-121106347D01*
X150424122Y-121106347D02*
X150424122Y-120963490D01*
X150424122Y-120963490D02*
X150471741Y-120773014D01*
X150471741Y-120773014D02*
X150519360Y-120677776D01*
X150519360Y-120677776D02*
X150614598Y-120582538D01*
X150614598Y-120582538D02*
X150757455Y-120534919D01*
X150757455Y-120534919D02*
X150852693Y-120534919D01*
X150852693Y-120534919D02*
X150995550Y-120582538D01*
X150995550Y-120582538D02*
X151043169Y-120630157D01*
X151471741Y-120534919D02*
X151471741Y-121344442D01*
X151471741Y-121344442D02*
X151519360Y-121439680D01*
X151519360Y-121439680D02*
X151566979Y-121487300D01*
X151566979Y-121487300D02*
X151662217Y-121534919D01*
X151662217Y-121534919D02*
X151852693Y-121534919D01*
X151852693Y-121534919D02*
X151947931Y-121487300D01*
X151947931Y-121487300D02*
X151995550Y-121439680D01*
X151995550Y-121439680D02*
X152043169Y-121344442D01*
X152043169Y-121344442D02*
X152043169Y-120534919D01*
X153186027Y-120534919D02*
X153424122Y-121534919D01*
X153424122Y-121534919D02*
X153614598Y-120820633D01*
X153614598Y-120820633D02*
X153805074Y-121534919D01*
X153805074Y-121534919D02*
X154043170Y-120534919D01*
X154424122Y-121534919D02*
X154424122Y-120534919D01*
X154995550Y-121534919D02*
X154566979Y-120963490D01*
X154995550Y-120534919D02*
X154424122Y-121106347D01*
X155424122Y-120534919D02*
X155424122Y-121344442D01*
X155424122Y-121344442D02*
X155471741Y-121439680D01*
X155471741Y-121439680D02*
X155519360Y-121487300D01*
X155519360Y-121487300D02*
X155614598Y-121534919D01*
X155614598Y-121534919D02*
X155805074Y-121534919D01*
X155805074Y-121534919D02*
X155900312Y-121487300D01*
X155900312Y-121487300D02*
X155947931Y-121439680D01*
X155947931Y-121439680D02*
X155995550Y-121344442D01*
X155995550Y-121344442D02*
X155995550Y-120534919D01*
X156471741Y-121534919D02*
X156471741Y-120534919D01*
X156471741Y-120534919D02*
X156852693Y-120534919D01*
X156852693Y-120534919D02*
X156947931Y-120582538D01*
X156947931Y-120582538D02*
X156995550Y-120630157D01*
X156995550Y-120630157D02*
X157043169Y-120725395D01*
X157043169Y-120725395D02*
X157043169Y-120868252D01*
X157043169Y-120868252D02*
X156995550Y-120963490D01*
X156995550Y-120963490D02*
X156947931Y-121011109D01*
X156947931Y-121011109D02*
X156852693Y-121058728D01*
X156852693Y-121058728D02*
X156471741Y-121058728D01*
X138612217Y-122473609D02*
X138755074Y-122521228D01*
X138755074Y-122521228D02*
X138802693Y-122568847D01*
X138802693Y-122568847D02*
X138850312Y-122664085D01*
X138850312Y-122664085D02*
X138850312Y-122806942D01*
X138850312Y-122806942D02*
X138802693Y-122902180D01*
X138802693Y-122902180D02*
X138755074Y-122949800D01*
X138755074Y-122949800D02*
X138659836Y-122997419D01*
X138659836Y-122997419D02*
X138278884Y-122997419D01*
X138278884Y-122997419D02*
X138278884Y-121997419D01*
X138278884Y-121997419D02*
X138612217Y-121997419D01*
X138612217Y-121997419D02*
X138707455Y-122045038D01*
X138707455Y-122045038D02*
X138755074Y-122092657D01*
X138755074Y-122092657D02*
X138802693Y-122187895D01*
X138802693Y-122187895D02*
X138802693Y-122283133D01*
X138802693Y-122283133D02*
X138755074Y-122378371D01*
X138755074Y-122378371D02*
X138707455Y-122425990D01*
X138707455Y-122425990D02*
X138612217Y-122473609D01*
X138612217Y-122473609D02*
X138278884Y-122473609D01*
X139278884Y-121997419D02*
X139278884Y-122806942D01*
X139278884Y-122806942D02*
X139326503Y-122902180D01*
X139326503Y-122902180D02*
X139374122Y-122949800D01*
X139374122Y-122949800D02*
X139469360Y-122997419D01*
X139469360Y-122997419D02*
X139659836Y-122997419D01*
X139659836Y-122997419D02*
X139755074Y-122949800D01*
X139755074Y-122949800D02*
X139802693Y-122902180D01*
X139802693Y-122902180D02*
X139850312Y-122806942D01*
X139850312Y-122806942D02*
X139850312Y-121997419D01*
X140183646Y-121997419D02*
X140755074Y-121997419D01*
X140469360Y-122997419D02*
X140469360Y-121997419D01*
X140945551Y-121997419D02*
X141516979Y-121997419D01*
X141231265Y-122997419D02*
X141231265Y-121997419D01*
X142040789Y-121997419D02*
X142231265Y-121997419D01*
X142231265Y-121997419D02*
X142326503Y-122045038D01*
X142326503Y-122045038D02*
X142421741Y-122140276D01*
X142421741Y-122140276D02*
X142469360Y-122330752D01*
X142469360Y-122330752D02*
X142469360Y-122664085D01*
X142469360Y-122664085D02*
X142421741Y-122854561D01*
X142421741Y-122854561D02*
X142326503Y-122949800D01*
X142326503Y-122949800D02*
X142231265Y-122997419D01*
X142231265Y-122997419D02*
X142040789Y-122997419D01*
X142040789Y-122997419D02*
X141945551Y-122949800D01*
X141945551Y-122949800D02*
X141850313Y-122854561D01*
X141850313Y-122854561D02*
X141802694Y-122664085D01*
X141802694Y-122664085D02*
X141802694Y-122330752D01*
X141802694Y-122330752D02*
X141850313Y-122140276D01*
X141850313Y-122140276D02*
X141945551Y-122045038D01*
X141945551Y-122045038D02*
X142040789Y-121997419D01*
X142897932Y-122997419D02*
X142897932Y-121997419D01*
X142897932Y-121997419D02*
X143469360Y-122997419D01*
X143469360Y-122997419D02*
X143469360Y-121997419D01*
X145231265Y-122997419D02*
X144659837Y-122997419D01*
X144945551Y-122997419D02*
X144945551Y-121997419D01*
X144945551Y-121997419D02*
X144850313Y-122140276D01*
X144850313Y-122140276D02*
X144755075Y-122235514D01*
X144755075Y-122235514D02*
X144659837Y-122283133D01*
D12*
X178078921Y-79914535D02*
X178126540Y-79819297D01*
X178126540Y-79819297D02*
X178126540Y-79676440D01*
X178126540Y-79676440D02*
X178078921Y-79533583D01*
X178078921Y-79533583D02*
X177983683Y-79438345D01*
X177983683Y-79438345D02*
X177888445Y-79390726D01*
X177888445Y-79390726D02*
X177697969Y-79343107D01*
X177697969Y-79343107D02*
X177555112Y-79343107D01*
X177555112Y-79343107D02*
X177364636Y-79390726D01*
X177364636Y-79390726D02*
X177269398Y-79438345D01*
X177269398Y-79438345D02*
X177174160Y-79533583D01*
X177174160Y-79533583D02*
X177126540Y-79676440D01*
X177126540Y-79676440D02*
X177126540Y-79771678D01*
X177126540Y-79771678D02*
X177174160Y-79914535D01*
X177174160Y-79914535D02*
X177221779Y-79962154D01*
X177221779Y-79962154D02*
X177555112Y-79962154D01*
X177555112Y-79962154D02*
X177555112Y-79771678D01*
X177126540Y-80390726D02*
X178126540Y-80390726D01*
X178126540Y-80390726D02*
X177126540Y-80962154D01*
X177126540Y-80962154D02*
X178126540Y-80962154D01*
X177126540Y-81438345D02*
X178126540Y-81438345D01*
X178126540Y-81438345D02*
X178126540Y-81676440D01*
X178126540Y-81676440D02*
X178078921Y-81819297D01*
X178078921Y-81819297D02*
X177983683Y-81914535D01*
X177983683Y-81914535D02*
X177888445Y-81962154D01*
X177888445Y-81962154D02*
X177697969Y-82009773D01*
X177697969Y-82009773D02*
X177555112Y-82009773D01*
X177555112Y-82009773D02*
X177364636Y-81962154D01*
X177364636Y-81962154D02*
X177269398Y-81914535D01*
X177269398Y-81914535D02*
X177174160Y-81819297D01*
X177174160Y-81819297D02*
X177126540Y-81676440D01*
X177126540Y-81676440D02*
X177126540Y-81438345D01*
X167401540Y-79295488D02*
X167401540Y-79914535D01*
X167401540Y-79914535D02*
X167020588Y-79581202D01*
X167020588Y-79581202D02*
X167020588Y-79724059D01*
X167020588Y-79724059D02*
X166972969Y-79819297D01*
X166972969Y-79819297D02*
X166925350Y-79866916D01*
X166925350Y-79866916D02*
X166830112Y-79914535D01*
X166830112Y-79914535D02*
X166592017Y-79914535D01*
X166592017Y-79914535D02*
X166496779Y-79866916D01*
X166496779Y-79866916D02*
X166449160Y-79819297D01*
X166449160Y-79819297D02*
X166401540Y-79724059D01*
X166401540Y-79724059D02*
X166401540Y-79438345D01*
X166401540Y-79438345D02*
X166449160Y-79343107D01*
X166449160Y-79343107D02*
X166496779Y-79295488D01*
X167068207Y-80247869D02*
X166401540Y-80485964D01*
X166401540Y-80485964D02*
X167068207Y-80724059D01*
X167401540Y-81009774D02*
X167401540Y-81628821D01*
X167401540Y-81628821D02*
X167020588Y-81295488D01*
X167020588Y-81295488D02*
X167020588Y-81438345D01*
X167020588Y-81438345D02*
X166972969Y-81533583D01*
X166972969Y-81533583D02*
X166925350Y-81581202D01*
X166925350Y-81581202D02*
X166830112Y-81628821D01*
X166830112Y-81628821D02*
X166592017Y-81628821D01*
X166592017Y-81628821D02*
X166496779Y-81581202D01*
X166496779Y-81581202D02*
X166449160Y-81533583D01*
X166449160Y-81533583D02*
X166401540Y-81438345D01*
X166401540Y-81438345D02*
X166401540Y-81152631D01*
X166401540Y-81152631D02*
X166449160Y-81057393D01*
X166449160Y-81057393D02*
X166496779Y-81009774D01*
D10*
X109805074Y-93972419D02*
X109328884Y-93972419D01*
X109328884Y-93972419D02*
X109328884Y-92972419D01*
X110138408Y-93448609D02*
X110471741Y-93448609D01*
X110614598Y-93972419D02*
X110138408Y-93972419D01*
X110138408Y-93972419D02*
X110138408Y-92972419D01*
X110138408Y-92972419D02*
X110614598Y-92972419D01*
X111043170Y-93972419D02*
X111043170Y-92972419D01*
X111043170Y-92972419D02*
X111281265Y-92972419D01*
X111281265Y-92972419D02*
X111424122Y-93020038D01*
X111424122Y-93020038D02*
X111519360Y-93115276D01*
X111519360Y-93115276D02*
X111566979Y-93210514D01*
X111566979Y-93210514D02*
X111614598Y-93400990D01*
X111614598Y-93400990D02*
X111614598Y-93543847D01*
X111614598Y-93543847D02*
X111566979Y-93734323D01*
X111566979Y-93734323D02*
X111519360Y-93829561D01*
X111519360Y-93829561D02*
X111424122Y-93924800D01*
X111424122Y-93924800D02*
X111281265Y-93972419D01*
X111281265Y-93972419D02*
X111043170Y-93972419D01*
X111947932Y-92972419D02*
X112566979Y-92972419D01*
X112566979Y-92972419D02*
X112233646Y-93353371D01*
X112233646Y-93353371D02*
X112376503Y-93353371D01*
X112376503Y-93353371D02*
X112471741Y-93400990D01*
X112471741Y-93400990D02*
X112519360Y-93448609D01*
X112519360Y-93448609D02*
X112566979Y-93543847D01*
X112566979Y-93543847D02*
X112566979Y-93781942D01*
X112566979Y-93781942D02*
X112519360Y-93877180D01*
X112519360Y-93877180D02*
X112471741Y-93924800D01*
X112471741Y-93924800D02*
X112376503Y-93972419D01*
X112376503Y-93972419D02*
X112090789Y-93972419D01*
X112090789Y-93972419D02*
X111995551Y-93924800D01*
X111995551Y-93924800D02*
X111947932Y-93877180D01*
D12*
X171651540Y-79390726D02*
X172651540Y-79390726D01*
X172651540Y-79390726D02*
X171651540Y-79962154D01*
X171651540Y-79962154D02*
X172651540Y-79962154D01*
X171651540Y-81009773D02*
X172127731Y-80676440D01*
X171651540Y-80438345D02*
X172651540Y-80438345D01*
X172651540Y-80438345D02*
X172651540Y-80819297D01*
X172651540Y-80819297D02*
X172603921Y-80914535D01*
X172603921Y-80914535D02*
X172556302Y-80962154D01*
X172556302Y-80962154D02*
X172461064Y-81009773D01*
X172461064Y-81009773D02*
X172318207Y-81009773D01*
X172318207Y-81009773D02*
X172222969Y-80962154D01*
X172222969Y-80962154D02*
X172175350Y-80914535D01*
X172175350Y-80914535D02*
X172127731Y-80819297D01*
X172127731Y-80819297D02*
X172127731Y-80438345D01*
X171699160Y-81390726D02*
X171651540Y-81533583D01*
X171651540Y-81533583D02*
X171651540Y-81771678D01*
X171651540Y-81771678D02*
X171699160Y-81866916D01*
X171699160Y-81866916D02*
X171746779Y-81914535D01*
X171746779Y-81914535D02*
X171842017Y-81962154D01*
X171842017Y-81962154D02*
X171937255Y-81962154D01*
X171937255Y-81962154D02*
X172032493Y-81914535D01*
X172032493Y-81914535D02*
X172080112Y-81866916D01*
X172080112Y-81866916D02*
X172127731Y-81771678D01*
X172127731Y-81771678D02*
X172175350Y-81581202D01*
X172175350Y-81581202D02*
X172222969Y-81485964D01*
X172222969Y-81485964D02*
X172270588Y-81438345D01*
X172270588Y-81438345D02*
X172365826Y-81390726D01*
X172365826Y-81390726D02*
X172461064Y-81390726D01*
X172461064Y-81390726D02*
X172556302Y-81438345D01*
X172556302Y-81438345D02*
X172603921Y-81485964D01*
X172603921Y-81485964D02*
X172651540Y-81581202D01*
X172651540Y-81581202D02*
X172651540Y-81819297D01*
X172651540Y-81819297D02*
X172603921Y-81962154D01*
X172651540Y-82247869D02*
X172651540Y-82819297D01*
X171651540Y-82533583D02*
X172651540Y-82533583D01*
D13*
X164659819Y-77833333D02*
X165374104Y-77833333D01*
X165374104Y-77833333D02*
X165516961Y-77880952D01*
X165516961Y-77880952D02*
X165612200Y-77976190D01*
X165612200Y-77976190D02*
X165659819Y-78119047D01*
X165659819Y-78119047D02*
X165659819Y-78214285D01*
X164659819Y-77452380D02*
X164659819Y-76833333D01*
X164659819Y-76833333D02*
X165040771Y-77166666D01*
X165040771Y-77166666D02*
X165040771Y-77023809D01*
X165040771Y-77023809D02*
X165088390Y-76928571D01*
X165088390Y-76928571D02*
X165136009Y-76880952D01*
X165136009Y-76880952D02*
X165231247Y-76833333D01*
X165231247Y-76833333D02*
X165469342Y-76833333D01*
X165469342Y-76833333D02*
X165564580Y-76880952D01*
X165564580Y-76880952D02*
X165612200Y-76928571D01*
X165612200Y-76928571D02*
X165659819Y-77023809D01*
X165659819Y-77023809D02*
X165659819Y-77309523D01*
X165659819Y-77309523D02*
X165612200Y-77404761D01*
X165612200Y-77404761D02*
X165564580Y-77452380D01*
X132566667Y-116069700D02*
X132709524Y-116117319D01*
X132709524Y-116117319D02*
X132947619Y-116117319D01*
X132947619Y-116117319D02*
X133042857Y-116069700D01*
X133042857Y-116069700D02*
X133090476Y-116022080D01*
X133090476Y-116022080D02*
X133138095Y-115926842D01*
X133138095Y-115926842D02*
X133138095Y-115831604D01*
X133138095Y-115831604D02*
X133090476Y-115736366D01*
X133090476Y-115736366D02*
X133042857Y-115688747D01*
X133042857Y-115688747D02*
X132947619Y-115641128D01*
X132947619Y-115641128D02*
X132757143Y-115593509D01*
X132757143Y-115593509D02*
X132661905Y-115545890D01*
X132661905Y-115545890D02*
X132614286Y-115498271D01*
X132614286Y-115498271D02*
X132566667Y-115403033D01*
X132566667Y-115403033D02*
X132566667Y-115307795D01*
X132566667Y-115307795D02*
X132614286Y-115212557D01*
X132614286Y-115212557D02*
X132661905Y-115164938D01*
X132661905Y-115164938D02*
X132757143Y-115117319D01*
X132757143Y-115117319D02*
X132995238Y-115117319D01*
X132995238Y-115117319D02*
X133138095Y-115164938D01*
X133471429Y-115117319D02*
X133709524Y-116117319D01*
X133709524Y-116117319D02*
X133900000Y-115403033D01*
X133900000Y-115403033D02*
X134090476Y-116117319D01*
X134090476Y-116117319D02*
X134328572Y-115117319D01*
X135138095Y-115450652D02*
X135138095Y-116117319D01*
X134900000Y-115069700D02*
X134661905Y-115783985D01*
X134661905Y-115783985D02*
X135280952Y-115783985D01*
X156428628Y-104551190D02*
X156904819Y-104551190D01*
X155904819Y-104884523D02*
X156428628Y-104551190D01*
X156428628Y-104551190D02*
X155904819Y-104217857D01*
X156904819Y-103360714D02*
X156904819Y-103932142D01*
X156904819Y-103646428D02*
X155904819Y-103646428D01*
X155904819Y-103646428D02*
X156047676Y-103741666D01*
X156047676Y-103741666D02*
X156142914Y-103836904D01*
X156142914Y-103836904D02*
X156190533Y-103932142D01*
X124220833Y-86159579D02*
X124173214Y-86207199D01*
X124173214Y-86207199D02*
X124030357Y-86254818D01*
X124030357Y-86254818D02*
X123935119Y-86254818D01*
X123935119Y-86254818D02*
X123792262Y-86207199D01*
X123792262Y-86207199D02*
X123697024Y-86111960D01*
X123697024Y-86111960D02*
X123649405Y-86016722D01*
X123649405Y-86016722D02*
X123601786Y-85826246D01*
X123601786Y-85826246D02*
X123601786Y-85683389D01*
X123601786Y-85683389D02*
X123649405Y-85492913D01*
X123649405Y-85492913D02*
X123697024Y-85397675D01*
X123697024Y-85397675D02*
X123792262Y-85302437D01*
X123792262Y-85302437D02*
X123935119Y-85254818D01*
X123935119Y-85254818D02*
X124030357Y-85254818D01*
X124030357Y-85254818D02*
X124173214Y-85302437D01*
X124173214Y-85302437D02*
X124220833Y-85350056D01*
X124792262Y-85683389D02*
X124697024Y-85635770D01*
X124697024Y-85635770D02*
X124649405Y-85588151D01*
X124649405Y-85588151D02*
X124601786Y-85492913D01*
X124601786Y-85492913D02*
X124601786Y-85445294D01*
X124601786Y-85445294D02*
X124649405Y-85350056D01*
X124649405Y-85350056D02*
X124697024Y-85302437D01*
X124697024Y-85302437D02*
X124792262Y-85254818D01*
X124792262Y-85254818D02*
X124982738Y-85254818D01*
X124982738Y-85254818D02*
X125077976Y-85302437D01*
X125077976Y-85302437D02*
X125125595Y-85350056D01*
X125125595Y-85350056D02*
X125173214Y-85445294D01*
X125173214Y-85445294D02*
X125173214Y-85492913D01*
X125173214Y-85492913D02*
X125125595Y-85588151D01*
X125125595Y-85588151D02*
X125077976Y-85635770D01*
X125077976Y-85635770D02*
X124982738Y-85683389D01*
X124982738Y-85683389D02*
X124792262Y-85683389D01*
X124792262Y-85683389D02*
X124697024Y-85731008D01*
X124697024Y-85731008D02*
X124649405Y-85778627D01*
X124649405Y-85778627D02*
X124601786Y-85873865D01*
X124601786Y-85873865D02*
X124601786Y-86064341D01*
X124601786Y-86064341D02*
X124649405Y-86159579D01*
X124649405Y-86159579D02*
X124697024Y-86207199D01*
X124697024Y-86207199D02*
X124792262Y-86254818D01*
X124792262Y-86254818D02*
X124982738Y-86254818D01*
X124982738Y-86254818D02*
X125077976Y-86207199D01*
X125077976Y-86207199D02*
X125125595Y-86159579D01*
X125125595Y-86159579D02*
X125173214Y-86064341D01*
X125173214Y-86064341D02*
X125173214Y-85873865D01*
X125173214Y-85873865D02*
X125125595Y-85778627D01*
X125125595Y-85778627D02*
X125077976Y-85731008D01*
X125077976Y-85731008D02*
X124982738Y-85683389D01*
X128329819Y-111742857D02*
X127853628Y-112076190D01*
X128329819Y-112314285D02*
X127329819Y-112314285D01*
X127329819Y-112314285D02*
X127329819Y-111933333D01*
X127329819Y-111933333D02*
X127377438Y-111838095D01*
X127377438Y-111838095D02*
X127425057Y-111790476D01*
X127425057Y-111790476D02*
X127520295Y-111742857D01*
X127520295Y-111742857D02*
X127663152Y-111742857D01*
X127663152Y-111742857D02*
X127758390Y-111790476D01*
X127758390Y-111790476D02*
X127806009Y-111838095D01*
X127806009Y-111838095D02*
X127853628Y-111933333D01*
X127853628Y-111933333D02*
X127853628Y-112314285D01*
X128329819Y-110790476D02*
X128329819Y-111361904D01*
X128329819Y-111076190D02*
X127329819Y-111076190D01*
X127329819Y-111076190D02*
X127472676Y-111171428D01*
X127472676Y-111171428D02*
X127567914Y-111266666D01*
X127567914Y-111266666D02*
X127615533Y-111361904D01*
X127425057Y-110409523D02*
X127377438Y-110361904D01*
X127377438Y-110361904D02*
X127329819Y-110266666D01*
X127329819Y-110266666D02*
X127329819Y-110028571D01*
X127329819Y-110028571D02*
X127377438Y-109933333D01*
X127377438Y-109933333D02*
X127425057Y-109885714D01*
X127425057Y-109885714D02*
X127520295Y-109838095D01*
X127520295Y-109838095D02*
X127615533Y-109838095D01*
X127615533Y-109838095D02*
X127758390Y-109885714D01*
X127758390Y-109885714D02*
X128329819Y-110457142D01*
X128329819Y-110457142D02*
X128329819Y-109838095D01*
X130963095Y-76556819D02*
X131534523Y-76556819D01*
X131248809Y-77556819D02*
X131248809Y-76556819D01*
X131867857Y-77556819D02*
X131867857Y-76556819D01*
X131867857Y-76556819D02*
X132248809Y-76556819D01*
X132248809Y-76556819D02*
X132344047Y-76604438D01*
X132344047Y-76604438D02*
X132391666Y-76652057D01*
X132391666Y-76652057D02*
X132439285Y-76747295D01*
X132439285Y-76747295D02*
X132439285Y-76890152D01*
X132439285Y-76890152D02*
X132391666Y-76985390D01*
X132391666Y-76985390D02*
X132344047Y-77033009D01*
X132344047Y-77033009D02*
X132248809Y-77080628D01*
X132248809Y-77080628D02*
X131867857Y-77080628D01*
X132820238Y-76652057D02*
X132867857Y-76604438D01*
X132867857Y-76604438D02*
X132963095Y-76556819D01*
X132963095Y-76556819D02*
X133201190Y-76556819D01*
X133201190Y-76556819D02*
X133296428Y-76604438D01*
X133296428Y-76604438D02*
X133344047Y-76652057D01*
X133344047Y-76652057D02*
X133391666Y-76747295D01*
X133391666Y-76747295D02*
X133391666Y-76842533D01*
X133391666Y-76842533D02*
X133344047Y-76985390D01*
X133344047Y-76985390D02*
X132772619Y-77556819D01*
X132772619Y-77556819D02*
X133391666Y-77556819D01*
X154579819Y-110979166D02*
X154103628Y-111312499D01*
X154579819Y-111550594D02*
X153579819Y-111550594D01*
X153579819Y-111550594D02*
X153579819Y-111169642D01*
X153579819Y-111169642D02*
X153627438Y-111074404D01*
X153627438Y-111074404D02*
X153675057Y-111026785D01*
X153675057Y-111026785D02*
X153770295Y-110979166D01*
X153770295Y-110979166D02*
X153913152Y-110979166D01*
X153913152Y-110979166D02*
X154008390Y-111026785D01*
X154008390Y-111026785D02*
X154056009Y-111074404D01*
X154056009Y-111074404D02*
X154103628Y-111169642D01*
X154103628Y-111169642D02*
X154103628Y-111550594D01*
X154579819Y-110026785D02*
X154579819Y-110598213D01*
X154579819Y-110312499D02*
X153579819Y-110312499D01*
X153579819Y-110312499D02*
X153722676Y-110407737D01*
X153722676Y-110407737D02*
X153817914Y-110502975D01*
X153817914Y-110502975D02*
X153865533Y-110598213D01*
X133382142Y-99759580D02*
X133334523Y-99807200D01*
X133334523Y-99807200D02*
X133191666Y-99854819D01*
X133191666Y-99854819D02*
X133096428Y-99854819D01*
X133096428Y-99854819D02*
X132953571Y-99807200D01*
X132953571Y-99807200D02*
X132858333Y-99711961D01*
X132858333Y-99711961D02*
X132810714Y-99616723D01*
X132810714Y-99616723D02*
X132763095Y-99426247D01*
X132763095Y-99426247D02*
X132763095Y-99283390D01*
X132763095Y-99283390D02*
X132810714Y-99092914D01*
X132810714Y-99092914D02*
X132858333Y-98997676D01*
X132858333Y-98997676D02*
X132953571Y-98902438D01*
X132953571Y-98902438D02*
X133096428Y-98854819D01*
X133096428Y-98854819D02*
X133191666Y-98854819D01*
X133191666Y-98854819D02*
X133334523Y-98902438D01*
X133334523Y-98902438D02*
X133382142Y-98950057D01*
X134334523Y-99854819D02*
X133763095Y-99854819D01*
X134048809Y-99854819D02*
X134048809Y-98854819D01*
X134048809Y-98854819D02*
X133953571Y-98997676D01*
X133953571Y-98997676D02*
X133858333Y-99092914D01*
X133858333Y-99092914D02*
X133763095Y-99140533D01*
X134715476Y-98950057D02*
X134763095Y-98902438D01*
X134763095Y-98902438D02*
X134858333Y-98854819D01*
X134858333Y-98854819D02*
X135096428Y-98854819D01*
X135096428Y-98854819D02*
X135191666Y-98902438D01*
X135191666Y-98902438D02*
X135239285Y-98950057D01*
X135239285Y-98950057D02*
X135286904Y-99045295D01*
X135286904Y-99045295D02*
X135286904Y-99140533D01*
X135286904Y-99140533D02*
X135239285Y-99283390D01*
X135239285Y-99283390D02*
X134667857Y-99854819D01*
X134667857Y-99854819D02*
X135286904Y-99854819D01*
X194384580Y-107266666D02*
X194432200Y-107314285D01*
X194432200Y-107314285D02*
X194479819Y-107457142D01*
X194479819Y-107457142D02*
X194479819Y-107552380D01*
X194479819Y-107552380D02*
X194432200Y-107695237D01*
X194432200Y-107695237D02*
X194336961Y-107790475D01*
X194336961Y-107790475D02*
X194241723Y-107838094D01*
X194241723Y-107838094D02*
X194051247Y-107885713D01*
X194051247Y-107885713D02*
X193908390Y-107885713D01*
X193908390Y-107885713D02*
X193717914Y-107838094D01*
X193717914Y-107838094D02*
X193622676Y-107790475D01*
X193622676Y-107790475D02*
X193527438Y-107695237D01*
X193527438Y-107695237D02*
X193479819Y-107552380D01*
X193479819Y-107552380D02*
X193479819Y-107457142D01*
X193479819Y-107457142D02*
X193527438Y-107314285D01*
X193527438Y-107314285D02*
X193575057Y-107266666D01*
X193479819Y-106933332D02*
X193479819Y-106314285D01*
X193479819Y-106314285D02*
X193860771Y-106647618D01*
X193860771Y-106647618D02*
X193860771Y-106504761D01*
X193860771Y-106504761D02*
X193908390Y-106409523D01*
X193908390Y-106409523D02*
X193956009Y-106361904D01*
X193956009Y-106361904D02*
X194051247Y-106314285D01*
X194051247Y-106314285D02*
X194289342Y-106314285D01*
X194289342Y-106314285D02*
X194384580Y-106361904D01*
X194384580Y-106361904D02*
X194432200Y-106409523D01*
X194432200Y-106409523D02*
X194479819Y-106504761D01*
X194479819Y-106504761D02*
X194479819Y-106790475D01*
X194479819Y-106790475D02*
X194432200Y-106885713D01*
X194432200Y-106885713D02*
X194384580Y-106933332D01*
X181329819Y-89566666D02*
X180853628Y-89899999D01*
X181329819Y-90138094D02*
X180329819Y-90138094D01*
X180329819Y-90138094D02*
X180329819Y-89757142D01*
X180329819Y-89757142D02*
X180377438Y-89661904D01*
X180377438Y-89661904D02*
X180425057Y-89614285D01*
X180425057Y-89614285D02*
X180520295Y-89566666D01*
X180520295Y-89566666D02*
X180663152Y-89566666D01*
X180663152Y-89566666D02*
X180758390Y-89614285D01*
X180758390Y-89614285D02*
X180806009Y-89661904D01*
X180806009Y-89661904D02*
X180853628Y-89757142D01*
X180853628Y-89757142D02*
X180853628Y-90138094D01*
X180425057Y-89185713D02*
X180377438Y-89138094D01*
X180377438Y-89138094D02*
X180329819Y-89042856D01*
X180329819Y-89042856D02*
X180329819Y-88804761D01*
X180329819Y-88804761D02*
X180377438Y-88709523D01*
X180377438Y-88709523D02*
X180425057Y-88661904D01*
X180425057Y-88661904D02*
X180520295Y-88614285D01*
X180520295Y-88614285D02*
X180615533Y-88614285D01*
X180615533Y-88614285D02*
X180758390Y-88661904D01*
X180758390Y-88661904D02*
X181329819Y-89233332D01*
X181329819Y-89233332D02*
X181329819Y-88614285D01*
X124220833Y-78979579D02*
X124173214Y-79027199D01*
X124173214Y-79027199D02*
X124030357Y-79074818D01*
X124030357Y-79074818D02*
X123935119Y-79074818D01*
X123935119Y-79074818D02*
X123792262Y-79027199D01*
X123792262Y-79027199D02*
X123697024Y-78931960D01*
X123697024Y-78931960D02*
X123649405Y-78836722D01*
X123649405Y-78836722D02*
X123601786Y-78646246D01*
X123601786Y-78646246D02*
X123601786Y-78503389D01*
X123601786Y-78503389D02*
X123649405Y-78312913D01*
X123649405Y-78312913D02*
X123697024Y-78217675D01*
X123697024Y-78217675D02*
X123792262Y-78122437D01*
X123792262Y-78122437D02*
X123935119Y-78074818D01*
X123935119Y-78074818D02*
X124030357Y-78074818D01*
X124030357Y-78074818D02*
X124173214Y-78122437D01*
X124173214Y-78122437D02*
X124220833Y-78170056D01*
X124554167Y-78074818D02*
X125220833Y-78074818D01*
X125220833Y-78074818D02*
X124792262Y-79074818D01*
X138329819Y-111742857D02*
X137853628Y-112076190D01*
X138329819Y-112314285D02*
X137329819Y-112314285D01*
X137329819Y-112314285D02*
X137329819Y-111933333D01*
X137329819Y-111933333D02*
X137377438Y-111838095D01*
X137377438Y-111838095D02*
X137425057Y-111790476D01*
X137425057Y-111790476D02*
X137520295Y-111742857D01*
X137520295Y-111742857D02*
X137663152Y-111742857D01*
X137663152Y-111742857D02*
X137758390Y-111790476D01*
X137758390Y-111790476D02*
X137806009Y-111838095D01*
X137806009Y-111838095D02*
X137853628Y-111933333D01*
X137853628Y-111933333D02*
X137853628Y-112314285D01*
X138329819Y-110790476D02*
X138329819Y-111361904D01*
X138329819Y-111076190D02*
X137329819Y-111076190D01*
X137329819Y-111076190D02*
X137472676Y-111171428D01*
X137472676Y-111171428D02*
X137567914Y-111266666D01*
X137567914Y-111266666D02*
X137615533Y-111361904D01*
X138329819Y-109838095D02*
X138329819Y-110409523D01*
X138329819Y-110123809D02*
X137329819Y-110123809D01*
X137329819Y-110123809D02*
X137472676Y-110219047D01*
X137472676Y-110219047D02*
X137567914Y-110314285D01*
X137567914Y-110314285D02*
X137615533Y-110409523D01*
X110179819Y-100645566D02*
X109703628Y-100978899D01*
X110179819Y-101216994D02*
X109179819Y-101216994D01*
X109179819Y-101216994D02*
X109179819Y-100836042D01*
X109179819Y-100836042D02*
X109227438Y-100740804D01*
X109227438Y-100740804D02*
X109275057Y-100693185D01*
X109275057Y-100693185D02*
X109370295Y-100645566D01*
X109370295Y-100645566D02*
X109513152Y-100645566D01*
X109513152Y-100645566D02*
X109608390Y-100693185D01*
X109608390Y-100693185D02*
X109656009Y-100740804D01*
X109656009Y-100740804D02*
X109703628Y-100836042D01*
X109703628Y-100836042D02*
X109703628Y-101216994D01*
X109608390Y-100074137D02*
X109560771Y-100169375D01*
X109560771Y-100169375D02*
X109513152Y-100216994D01*
X109513152Y-100216994D02*
X109417914Y-100264613D01*
X109417914Y-100264613D02*
X109370295Y-100264613D01*
X109370295Y-100264613D02*
X109275057Y-100216994D01*
X109275057Y-100216994D02*
X109227438Y-100169375D01*
X109227438Y-100169375D02*
X109179819Y-100074137D01*
X109179819Y-100074137D02*
X109179819Y-99883661D01*
X109179819Y-99883661D02*
X109227438Y-99788423D01*
X109227438Y-99788423D02*
X109275057Y-99740804D01*
X109275057Y-99740804D02*
X109370295Y-99693185D01*
X109370295Y-99693185D02*
X109417914Y-99693185D01*
X109417914Y-99693185D02*
X109513152Y-99740804D01*
X109513152Y-99740804D02*
X109560771Y-99788423D01*
X109560771Y-99788423D02*
X109608390Y-99883661D01*
X109608390Y-99883661D02*
X109608390Y-100074137D01*
X109608390Y-100074137D02*
X109656009Y-100169375D01*
X109656009Y-100169375D02*
X109703628Y-100216994D01*
X109703628Y-100216994D02*
X109798866Y-100264613D01*
X109798866Y-100264613D02*
X109989342Y-100264613D01*
X109989342Y-100264613D02*
X110084580Y-100216994D01*
X110084580Y-100216994D02*
X110132200Y-100169375D01*
X110132200Y-100169375D02*
X110179819Y-100074137D01*
X110179819Y-100074137D02*
X110179819Y-99883661D01*
X110179819Y-99883661D02*
X110132200Y-99788423D01*
X110132200Y-99788423D02*
X110084580Y-99740804D01*
X110084580Y-99740804D02*
X109989342Y-99693185D01*
X109989342Y-99693185D02*
X109798866Y-99693185D01*
X109798866Y-99693185D02*
X109703628Y-99740804D01*
X109703628Y-99740804D02*
X109656009Y-99788423D01*
X109656009Y-99788423D02*
X109608390Y-99883661D01*
X165263095Y-97956819D02*
X165834523Y-97956819D01*
X165548809Y-98956819D02*
X165548809Y-97956819D01*
X166167857Y-98956819D02*
X166167857Y-97956819D01*
X166167857Y-97956819D02*
X166548809Y-97956819D01*
X166548809Y-97956819D02*
X166644047Y-98004438D01*
X166644047Y-98004438D02*
X166691666Y-98052057D01*
X166691666Y-98052057D02*
X166739285Y-98147295D01*
X166739285Y-98147295D02*
X166739285Y-98290152D01*
X166739285Y-98290152D02*
X166691666Y-98385390D01*
X166691666Y-98385390D02*
X166644047Y-98433009D01*
X166644047Y-98433009D02*
X166548809Y-98480628D01*
X166548809Y-98480628D02*
X166167857Y-98480628D01*
X167596428Y-98290152D02*
X167596428Y-98956819D01*
X167358333Y-97909200D02*
X167120238Y-98623485D01*
X167120238Y-98623485D02*
X167739285Y-98623485D01*
X117082143Y-75246430D02*
X117034524Y-75294050D01*
X117034524Y-75294050D02*
X116891667Y-75341669D01*
X116891667Y-75341669D02*
X116796429Y-75341669D01*
X116796429Y-75341669D02*
X116653572Y-75294050D01*
X116653572Y-75294050D02*
X116558334Y-75198811D01*
X116558334Y-75198811D02*
X116510715Y-75103573D01*
X116510715Y-75103573D02*
X116463096Y-74913097D01*
X116463096Y-74913097D02*
X116463096Y-74770240D01*
X116463096Y-74770240D02*
X116510715Y-74579764D01*
X116510715Y-74579764D02*
X116558334Y-74484526D01*
X116558334Y-74484526D02*
X116653572Y-74389288D01*
X116653572Y-74389288D02*
X116796429Y-74341669D01*
X116796429Y-74341669D02*
X116891667Y-74341669D01*
X116891667Y-74341669D02*
X117034524Y-74389288D01*
X117034524Y-74389288D02*
X117082143Y-74436907D01*
X118034524Y-75341669D02*
X117463096Y-75341669D01*
X117748810Y-75341669D02*
X117748810Y-74341669D01*
X117748810Y-74341669D02*
X117653572Y-74484526D01*
X117653572Y-74484526D02*
X117558334Y-74579764D01*
X117558334Y-74579764D02*
X117463096Y-74627383D01*
X118367858Y-74341669D02*
X119034524Y-74341669D01*
X119034524Y-74341669D02*
X118605953Y-75341669D01*
X182179819Y-80866666D02*
X181703628Y-81199999D01*
X182179819Y-81438094D02*
X181179819Y-81438094D01*
X181179819Y-81438094D02*
X181179819Y-81057142D01*
X181179819Y-81057142D02*
X181227438Y-80961904D01*
X181227438Y-80961904D02*
X181275057Y-80914285D01*
X181275057Y-80914285D02*
X181370295Y-80866666D01*
X181370295Y-80866666D02*
X181513152Y-80866666D01*
X181513152Y-80866666D02*
X181608390Y-80914285D01*
X181608390Y-80914285D02*
X181656009Y-80961904D01*
X181656009Y-80961904D02*
X181703628Y-81057142D01*
X181703628Y-81057142D02*
X181703628Y-81438094D01*
X181513152Y-80009523D02*
X182179819Y-80009523D01*
X181132200Y-80247618D02*
X181846485Y-80485713D01*
X181846485Y-80485713D02*
X181846485Y-79866666D01*
X109907019Y-113181666D02*
X109430828Y-113514999D01*
X109907019Y-113753094D02*
X108907019Y-113753094D01*
X108907019Y-113753094D02*
X108907019Y-113372142D01*
X108907019Y-113372142D02*
X108954638Y-113276904D01*
X108954638Y-113276904D02*
X109002257Y-113229285D01*
X109002257Y-113229285D02*
X109097495Y-113181666D01*
X109097495Y-113181666D02*
X109240352Y-113181666D01*
X109240352Y-113181666D02*
X109335590Y-113229285D01*
X109335590Y-113229285D02*
X109383209Y-113276904D01*
X109383209Y-113276904D02*
X109430828Y-113372142D01*
X109430828Y-113372142D02*
X109430828Y-113753094D01*
X108907019Y-112848332D02*
X108907019Y-112181666D01*
X108907019Y-112181666D02*
X109907019Y-112610237D01*
X116829819Y-96621757D02*
X116353628Y-96955090D01*
X116829819Y-97193185D02*
X115829819Y-97193185D01*
X115829819Y-97193185D02*
X115829819Y-96812233D01*
X115829819Y-96812233D02*
X115877438Y-96716995D01*
X115877438Y-96716995D02*
X115925057Y-96669376D01*
X115925057Y-96669376D02*
X116020295Y-96621757D01*
X116020295Y-96621757D02*
X116163152Y-96621757D01*
X116163152Y-96621757D02*
X116258390Y-96669376D01*
X116258390Y-96669376D02*
X116306009Y-96716995D01*
X116306009Y-96716995D02*
X116353628Y-96812233D01*
X116353628Y-96812233D02*
X116353628Y-97193185D01*
X116829819Y-95669376D02*
X116829819Y-96240804D01*
X116829819Y-95955090D02*
X115829819Y-95955090D01*
X115829819Y-95955090D02*
X115972676Y-96050328D01*
X115972676Y-96050328D02*
X116067914Y-96145566D01*
X116067914Y-96145566D02*
X116115533Y-96240804D01*
X115829819Y-95050328D02*
X115829819Y-94955090D01*
X115829819Y-94955090D02*
X115877438Y-94859852D01*
X115877438Y-94859852D02*
X115925057Y-94812233D01*
X115925057Y-94812233D02*
X116020295Y-94764614D01*
X116020295Y-94764614D02*
X116210771Y-94716995D01*
X116210771Y-94716995D02*
X116448866Y-94716995D01*
X116448866Y-94716995D02*
X116639342Y-94764614D01*
X116639342Y-94764614D02*
X116734580Y-94812233D01*
X116734580Y-94812233D02*
X116782200Y-94859852D01*
X116782200Y-94859852D02*
X116829819Y-94955090D01*
X116829819Y-94955090D02*
X116829819Y-95050328D01*
X116829819Y-95050328D02*
X116782200Y-95145566D01*
X116782200Y-95145566D02*
X116734580Y-95193185D01*
X116734580Y-95193185D02*
X116639342Y-95240804D01*
X116639342Y-95240804D02*
X116448866Y-95288423D01*
X116448866Y-95288423D02*
X116210771Y-95288423D01*
X116210771Y-95288423D02*
X116020295Y-95240804D01*
X116020295Y-95240804D02*
X115925057Y-95193185D01*
X115925057Y-95193185D02*
X115877438Y-95145566D01*
X115877438Y-95145566D02*
X115829819Y-95050328D01*
X112785533Y-103969819D02*
X112452200Y-103493628D01*
X112214105Y-103969819D02*
X112214105Y-102969819D01*
X112214105Y-102969819D02*
X112595057Y-102969819D01*
X112595057Y-102969819D02*
X112690295Y-103017438D01*
X112690295Y-103017438D02*
X112737914Y-103065057D01*
X112737914Y-103065057D02*
X112785533Y-103160295D01*
X112785533Y-103160295D02*
X112785533Y-103303152D01*
X112785533Y-103303152D02*
X112737914Y-103398390D01*
X112737914Y-103398390D02*
X112690295Y-103446009D01*
X112690295Y-103446009D02*
X112595057Y-103493628D01*
X112595057Y-103493628D02*
X112214105Y-103493628D01*
X113642676Y-102969819D02*
X113452200Y-102969819D01*
X113452200Y-102969819D02*
X113356962Y-103017438D01*
X113356962Y-103017438D02*
X113309343Y-103065057D01*
X113309343Y-103065057D02*
X113214105Y-103207914D01*
X113214105Y-103207914D02*
X113166486Y-103398390D01*
X113166486Y-103398390D02*
X113166486Y-103779342D01*
X113166486Y-103779342D02*
X113214105Y-103874580D01*
X113214105Y-103874580D02*
X113261724Y-103922200D01*
X113261724Y-103922200D02*
X113356962Y-103969819D01*
X113356962Y-103969819D02*
X113547438Y-103969819D01*
X113547438Y-103969819D02*
X113642676Y-103922200D01*
X113642676Y-103922200D02*
X113690295Y-103874580D01*
X113690295Y-103874580D02*
X113737914Y-103779342D01*
X113737914Y-103779342D02*
X113737914Y-103541247D01*
X113737914Y-103541247D02*
X113690295Y-103446009D01*
X113690295Y-103446009D02*
X113642676Y-103398390D01*
X113642676Y-103398390D02*
X113547438Y-103350771D01*
X113547438Y-103350771D02*
X113356962Y-103350771D01*
X113356962Y-103350771D02*
X113261724Y-103398390D01*
X113261724Y-103398390D02*
X113214105Y-103446009D01*
X113214105Y-103446009D02*
X113166486Y-103541247D01*
X180613095Y-84354819D02*
X180613095Y-85164342D01*
X180613095Y-85164342D02*
X180660714Y-85259580D01*
X180660714Y-85259580D02*
X180708333Y-85307200D01*
X180708333Y-85307200D02*
X180803571Y-85354819D01*
X180803571Y-85354819D02*
X180994047Y-85354819D01*
X180994047Y-85354819D02*
X181089285Y-85307200D01*
X181089285Y-85307200D02*
X181136904Y-85259580D01*
X181136904Y-85259580D02*
X181184523Y-85164342D01*
X181184523Y-85164342D02*
X181184523Y-84354819D01*
X182089285Y-84688152D02*
X182089285Y-85354819D01*
X181851190Y-84307200D02*
X181613095Y-85021485D01*
X181613095Y-85021485D02*
X182232142Y-85021485D01*
X176328142Y-96800616D02*
X176328142Y-97611688D01*
X176328142Y-97611688D02*
X176375852Y-97707108D01*
X176375852Y-97707108D02*
X176423563Y-97754819D01*
X176423563Y-97754819D02*
X176518983Y-97802529D01*
X176518983Y-97802529D02*
X176709823Y-97802529D01*
X176709823Y-97802529D02*
X176805244Y-97754819D01*
X176805244Y-97754819D02*
X176852954Y-97707108D01*
X176852954Y-97707108D02*
X176900664Y-97611688D01*
X176900664Y-97611688D02*
X176900664Y-96800616D01*
X177807157Y-96800616D02*
X177616316Y-96800616D01*
X177616316Y-96800616D02*
X177520896Y-96848326D01*
X177520896Y-96848326D02*
X177473186Y-96896036D01*
X177473186Y-96896036D02*
X177377765Y-97039166D01*
X177377765Y-97039166D02*
X177330055Y-97230007D01*
X177330055Y-97230007D02*
X177330055Y-97611688D01*
X177330055Y-97611688D02*
X177377765Y-97707108D01*
X177377765Y-97707108D02*
X177425475Y-97754819D01*
X177425475Y-97754819D02*
X177520896Y-97802529D01*
X177520896Y-97802529D02*
X177711736Y-97802529D01*
X177711736Y-97802529D02*
X177807157Y-97754819D01*
X177807157Y-97754819D02*
X177854867Y-97707108D01*
X177854867Y-97707108D02*
X177902577Y-97611688D01*
X177902577Y-97611688D02*
X177902577Y-97373137D01*
X177902577Y-97373137D02*
X177854867Y-97277717D01*
X177854867Y-97277717D02*
X177807157Y-97230007D01*
X177807157Y-97230007D02*
X177711736Y-97182297D01*
X177711736Y-97182297D02*
X177520896Y-97182297D01*
X177520896Y-97182297D02*
X177425475Y-97230007D01*
X177425475Y-97230007D02*
X177377765Y-97277717D01*
X177377765Y-97277717D02*
X177330055Y-97373137D01*
X129970180Y-79717199D02*
X129732085Y-79717199D01*
X129827323Y-79479104D02*
X129732085Y-79717199D01*
X129732085Y-79717199D02*
X129827323Y-79955294D01*
X129541609Y-79574342D02*
X129732085Y-79717199D01*
X129732085Y-79717199D02*
X129541609Y-79860056D01*
X128879819Y-79717198D02*
X129117914Y-79717198D01*
X129022676Y-79955293D02*
X129117914Y-79717198D01*
X129117914Y-79717198D02*
X129022676Y-79479103D01*
X129308390Y-79860055D02*
X129117914Y-79717198D01*
X129117914Y-79717198D02*
X129308390Y-79574341D01*
X101263095Y-89754819D02*
X101263095Y-88754819D01*
X101263095Y-89231009D02*
X101834523Y-89231009D01*
X101834523Y-89754819D02*
X101834523Y-88754819D01*
X102263095Y-88850057D02*
X102310714Y-88802438D01*
X102310714Y-88802438D02*
X102405952Y-88754819D01*
X102405952Y-88754819D02*
X102644047Y-88754819D01*
X102644047Y-88754819D02*
X102739285Y-88802438D01*
X102739285Y-88802438D02*
X102786904Y-88850057D01*
X102786904Y-88850057D02*
X102834523Y-88945295D01*
X102834523Y-88945295D02*
X102834523Y-89040533D01*
X102834523Y-89040533D02*
X102786904Y-89183390D01*
X102786904Y-89183390D02*
X102215476Y-89754819D01*
X102215476Y-89754819D02*
X102834523Y-89754819D01*
X117358333Y-114959580D02*
X117310714Y-115007200D01*
X117310714Y-115007200D02*
X117167857Y-115054819D01*
X117167857Y-115054819D02*
X117072619Y-115054819D01*
X117072619Y-115054819D02*
X116929762Y-115007200D01*
X116929762Y-115007200D02*
X116834524Y-114911961D01*
X116834524Y-114911961D02*
X116786905Y-114816723D01*
X116786905Y-114816723D02*
X116739286Y-114626247D01*
X116739286Y-114626247D02*
X116739286Y-114483390D01*
X116739286Y-114483390D02*
X116786905Y-114292914D01*
X116786905Y-114292914D02*
X116834524Y-114197676D01*
X116834524Y-114197676D02*
X116929762Y-114102438D01*
X116929762Y-114102438D02*
X117072619Y-114054819D01*
X117072619Y-114054819D02*
X117167857Y-114054819D01*
X117167857Y-114054819D02*
X117310714Y-114102438D01*
X117310714Y-114102438D02*
X117358333Y-114150057D01*
X118215476Y-114054819D02*
X118025000Y-114054819D01*
X118025000Y-114054819D02*
X117929762Y-114102438D01*
X117929762Y-114102438D02*
X117882143Y-114150057D01*
X117882143Y-114150057D02*
X117786905Y-114292914D01*
X117786905Y-114292914D02*
X117739286Y-114483390D01*
X117739286Y-114483390D02*
X117739286Y-114864342D01*
X117739286Y-114864342D02*
X117786905Y-114959580D01*
X117786905Y-114959580D02*
X117834524Y-115007200D01*
X117834524Y-115007200D02*
X117929762Y-115054819D01*
X117929762Y-115054819D02*
X118120238Y-115054819D01*
X118120238Y-115054819D02*
X118215476Y-115007200D01*
X118215476Y-115007200D02*
X118263095Y-114959580D01*
X118263095Y-114959580D02*
X118310714Y-114864342D01*
X118310714Y-114864342D02*
X118310714Y-114626247D01*
X118310714Y-114626247D02*
X118263095Y-114531009D01*
X118263095Y-114531009D02*
X118215476Y-114483390D01*
X118215476Y-114483390D02*
X118120238Y-114435771D01*
X118120238Y-114435771D02*
X117929762Y-114435771D01*
X117929762Y-114435771D02*
X117834524Y-114483390D01*
X117834524Y-114483390D02*
X117786905Y-114531009D01*
X117786905Y-114531009D02*
X117739286Y-114626247D01*
X152382142Y-98704819D02*
X152048809Y-98228628D01*
X151810714Y-98704819D02*
X151810714Y-97704819D01*
X151810714Y-97704819D02*
X152191666Y-97704819D01*
X152191666Y-97704819D02*
X152286904Y-97752438D01*
X152286904Y-97752438D02*
X152334523Y-97800057D01*
X152334523Y-97800057D02*
X152382142Y-97895295D01*
X152382142Y-97895295D02*
X152382142Y-98038152D01*
X152382142Y-98038152D02*
X152334523Y-98133390D01*
X152334523Y-98133390D02*
X152286904Y-98181009D01*
X152286904Y-98181009D02*
X152191666Y-98228628D01*
X152191666Y-98228628D02*
X151810714Y-98228628D01*
X153334523Y-98704819D02*
X152763095Y-98704819D01*
X153048809Y-98704819D02*
X153048809Y-97704819D01*
X153048809Y-97704819D02*
X152953571Y-97847676D01*
X152953571Y-97847676D02*
X152858333Y-97942914D01*
X152858333Y-97942914D02*
X152763095Y-97990533D01*
X154191666Y-98038152D02*
X154191666Y-98704819D01*
X153953571Y-97657200D02*
X153715476Y-98371485D01*
X153715476Y-98371485D02*
X154334523Y-98371485D01*
X141059580Y-86492857D02*
X141107200Y-86540476D01*
X141107200Y-86540476D02*
X141154819Y-86683333D01*
X141154819Y-86683333D02*
X141154819Y-86778571D01*
X141154819Y-86778571D02*
X141107200Y-86921428D01*
X141107200Y-86921428D02*
X141011961Y-87016666D01*
X141011961Y-87016666D02*
X140916723Y-87064285D01*
X140916723Y-87064285D02*
X140726247Y-87111904D01*
X140726247Y-87111904D02*
X140583390Y-87111904D01*
X140583390Y-87111904D02*
X140392914Y-87064285D01*
X140392914Y-87064285D02*
X140297676Y-87016666D01*
X140297676Y-87016666D02*
X140202438Y-86921428D01*
X140202438Y-86921428D02*
X140154819Y-86778571D01*
X140154819Y-86778571D02*
X140154819Y-86683333D01*
X140154819Y-86683333D02*
X140202438Y-86540476D01*
X140202438Y-86540476D02*
X140250057Y-86492857D01*
X141154819Y-85540476D02*
X141154819Y-86111904D01*
X141154819Y-85826190D02*
X140154819Y-85826190D01*
X140154819Y-85826190D02*
X140297676Y-85921428D01*
X140297676Y-85921428D02*
X140392914Y-86016666D01*
X140392914Y-86016666D02*
X140440533Y-86111904D01*
X140154819Y-84635714D02*
X140154819Y-85111904D01*
X140154819Y-85111904D02*
X140631009Y-85159523D01*
X140631009Y-85159523D02*
X140583390Y-85111904D01*
X140583390Y-85111904D02*
X140535771Y-85016666D01*
X140535771Y-85016666D02*
X140535771Y-84778571D01*
X140535771Y-84778571D02*
X140583390Y-84683333D01*
X140583390Y-84683333D02*
X140631009Y-84635714D01*
X140631009Y-84635714D02*
X140726247Y-84588095D01*
X140726247Y-84588095D02*
X140964342Y-84588095D01*
X140964342Y-84588095D02*
X141059580Y-84635714D01*
X141059580Y-84635714D02*
X141107200Y-84683333D01*
X141107200Y-84683333D02*
X141154819Y-84778571D01*
X141154819Y-84778571D02*
X141154819Y-85016666D01*
X141154819Y-85016666D02*
X141107200Y-85111904D01*
X141107200Y-85111904D02*
X141059580Y-85159523D01*
X134163095Y-74756819D02*
X134734523Y-74756819D01*
X134448809Y-75756819D02*
X134448809Y-74756819D01*
X135067857Y-75756819D02*
X135067857Y-74756819D01*
X135067857Y-74756819D02*
X135448809Y-74756819D01*
X135448809Y-74756819D02*
X135544047Y-74804438D01*
X135544047Y-74804438D02*
X135591666Y-74852057D01*
X135591666Y-74852057D02*
X135639285Y-74947295D01*
X135639285Y-74947295D02*
X135639285Y-75090152D01*
X135639285Y-75090152D02*
X135591666Y-75185390D01*
X135591666Y-75185390D02*
X135544047Y-75233009D01*
X135544047Y-75233009D02*
X135448809Y-75280628D01*
X135448809Y-75280628D02*
X135067857Y-75280628D01*
X136591666Y-75756819D02*
X136020238Y-75756819D01*
X136305952Y-75756819D02*
X136305952Y-74756819D01*
X136305952Y-74756819D02*
X136210714Y-74899676D01*
X136210714Y-74899676D02*
X136115476Y-74994914D01*
X136115476Y-74994914D02*
X136020238Y-75042533D01*
X156691667Y-117969700D02*
X156834524Y-118017319D01*
X156834524Y-118017319D02*
X157072619Y-118017319D01*
X157072619Y-118017319D02*
X157167857Y-117969700D01*
X157167857Y-117969700D02*
X157215476Y-117922080D01*
X157215476Y-117922080D02*
X157263095Y-117826842D01*
X157263095Y-117826842D02*
X157263095Y-117731604D01*
X157263095Y-117731604D02*
X157215476Y-117636366D01*
X157215476Y-117636366D02*
X157167857Y-117588747D01*
X157167857Y-117588747D02*
X157072619Y-117541128D01*
X157072619Y-117541128D02*
X156882143Y-117493509D01*
X156882143Y-117493509D02*
X156786905Y-117445890D01*
X156786905Y-117445890D02*
X156739286Y-117398271D01*
X156739286Y-117398271D02*
X156691667Y-117303033D01*
X156691667Y-117303033D02*
X156691667Y-117207795D01*
X156691667Y-117207795D02*
X156739286Y-117112557D01*
X156739286Y-117112557D02*
X156786905Y-117064938D01*
X156786905Y-117064938D02*
X156882143Y-117017319D01*
X156882143Y-117017319D02*
X157120238Y-117017319D01*
X157120238Y-117017319D02*
X157263095Y-117064938D01*
X157596429Y-117017319D02*
X157834524Y-118017319D01*
X157834524Y-118017319D02*
X158025000Y-117303033D01*
X158025000Y-117303033D02*
X158215476Y-118017319D01*
X158215476Y-118017319D02*
X158453572Y-117017319D01*
X158739286Y-117017319D02*
X159358333Y-117017319D01*
X159358333Y-117017319D02*
X159025000Y-117398271D01*
X159025000Y-117398271D02*
X159167857Y-117398271D01*
X159167857Y-117398271D02*
X159263095Y-117445890D01*
X159263095Y-117445890D02*
X159310714Y-117493509D01*
X159310714Y-117493509D02*
X159358333Y-117588747D01*
X159358333Y-117588747D02*
X159358333Y-117826842D01*
X159358333Y-117826842D02*
X159310714Y-117922080D01*
X159310714Y-117922080D02*
X159263095Y-117969700D01*
X159263095Y-117969700D02*
X159167857Y-118017319D01*
X159167857Y-118017319D02*
X158882143Y-118017319D01*
X158882143Y-118017319D02*
X158786905Y-117969700D01*
X158786905Y-117969700D02*
X158739286Y-117922080D01*
X152564580Y-102266666D02*
X152612200Y-102314285D01*
X152612200Y-102314285D02*
X152659819Y-102457142D01*
X152659819Y-102457142D02*
X152659819Y-102552380D01*
X152659819Y-102552380D02*
X152612200Y-102695237D01*
X152612200Y-102695237D02*
X152516961Y-102790475D01*
X152516961Y-102790475D02*
X152421723Y-102838094D01*
X152421723Y-102838094D02*
X152231247Y-102885713D01*
X152231247Y-102885713D02*
X152088390Y-102885713D01*
X152088390Y-102885713D02*
X151897914Y-102838094D01*
X151897914Y-102838094D02*
X151802676Y-102790475D01*
X151802676Y-102790475D02*
X151707438Y-102695237D01*
X151707438Y-102695237D02*
X151659819Y-102552380D01*
X151659819Y-102552380D02*
X151659819Y-102457142D01*
X151659819Y-102457142D02*
X151707438Y-102314285D01*
X151707438Y-102314285D02*
X151755057Y-102266666D01*
X152659819Y-101790475D02*
X152659819Y-101599999D01*
X152659819Y-101599999D02*
X152612200Y-101504761D01*
X152612200Y-101504761D02*
X152564580Y-101457142D01*
X152564580Y-101457142D02*
X152421723Y-101361904D01*
X152421723Y-101361904D02*
X152231247Y-101314285D01*
X152231247Y-101314285D02*
X151850295Y-101314285D01*
X151850295Y-101314285D02*
X151755057Y-101361904D01*
X151755057Y-101361904D02*
X151707438Y-101409523D01*
X151707438Y-101409523D02*
X151659819Y-101504761D01*
X151659819Y-101504761D02*
X151659819Y-101695237D01*
X151659819Y-101695237D02*
X151707438Y-101790475D01*
X151707438Y-101790475D02*
X151755057Y-101838094D01*
X151755057Y-101838094D02*
X151850295Y-101885713D01*
X151850295Y-101885713D02*
X152088390Y-101885713D01*
X152088390Y-101885713D02*
X152183628Y-101838094D01*
X152183628Y-101838094D02*
X152231247Y-101790475D01*
X152231247Y-101790475D02*
X152278866Y-101695237D01*
X152278866Y-101695237D02*
X152278866Y-101504761D01*
X152278866Y-101504761D02*
X152231247Y-101409523D01*
X152231247Y-101409523D02*
X152183628Y-101361904D01*
X152183628Y-101361904D02*
X152088390Y-101314285D01*
X115458333Y-100204819D02*
X115125000Y-99728628D01*
X114886905Y-100204819D02*
X114886905Y-99204819D01*
X114886905Y-99204819D02*
X115267857Y-99204819D01*
X115267857Y-99204819D02*
X115363095Y-99252438D01*
X115363095Y-99252438D02*
X115410714Y-99300057D01*
X115410714Y-99300057D02*
X115458333Y-99395295D01*
X115458333Y-99395295D02*
X115458333Y-99538152D01*
X115458333Y-99538152D02*
X115410714Y-99633390D01*
X115410714Y-99633390D02*
X115363095Y-99681009D01*
X115363095Y-99681009D02*
X115267857Y-99728628D01*
X115267857Y-99728628D02*
X114886905Y-99728628D01*
X115934524Y-100204819D02*
X116125000Y-100204819D01*
X116125000Y-100204819D02*
X116220238Y-100157200D01*
X116220238Y-100157200D02*
X116267857Y-100109580D01*
X116267857Y-100109580D02*
X116363095Y-99966723D01*
X116363095Y-99966723D02*
X116410714Y-99776247D01*
X116410714Y-99776247D02*
X116410714Y-99395295D01*
X116410714Y-99395295D02*
X116363095Y-99300057D01*
X116363095Y-99300057D02*
X116315476Y-99252438D01*
X116315476Y-99252438D02*
X116220238Y-99204819D01*
X116220238Y-99204819D02*
X116029762Y-99204819D01*
X116029762Y-99204819D02*
X115934524Y-99252438D01*
X115934524Y-99252438D02*
X115886905Y-99300057D01*
X115886905Y-99300057D02*
X115839286Y-99395295D01*
X115839286Y-99395295D02*
X115839286Y-99633390D01*
X115839286Y-99633390D02*
X115886905Y-99728628D01*
X115886905Y-99728628D02*
X115934524Y-99776247D01*
X115934524Y-99776247D02*
X116029762Y-99823866D01*
X116029762Y-99823866D02*
X116220238Y-99823866D01*
X116220238Y-99823866D02*
X116315476Y-99776247D01*
X116315476Y-99776247D02*
X116363095Y-99728628D01*
X116363095Y-99728628D02*
X116410714Y-99633390D01*
X145304580Y-105442857D02*
X145352200Y-105490476D01*
X145352200Y-105490476D02*
X145399819Y-105633333D01*
X145399819Y-105633333D02*
X145399819Y-105728571D01*
X145399819Y-105728571D02*
X145352200Y-105871428D01*
X145352200Y-105871428D02*
X145256961Y-105966666D01*
X145256961Y-105966666D02*
X145161723Y-106014285D01*
X145161723Y-106014285D02*
X144971247Y-106061904D01*
X144971247Y-106061904D02*
X144828390Y-106061904D01*
X144828390Y-106061904D02*
X144637914Y-106014285D01*
X144637914Y-106014285D02*
X144542676Y-105966666D01*
X144542676Y-105966666D02*
X144447438Y-105871428D01*
X144447438Y-105871428D02*
X144399819Y-105728571D01*
X144399819Y-105728571D02*
X144399819Y-105633333D01*
X144399819Y-105633333D02*
X144447438Y-105490476D01*
X144447438Y-105490476D02*
X144495057Y-105442857D01*
X145399819Y-104490476D02*
X145399819Y-105061904D01*
X145399819Y-104776190D02*
X144399819Y-104776190D01*
X144399819Y-104776190D02*
X144542676Y-104871428D01*
X144542676Y-104871428D02*
X144637914Y-104966666D01*
X144637914Y-104966666D02*
X144685533Y-105061904D01*
X145399819Y-103538095D02*
X145399819Y-104109523D01*
X145399819Y-103823809D02*
X144399819Y-103823809D01*
X144399819Y-103823809D02*
X144542676Y-103919047D01*
X144542676Y-103919047D02*
X144637914Y-104014285D01*
X144637914Y-104014285D02*
X144685533Y-104109523D01*
X116332143Y-82926430D02*
X116284524Y-82974050D01*
X116284524Y-82974050D02*
X116141667Y-83021669D01*
X116141667Y-83021669D02*
X116046429Y-83021669D01*
X116046429Y-83021669D02*
X115903572Y-82974050D01*
X115903572Y-82974050D02*
X115808334Y-82878811D01*
X115808334Y-82878811D02*
X115760715Y-82783573D01*
X115760715Y-82783573D02*
X115713096Y-82593097D01*
X115713096Y-82593097D02*
X115713096Y-82450240D01*
X115713096Y-82450240D02*
X115760715Y-82259764D01*
X115760715Y-82259764D02*
X115808334Y-82164526D01*
X115808334Y-82164526D02*
X115903572Y-82069288D01*
X115903572Y-82069288D02*
X116046429Y-82021669D01*
X116046429Y-82021669D02*
X116141667Y-82021669D01*
X116141667Y-82021669D02*
X116284524Y-82069288D01*
X116284524Y-82069288D02*
X116332143Y-82116907D01*
X117284524Y-83021669D02*
X116713096Y-83021669D01*
X116998810Y-83021669D02*
X116998810Y-82021669D01*
X116998810Y-82021669D02*
X116903572Y-82164526D01*
X116903572Y-82164526D02*
X116808334Y-82259764D01*
X116808334Y-82259764D02*
X116713096Y-82307383D01*
X118141667Y-82021669D02*
X117951191Y-82021669D01*
X117951191Y-82021669D02*
X117855953Y-82069288D01*
X117855953Y-82069288D02*
X117808334Y-82116907D01*
X117808334Y-82116907D02*
X117713096Y-82259764D01*
X117713096Y-82259764D02*
X117665477Y-82450240D01*
X117665477Y-82450240D02*
X117665477Y-82831192D01*
X117665477Y-82831192D02*
X117713096Y-82926430D01*
X117713096Y-82926430D02*
X117760715Y-82974050D01*
X117760715Y-82974050D02*
X117855953Y-83021669D01*
X117855953Y-83021669D02*
X118046429Y-83021669D01*
X118046429Y-83021669D02*
X118141667Y-82974050D01*
X118141667Y-82974050D02*
X118189286Y-82926430D01*
X118189286Y-82926430D02*
X118236905Y-82831192D01*
X118236905Y-82831192D02*
X118236905Y-82593097D01*
X118236905Y-82593097D02*
X118189286Y-82497859D01*
X118189286Y-82497859D02*
X118141667Y-82450240D01*
X118141667Y-82450240D02*
X118046429Y-82402621D01*
X118046429Y-82402621D02*
X117855953Y-82402621D01*
X117855953Y-82402621D02*
X117760715Y-82450240D01*
X117760715Y-82450240D02*
X117713096Y-82497859D01*
X117713096Y-82497859D02*
X117665477Y-82593097D01*
X137358333Y-114959580D02*
X137310714Y-115007200D01*
X137310714Y-115007200D02*
X137167857Y-115054819D01*
X137167857Y-115054819D02*
X137072619Y-115054819D01*
X137072619Y-115054819D02*
X136929762Y-115007200D01*
X136929762Y-115007200D02*
X136834524Y-114911961D01*
X136834524Y-114911961D02*
X136786905Y-114816723D01*
X136786905Y-114816723D02*
X136739286Y-114626247D01*
X136739286Y-114626247D02*
X136739286Y-114483390D01*
X136739286Y-114483390D02*
X136786905Y-114292914D01*
X136786905Y-114292914D02*
X136834524Y-114197676D01*
X136834524Y-114197676D02*
X136929762Y-114102438D01*
X136929762Y-114102438D02*
X137072619Y-114054819D01*
X137072619Y-114054819D02*
X137167857Y-114054819D01*
X137167857Y-114054819D02*
X137310714Y-114102438D01*
X137310714Y-114102438D02*
X137358333Y-114150057D01*
X138215476Y-114388152D02*
X138215476Y-115054819D01*
X137977381Y-114007200D02*
X137739286Y-114721485D01*
X137739286Y-114721485D02*
X138358333Y-114721485D01*
X111851667Y-80351669D02*
X111851667Y-81065954D01*
X111851667Y-81065954D02*
X111804048Y-81208811D01*
X111804048Y-81208811D02*
X111708810Y-81304050D01*
X111708810Y-81304050D02*
X111565953Y-81351669D01*
X111565953Y-81351669D02*
X111470715Y-81351669D01*
X112280239Y-80446907D02*
X112327858Y-80399288D01*
X112327858Y-80399288D02*
X112423096Y-80351669D01*
X112423096Y-80351669D02*
X112661191Y-80351669D01*
X112661191Y-80351669D02*
X112756429Y-80399288D01*
X112756429Y-80399288D02*
X112804048Y-80446907D01*
X112804048Y-80446907D02*
X112851667Y-80542145D01*
X112851667Y-80542145D02*
X112851667Y-80637383D01*
X112851667Y-80637383D02*
X112804048Y-80780240D01*
X112804048Y-80780240D02*
X112232620Y-81351669D01*
X112232620Y-81351669D02*
X112851667Y-81351669D01*
X189570180Y-117363094D02*
X188760657Y-117363094D01*
X188760657Y-117363094D02*
X188665419Y-117410713D01*
X188665419Y-117410713D02*
X188617800Y-117458332D01*
X188617800Y-117458332D02*
X188570180Y-117553570D01*
X188570180Y-117553570D02*
X188570180Y-117744046D01*
X188570180Y-117744046D02*
X188617800Y-117839284D01*
X188617800Y-117839284D02*
X188665419Y-117886903D01*
X188665419Y-117886903D02*
X188760657Y-117934522D01*
X188760657Y-117934522D02*
X189570180Y-117934522D01*
X189141609Y-118553570D02*
X189189228Y-118458332D01*
X189189228Y-118458332D02*
X189236847Y-118410713D01*
X189236847Y-118410713D02*
X189332085Y-118363094D01*
X189332085Y-118363094D02*
X189379704Y-118363094D01*
X189379704Y-118363094D02*
X189474942Y-118410713D01*
X189474942Y-118410713D02*
X189522561Y-118458332D01*
X189522561Y-118458332D02*
X189570180Y-118553570D01*
X189570180Y-118553570D02*
X189570180Y-118744046D01*
X189570180Y-118744046D02*
X189522561Y-118839284D01*
X189522561Y-118839284D02*
X189474942Y-118886903D01*
X189474942Y-118886903D02*
X189379704Y-118934522D01*
X189379704Y-118934522D02*
X189332085Y-118934522D01*
X189332085Y-118934522D02*
X189236847Y-118886903D01*
X189236847Y-118886903D02*
X189189228Y-118839284D01*
X189189228Y-118839284D02*
X189141609Y-118744046D01*
X189141609Y-118744046D02*
X189141609Y-118553570D01*
X189141609Y-118553570D02*
X189093990Y-118458332D01*
X189093990Y-118458332D02*
X189046371Y-118410713D01*
X189046371Y-118410713D02*
X188951133Y-118363094D01*
X188951133Y-118363094D02*
X188760657Y-118363094D01*
X188760657Y-118363094D02*
X188665419Y-118410713D01*
X188665419Y-118410713D02*
X188617800Y-118458332D01*
X188617800Y-118458332D02*
X188570180Y-118553570D01*
X188570180Y-118553570D02*
X188570180Y-118744046D01*
X188570180Y-118744046D02*
X188617800Y-118839284D01*
X188617800Y-118839284D02*
X188665419Y-118886903D01*
X188665419Y-118886903D02*
X188760657Y-118934522D01*
X188760657Y-118934522D02*
X188951133Y-118934522D01*
X188951133Y-118934522D02*
X189046371Y-118886903D01*
X189046371Y-118886903D02*
X189093990Y-118839284D01*
X189093990Y-118839284D02*
X189141609Y-118744046D01*
X190570180Y-115600000D02*
X190332085Y-115600000D01*
X190427323Y-115361905D02*
X190332085Y-115600000D01*
X190332085Y-115600000D02*
X190427323Y-115838095D01*
X190141609Y-115457143D02*
X190332085Y-115600000D01*
X190332085Y-115600000D02*
X190141609Y-115742857D01*
X189479819Y-115519698D02*
X189717914Y-115519698D01*
X189622676Y-115757793D02*
X189717914Y-115519698D01*
X189717914Y-115519698D02*
X189622676Y-115281603D01*
X189908390Y-115662555D02*
X189717914Y-115519698D01*
X189717914Y-115519698D02*
X189908390Y-115376841D01*
X184979819Y-89566666D02*
X184503628Y-89899999D01*
X184979819Y-90138094D02*
X183979819Y-90138094D01*
X183979819Y-90138094D02*
X183979819Y-89757142D01*
X183979819Y-89757142D02*
X184027438Y-89661904D01*
X184027438Y-89661904D02*
X184075057Y-89614285D01*
X184075057Y-89614285D02*
X184170295Y-89566666D01*
X184170295Y-89566666D02*
X184313152Y-89566666D01*
X184313152Y-89566666D02*
X184408390Y-89614285D01*
X184408390Y-89614285D02*
X184456009Y-89661904D01*
X184456009Y-89661904D02*
X184503628Y-89757142D01*
X184503628Y-89757142D02*
X184503628Y-90138094D01*
X183979819Y-89233332D02*
X183979819Y-88614285D01*
X183979819Y-88614285D02*
X184360771Y-88947618D01*
X184360771Y-88947618D02*
X184360771Y-88804761D01*
X184360771Y-88804761D02*
X184408390Y-88709523D01*
X184408390Y-88709523D02*
X184456009Y-88661904D01*
X184456009Y-88661904D02*
X184551247Y-88614285D01*
X184551247Y-88614285D02*
X184789342Y-88614285D01*
X184789342Y-88614285D02*
X184884580Y-88661904D01*
X184884580Y-88661904D02*
X184932200Y-88709523D01*
X184932200Y-88709523D02*
X184979819Y-88804761D01*
X184979819Y-88804761D02*
X184979819Y-89090475D01*
X184979819Y-89090475D02*
X184932200Y-89185713D01*
X184932200Y-89185713D02*
X184884580Y-89233332D01*
X114558333Y-111004819D02*
X114225000Y-110528628D01*
X113986905Y-111004819D02*
X113986905Y-110004819D01*
X113986905Y-110004819D02*
X114367857Y-110004819D01*
X114367857Y-110004819D02*
X114463095Y-110052438D01*
X114463095Y-110052438D02*
X114510714Y-110100057D01*
X114510714Y-110100057D02*
X114558333Y-110195295D01*
X114558333Y-110195295D02*
X114558333Y-110338152D01*
X114558333Y-110338152D02*
X114510714Y-110433390D01*
X114510714Y-110433390D02*
X114463095Y-110481009D01*
X114463095Y-110481009D02*
X114367857Y-110528628D01*
X114367857Y-110528628D02*
X113986905Y-110528628D01*
X115463095Y-110004819D02*
X114986905Y-110004819D01*
X114986905Y-110004819D02*
X114939286Y-110481009D01*
X114939286Y-110481009D02*
X114986905Y-110433390D01*
X114986905Y-110433390D02*
X115082143Y-110385771D01*
X115082143Y-110385771D02*
X115320238Y-110385771D01*
X115320238Y-110385771D02*
X115415476Y-110433390D01*
X115415476Y-110433390D02*
X115463095Y-110481009D01*
X115463095Y-110481009D02*
X115510714Y-110576247D01*
X115510714Y-110576247D02*
X115510714Y-110814342D01*
X115510714Y-110814342D02*
X115463095Y-110909580D01*
X115463095Y-110909580D02*
X115415476Y-110957200D01*
X115415476Y-110957200D02*
X115320238Y-111004819D01*
X115320238Y-111004819D02*
X115082143Y-111004819D01*
X115082143Y-111004819D02*
X114986905Y-110957200D01*
X114986905Y-110957200D02*
X114939286Y-110909580D01*
X148458333Y-112972080D02*
X148410714Y-113019700D01*
X148410714Y-113019700D02*
X148267857Y-113067319D01*
X148267857Y-113067319D02*
X148172619Y-113067319D01*
X148172619Y-113067319D02*
X148029762Y-113019700D01*
X148029762Y-113019700D02*
X147934524Y-112924461D01*
X147934524Y-112924461D02*
X147886905Y-112829223D01*
X147886905Y-112829223D02*
X147839286Y-112638747D01*
X147839286Y-112638747D02*
X147839286Y-112495890D01*
X147839286Y-112495890D02*
X147886905Y-112305414D01*
X147886905Y-112305414D02*
X147934524Y-112210176D01*
X147934524Y-112210176D02*
X148029762Y-112114938D01*
X148029762Y-112114938D02*
X148172619Y-112067319D01*
X148172619Y-112067319D02*
X148267857Y-112067319D01*
X148267857Y-112067319D02*
X148410714Y-112114938D01*
X148410714Y-112114938D02*
X148458333Y-112162557D01*
X149410714Y-113067319D02*
X148839286Y-113067319D01*
X149125000Y-113067319D02*
X149125000Y-112067319D01*
X149125000Y-112067319D02*
X149029762Y-112210176D01*
X149029762Y-112210176D02*
X148934524Y-112305414D01*
X148934524Y-112305414D02*
X148839286Y-112353033D01*
X160382142Y-96779580D02*
X160334523Y-96827200D01*
X160334523Y-96827200D02*
X160191666Y-96874819D01*
X160191666Y-96874819D02*
X160096428Y-96874819D01*
X160096428Y-96874819D02*
X159953571Y-96827200D01*
X159953571Y-96827200D02*
X159858333Y-96731961D01*
X159858333Y-96731961D02*
X159810714Y-96636723D01*
X159810714Y-96636723D02*
X159763095Y-96446247D01*
X159763095Y-96446247D02*
X159763095Y-96303390D01*
X159763095Y-96303390D02*
X159810714Y-96112914D01*
X159810714Y-96112914D02*
X159858333Y-96017676D01*
X159858333Y-96017676D02*
X159953571Y-95922438D01*
X159953571Y-95922438D02*
X160096428Y-95874819D01*
X160096428Y-95874819D02*
X160191666Y-95874819D01*
X160191666Y-95874819D02*
X160334523Y-95922438D01*
X160334523Y-95922438D02*
X160382142Y-95970057D01*
X161334523Y-96874819D02*
X160763095Y-96874819D01*
X161048809Y-96874819D02*
X161048809Y-95874819D01*
X161048809Y-95874819D02*
X160953571Y-96017676D01*
X160953571Y-96017676D02*
X160858333Y-96112914D01*
X160858333Y-96112914D02*
X160763095Y-96160533D01*
X161810714Y-96874819D02*
X162001190Y-96874819D01*
X162001190Y-96874819D02*
X162096428Y-96827200D01*
X162096428Y-96827200D02*
X162144047Y-96779580D01*
X162144047Y-96779580D02*
X162239285Y-96636723D01*
X162239285Y-96636723D02*
X162286904Y-96446247D01*
X162286904Y-96446247D02*
X162286904Y-96065295D01*
X162286904Y-96065295D02*
X162239285Y-95970057D01*
X162239285Y-95970057D02*
X162191666Y-95922438D01*
X162191666Y-95922438D02*
X162096428Y-95874819D01*
X162096428Y-95874819D02*
X161905952Y-95874819D01*
X161905952Y-95874819D02*
X161810714Y-95922438D01*
X161810714Y-95922438D02*
X161763095Y-95970057D01*
X161763095Y-95970057D02*
X161715476Y-96065295D01*
X161715476Y-96065295D02*
X161715476Y-96303390D01*
X161715476Y-96303390D02*
X161763095Y-96398628D01*
X161763095Y-96398628D02*
X161810714Y-96446247D01*
X161810714Y-96446247D02*
X161905952Y-96493866D01*
X161905952Y-96493866D02*
X162096428Y-96493866D01*
X162096428Y-96493866D02*
X162191666Y-96446247D01*
X162191666Y-96446247D02*
X162239285Y-96398628D01*
X162239285Y-96398628D02*
X162286904Y-96303390D01*
X146184580Y-80192857D02*
X146232200Y-80240476D01*
X146232200Y-80240476D02*
X146279819Y-80383333D01*
X146279819Y-80383333D02*
X146279819Y-80478571D01*
X146279819Y-80478571D02*
X146232200Y-80621428D01*
X146232200Y-80621428D02*
X146136961Y-80716666D01*
X146136961Y-80716666D02*
X146041723Y-80764285D01*
X146041723Y-80764285D02*
X145851247Y-80811904D01*
X145851247Y-80811904D02*
X145708390Y-80811904D01*
X145708390Y-80811904D02*
X145517914Y-80764285D01*
X145517914Y-80764285D02*
X145422676Y-80716666D01*
X145422676Y-80716666D02*
X145327438Y-80621428D01*
X145327438Y-80621428D02*
X145279819Y-80478571D01*
X145279819Y-80478571D02*
X145279819Y-80383333D01*
X145279819Y-80383333D02*
X145327438Y-80240476D01*
X145327438Y-80240476D02*
X145375057Y-80192857D01*
X146279819Y-79240476D02*
X146279819Y-79811904D01*
X146279819Y-79526190D02*
X145279819Y-79526190D01*
X145279819Y-79526190D02*
X145422676Y-79621428D01*
X145422676Y-79621428D02*
X145517914Y-79716666D01*
X145517914Y-79716666D02*
X145565533Y-79811904D01*
X145279819Y-78621428D02*
X145279819Y-78526190D01*
X145279819Y-78526190D02*
X145327438Y-78430952D01*
X145327438Y-78430952D02*
X145375057Y-78383333D01*
X145375057Y-78383333D02*
X145470295Y-78335714D01*
X145470295Y-78335714D02*
X145660771Y-78288095D01*
X145660771Y-78288095D02*
X145898866Y-78288095D01*
X145898866Y-78288095D02*
X146089342Y-78335714D01*
X146089342Y-78335714D02*
X146184580Y-78383333D01*
X146184580Y-78383333D02*
X146232200Y-78430952D01*
X146232200Y-78430952D02*
X146279819Y-78526190D01*
X146279819Y-78526190D02*
X146279819Y-78621428D01*
X146279819Y-78621428D02*
X146232200Y-78716666D01*
X146232200Y-78716666D02*
X146184580Y-78764285D01*
X146184580Y-78764285D02*
X146089342Y-78811904D01*
X146089342Y-78811904D02*
X145898866Y-78859523D01*
X145898866Y-78859523D02*
X145660771Y-78859523D01*
X145660771Y-78859523D02*
X145470295Y-78811904D01*
X145470295Y-78811904D02*
X145375057Y-78764285D01*
X145375057Y-78764285D02*
X145327438Y-78716666D01*
X145327438Y-78716666D02*
X145279819Y-78621428D01*
X122566667Y-116107200D02*
X122709524Y-116154819D01*
X122709524Y-116154819D02*
X122947619Y-116154819D01*
X122947619Y-116154819D02*
X123042857Y-116107200D01*
X123042857Y-116107200D02*
X123090476Y-116059580D01*
X123090476Y-116059580D02*
X123138095Y-115964342D01*
X123138095Y-115964342D02*
X123138095Y-115869104D01*
X123138095Y-115869104D02*
X123090476Y-115773866D01*
X123090476Y-115773866D02*
X123042857Y-115726247D01*
X123042857Y-115726247D02*
X122947619Y-115678628D01*
X122947619Y-115678628D02*
X122757143Y-115631009D01*
X122757143Y-115631009D02*
X122661905Y-115583390D01*
X122661905Y-115583390D02*
X122614286Y-115535771D01*
X122614286Y-115535771D02*
X122566667Y-115440533D01*
X122566667Y-115440533D02*
X122566667Y-115345295D01*
X122566667Y-115345295D02*
X122614286Y-115250057D01*
X122614286Y-115250057D02*
X122661905Y-115202438D01*
X122661905Y-115202438D02*
X122757143Y-115154819D01*
X122757143Y-115154819D02*
X122995238Y-115154819D01*
X122995238Y-115154819D02*
X123138095Y-115202438D01*
X123471429Y-115154819D02*
X123709524Y-116154819D01*
X123709524Y-116154819D02*
X123900000Y-115440533D01*
X123900000Y-115440533D02*
X124090476Y-116154819D01*
X124090476Y-116154819D02*
X124328572Y-115154819D01*
X125185714Y-115154819D02*
X124709524Y-115154819D01*
X124709524Y-115154819D02*
X124661905Y-115631009D01*
X124661905Y-115631009D02*
X124709524Y-115583390D01*
X124709524Y-115583390D02*
X124804762Y-115535771D01*
X124804762Y-115535771D02*
X125042857Y-115535771D01*
X125042857Y-115535771D02*
X125138095Y-115583390D01*
X125138095Y-115583390D02*
X125185714Y-115631009D01*
X125185714Y-115631009D02*
X125233333Y-115726247D01*
X125233333Y-115726247D02*
X125233333Y-115964342D01*
X125233333Y-115964342D02*
X125185714Y-116059580D01*
X125185714Y-116059580D02*
X125138095Y-116107200D01*
X125138095Y-116107200D02*
X125042857Y-116154819D01*
X125042857Y-116154819D02*
X124804762Y-116154819D01*
X124804762Y-116154819D02*
X124709524Y-116107200D01*
X124709524Y-116107200D02*
X124661905Y-116059580D01*
X109190295Y-107969819D02*
X109190295Y-108779342D01*
X109190295Y-108779342D02*
X109237914Y-108874580D01*
X109237914Y-108874580D02*
X109285533Y-108922200D01*
X109285533Y-108922200D02*
X109380771Y-108969819D01*
X109380771Y-108969819D02*
X109571247Y-108969819D01*
X109571247Y-108969819D02*
X109666485Y-108922200D01*
X109666485Y-108922200D02*
X109714104Y-108874580D01*
X109714104Y-108874580D02*
X109761723Y-108779342D01*
X109761723Y-108779342D02*
X109761723Y-107969819D01*
X110142676Y-107969819D02*
X110761723Y-107969819D01*
X110761723Y-107969819D02*
X110428390Y-108350771D01*
X110428390Y-108350771D02*
X110571247Y-108350771D01*
X110571247Y-108350771D02*
X110666485Y-108398390D01*
X110666485Y-108398390D02*
X110714104Y-108446009D01*
X110714104Y-108446009D02*
X110761723Y-108541247D01*
X110761723Y-108541247D02*
X110761723Y-108779342D01*
X110761723Y-108779342D02*
X110714104Y-108874580D01*
X110714104Y-108874580D02*
X110666485Y-108922200D01*
X110666485Y-108922200D02*
X110571247Y-108969819D01*
X110571247Y-108969819D02*
X110285533Y-108969819D01*
X110285533Y-108969819D02*
X110190295Y-108922200D01*
X110190295Y-108922200D02*
X110142676Y-108874580D01*
X167691667Y-114507200D02*
X167834524Y-114554819D01*
X167834524Y-114554819D02*
X168072619Y-114554819D01*
X168072619Y-114554819D02*
X168167857Y-114507200D01*
X168167857Y-114507200D02*
X168215476Y-114459580D01*
X168215476Y-114459580D02*
X168263095Y-114364342D01*
X168263095Y-114364342D02*
X168263095Y-114269104D01*
X168263095Y-114269104D02*
X168215476Y-114173866D01*
X168215476Y-114173866D02*
X168167857Y-114126247D01*
X168167857Y-114126247D02*
X168072619Y-114078628D01*
X168072619Y-114078628D02*
X167882143Y-114031009D01*
X167882143Y-114031009D02*
X167786905Y-113983390D01*
X167786905Y-113983390D02*
X167739286Y-113935771D01*
X167739286Y-113935771D02*
X167691667Y-113840533D01*
X167691667Y-113840533D02*
X167691667Y-113745295D01*
X167691667Y-113745295D02*
X167739286Y-113650057D01*
X167739286Y-113650057D02*
X167786905Y-113602438D01*
X167786905Y-113602438D02*
X167882143Y-113554819D01*
X167882143Y-113554819D02*
X168120238Y-113554819D01*
X168120238Y-113554819D02*
X168263095Y-113602438D01*
X168596429Y-113554819D02*
X168834524Y-114554819D01*
X168834524Y-114554819D02*
X169025000Y-113840533D01*
X169025000Y-113840533D02*
X169215476Y-114554819D01*
X169215476Y-114554819D02*
X169453572Y-113554819D01*
X170358333Y-114554819D02*
X169786905Y-114554819D01*
X170072619Y-114554819D02*
X170072619Y-113554819D01*
X170072619Y-113554819D02*
X169977381Y-113697676D01*
X169977381Y-113697676D02*
X169882143Y-113792914D01*
X169882143Y-113792914D02*
X169786905Y-113840533D01*
X118329819Y-111742857D02*
X117853628Y-112076190D01*
X118329819Y-112314285D02*
X117329819Y-112314285D01*
X117329819Y-112314285D02*
X117329819Y-111933333D01*
X117329819Y-111933333D02*
X117377438Y-111838095D01*
X117377438Y-111838095D02*
X117425057Y-111790476D01*
X117425057Y-111790476D02*
X117520295Y-111742857D01*
X117520295Y-111742857D02*
X117663152Y-111742857D01*
X117663152Y-111742857D02*
X117758390Y-111790476D01*
X117758390Y-111790476D02*
X117806009Y-111838095D01*
X117806009Y-111838095D02*
X117853628Y-111933333D01*
X117853628Y-111933333D02*
X117853628Y-112314285D01*
X118329819Y-110790476D02*
X118329819Y-111361904D01*
X118329819Y-111076190D02*
X117329819Y-111076190D01*
X117329819Y-111076190D02*
X117472676Y-111171428D01*
X117472676Y-111171428D02*
X117567914Y-111266666D01*
X117567914Y-111266666D02*
X117615533Y-111361904D01*
X117329819Y-110457142D02*
X117329819Y-109838095D01*
X117329819Y-109838095D02*
X117710771Y-110171428D01*
X117710771Y-110171428D02*
X117710771Y-110028571D01*
X117710771Y-110028571D02*
X117758390Y-109933333D01*
X117758390Y-109933333D02*
X117806009Y-109885714D01*
X117806009Y-109885714D02*
X117901247Y-109838095D01*
X117901247Y-109838095D02*
X118139342Y-109838095D01*
X118139342Y-109838095D02*
X118234580Y-109885714D01*
X118234580Y-109885714D02*
X118282200Y-109933333D01*
X118282200Y-109933333D02*
X118329819Y-110028571D01*
X118329819Y-110028571D02*
X118329819Y-110314285D01*
X118329819Y-110314285D02*
X118282200Y-110409523D01*
X118282200Y-110409523D02*
X118234580Y-110457142D01*
X157782142Y-91109580D02*
X157734523Y-91157200D01*
X157734523Y-91157200D02*
X157591666Y-91204819D01*
X157591666Y-91204819D02*
X157496428Y-91204819D01*
X157496428Y-91204819D02*
X157353571Y-91157200D01*
X157353571Y-91157200D02*
X157258333Y-91061961D01*
X157258333Y-91061961D02*
X157210714Y-90966723D01*
X157210714Y-90966723D02*
X157163095Y-90776247D01*
X157163095Y-90776247D02*
X157163095Y-90633390D01*
X157163095Y-90633390D02*
X157210714Y-90442914D01*
X157210714Y-90442914D02*
X157258333Y-90347676D01*
X157258333Y-90347676D02*
X157353571Y-90252438D01*
X157353571Y-90252438D02*
X157496428Y-90204819D01*
X157496428Y-90204819D02*
X157591666Y-90204819D01*
X157591666Y-90204819D02*
X157734523Y-90252438D01*
X157734523Y-90252438D02*
X157782142Y-90300057D01*
X158734523Y-91204819D02*
X158163095Y-91204819D01*
X158448809Y-91204819D02*
X158448809Y-90204819D01*
X158448809Y-90204819D02*
X158353571Y-90347676D01*
X158353571Y-90347676D02*
X158258333Y-90442914D01*
X158258333Y-90442914D02*
X158163095Y-90490533D01*
X159591666Y-90538152D02*
X159591666Y-91204819D01*
X159353571Y-90157200D02*
X159115476Y-90871485D01*
X159115476Y-90871485D02*
X159734523Y-90871485D01*
X113070180Y-77338095D02*
X112260657Y-77338095D01*
X112260657Y-77338095D02*
X112165419Y-77385714D01*
X112165419Y-77385714D02*
X112117800Y-77433333D01*
X112117800Y-77433333D02*
X112070180Y-77528571D01*
X112070180Y-77528571D02*
X112070180Y-77719047D01*
X112070180Y-77719047D02*
X112117800Y-77814285D01*
X112117800Y-77814285D02*
X112165419Y-77861904D01*
X112165419Y-77861904D02*
X112260657Y-77909523D01*
X112260657Y-77909523D02*
X113070180Y-77909523D01*
X113070180Y-78290476D02*
X113070180Y-78957142D01*
X113070180Y-78957142D02*
X112070180Y-78528571D01*
X115671180Y-76379150D02*
X115433085Y-76379150D01*
X115528323Y-76141055D02*
X115433085Y-76379150D01*
X115433085Y-76379150D02*
X115528323Y-76617245D01*
X115242609Y-76236293D02*
X115433085Y-76379150D01*
X115433085Y-76379150D02*
X115242609Y-76522007D01*
X114580819Y-76379149D02*
X114818914Y-76379149D01*
X114723676Y-76617244D02*
X114818914Y-76379149D01*
X114818914Y-76379149D02*
X114723676Y-76141054D01*
X115009390Y-76522006D02*
X114818914Y-76379149D01*
X114818914Y-76379149D02*
X115009390Y-76236292D01*
X137814580Y-88142857D02*
X137862200Y-88190476D01*
X137862200Y-88190476D02*
X137909819Y-88333333D01*
X137909819Y-88333333D02*
X137909819Y-88428571D01*
X137909819Y-88428571D02*
X137862200Y-88571428D01*
X137862200Y-88571428D02*
X137766961Y-88666666D01*
X137766961Y-88666666D02*
X137671723Y-88714285D01*
X137671723Y-88714285D02*
X137481247Y-88761904D01*
X137481247Y-88761904D02*
X137338390Y-88761904D01*
X137338390Y-88761904D02*
X137147914Y-88714285D01*
X137147914Y-88714285D02*
X137052676Y-88666666D01*
X137052676Y-88666666D02*
X136957438Y-88571428D01*
X136957438Y-88571428D02*
X136909819Y-88428571D01*
X136909819Y-88428571D02*
X136909819Y-88333333D01*
X136909819Y-88333333D02*
X136957438Y-88190476D01*
X136957438Y-88190476D02*
X137005057Y-88142857D01*
X137909819Y-87190476D02*
X137909819Y-87761904D01*
X137909819Y-87476190D02*
X136909819Y-87476190D01*
X136909819Y-87476190D02*
X137052676Y-87571428D01*
X137052676Y-87571428D02*
X137147914Y-87666666D01*
X137147914Y-87666666D02*
X137195533Y-87761904D01*
X136909819Y-86857142D02*
X136909819Y-86238095D01*
X136909819Y-86238095D02*
X137290771Y-86571428D01*
X137290771Y-86571428D02*
X137290771Y-86428571D01*
X137290771Y-86428571D02*
X137338390Y-86333333D01*
X137338390Y-86333333D02*
X137386009Y-86285714D01*
X137386009Y-86285714D02*
X137481247Y-86238095D01*
X137481247Y-86238095D02*
X137719342Y-86238095D01*
X137719342Y-86238095D02*
X137814580Y-86285714D01*
X137814580Y-86285714D02*
X137862200Y-86333333D01*
X137862200Y-86333333D02*
X137909819Y-86428571D01*
X137909819Y-86428571D02*
X137909819Y-86714285D01*
X137909819Y-86714285D02*
X137862200Y-86809523D01*
X137862200Y-86809523D02*
X137814580Y-86857142D01*
X153691667Y-114469700D02*
X153834524Y-114517319D01*
X153834524Y-114517319D02*
X154072619Y-114517319D01*
X154072619Y-114517319D02*
X154167857Y-114469700D01*
X154167857Y-114469700D02*
X154215476Y-114422080D01*
X154215476Y-114422080D02*
X154263095Y-114326842D01*
X154263095Y-114326842D02*
X154263095Y-114231604D01*
X154263095Y-114231604D02*
X154215476Y-114136366D01*
X154215476Y-114136366D02*
X154167857Y-114088747D01*
X154167857Y-114088747D02*
X154072619Y-114041128D01*
X154072619Y-114041128D02*
X153882143Y-113993509D01*
X153882143Y-113993509D02*
X153786905Y-113945890D01*
X153786905Y-113945890D02*
X153739286Y-113898271D01*
X153739286Y-113898271D02*
X153691667Y-113803033D01*
X153691667Y-113803033D02*
X153691667Y-113707795D01*
X153691667Y-113707795D02*
X153739286Y-113612557D01*
X153739286Y-113612557D02*
X153786905Y-113564938D01*
X153786905Y-113564938D02*
X153882143Y-113517319D01*
X153882143Y-113517319D02*
X154120238Y-113517319D01*
X154120238Y-113517319D02*
X154263095Y-113564938D01*
X154596429Y-113517319D02*
X154834524Y-114517319D01*
X154834524Y-114517319D02*
X155025000Y-113803033D01*
X155025000Y-113803033D02*
X155215476Y-114517319D01*
X155215476Y-114517319D02*
X155453572Y-113517319D01*
X155786905Y-113612557D02*
X155834524Y-113564938D01*
X155834524Y-113564938D02*
X155929762Y-113517319D01*
X155929762Y-113517319D02*
X156167857Y-113517319D01*
X156167857Y-113517319D02*
X156263095Y-113564938D01*
X156263095Y-113564938D02*
X156310714Y-113612557D01*
X156310714Y-113612557D02*
X156358333Y-113707795D01*
X156358333Y-113707795D02*
X156358333Y-113803033D01*
X156358333Y-113803033D02*
X156310714Y-113945890D01*
X156310714Y-113945890D02*
X155739286Y-114517319D01*
X155739286Y-114517319D02*
X156358333Y-114517319D01*
X109463095Y-95433719D02*
X109463095Y-96243242D01*
X109463095Y-96243242D02*
X109510714Y-96338480D01*
X109510714Y-96338480D02*
X109558333Y-96386100D01*
X109558333Y-96386100D02*
X109653571Y-96433719D01*
X109653571Y-96433719D02*
X109844047Y-96433719D01*
X109844047Y-96433719D02*
X109939285Y-96386100D01*
X109939285Y-96386100D02*
X109986904Y-96338480D01*
X109986904Y-96338480D02*
X110034523Y-96243242D01*
X110034523Y-96243242D02*
X110034523Y-95433719D01*
X110986904Y-95433719D02*
X110510714Y-95433719D01*
X110510714Y-95433719D02*
X110463095Y-95909909D01*
X110463095Y-95909909D02*
X110510714Y-95862290D01*
X110510714Y-95862290D02*
X110605952Y-95814671D01*
X110605952Y-95814671D02*
X110844047Y-95814671D01*
X110844047Y-95814671D02*
X110939285Y-95862290D01*
X110939285Y-95862290D02*
X110986904Y-95909909D01*
X110986904Y-95909909D02*
X111034523Y-96005147D01*
X111034523Y-96005147D02*
X111034523Y-96243242D01*
X111034523Y-96243242D02*
X110986904Y-96338480D01*
X110986904Y-96338480D02*
X110939285Y-96386100D01*
X110939285Y-96386100D02*
X110844047Y-96433719D01*
X110844047Y-96433719D02*
X110605952Y-96433719D01*
X110605952Y-96433719D02*
X110510714Y-96386100D01*
X110510714Y-96386100D02*
X110463095Y-96338480D01*
X163858333Y-110959580D02*
X163810714Y-111007200D01*
X163810714Y-111007200D02*
X163667857Y-111054819D01*
X163667857Y-111054819D02*
X163572619Y-111054819D01*
X163572619Y-111054819D02*
X163429762Y-111007200D01*
X163429762Y-111007200D02*
X163334524Y-110911961D01*
X163334524Y-110911961D02*
X163286905Y-110816723D01*
X163286905Y-110816723D02*
X163239286Y-110626247D01*
X163239286Y-110626247D02*
X163239286Y-110483390D01*
X163239286Y-110483390D02*
X163286905Y-110292914D01*
X163286905Y-110292914D02*
X163334524Y-110197676D01*
X163334524Y-110197676D02*
X163429762Y-110102438D01*
X163429762Y-110102438D02*
X163572619Y-110054819D01*
X163572619Y-110054819D02*
X163667857Y-110054819D01*
X163667857Y-110054819D02*
X163810714Y-110102438D01*
X163810714Y-110102438D02*
X163858333Y-110150057D01*
X164239286Y-110150057D02*
X164286905Y-110102438D01*
X164286905Y-110102438D02*
X164382143Y-110054819D01*
X164382143Y-110054819D02*
X164620238Y-110054819D01*
X164620238Y-110054819D02*
X164715476Y-110102438D01*
X164715476Y-110102438D02*
X164763095Y-110150057D01*
X164763095Y-110150057D02*
X164810714Y-110245295D01*
X164810714Y-110245295D02*
X164810714Y-110340533D01*
X164810714Y-110340533D02*
X164763095Y-110483390D01*
X164763095Y-110483390D02*
X164191667Y-111054819D01*
X164191667Y-111054819D02*
X164810714Y-111054819D01*
X168763095Y-95554819D02*
X169334523Y-95554819D01*
X169048809Y-96554819D02*
X169048809Y-95554819D01*
X169667857Y-96554819D02*
X169667857Y-95554819D01*
X169667857Y-95554819D02*
X170048809Y-95554819D01*
X170048809Y-95554819D02*
X170144047Y-95602438D01*
X170144047Y-95602438D02*
X170191666Y-95650057D01*
X170191666Y-95650057D02*
X170239285Y-95745295D01*
X170239285Y-95745295D02*
X170239285Y-95888152D01*
X170239285Y-95888152D02*
X170191666Y-95983390D01*
X170191666Y-95983390D02*
X170144047Y-96031009D01*
X170144047Y-96031009D02*
X170048809Y-96078628D01*
X170048809Y-96078628D02*
X169667857Y-96078628D01*
X170572619Y-95554819D02*
X171191666Y-95554819D01*
X171191666Y-95554819D02*
X170858333Y-95935771D01*
X170858333Y-95935771D02*
X171001190Y-95935771D01*
X171001190Y-95935771D02*
X171096428Y-95983390D01*
X171096428Y-95983390D02*
X171144047Y-96031009D01*
X171144047Y-96031009D02*
X171191666Y-96126247D01*
X171191666Y-96126247D02*
X171191666Y-96364342D01*
X171191666Y-96364342D02*
X171144047Y-96459580D01*
X171144047Y-96459580D02*
X171096428Y-96507200D01*
X171096428Y-96507200D02*
X171001190Y-96554819D01*
X171001190Y-96554819D02*
X170715476Y-96554819D01*
X170715476Y-96554819D02*
X170620238Y-96507200D01*
X170620238Y-96507200D02*
X170572619Y-96459580D01*
X142263095Y-102454819D02*
X142263095Y-103264342D01*
X142263095Y-103264342D02*
X142310714Y-103359580D01*
X142310714Y-103359580D02*
X142358333Y-103407200D01*
X142358333Y-103407200D02*
X142453571Y-103454819D01*
X142453571Y-103454819D02*
X142644047Y-103454819D01*
X142644047Y-103454819D02*
X142739285Y-103407200D01*
X142739285Y-103407200D02*
X142786904Y-103359580D01*
X142786904Y-103359580D02*
X142834523Y-103264342D01*
X142834523Y-103264342D02*
X142834523Y-102454819D01*
X143834523Y-103454819D02*
X143263095Y-103454819D01*
X143548809Y-103454819D02*
X143548809Y-102454819D01*
X143548809Y-102454819D02*
X143453571Y-102597676D01*
X143453571Y-102597676D02*
X143358333Y-102692914D01*
X143358333Y-102692914D02*
X143263095Y-102740533D01*
X159507142Y-112239580D02*
X159459523Y-112287200D01*
X159459523Y-112287200D02*
X159316666Y-112334819D01*
X159316666Y-112334819D02*
X159221428Y-112334819D01*
X159221428Y-112334819D02*
X159078571Y-112287200D01*
X159078571Y-112287200D02*
X158983333Y-112191961D01*
X158983333Y-112191961D02*
X158935714Y-112096723D01*
X158935714Y-112096723D02*
X158888095Y-111906247D01*
X158888095Y-111906247D02*
X158888095Y-111763390D01*
X158888095Y-111763390D02*
X158935714Y-111572914D01*
X158935714Y-111572914D02*
X158983333Y-111477676D01*
X158983333Y-111477676D02*
X159078571Y-111382438D01*
X159078571Y-111382438D02*
X159221428Y-111334819D01*
X159221428Y-111334819D02*
X159316666Y-111334819D01*
X159316666Y-111334819D02*
X159459523Y-111382438D01*
X159459523Y-111382438D02*
X159507142Y-111430057D01*
X160459523Y-112334819D02*
X159888095Y-112334819D01*
X160173809Y-112334819D02*
X160173809Y-111334819D01*
X160173809Y-111334819D02*
X160078571Y-111477676D01*
X160078571Y-111477676D02*
X159983333Y-111572914D01*
X159983333Y-111572914D02*
X159888095Y-111620533D01*
X161030952Y-111763390D02*
X160935714Y-111715771D01*
X160935714Y-111715771D02*
X160888095Y-111668152D01*
X160888095Y-111668152D02*
X160840476Y-111572914D01*
X160840476Y-111572914D02*
X160840476Y-111525295D01*
X160840476Y-111525295D02*
X160888095Y-111430057D01*
X160888095Y-111430057D02*
X160935714Y-111382438D01*
X160935714Y-111382438D02*
X161030952Y-111334819D01*
X161030952Y-111334819D02*
X161221428Y-111334819D01*
X161221428Y-111334819D02*
X161316666Y-111382438D01*
X161316666Y-111382438D02*
X161364285Y-111430057D01*
X161364285Y-111430057D02*
X161411904Y-111525295D01*
X161411904Y-111525295D02*
X161411904Y-111572914D01*
X161411904Y-111572914D02*
X161364285Y-111668152D01*
X161364285Y-111668152D02*
X161316666Y-111715771D01*
X161316666Y-111715771D02*
X161221428Y-111763390D01*
X161221428Y-111763390D02*
X161030952Y-111763390D01*
X161030952Y-111763390D02*
X160935714Y-111811009D01*
X160935714Y-111811009D02*
X160888095Y-111858628D01*
X160888095Y-111858628D02*
X160840476Y-111953866D01*
X160840476Y-111953866D02*
X160840476Y-112144342D01*
X160840476Y-112144342D02*
X160888095Y-112239580D01*
X160888095Y-112239580D02*
X160935714Y-112287200D01*
X160935714Y-112287200D02*
X161030952Y-112334819D01*
X161030952Y-112334819D02*
X161221428Y-112334819D01*
X161221428Y-112334819D02*
X161316666Y-112287200D01*
X161316666Y-112287200D02*
X161364285Y-112239580D01*
X161364285Y-112239580D02*
X161411904Y-112144342D01*
X161411904Y-112144342D02*
X161411904Y-111953866D01*
X161411904Y-111953866D02*
X161364285Y-111858628D01*
X161364285Y-111858628D02*
X161316666Y-111811009D01*
X161316666Y-111811009D02*
X161221428Y-111763390D01*
X127358333Y-114959580D02*
X127310714Y-115007200D01*
X127310714Y-115007200D02*
X127167857Y-115054819D01*
X127167857Y-115054819D02*
X127072619Y-115054819D01*
X127072619Y-115054819D02*
X126929762Y-115007200D01*
X126929762Y-115007200D02*
X126834524Y-114911961D01*
X126834524Y-114911961D02*
X126786905Y-114816723D01*
X126786905Y-114816723D02*
X126739286Y-114626247D01*
X126739286Y-114626247D02*
X126739286Y-114483390D01*
X126739286Y-114483390D02*
X126786905Y-114292914D01*
X126786905Y-114292914D02*
X126834524Y-114197676D01*
X126834524Y-114197676D02*
X126929762Y-114102438D01*
X126929762Y-114102438D02*
X127072619Y-114054819D01*
X127072619Y-114054819D02*
X127167857Y-114054819D01*
X127167857Y-114054819D02*
X127310714Y-114102438D01*
X127310714Y-114102438D02*
X127358333Y-114150057D01*
X128263095Y-114054819D02*
X127786905Y-114054819D01*
X127786905Y-114054819D02*
X127739286Y-114531009D01*
X127739286Y-114531009D02*
X127786905Y-114483390D01*
X127786905Y-114483390D02*
X127882143Y-114435771D01*
X127882143Y-114435771D02*
X128120238Y-114435771D01*
X128120238Y-114435771D02*
X128215476Y-114483390D01*
X128215476Y-114483390D02*
X128263095Y-114531009D01*
X128263095Y-114531009D02*
X128310714Y-114626247D01*
X128310714Y-114626247D02*
X128310714Y-114864342D01*
X128310714Y-114864342D02*
X128263095Y-114959580D01*
X128263095Y-114959580D02*
X128215476Y-115007200D01*
X128215476Y-115007200D02*
X128120238Y-115054819D01*
X128120238Y-115054819D02*
X127882143Y-115054819D01*
X127882143Y-115054819D02*
X127786905Y-115007200D01*
X127786905Y-115007200D02*
X127739286Y-114959580D01*
D14*
%TO.C,J3*%
X167975000Y-78830000D02*
X178195000Y-78830000D01*
X167975000Y-78830000D02*
X167975000Y-78260000D01*
X178195000Y-78830000D02*
X178195000Y-77807530D01*
X166580000Y-77500000D02*
X166580000Y-76170000D01*
X178195000Y-77192470D02*
X178195000Y-76170000D01*
X167975000Y-76740000D02*
X167975000Y-76170000D01*
X166580000Y-76170000D02*
X167340000Y-76170000D01*
X167975000Y-76170000D02*
X178195000Y-76170000D01*
%TO.C,SW4*%
X129450000Y-116750000D02*
X129450000Y-116800000D01*
X129450000Y-119950000D02*
X129450000Y-118450000D01*
X129450000Y-121650000D02*
X129450000Y-121600000D01*
X134350000Y-116750000D02*
X129450000Y-116750000D01*
X134350000Y-116750000D02*
X134350000Y-116800000D01*
X134350000Y-119950000D02*
X134350000Y-118450000D01*
X134350000Y-121650000D02*
X129450000Y-121650000D01*
X134350000Y-121650000D02*
X134350000Y-121600000D01*
%TO.C,Y1*%
X157450000Y-100375000D02*
X157750000Y-100375000D01*
X157450000Y-107775000D02*
X157450000Y-100375000D01*
X157750000Y-107775000D02*
X157450000Y-107775000D01*
X159850000Y-100375000D02*
X160450000Y-100375000D01*
X160450000Y-107775000D02*
X159850000Y-107775000D01*
X160450000Y-108275000D02*
X160450000Y-107775000D01*
X162550000Y-107775000D02*
X162850000Y-107775000D01*
X162550000Y-108275000D02*
X162550000Y-107775000D01*
X162850000Y-100375000D02*
X162550000Y-100375000D01*
X162850000Y-107775000D02*
X162850000Y-100375000D01*
%TO.C,C8*%
X124126248Y-83064999D02*
X124648752Y-83064999D01*
X124126248Y-84534999D02*
X124648752Y-84534999D01*
%TO.C,R12*%
X128790000Y-111327064D02*
X128790000Y-110872936D01*
X130260000Y-111327064D02*
X130260000Y-110872936D01*
%TO.C,TP2*%
X133425000Y-79100000D02*
G75*
G02*
X131025000Y-79100000I-1200000J0D01*
G01*
X131025000Y-79100000D02*
G75*
G02*
X133425000Y-79100000I1200000J0D01*
G01*
%TO.C,R1*%
X155040000Y-111039564D02*
X155040000Y-110585436D01*
X156510000Y-111039564D02*
X156510000Y-110585436D01*
%TO.C,C12*%
X134263748Y-100365000D02*
X134786252Y-100365000D01*
X134263748Y-101835000D02*
X134786252Y-101835000D01*
%TO.C,C3*%
X191290000Y-107361252D02*
X191290000Y-106838748D01*
X192760000Y-107361252D02*
X192760000Y-106838748D01*
%TO.C,R2*%
X178640000Y-89627064D02*
X178640000Y-89172936D01*
X180110000Y-89627064D02*
X180110000Y-89172936D01*
%TO.C,C7*%
X124126248Y-79564999D02*
X124648752Y-79564999D01*
X124126248Y-81034999D02*
X124648752Y-81034999D01*
%TO.C,R11*%
X138790000Y-111327064D02*
X138790000Y-110872936D01*
X140260000Y-111327064D02*
X140260000Y-110872936D01*
%TO.C,R8*%
X107490000Y-100705964D02*
X107490000Y-100251836D01*
X108960000Y-100705964D02*
X108960000Y-100251836D01*
D15*
%TO.C,G\u002A\u002A\u002A*%
X152244598Y-81897275D02*
X152278328Y-81942610D01*
X152298267Y-81998270D01*
X152296285Y-82027277D01*
X152274020Y-82020466D01*
X152267010Y-82006732D01*
X152230501Y-81953452D01*
X152167548Y-81935491D01*
X152071994Y-81952700D01*
X151951074Y-81998992D01*
X151842673Y-82045958D01*
X151772281Y-82072247D01*
X151726161Y-82079729D01*
X151690577Y-82070277D01*
X151651793Y-82045760D01*
X151644613Y-82040733D01*
X151597178Y-81986267D01*
X151581889Y-81935675D01*
X151581889Y-81874551D01*
X151625822Y-81937276D01*
X151667095Y-81980443D01*
X151719019Y-81995969D01*
X151793253Y-81983502D01*
X151901457Y-81942691D01*
X151935295Y-81927969D01*
X152072718Y-81878225D01*
X152174259Y-81867927D01*
X152244598Y-81897275D01*
G36*
X152244598Y-81897275D02*
G01*
X152278328Y-81942610D01*
X152298267Y-81998270D01*
X152296285Y-82027277D01*
X152274020Y-82020466D01*
X152267010Y-82006732D01*
X152230501Y-81953452D01*
X152167548Y-81935491D01*
X152071994Y-81952700D01*
X151951074Y-81998992D01*
X151842673Y-82045958D01*
X151772281Y-82072247D01*
X151726161Y-82079729D01*
X151690577Y-82070277D01*
X151651793Y-82045760D01*
X151644613Y-82040733D01*
X151597178Y-81986267D01*
X151581889Y-81935675D01*
X151581889Y-81874551D01*
X151625822Y-81937276D01*
X151667095Y-81980443D01*
X151719019Y-81995969D01*
X151793253Y-81983502D01*
X151901457Y-81942691D01*
X151935295Y-81927969D01*
X152072718Y-81878225D01*
X152174259Y-81867927D01*
X152244598Y-81897275D01*
G37*
X148250199Y-81896933D02*
X148338614Y-81922131D01*
X148399530Y-81943541D01*
X148513413Y-81982814D01*
X148589799Y-81996390D01*
X148641569Y-81984029D01*
X148681605Y-81945492D01*
X148686861Y-81938202D01*
X148728894Y-81895971D01*
X148751090Y-81902181D01*
X148742357Y-81949510D01*
X148733084Y-81968713D01*
X148688569Y-82030922D01*
X148631868Y-82061042D01*
X148551816Y-82060556D01*
X148437248Y-82030943D01*
X148388260Y-82014437D01*
X148243727Y-81971792D01*
X148145279Y-81961061D01*
X148092446Y-81982245D01*
X148082333Y-82014347D01*
X148064338Y-82061586D01*
X148054111Y-82070555D01*
X148031337Y-82062536D01*
X148025889Y-82034262D01*
X148050598Y-81965989D01*
X148111139Y-81910864D01*
X148187133Y-81887148D01*
X148190086Y-81887111D01*
X148250199Y-81896933D01*
G36*
X148250199Y-81896933D02*
G01*
X148338614Y-81922131D01*
X148399530Y-81943541D01*
X148513413Y-81982814D01*
X148589799Y-81996390D01*
X148641569Y-81984029D01*
X148681605Y-81945492D01*
X148686861Y-81938202D01*
X148728894Y-81895971D01*
X148751090Y-81902181D01*
X148742357Y-81949510D01*
X148733084Y-81968713D01*
X148688569Y-82030922D01*
X148631868Y-82061042D01*
X148551816Y-82060556D01*
X148437248Y-82030943D01*
X148388260Y-82014437D01*
X148243727Y-81971792D01*
X148145279Y-81961061D01*
X148092446Y-81982245D01*
X148082333Y-82014347D01*
X148064338Y-82061586D01*
X148054111Y-82070555D01*
X148031337Y-82062536D01*
X148025889Y-82034262D01*
X148050598Y-81965989D01*
X148111139Y-81910864D01*
X148187133Y-81887148D01*
X148190086Y-81887111D01*
X148250199Y-81896933D01*
G37*
X149048257Y-82020047D02*
X149056000Y-82493889D01*
X149133611Y-82502819D01*
X149199614Y-82515730D01*
X149215590Y-82531159D01*
X149187701Y-82546271D01*
X149122112Y-82558233D01*
X149024984Y-82564213D01*
X148999555Y-82564444D01*
X148898385Y-82561229D01*
X148823542Y-82552725D01*
X148788815Y-82540643D01*
X148787889Y-82538185D01*
X148811885Y-82514255D01*
X148851389Y-82502907D01*
X148876349Y-82497244D01*
X148893951Y-82482653D01*
X148905725Y-82450309D01*
X148913203Y-82391388D01*
X148917914Y-82297065D01*
X148921390Y-82158516D01*
X148922719Y-82091722D01*
X148930549Y-81689555D01*
X148859219Y-81689555D01*
X148805811Y-81679990D01*
X148787889Y-81661333D01*
X148811834Y-81639399D01*
X148852164Y-81633111D01*
X148925242Y-81616919D01*
X148978477Y-81589659D01*
X149040514Y-81546206D01*
X149048257Y-82020047D01*
G36*
X149048257Y-82020047D02*
G01*
X149056000Y-82493889D01*
X149133611Y-82502819D01*
X149199614Y-82515730D01*
X149215590Y-82531159D01*
X149187701Y-82546271D01*
X149122112Y-82558233D01*
X149024984Y-82564213D01*
X148999555Y-82564444D01*
X148898385Y-82561229D01*
X148823542Y-82552725D01*
X148788815Y-82540643D01*
X148787889Y-82538185D01*
X148811885Y-82514255D01*
X148851389Y-82502907D01*
X148876349Y-82497244D01*
X148893951Y-82482653D01*
X148905725Y-82450309D01*
X148913203Y-82391388D01*
X148917914Y-82297065D01*
X148921390Y-82158516D01*
X148922719Y-82091722D01*
X148930549Y-81689555D01*
X148859219Y-81689555D01*
X148805811Y-81679990D01*
X148787889Y-81661333D01*
X148811834Y-81639399D01*
X148852164Y-81633111D01*
X148925242Y-81616919D01*
X148978477Y-81589659D01*
X149040514Y-81546206D01*
X149048257Y-82020047D01*
G37*
X150528008Y-81574495D02*
X150626258Y-81636069D01*
X150689940Y-81715743D01*
X150733910Y-81835294D01*
X150749559Y-81981008D01*
X150739223Y-82136928D01*
X150705240Y-82287096D01*
X150649945Y-82415554D01*
X150575676Y-82506344D01*
X150573975Y-82507696D01*
X150483351Y-82552268D01*
X150381008Y-82563816D01*
X150288392Y-82542255D01*
X150242284Y-82509051D01*
X150210557Y-82449375D01*
X150215611Y-82396008D01*
X150254305Y-82367837D01*
X150265909Y-82366889D01*
X150302421Y-82390828D01*
X150334863Y-82448686D01*
X150335769Y-82451231D01*
X150362333Y-82508086D01*
X150396274Y-82521010D01*
X150429379Y-82511821D01*
X150517744Y-82450368D01*
X150581981Y-82345554D01*
X150615606Y-82209475D01*
X150630895Y-82073835D01*
X150552252Y-82135695D01*
X150453982Y-82186644D01*
X150360642Y-82189537D01*
X150277819Y-82152758D01*
X150211106Y-82084692D01*
X150166092Y-81993724D01*
X150148368Y-81888238D01*
X150149696Y-81878456D01*
X150269555Y-81878456D01*
X150273928Y-81975543D01*
X150291267Y-82036237D01*
X150327905Y-82080200D01*
X150336989Y-82087813D01*
X150420354Y-82126003D01*
X150504352Y-82108514D01*
X150572944Y-82050865D01*
X150610666Y-81972509D01*
X150624127Y-81868698D01*
X150613750Y-81762860D01*
X150579960Y-81678425D01*
X150565889Y-81661333D01*
X150484585Y-81607854D01*
X150407058Y-81605348D01*
X150340622Y-81648455D01*
X150292593Y-81731815D01*
X150270287Y-81850068D01*
X150269555Y-81878456D01*
X150149696Y-81878456D01*
X150163522Y-81776619D01*
X150217146Y-81667251D01*
X150229186Y-81651134D01*
X150316353Y-81580188D01*
X150420333Y-81555255D01*
X150528008Y-81574495D01*
G36*
X150528008Y-81574495D02*
G01*
X150626258Y-81636069D01*
X150689940Y-81715743D01*
X150733910Y-81835294D01*
X150749559Y-81981008D01*
X150739223Y-82136928D01*
X150705240Y-82287096D01*
X150649945Y-82415554D01*
X150575676Y-82506344D01*
X150573975Y-82507696D01*
X150483351Y-82552268D01*
X150381008Y-82563816D01*
X150288392Y-82542255D01*
X150242284Y-82509051D01*
X150210557Y-82449375D01*
X150215611Y-82396008D01*
X150254305Y-82367837D01*
X150265909Y-82366889D01*
X150302421Y-82390828D01*
X150334863Y-82448686D01*
X150335769Y-82451231D01*
X150362333Y-82508086D01*
X150396274Y-82521010D01*
X150429379Y-82511821D01*
X150517744Y-82450368D01*
X150581981Y-82345554D01*
X150615606Y-82209475D01*
X150630895Y-82073835D01*
X150552252Y-82135695D01*
X150453982Y-82186644D01*
X150360642Y-82189537D01*
X150277819Y-82152758D01*
X150211106Y-82084692D01*
X150166092Y-81993724D01*
X150148368Y-81888238D01*
X150149696Y-81878456D01*
X150269555Y-81878456D01*
X150273928Y-81975543D01*
X150291267Y-82036237D01*
X150327905Y-82080200D01*
X150336989Y-82087813D01*
X150420354Y-82126003D01*
X150504352Y-82108514D01*
X150572944Y-82050865D01*
X150610666Y-81972509D01*
X150624127Y-81868698D01*
X150613750Y-81762860D01*
X150579960Y-81678425D01*
X150565889Y-81661333D01*
X150484585Y-81607854D01*
X150407058Y-81605348D01*
X150340622Y-81648455D01*
X150292593Y-81731815D01*
X150270287Y-81850068D01*
X150269555Y-81878456D01*
X150149696Y-81878456D01*
X150163522Y-81776619D01*
X150217146Y-81667251D01*
X150229186Y-81651134D01*
X150316353Y-81580188D01*
X150420333Y-81555255D01*
X150528008Y-81574495D01*
G37*
X149785256Y-81570388D02*
X149882313Y-81623298D01*
X149954003Y-81716435D01*
X149960671Y-81731269D01*
X149986456Y-81832643D01*
X149998873Y-81966308D01*
X149997928Y-82109720D01*
X149983625Y-82240334D01*
X149960542Y-82325483D01*
X149885588Y-82450905D01*
X149787048Y-82532354D01*
X149671986Y-82564203D01*
X149660672Y-82564444D01*
X149573934Y-82552091D01*
X149510697Y-82521089D01*
X149508161Y-82518685D01*
X149474232Y-82459344D01*
X149480622Y-82404215D01*
X149524953Y-82372991D01*
X149525783Y-82372827D01*
X149570127Y-82391110D01*
X149601489Y-82449790D01*
X149628098Y-82507378D01*
X149661491Y-82521111D01*
X149695601Y-82511821D01*
X149784572Y-82449579D01*
X149847421Y-82341162D01*
X149878506Y-82211666D01*
X149897004Y-82070555D01*
X149834081Y-82126358D01*
X149744681Y-82172542D01*
X149637987Y-82181911D01*
X149537284Y-82154894D01*
X149488038Y-82120025D01*
X149441774Y-82039176D01*
X149421696Y-81929118D01*
X149426058Y-81848211D01*
X149521555Y-81848211D01*
X149530720Y-81952608D01*
X149567415Y-82042775D01*
X149590939Y-82071838D01*
X149649391Y-82123175D01*
X149696224Y-82135587D01*
X149750706Y-82108726D01*
X149801723Y-82068046D01*
X149863129Y-82002428D01*
X149886604Y-81929003D01*
X149888555Y-81885930D01*
X149871822Y-81754926D01*
X149824681Y-81662335D01*
X149751723Y-81613140D01*
X149657536Y-81612325D01*
X149640875Y-81616994D01*
X149578470Y-81663667D01*
X149538084Y-81746318D01*
X149521555Y-81848211D01*
X149426058Y-81848211D01*
X149428076Y-81810785D01*
X149461185Y-81705112D01*
X149482205Y-81670766D01*
X149571169Y-81592347D01*
X149676864Y-81559480D01*
X149785256Y-81570388D01*
G36*
X149785256Y-81570388D02*
G01*
X149882313Y-81623298D01*
X149954003Y-81716435D01*
X149960671Y-81731269D01*
X149986456Y-81832643D01*
X149998873Y-81966308D01*
X149997928Y-82109720D01*
X149983625Y-82240334D01*
X149960542Y-82325483D01*
X149885588Y-82450905D01*
X149787048Y-82532354D01*
X149671986Y-82564203D01*
X149660672Y-82564444D01*
X149573934Y-82552091D01*
X149510697Y-82521089D01*
X149508161Y-82518685D01*
X149474232Y-82459344D01*
X149480622Y-82404215D01*
X149524953Y-82372991D01*
X149525783Y-82372827D01*
X149570127Y-82391110D01*
X149601489Y-82449790D01*
X149628098Y-82507378D01*
X149661491Y-82521111D01*
X149695601Y-82511821D01*
X149784572Y-82449579D01*
X149847421Y-82341162D01*
X149878506Y-82211666D01*
X149897004Y-82070555D01*
X149834081Y-82126358D01*
X149744681Y-82172542D01*
X149637987Y-82181911D01*
X149537284Y-82154894D01*
X149488038Y-82120025D01*
X149441774Y-82039176D01*
X149421696Y-81929118D01*
X149426058Y-81848211D01*
X149521555Y-81848211D01*
X149530720Y-81952608D01*
X149567415Y-82042775D01*
X149590939Y-82071838D01*
X149649391Y-82123175D01*
X149696224Y-82135587D01*
X149750706Y-82108726D01*
X149801723Y-82068046D01*
X149863129Y-82002428D01*
X149886604Y-81929003D01*
X149888555Y-81885930D01*
X149871822Y-81754926D01*
X149824681Y-81662335D01*
X149751723Y-81613140D01*
X149657536Y-81612325D01*
X149640875Y-81616994D01*
X149578470Y-81663667D01*
X149538084Y-81746318D01*
X149521555Y-81848211D01*
X149426058Y-81848211D01*
X149428076Y-81810785D01*
X149461185Y-81705112D01*
X149482205Y-81670766D01*
X149571169Y-81592347D01*
X149676864Y-81559480D01*
X149785256Y-81570388D01*
G37*
X151244554Y-81563982D02*
X151336263Y-81610712D01*
X151413820Y-81693644D01*
X151467758Y-81812653D01*
X151482874Y-81885390D01*
X151489149Y-82054029D01*
X151465010Y-82218087D01*
X151414616Y-82363598D01*
X151342126Y-82476602D01*
X151293765Y-82520246D01*
X151207550Y-82555918D01*
X151108344Y-82562655D01*
X151019681Y-82541065D01*
X150978804Y-82512081D01*
X150949555Y-82453623D01*
X150955856Y-82398849D01*
X150993680Y-82368323D01*
X151007238Y-82366889D01*
X151050138Y-82389864D01*
X151060663Y-82409222D01*
X151081372Y-82475660D01*
X151086721Y-82492866D01*
X151107080Y-82518580D01*
X151153651Y-82514476D01*
X151183222Y-82505010D01*
X151255496Y-82452948D01*
X151313547Y-82361029D01*
X151349056Y-82245530D01*
X151356111Y-82166713D01*
X151356111Y-82080570D01*
X151281749Y-82139062D01*
X151193404Y-82188425D01*
X151104266Y-82189678D01*
X151019463Y-82156266D01*
X150959396Y-82116867D01*
X150924473Y-82065853D01*
X150908489Y-81988098D01*
X150905196Y-81878159D01*
X151005349Y-81878159D01*
X151009685Y-81976142D01*
X151026700Y-82037281D01*
X151062397Y-82080782D01*
X151070967Y-82087976D01*
X151120542Y-82126970D01*
X151153199Y-82137669D01*
X151197708Y-82124923D01*
X151225922Y-82114101D01*
X151303074Y-82057501D01*
X151355704Y-81966755D01*
X151373820Y-81862259D01*
X151369241Y-81821551D01*
X151327253Y-81697219D01*
X151263937Y-81625131D01*
X151190501Y-81604889D01*
X151098277Y-81627578D01*
X151037743Y-81696085D01*
X151008454Y-81811069D01*
X151005349Y-81878159D01*
X150905196Y-81878159D01*
X150905183Y-81877747D01*
X150925603Y-81741588D01*
X150979219Y-81642257D01*
X151056563Y-81579629D01*
X151148165Y-81553579D01*
X151244554Y-81563982D01*
G36*
X151244554Y-81563982D02*
G01*
X151336263Y-81610712D01*
X151413820Y-81693644D01*
X151467758Y-81812653D01*
X151482874Y-81885390D01*
X151489149Y-82054029D01*
X151465010Y-82218087D01*
X151414616Y-82363598D01*
X151342126Y-82476602D01*
X151293765Y-82520246D01*
X151207550Y-82555918D01*
X151108344Y-82562655D01*
X151019681Y-82541065D01*
X150978804Y-82512081D01*
X150949555Y-82453623D01*
X150955856Y-82398849D01*
X150993680Y-82368323D01*
X151007238Y-82366889D01*
X151050138Y-82389864D01*
X151060663Y-82409222D01*
X151081372Y-82475660D01*
X151086721Y-82492866D01*
X151107080Y-82518580D01*
X151153651Y-82514476D01*
X151183222Y-82505010D01*
X151255496Y-82452948D01*
X151313547Y-82361029D01*
X151349056Y-82245530D01*
X151356111Y-82166713D01*
X151356111Y-82080570D01*
X151281749Y-82139062D01*
X151193404Y-82188425D01*
X151104266Y-82189678D01*
X151019463Y-82156266D01*
X150959396Y-82116867D01*
X150924473Y-82065853D01*
X150908489Y-81988098D01*
X150905196Y-81878159D01*
X151005349Y-81878159D01*
X151009685Y-81976142D01*
X151026700Y-82037281D01*
X151062397Y-82080782D01*
X151070967Y-82087976D01*
X151120542Y-82126970D01*
X151153199Y-82137669D01*
X151197708Y-82124923D01*
X151225922Y-82114101D01*
X151303074Y-82057501D01*
X151355704Y-81966755D01*
X151373820Y-81862259D01*
X151369241Y-81821551D01*
X151327253Y-81697219D01*
X151263937Y-81625131D01*
X151190501Y-81604889D01*
X151098277Y-81627578D01*
X151037743Y-81696085D01*
X151008454Y-81811069D01*
X151005349Y-81878159D01*
X150905196Y-81878159D01*
X150905183Y-81877747D01*
X150925603Y-81741588D01*
X150979219Y-81642257D01*
X151056563Y-81579629D01*
X151148165Y-81553579D01*
X151244554Y-81563982D01*
G37*
X150367994Y-78106093D02*
X150511286Y-78107950D01*
X150617284Y-78112112D01*
X150695562Y-78119512D01*
X150755694Y-78131084D01*
X150807254Y-78147762D01*
X150859817Y-78170478D01*
X150864222Y-78172524D01*
X151025593Y-78276009D01*
X151144358Y-78412229D01*
X151217356Y-78573544D01*
X151241424Y-78752312D01*
X151213400Y-78940893D01*
X151199792Y-78983329D01*
X151120544Y-79135195D01*
X150998644Y-79256020D01*
X150862222Y-79336293D01*
X150790747Y-79366592D01*
X150720074Y-79386216D01*
X150635000Y-79397388D01*
X150520322Y-79402327D01*
X150403611Y-79403279D01*
X150086111Y-79403555D01*
X150086111Y-79905911D01*
X150086822Y-80098884D01*
X150090193Y-80242635D01*
X150098083Y-80344384D01*
X150112350Y-80411346D01*
X150134851Y-80450740D01*
X150167445Y-80469784D01*
X150211990Y-80475695D01*
X150232866Y-80476000D01*
X150295915Y-80489374D01*
X150311889Y-80518333D01*
X150303561Y-80536266D01*
X150272920Y-80548447D01*
X150211477Y-80555895D01*
X150110741Y-80559628D01*
X149962225Y-80560666D01*
X149959111Y-80560666D01*
X149808659Y-80559570D01*
X149706395Y-80555650D01*
X149644090Y-80547958D01*
X149613519Y-80535547D01*
X149606333Y-80520037D01*
X149633158Y-80487585D01*
X149711659Y-80470690D01*
X149712166Y-80470648D01*
X149818000Y-80461889D01*
X149818000Y-79318889D01*
X150086111Y-79318889D01*
X150333055Y-79318269D01*
X150490838Y-79312545D01*
X150607818Y-79294858D01*
X150692889Y-79265810D01*
X150817524Y-79190591D01*
X150901644Y-79091560D01*
X150948333Y-78989146D01*
X150987432Y-78813189D01*
X150982014Y-78642638D01*
X150935753Y-78487050D01*
X150852322Y-78355979D01*
X150735396Y-78258981D01*
X150653399Y-78222007D01*
X150569837Y-78203911D01*
X150461818Y-78193492D01*
X150345944Y-78190692D01*
X150238815Y-78195454D01*
X150157032Y-78207719D01*
X150119977Y-78223866D01*
X150106616Y-78258756D01*
X150096792Y-78335596D01*
X150090272Y-78458262D01*
X150086823Y-78630632D01*
X150086111Y-78788311D01*
X150086111Y-79318889D01*
X149818000Y-79318889D01*
X149818000Y-78788311D01*
X149818000Y-78204111D01*
X149726277Y-78195267D01*
X149657709Y-78177165D01*
X149634555Y-78145878D01*
X149642650Y-78131576D01*
X149671494Y-78120986D01*
X149727922Y-78113601D01*
X149818772Y-78108915D01*
X149950880Y-78106420D01*
X150131082Y-78105611D01*
X150177833Y-78105609D01*
X150367994Y-78106093D01*
G36*
X150367994Y-78106093D02*
G01*
X150511286Y-78107950D01*
X150617284Y-78112112D01*
X150695562Y-78119512D01*
X150755694Y-78131084D01*
X150807254Y-78147762D01*
X150859817Y-78170478D01*
X150864222Y-78172524D01*
X151025593Y-78276009D01*
X151144358Y-78412229D01*
X151217356Y-78573544D01*
X151241424Y-78752312D01*
X151213400Y-78940893D01*
X151199792Y-78983329D01*
X151120544Y-79135195D01*
X150998644Y-79256020D01*
X150862222Y-79336293D01*
X150790747Y-79366592D01*
X150720074Y-79386216D01*
X150635000Y-79397388D01*
X150520322Y-79402327D01*
X150403611Y-79403279D01*
X150086111Y-79403555D01*
X150086111Y-79905911D01*
X150086822Y-80098884D01*
X150090193Y-80242635D01*
X150098083Y-80344384D01*
X150112350Y-80411346D01*
X150134851Y-80450740D01*
X150167445Y-80469784D01*
X150211990Y-80475695D01*
X150232866Y-80476000D01*
X150295915Y-80489374D01*
X150311889Y-80518333D01*
X150303561Y-80536266D01*
X150272920Y-80548447D01*
X150211477Y-80555895D01*
X150110741Y-80559628D01*
X149962225Y-80560666D01*
X149959111Y-80560666D01*
X149808659Y-80559570D01*
X149706395Y-80555650D01*
X149644090Y-80547958D01*
X149613519Y-80535547D01*
X149606333Y-80520037D01*
X149633158Y-80487585D01*
X149711659Y-80470690D01*
X149712166Y-80470648D01*
X149818000Y-80461889D01*
X149818000Y-79318889D01*
X150086111Y-79318889D01*
X150333055Y-79318269D01*
X150490838Y-79312545D01*
X150607818Y-79294858D01*
X150692889Y-79265810D01*
X150817524Y-79190591D01*
X150901644Y-79091560D01*
X150948333Y-78989146D01*
X150987432Y-78813189D01*
X150982014Y-78642638D01*
X150935753Y-78487050D01*
X150852322Y-78355979D01*
X150735396Y-78258981D01*
X150653399Y-78222007D01*
X150569837Y-78203911D01*
X150461818Y-78193492D01*
X150345944Y-78190692D01*
X150238815Y-78195454D01*
X150157032Y-78207719D01*
X150119977Y-78223866D01*
X150106616Y-78258756D01*
X150096792Y-78335596D01*
X150090272Y-78458262D01*
X150086823Y-78630632D01*
X150086111Y-78788311D01*
X150086111Y-79318889D01*
X149818000Y-79318889D01*
X149818000Y-78788311D01*
X149818000Y-78204111D01*
X149726277Y-78195267D01*
X149657709Y-78177165D01*
X149634555Y-78145878D01*
X149642650Y-78131576D01*
X149671494Y-78120986D01*
X149727922Y-78113601D01*
X149818772Y-78108915D01*
X149950880Y-78106420D01*
X150131082Y-78105611D01*
X150177833Y-78105609D01*
X150367994Y-78106093D01*
G37*
X150422421Y-83497001D02*
X150568187Y-83500408D01*
X150684075Y-83505602D01*
X150761418Y-83512188D01*
X150791548Y-83519768D01*
X150791666Y-83520284D01*
X150766626Y-83538747D01*
X150703806Y-83555799D01*
X150674636Y-83560487D01*
X150584519Y-83584905D01*
X150509723Y-83625438D01*
X150498247Y-83635502D01*
X150481734Y-83654059D01*
X150468459Y-83677296D01*
X150457941Y-83711390D01*
X150449703Y-83762520D01*
X150443267Y-83836864D01*
X150438154Y-83940602D01*
X150433885Y-84079910D01*
X150429982Y-84260969D01*
X150425966Y-84489955D01*
X150424323Y-84590132D01*
X150419851Y-84844694D01*
X150415324Y-85049264D01*
X150410326Y-85210295D01*
X150404442Y-85334239D01*
X150397257Y-85427547D01*
X150388355Y-85496672D01*
X150377320Y-85548065D01*
X150363738Y-85588179D01*
X150359392Y-85598333D01*
X150290369Y-85715451D01*
X150196243Y-85827156D01*
X150095043Y-85913290D01*
X150057889Y-85935426D01*
X149982453Y-85963472D01*
X149889662Y-85984978D01*
X149804931Y-85995080D01*
X149761555Y-85992137D01*
X149714986Y-85980636D01*
X149653316Y-85966549D01*
X149558079Y-85925276D01*
X149490303Y-85857372D01*
X149451048Y-85774543D01*
X149441374Y-85688497D01*
X149462340Y-85610942D01*
X149515006Y-85553585D01*
X149600433Y-85528133D01*
X149613595Y-85527777D01*
X149687811Y-85544257D01*
X149753269Y-85598930D01*
X149818633Y-85699651D01*
X149832636Y-85726363D01*
X149880872Y-85811020D01*
X149920806Y-85851331D01*
X149963247Y-85856061D01*
X149984528Y-85849504D01*
X150011367Y-85832736D01*
X150033235Y-85801666D01*
X150050543Y-85751230D01*
X150063701Y-85676362D01*
X150073118Y-85571998D01*
X150079204Y-85433072D01*
X150082370Y-85254522D01*
X150083026Y-85031281D01*
X150081580Y-84758285D01*
X150080751Y-84660695D01*
X150078294Y-84401574D01*
X150075850Y-84192976D01*
X150073026Y-84028978D01*
X150069428Y-83903661D01*
X150064663Y-83811102D01*
X150058338Y-83745381D01*
X150050058Y-83700576D01*
X150039432Y-83670768D01*
X150026065Y-83650034D01*
X150012641Y-83635509D01*
X149946063Y-83593283D01*
X149856502Y-83563916D01*
X149836252Y-83560487D01*
X149764117Y-83545568D01*
X149722926Y-83526889D01*
X149719222Y-83520284D01*
X149745998Y-83512653D01*
X149820548Y-83505991D01*
X149934204Y-83500694D01*
X150078300Y-83497160D01*
X150244166Y-83495783D01*
X150255444Y-83495777D01*
X150422421Y-83497001D01*
G36*
X150422421Y-83497001D02*
G01*
X150568187Y-83500408D01*
X150684075Y-83505602D01*
X150761418Y-83512188D01*
X150791548Y-83519768D01*
X150791666Y-83520284D01*
X150766626Y-83538747D01*
X150703806Y-83555799D01*
X150674636Y-83560487D01*
X150584519Y-83584905D01*
X150509723Y-83625438D01*
X150498247Y-83635502D01*
X150481734Y-83654059D01*
X150468459Y-83677296D01*
X150457941Y-83711390D01*
X150449703Y-83762520D01*
X150443267Y-83836864D01*
X150438154Y-83940602D01*
X150433885Y-84079910D01*
X150429982Y-84260969D01*
X150425966Y-84489955D01*
X150424323Y-84590132D01*
X150419851Y-84844694D01*
X150415324Y-85049264D01*
X150410326Y-85210295D01*
X150404442Y-85334239D01*
X150397257Y-85427547D01*
X150388355Y-85496672D01*
X150377320Y-85548065D01*
X150363738Y-85588179D01*
X150359392Y-85598333D01*
X150290369Y-85715451D01*
X150196243Y-85827156D01*
X150095043Y-85913290D01*
X150057889Y-85935426D01*
X149982453Y-85963472D01*
X149889662Y-85984978D01*
X149804931Y-85995080D01*
X149761555Y-85992137D01*
X149714986Y-85980636D01*
X149653316Y-85966549D01*
X149558079Y-85925276D01*
X149490303Y-85857372D01*
X149451048Y-85774543D01*
X149441374Y-85688497D01*
X149462340Y-85610942D01*
X149515006Y-85553585D01*
X149600433Y-85528133D01*
X149613595Y-85527777D01*
X149687811Y-85544257D01*
X149753269Y-85598930D01*
X149818633Y-85699651D01*
X149832636Y-85726363D01*
X149880872Y-85811020D01*
X149920806Y-85851331D01*
X149963247Y-85856061D01*
X149984528Y-85849504D01*
X150011367Y-85832736D01*
X150033235Y-85801666D01*
X150050543Y-85751230D01*
X150063701Y-85676362D01*
X150073118Y-85571998D01*
X150079204Y-85433072D01*
X150082370Y-85254522D01*
X150083026Y-85031281D01*
X150081580Y-84758285D01*
X150080751Y-84660695D01*
X150078294Y-84401574D01*
X150075850Y-84192976D01*
X150073026Y-84028978D01*
X150069428Y-83903661D01*
X150064663Y-83811102D01*
X150058338Y-83745381D01*
X150050058Y-83700576D01*
X150039432Y-83670768D01*
X150026065Y-83650034D01*
X150012641Y-83635509D01*
X149946063Y-83593283D01*
X149856502Y-83563916D01*
X149836252Y-83560487D01*
X149764117Y-83545568D01*
X149722926Y-83526889D01*
X149719222Y-83520284D01*
X149745998Y-83512653D01*
X149820548Y-83505991D01*
X149934204Y-83500694D01*
X150078300Y-83497160D01*
X150244166Y-83495783D01*
X150255444Y-83495777D01*
X150422421Y-83497001D01*
G37*
X155335444Y-76676819D02*
X155330443Y-76768587D01*
X155308003Y-76824043D01*
X155256966Y-76852233D01*
X155166176Y-76862202D01*
X155105584Y-76863170D01*
X154912933Y-76888623D01*
X154722851Y-76958244D01*
X154548692Y-77064054D01*
X154403813Y-77198075D01*
X154307652Y-77339852D01*
X154269488Y-77420845D01*
X154236118Y-77504754D01*
X154207226Y-77595764D01*
X154182497Y-77698063D01*
X154161613Y-77815838D01*
X154144259Y-77953276D01*
X154130119Y-78114564D01*
X154118877Y-78303888D01*
X154110217Y-78525437D01*
X154103822Y-78783396D01*
X154099377Y-79081953D01*
X154096566Y-79425294D01*
X154095072Y-79817607D01*
X154094617Y-80161944D01*
X154093666Y-81893999D01*
X155441277Y-80567729D01*
X155808938Y-80205861D01*
X156138549Y-79881342D01*
X156432312Y-79591950D01*
X156692429Y-79335465D01*
X156921100Y-79109666D01*
X157120527Y-78912330D01*
X157292912Y-78741236D01*
X157440456Y-78594164D01*
X157565360Y-78468891D01*
X157669826Y-78363196D01*
X157756056Y-78274858D01*
X157826249Y-78201656D01*
X157882609Y-78141368D01*
X157927337Y-78091772D01*
X157962633Y-78050648D01*
X157990699Y-78015774D01*
X158013737Y-77984928D01*
X158033948Y-77955889D01*
X158042959Y-77942441D01*
X158159999Y-77739368D01*
X158225899Y-77557885D01*
X158240714Y-77395820D01*
X158204500Y-77250995D01*
X158117313Y-77121237D01*
X158065405Y-77070619D01*
X157987028Y-77015347D01*
X157882123Y-76958451D01*
X157769732Y-76908519D01*
X157668895Y-76874138D01*
X157606274Y-76863555D01*
X157582145Y-76849558D01*
X157569222Y-76800802D01*
X157565033Y-76707139D01*
X157565000Y-76694222D01*
X157565000Y-76524889D01*
X161713666Y-76524889D01*
X161713666Y-76827134D01*
X161297389Y-76843005D01*
X161107030Y-76852291D01*
X160956621Y-76865173D01*
X160829680Y-76883880D01*
X160709729Y-76910638D01*
X160627111Y-76933576D01*
X160299128Y-77051916D01*
X159960158Y-77215192D01*
X159622198Y-77416791D01*
X159297248Y-77650096D01*
X159230111Y-77703865D01*
X159178450Y-77749564D01*
X159090097Y-77831893D01*
X158968348Y-77947647D01*
X158816499Y-78093618D01*
X158637844Y-78266601D01*
X158435680Y-78463389D01*
X158213300Y-78680775D01*
X157974002Y-78915553D01*
X157721080Y-79164516D01*
X157457830Y-79424458D01*
X157230979Y-79649097D01*
X155443513Y-81421444D01*
X157908312Y-83913297D01*
X158222552Y-84230629D01*
X158529040Y-84539438D01*
X158825081Y-84837044D01*
X159107979Y-85120766D01*
X159375038Y-85387924D01*
X159623564Y-85635836D01*
X159850862Y-85861822D01*
X160054234Y-86063201D01*
X160230988Y-86237293D01*
X160378426Y-86381417D01*
X160493854Y-86492893D01*
X160574577Y-86569039D01*
X160613000Y-86603251D01*
X160828182Y-86769177D01*
X161028512Y-86895127D01*
X161230212Y-86988245D01*
X161449501Y-87055677D01*
X161702600Y-87104568D01*
X161774667Y-87114950D01*
X162024111Y-87148922D01*
X162024111Y-87475111D01*
X159409590Y-87475111D01*
X156776661Y-84815166D01*
X156456361Y-84491698D01*
X156146855Y-84179360D01*
X155850478Y-83880497D01*
X155569566Y-83597456D01*
X155306452Y-83332580D01*
X155063474Y-83088216D01*
X154842965Y-82866709D01*
X154647261Y-82670403D01*
X154478697Y-82501644D01*
X154339609Y-82362777D01*
X154232331Y-82256147D01*
X154159199Y-82184100D01*
X154122548Y-82148980D01*
X154118699Y-82145814D01*
X154113472Y-82171013D01*
X154108887Y-82247038D01*
X154104938Y-82368274D01*
X154101619Y-82529107D01*
X154098925Y-82723921D01*
X154096849Y-82947102D01*
X154095385Y-83193036D01*
X154094528Y-83456107D01*
X154094272Y-83730701D01*
X154094610Y-84011203D01*
X154095537Y-84291998D01*
X154097046Y-84567472D01*
X154099133Y-84832010D01*
X154101791Y-85079997D01*
X154105013Y-85305818D01*
X154108795Y-85503858D01*
X154113130Y-85668504D01*
X154118013Y-85794140D01*
X154122622Y-85866444D01*
X154155255Y-86132747D01*
X154203053Y-86372049D01*
X154263659Y-86574779D01*
X154334719Y-86731364D01*
X154335890Y-86733377D01*
X154449634Y-86873177D01*
X154609741Y-86986079D01*
X154811817Y-87069872D01*
X155051466Y-87122343D01*
X155126853Y-87131335D01*
X155321333Y-87150555D01*
X155338261Y-87475111D01*
X151381516Y-87475111D01*
X151398444Y-87150555D01*
X151617535Y-87128854D01*
X151857402Y-87090739D01*
X152054154Y-87025039D01*
X152213942Y-86926434D01*
X152342920Y-86789602D01*
X152447241Y-86609222D01*
X152533057Y-86379973D01*
X152550093Y-86322349D01*
X152611494Y-86106333D01*
X152619552Y-82135000D01*
X152620701Y-81558970D01*
X152621641Y-81036505D01*
X152622287Y-80564722D01*
X152622556Y-80140743D01*
X152622364Y-79761686D01*
X152621625Y-79424671D01*
X152620256Y-79126817D01*
X152618172Y-78865245D01*
X152615289Y-78637073D01*
X152611522Y-78439421D01*
X152606788Y-78269409D01*
X152601002Y-78124155D01*
X152594079Y-78000781D01*
X152585936Y-77896405D01*
X152576488Y-77808146D01*
X152565651Y-77733125D01*
X152553340Y-77668460D01*
X152539472Y-77611272D01*
X152523961Y-77558680D01*
X152506723Y-77507803D01*
X152487675Y-77455760D01*
X152482161Y-77441002D01*
X152382481Y-77251491D01*
X152240690Y-77093412D01*
X152065341Y-76974887D01*
X151935997Y-76922463D01*
X151824887Y-76892216D01*
X151721640Y-76870962D01*
X151652999Y-76863555D01*
X151554876Y-76857666D01*
X151472527Y-76845916D01*
X151421594Y-76832512D01*
X151395387Y-76808210D01*
X151385702Y-76757262D01*
X151384333Y-76676583D01*
X151384333Y-76524889D01*
X155335444Y-76524889D01*
X155335444Y-76676819D01*
G36*
X155335444Y-76676819D02*
G01*
X155330443Y-76768587D01*
X155308003Y-76824043D01*
X155256966Y-76852233D01*
X155166176Y-76862202D01*
X155105584Y-76863170D01*
X154912933Y-76888623D01*
X154722851Y-76958244D01*
X154548692Y-77064054D01*
X154403813Y-77198075D01*
X154307652Y-77339852D01*
X154269488Y-77420845D01*
X154236118Y-77504754D01*
X154207226Y-77595764D01*
X154182497Y-77698063D01*
X154161613Y-77815838D01*
X154144259Y-77953276D01*
X154130119Y-78114564D01*
X154118877Y-78303888D01*
X154110217Y-78525437D01*
X154103822Y-78783396D01*
X154099377Y-79081953D01*
X154096566Y-79425294D01*
X154095072Y-79817607D01*
X154094617Y-80161944D01*
X154093666Y-81893999D01*
X155441277Y-80567729D01*
X155808938Y-80205861D01*
X156138549Y-79881342D01*
X156432312Y-79591950D01*
X156692429Y-79335465D01*
X156921100Y-79109666D01*
X157120527Y-78912330D01*
X157292912Y-78741236D01*
X157440456Y-78594164D01*
X157565360Y-78468891D01*
X157669826Y-78363196D01*
X157756056Y-78274858D01*
X157826249Y-78201656D01*
X157882609Y-78141368D01*
X157927337Y-78091772D01*
X157962633Y-78050648D01*
X157990699Y-78015774D01*
X158013737Y-77984928D01*
X158033948Y-77955889D01*
X158042959Y-77942441D01*
X158159999Y-77739368D01*
X158225899Y-77557885D01*
X158240714Y-77395820D01*
X158204500Y-77250995D01*
X158117313Y-77121237D01*
X158065405Y-77070619D01*
X157987028Y-77015347D01*
X157882123Y-76958451D01*
X157769732Y-76908519D01*
X157668895Y-76874138D01*
X157606274Y-76863555D01*
X157582145Y-76849558D01*
X157569222Y-76800802D01*
X157565033Y-76707139D01*
X157565000Y-76694222D01*
X157565000Y-76524889D01*
X161713666Y-76524889D01*
X161713666Y-76827134D01*
X161297389Y-76843005D01*
X161107030Y-76852291D01*
X160956621Y-76865173D01*
X160829680Y-76883880D01*
X160709729Y-76910638D01*
X160627111Y-76933576D01*
X160299128Y-77051916D01*
X159960158Y-77215192D01*
X159622198Y-77416791D01*
X159297248Y-77650096D01*
X159230111Y-77703865D01*
X159178450Y-77749564D01*
X159090097Y-77831893D01*
X158968348Y-77947647D01*
X158816499Y-78093618D01*
X158637844Y-78266601D01*
X158435680Y-78463389D01*
X158213300Y-78680775D01*
X157974002Y-78915553D01*
X157721080Y-79164516D01*
X157457830Y-79424458D01*
X157230979Y-79649097D01*
X155443513Y-81421444D01*
X157908312Y-83913297D01*
X158222552Y-84230629D01*
X158529040Y-84539438D01*
X158825081Y-84837044D01*
X159107979Y-85120766D01*
X159375038Y-85387924D01*
X159623564Y-85635836D01*
X159850862Y-85861822D01*
X160054234Y-86063201D01*
X160230988Y-86237293D01*
X160378426Y-86381417D01*
X160493854Y-86492893D01*
X160574577Y-86569039D01*
X160613000Y-86603251D01*
X160828182Y-86769177D01*
X161028512Y-86895127D01*
X161230212Y-86988245D01*
X161449501Y-87055677D01*
X161702600Y-87104568D01*
X161774667Y-87114950D01*
X162024111Y-87148922D01*
X162024111Y-87475111D01*
X159409590Y-87475111D01*
X156776661Y-84815166D01*
X156456361Y-84491698D01*
X156146855Y-84179360D01*
X155850478Y-83880497D01*
X155569566Y-83597456D01*
X155306452Y-83332580D01*
X155063474Y-83088216D01*
X154842965Y-82866709D01*
X154647261Y-82670403D01*
X154478697Y-82501644D01*
X154339609Y-82362777D01*
X154232331Y-82256147D01*
X154159199Y-82184100D01*
X154122548Y-82148980D01*
X154118699Y-82145814D01*
X154113472Y-82171013D01*
X154108887Y-82247038D01*
X154104938Y-82368274D01*
X154101619Y-82529107D01*
X154098925Y-82723921D01*
X154096849Y-82947102D01*
X154095385Y-83193036D01*
X154094528Y-83456107D01*
X154094272Y-83730701D01*
X154094610Y-84011203D01*
X154095537Y-84291998D01*
X154097046Y-84567472D01*
X154099133Y-84832010D01*
X154101791Y-85079997D01*
X154105013Y-85305818D01*
X154108795Y-85503858D01*
X154113130Y-85668504D01*
X154118013Y-85794140D01*
X154122622Y-85866444D01*
X154155255Y-86132747D01*
X154203053Y-86372049D01*
X154263659Y-86574779D01*
X154334719Y-86731364D01*
X154335890Y-86733377D01*
X154449634Y-86873177D01*
X154609741Y-86986079D01*
X154811817Y-87069872D01*
X155051466Y-87122343D01*
X155126853Y-87131335D01*
X155321333Y-87150555D01*
X155338261Y-87475111D01*
X151381516Y-87475111D01*
X151398444Y-87150555D01*
X151617535Y-87128854D01*
X151857402Y-87090739D01*
X152054154Y-87025039D01*
X152213942Y-86926434D01*
X152342920Y-86789602D01*
X152447241Y-86609222D01*
X152533057Y-86379973D01*
X152550093Y-86322349D01*
X152611494Y-86106333D01*
X152619552Y-82135000D01*
X152620701Y-81558970D01*
X152621641Y-81036505D01*
X152622287Y-80564722D01*
X152622556Y-80140743D01*
X152622364Y-79761686D01*
X152621625Y-79424671D01*
X152620256Y-79126817D01*
X152618172Y-78865245D01*
X152615289Y-78637073D01*
X152611522Y-78439421D01*
X152606788Y-78269409D01*
X152601002Y-78124155D01*
X152594079Y-78000781D01*
X152585936Y-77896405D01*
X152576488Y-77808146D01*
X152565651Y-77733125D01*
X152553340Y-77668460D01*
X152539472Y-77611272D01*
X152523961Y-77558680D01*
X152506723Y-77507803D01*
X152487675Y-77455760D01*
X152482161Y-77441002D01*
X152382481Y-77251491D01*
X152240690Y-77093412D01*
X152065341Y-76974887D01*
X151935997Y-76922463D01*
X151824887Y-76892216D01*
X151721640Y-76870962D01*
X151652999Y-76863555D01*
X151554876Y-76857666D01*
X151472527Y-76845916D01*
X151421594Y-76832512D01*
X151395387Y-76808210D01*
X151385702Y-76757262D01*
X151384333Y-76676583D01*
X151384333Y-76524889D01*
X155335444Y-76524889D01*
X155335444Y-76676819D01*
G37*
D14*
%TO.C,TP4*%
X168425000Y-100500000D02*
G75*
G02*
X166025000Y-100500000I-1200000J0D01*
G01*
X166025000Y-100500000D02*
G75*
G02*
X168425000Y-100500000I1200000J0D01*
G01*
%TO.C,C17*%
X117463749Y-75831850D02*
X117986253Y-75831850D01*
X117463749Y-77301850D02*
X117986253Y-77301850D01*
%TO.C,R4*%
X182640000Y-80927064D02*
X182640000Y-80472936D01*
X184110000Y-80927064D02*
X184110000Y-80472936D01*
%TO.C,R7*%
X107217200Y-113242064D02*
X107217200Y-112787936D01*
X108687200Y-113242064D02*
X108687200Y-112787936D01*
%TO.C,R10*%
X113990000Y-95751836D02*
X113990000Y-96205964D01*
X115460000Y-95751836D02*
X115460000Y-96205964D01*
%TO.C,R6*%
X112725136Y-104230000D02*
X113179264Y-104230000D01*
X112725136Y-105700000D02*
X113179264Y-105700000D01*
D16*
%TO.C,U4*%
X179393800Y-86627200D02*
X183356200Y-86627200D01*
X183356200Y-83172800D02*
X179393800Y-83172800D01*
X178200000Y-84900000D02*
G75*
G02*
X178047600Y-84900000I-76200J0D01*
G01*
X178047600Y-84900000D02*
G75*
G02*
X178200000Y-84900000I76200J0D01*
G01*
D11*
%TO.C,U6*%
X173525000Y-98850000D02*
X189525000Y-98850000D01*
X189525000Y-114850000D02*
X173525000Y-114850000D01*
X172066547Y-99850000D02*
G75*
G02*
X171483453Y-99850000I-291547J0D01*
G01*
X171483453Y-99850000D02*
G75*
G02*
X172066547Y-99850000I291547J0D01*
G01*
D15*
X172025000Y-100042200D02*
X171513500Y-100042200D01*
X171513500Y-99650000D01*
X172025000Y-99650000D01*
X172025000Y-100042200D01*
G36*
X172025000Y-100042200D02*
G01*
X171513500Y-100042200D01*
X171513500Y-99650000D01*
X172025000Y-99650000D01*
X172025000Y-100042200D01*
G37*
D16*
%TO.C,U2*%
X127104200Y-80174399D02*
X127104200Y-80835108D01*
X127104200Y-82764890D02*
X127104200Y-83425599D01*
X129745800Y-80835108D02*
X129745800Y-80174399D01*
X129745800Y-83425599D02*
X129745800Y-82764890D01*
D17*
G36*
X128865500Y-83755799D02*
G01*
X128484499Y-83755799D01*
X128484499Y-83501799D01*
X128865500Y-83501799D01*
X128865500Y-83755799D01*
G37*
D14*
%TO.C,C6*%
X120786252Y-113865000D02*
X120263748Y-113865000D01*
X120786252Y-115335000D02*
X120263748Y-115335000D01*
%TO.C,R14*%
X153252064Y-95865000D02*
X152797936Y-95865000D01*
X153252064Y-97335000D02*
X152797936Y-97335000D01*
%TO.C,C15*%
X138290000Y-85861252D02*
X138290000Y-85338748D01*
X139760000Y-85861252D02*
X139760000Y-85338748D01*
%TO.C,TP1*%
X136625000Y-77300000D02*
G75*
G02*
X134225000Y-77300000I-1200000J0D01*
G01*
X134225000Y-77300000D02*
G75*
G02*
X136625000Y-77300000I1200000J0D01*
G01*
%TO.C,SW3*%
X139450000Y-116750000D02*
X139450000Y-116800000D01*
X139450000Y-119950000D02*
X139450000Y-118450000D01*
X139450000Y-121650000D02*
X139450000Y-121600000D01*
X144350000Y-116750000D02*
X139450000Y-116750000D01*
X144350000Y-116750000D02*
X144350000Y-116800000D01*
X144350000Y-119950000D02*
X144350000Y-118450000D01*
X144350000Y-121650000D02*
X139450000Y-121650000D01*
X144350000Y-121650000D02*
X144350000Y-121600000D01*
%TO.C,C9*%
X149790000Y-101838748D02*
X149790000Y-102361252D01*
X151260000Y-101838748D02*
X151260000Y-102361252D01*
%TO.C,R9*%
X112397936Y-99065000D02*
X112852064Y-99065000D01*
X112397936Y-100535000D02*
X112852064Y-100535000D01*
%TO.C,C11*%
X145890000Y-105061252D02*
X145890000Y-104538748D01*
X147360000Y-105061252D02*
X147360000Y-104538748D01*
%TO.C,C16*%
X116713749Y-79831850D02*
X117236253Y-79831850D01*
X116713749Y-81301850D02*
X117236253Y-81301850D01*
%TO.C,C4*%
X140786252Y-113865000D02*
X140263748Y-113865000D01*
X140786252Y-115335000D02*
X140263748Y-115335000D01*
D18*
%TO.C,J2*%
X98305000Y-78430000D02*
X97625000Y-78430000D01*
X98305000Y-85930000D02*
X97625000Y-85930000D01*
X101445000Y-78430000D02*
X103805000Y-78430000D01*
X101445000Y-85930000D02*
X103805000Y-85930000D01*
X106125000Y-79050000D02*
X106125000Y-80010000D01*
X106125000Y-85310000D02*
X106125000Y-84350000D01*
D11*
X107325000Y-80580000D02*
G75*
G02*
X107125000Y-80580000I-100000J0D01*
G01*
X107125000Y-80580000D02*
G75*
G02*
X107325000Y-80580000I100000J0D01*
G01*
D16*
%TO.C,U8*%
X187145400Y-116207299D02*
X187145400Y-116705684D01*
X187145400Y-119544314D02*
X187145400Y-120042699D01*
X187145400Y-120042699D02*
X188196960Y-120042699D01*
X188196960Y-116207299D02*
X187145400Y-116207299D01*
X189853040Y-120042699D02*
X190904600Y-120042699D01*
X190904600Y-116207299D02*
X189853040Y-116207299D01*
X190904600Y-116705684D02*
X190904600Y-116207299D01*
X190904600Y-120042699D02*
X190904600Y-119544314D01*
D14*
%TO.C,R3*%
X182140000Y-89172936D02*
X182140000Y-89627064D01*
X183610000Y-89172936D02*
X183610000Y-89627064D01*
%TO.C,R5*%
X112325136Y-111480000D02*
X112779264Y-111480000D01*
X112325136Y-112950000D02*
X112779264Y-112950000D01*
%TO.C,C1*%
X151786252Y-112077500D02*
X151263748Y-112077500D01*
X151786252Y-113547500D02*
X151263748Y-113547500D01*
%TO.C,C19*%
X160763748Y-97365000D02*
X161286252Y-97365000D01*
X160763748Y-98835000D02*
X161286252Y-98835000D01*
%TO.C,C10*%
X145090000Y-83061252D02*
X145090000Y-82538748D01*
X146560000Y-83061252D02*
X146560000Y-82538748D01*
%TO.C,SW5*%
X119450000Y-116750000D02*
X119450000Y-116800000D01*
X119450000Y-119950000D02*
X119450000Y-118450000D01*
X119450000Y-121650000D02*
X119450000Y-121600000D01*
X124350000Y-116750000D02*
X119450000Y-116750000D01*
X124350000Y-116750000D02*
X124350000Y-116800000D01*
X124350000Y-119950000D02*
X124350000Y-118450000D01*
X124350000Y-121650000D02*
X119450000Y-121650000D01*
X124350000Y-121650000D02*
X124350000Y-121600000D01*
D16*
%TO.C,U3*%
X107971000Y-110242200D02*
X111933400Y-110242200D01*
X111933400Y-106787800D02*
X107971000Y-106787800D01*
X106777200Y-108515000D02*
G75*
G02*
X106624800Y-108515000I-76200J0D01*
G01*
X106624800Y-108515000D02*
G75*
G02*
X106777200Y-108515000I76200J0D01*
G01*
D14*
%TO.C,SW1*%
X164075000Y-115150000D02*
X164075000Y-115200000D01*
X164075000Y-118350000D02*
X164075000Y-116850000D01*
X164075000Y-120050000D02*
X164075000Y-120000000D01*
X168975000Y-115150000D02*
X164075000Y-115150000D01*
X168975000Y-115150000D02*
X168975000Y-115200000D01*
X168975000Y-118350000D02*
X168975000Y-116850000D01*
X168975000Y-120050000D02*
X164075000Y-120050000D01*
X168975000Y-120050000D02*
X168975000Y-120000000D01*
%TO.C,R13*%
X118790000Y-111327064D02*
X118790000Y-110872936D01*
X120260000Y-111327064D02*
X120260000Y-110872936D01*
%TO.C,C14*%
X155436252Y-90015000D02*
X154913748Y-90015000D01*
X155436252Y-91485000D02*
X154913748Y-91485000D01*
D16*
%TO.C,U7*%
X110874000Y-77096700D02*
X110874000Y-79103300D01*
X112161739Y-79103300D02*
X112888261Y-79103300D01*
X114176000Y-79103300D02*
X114176000Y-77096700D01*
D14*
%TO.C,C13*%
X135040000Y-87238748D02*
X135040000Y-87761252D01*
X136510000Y-87238748D02*
X136510000Y-87761252D01*
%TO.C,SW2*%
X150575000Y-115150000D02*
X150575000Y-115200000D01*
X150575000Y-118350000D02*
X150575000Y-116850000D01*
X150575000Y-120050000D02*
X150575000Y-120000000D01*
X155475000Y-115150000D02*
X150575000Y-115150000D01*
X155475000Y-115150000D02*
X155475000Y-115200000D01*
X155475000Y-118350000D02*
X155475000Y-116850000D01*
X155475000Y-120050000D02*
X150575000Y-120050000D01*
X155475000Y-120050000D02*
X155475000Y-120000000D01*
D16*
%TO.C,U5*%
X108243800Y-97706100D02*
X112206200Y-97706100D01*
X112206200Y-94251700D02*
X108243800Y-94251700D01*
X107050000Y-95978900D02*
G75*
G02*
X106897600Y-95978900I-76200J0D01*
G01*
X106897600Y-95978900D02*
G75*
G02*
X107050000Y-95978900I76200J0D01*
G01*
D14*
%TO.C,C2*%
X165286252Y-111365000D02*
X164763748Y-111365000D01*
X165286252Y-112835000D02*
X164763748Y-112835000D01*
%TO.C,TP3*%
X171125000Y-98200000D02*
G75*
G02*
X168725000Y-98200000I-1200000J0D01*
G01*
X168725000Y-98200000D02*
G75*
G02*
X171125000Y-98200000I1200000J0D01*
G01*
%TO.C,U1*%
X137915000Y-90490000D02*
X137915000Y-91440000D01*
X137915000Y-100710000D02*
X137915000Y-99760000D01*
X138865000Y-90490000D02*
X137915000Y-90490000D01*
X138865000Y-100710000D02*
X137915000Y-100710000D01*
X147185000Y-90490000D02*
X148135000Y-90490000D01*
X147185000Y-100710000D02*
X148135000Y-100710000D01*
X148135000Y-90490000D02*
X148135000Y-91440000D01*
X148135000Y-100710000D02*
X148135000Y-99760000D01*
X149090000Y-100230000D02*
X148410000Y-100230000D01*
X148750000Y-99760000D01*
X149090000Y-100230000D01*
G36*
X149090000Y-100230000D02*
G01*
X148410000Y-100230000D01*
X148750000Y-99760000D01*
X149090000Y-100230000D01*
G37*
%TO.C,C18*%
X160411252Y-109465000D02*
X159888748Y-109465000D01*
X160411252Y-110935000D02*
X159888748Y-110935000D01*
%TO.C,C5*%
X130786252Y-113865000D02*
X130263748Y-113865000D01*
X130786252Y-115335000D02*
X130263748Y-115335000D01*
%TD*%
%LPC*%
D19*
%TO.C,J3*%
X167340000Y-77500000D03*
D20*
X168610000Y-77500000D03*
X169880000Y-77500000D03*
X171150000Y-77500000D03*
X172420000Y-77500000D03*
X173690000Y-77500000D03*
X174960000Y-77500000D03*
X176230000Y-77500000D03*
X177500000Y-77500000D03*
%TD*%
D21*
%TO.C,SW4*%
X134525000Y-120800000D03*
X129275000Y-120800000D03*
X134525000Y-117600000D03*
X129275000Y-117600000D03*
%TD*%
D22*
%TO.C,Y1*%
X161500000Y-107025000D03*
X161500000Y-101125000D03*
X158800000Y-101125000D03*
X158800000Y-107025000D03*
%TD*%
D23*
%TO.C,C8*%
X123350000Y-83799999D03*
X125425000Y-83799999D03*
%TD*%
D24*
%TO.C,R12*%
X129525000Y-112100000D03*
X129525000Y-110100000D03*
%TD*%
D25*
%TO.C,TP2*%
X132225000Y-79100000D03*
%TD*%
D24*
%TO.C,R1*%
X155775000Y-111812500D03*
X155775000Y-109812500D03*
%TD*%
D23*
%TO.C,C12*%
X133487500Y-101100000D03*
X135562500Y-101100000D03*
%TD*%
D26*
%TO.C,C3*%
X192025000Y-108137500D03*
X192025000Y-106062500D03*
%TD*%
D24*
%TO.C,R2*%
X179375000Y-90400000D03*
X179375000Y-88400000D03*
%TD*%
D23*
%TO.C,C7*%
X123350000Y-80299999D03*
X125425000Y-80299999D03*
%TD*%
D24*
%TO.C,R11*%
X139525000Y-112100000D03*
X139525000Y-110100000D03*
%TD*%
%TO.C,R8*%
X108225000Y-101478900D03*
X108225000Y-99478900D03*
%TD*%
D25*
%TO.C,TP4*%
X167225000Y-100500000D03*
%TD*%
D23*
%TO.C,C17*%
X116687501Y-76566850D03*
X118762501Y-76566850D03*
%TD*%
D24*
%TO.C,R4*%
X183375000Y-81700000D03*
X183375000Y-79700000D03*
%TD*%
%TO.C,R7*%
X107952200Y-114015000D03*
X107952200Y-112015000D03*
%TD*%
D27*
%TO.C,R10*%
X114725000Y-94978900D03*
X114725000Y-96978900D03*
%TD*%
D28*
%TO.C,R6*%
X111952200Y-104965000D03*
X113952200Y-104965000D03*
%TD*%
D29*
%TO.C,U4*%
X179647800Y-84185000D03*
X179647800Y-85615000D03*
X183102200Y-85615000D03*
X183102200Y-84185000D03*
%TD*%
D30*
%TO.C,U6*%
X174125000Y-99850000D03*
X174125000Y-101850000D03*
X174125000Y-103850000D03*
X174125000Y-105850000D03*
X174125000Y-107850000D03*
X174125000Y-109850000D03*
X174125000Y-111850000D03*
X174125000Y-113850000D03*
D31*
X188925000Y-113850000D03*
X188925000Y-111850000D03*
X188925000Y-109850000D03*
X188925000Y-107850000D03*
X188925000Y-105850000D03*
X188925000Y-103850000D03*
X188925000Y-101850000D03*
X188925000Y-99850000D03*
%TD*%
D32*
%TO.C,U2*%
X129175001Y-80644299D03*
X128675000Y-80644299D03*
X128175000Y-80644299D03*
X127674999Y-80644299D03*
D33*
X127510600Y-81300000D03*
X127510600Y-81799999D03*
X127510600Y-82299998D03*
D32*
X127674999Y-82955699D03*
X128175000Y-82955699D03*
X128675000Y-82955699D03*
X129175001Y-82955699D03*
D33*
X129339400Y-82299998D03*
X129339400Y-81799999D03*
X129339400Y-81300000D03*
%TD*%
D34*
%TO.C,H2*%
X102025000Y-93500000D03*
%TD*%
D35*
%TO.C,C6*%
X121562500Y-114600000D03*
X119487500Y-114600000D03*
%TD*%
D36*
%TO.C,R14*%
X154025000Y-96600000D03*
X152025000Y-96600000D03*
%TD*%
D34*
%TO.C,H4*%
X102025000Y-119100000D03*
%TD*%
D26*
%TO.C,C15*%
X139025000Y-86637500D03*
X139025000Y-84562500D03*
%TD*%
D25*
%TO.C,TP1*%
X135425000Y-77300000D03*
%TD*%
D21*
%TO.C,SW3*%
X144525000Y-120800000D03*
X139275000Y-120800000D03*
X144525000Y-117600000D03*
X139275000Y-117600000D03*
%TD*%
D34*
%TO.C,H1*%
X193025000Y-78100000D03*
%TD*%
D37*
%TO.C,C9*%
X150525000Y-101062500D03*
X150525000Y-103137500D03*
%TD*%
D28*
%TO.C,R9*%
X111625000Y-99800000D03*
X113625000Y-99800000D03*
%TD*%
D26*
%TO.C,C11*%
X146625000Y-105837500D03*
X146625000Y-103762500D03*
%TD*%
D23*
%TO.C,C16*%
X115937501Y-80566850D03*
X118012501Y-80566850D03*
%TD*%
D35*
%TO.C,C4*%
X141562500Y-114600000D03*
X139487500Y-114600000D03*
%TD*%
D38*
%TO.C,J2*%
X102825000Y-79980000D03*
X102825000Y-84380000D03*
D39*
X105475000Y-80580000D03*
X105475000Y-81380000D03*
X105475000Y-82180000D03*
X105475000Y-82980000D03*
X105475000Y-83780000D03*
D40*
X105375000Y-77730000D03*
X105375000Y-86630000D03*
X99875000Y-86630000D03*
X99875000Y-77730000D03*
%TD*%
D41*
%TO.C,U8*%
X189025000Y-116649998D03*
D42*
X187775000Y-118124999D03*
D41*
X189025000Y-119600000D03*
D42*
X190275000Y-118124999D03*
%TD*%
D34*
%TO.C,H3*%
X179025000Y-119600000D03*
%TD*%
D27*
%TO.C,R3*%
X182875000Y-88400000D03*
X182875000Y-90400000D03*
%TD*%
D28*
%TO.C,R5*%
X111552200Y-112215000D03*
X113552200Y-112215000D03*
%TD*%
D35*
%TO.C,C1*%
X152562500Y-112812500D03*
X150487500Y-112812500D03*
%TD*%
D23*
%TO.C,C19*%
X159987500Y-98100000D03*
X162062500Y-98100000D03*
%TD*%
D26*
%TO.C,C10*%
X145825000Y-83837500D03*
X145825000Y-81762500D03*
%TD*%
D21*
%TO.C,SW5*%
X124525000Y-120800000D03*
X119275000Y-120800000D03*
X124525000Y-117600000D03*
X119275000Y-117600000D03*
%TD*%
D29*
%TO.C,U3*%
X108225000Y-107800000D03*
X108225000Y-109230000D03*
X111679400Y-109230000D03*
X111679400Y-107800000D03*
%TD*%
D21*
%TO.C,SW1*%
X169150000Y-119200000D03*
X163900000Y-119200000D03*
X169150000Y-116000000D03*
X163900000Y-116000000D03*
%TD*%
D24*
%TO.C,R13*%
X119525000Y-112100000D03*
X119525000Y-110100000D03*
%TD*%
D35*
%TO.C,C14*%
X156212500Y-90750000D03*
X154137500Y-90750000D03*
%TD*%
D43*
%TO.C,U7*%
X113475001Y-76633150D03*
X112525000Y-76633150D03*
X111574999Y-76633150D03*
X111574999Y-79566850D03*
X113475001Y-79566850D03*
%TD*%
D37*
%TO.C,C13*%
X135775000Y-86462500D03*
X135775000Y-88537500D03*
%TD*%
D21*
%TO.C,SW2*%
X155650000Y-119200000D03*
X150400000Y-119200000D03*
X155650000Y-116000000D03*
X150400000Y-116000000D03*
%TD*%
D29*
%TO.C,U5*%
X108497800Y-95263900D03*
X108497800Y-96693900D03*
X111952200Y-96693900D03*
X111952200Y-95263900D03*
%TD*%
D35*
%TO.C,C2*%
X166062500Y-112100000D03*
X163987500Y-112100000D03*
%TD*%
D25*
%TO.C,TP3*%
X169925000Y-98200000D03*
%TD*%
D44*
%TO.C,U1*%
X148700000Y-99350000D03*
X148700000Y-98850000D03*
X148700000Y-98350000D03*
X148700000Y-97850000D03*
X148700000Y-97350000D03*
X148700000Y-96850000D03*
X148700000Y-96350000D03*
X148700000Y-95850000D03*
X148700000Y-95350000D03*
X148700000Y-94850000D03*
X148700000Y-94350000D03*
X148700000Y-93850000D03*
X148700000Y-93350000D03*
X148700000Y-92850000D03*
X148700000Y-92350000D03*
X148700000Y-91850000D03*
D45*
X146775000Y-89925000D03*
X146275000Y-89925000D03*
X145775000Y-89925000D03*
X145275000Y-89925000D03*
X144775000Y-89925000D03*
X144275000Y-89925000D03*
X143775000Y-89925000D03*
X143275000Y-89925000D03*
X142775000Y-89925000D03*
X142275000Y-89925000D03*
X141775000Y-89925000D03*
X141275000Y-89925000D03*
X140775000Y-89925000D03*
X140275000Y-89925000D03*
X139775000Y-89925000D03*
X139275000Y-89925000D03*
D44*
X137350000Y-91850000D03*
X137350000Y-92350000D03*
X137350000Y-92850000D03*
X137350000Y-93350000D03*
X137350000Y-93850000D03*
X137350000Y-94350000D03*
X137350000Y-94850000D03*
X137350000Y-95350000D03*
X137350000Y-95850000D03*
X137350000Y-96350000D03*
X137350000Y-96850000D03*
X137350000Y-97350000D03*
X137350000Y-97850000D03*
X137350000Y-98350000D03*
X137350000Y-98850000D03*
X137350000Y-99350000D03*
D45*
X139275000Y-101275000D03*
X139775000Y-101275000D03*
X140275000Y-101275000D03*
X140775000Y-101275000D03*
X141275000Y-101275000D03*
X141775000Y-101275000D03*
X142275000Y-101275000D03*
X142775000Y-101275000D03*
X143275000Y-101275000D03*
X143775000Y-101275000D03*
X144275000Y-101275000D03*
X144775000Y-101275000D03*
X145275000Y-101275000D03*
X145775000Y-101275000D03*
X146275000Y-101275000D03*
X146775000Y-101275000D03*
%TD*%
D35*
%TO.C,C18*%
X161187500Y-110200000D03*
X159112500Y-110200000D03*
%TD*%
%TO.C,C5*%
X131562500Y-114600000D03*
X129487500Y-114600000D03*
%TD*%
%LPD*%
M02*
