%TF.GenerationSoftware,KiCad,Pcbnew,8.0.3-8.0.3-0~ubuntu22.04.1*%
%TF.CreationDate,2024-06-29T20:26:50+10:00*%
%TF.ProjectId,lo_cate_pcb,6c6f5f63-6174-4655-9f70-63622e6b6963,rev?*%
%TF.SameCoordinates,Original*%
%TF.FileFunction,Copper,L4,Bot*%
%TF.FilePolarity,Positive*%
%FSLAX46Y46*%
G04 Gerber Fmt 4.6, Leading zero omitted, Abs format (unit mm)*
G04 Created by KiCad (PCBNEW 8.0.3-8.0.3-0~ubuntu22.04.1) date 2024-06-29 20:26:50*
%MOMM*%
%LPD*%
G01*
G04 APERTURE LIST*
%TA.AperFunction,ComponentPad*%
%ADD10R,1.000000X1.000000*%
%TD*%
%TA.AperFunction,ComponentPad*%
%ADD11O,1.000000X1.000000*%
%TD*%
%TA.AperFunction,ViaPad*%
%ADD12C,0.600000*%
%TD*%
%TA.AperFunction,Conductor*%
%ADD13C,0.200000*%
%TD*%
G04 APERTURE END LIST*
D10*
%TO.P,J3,1,Pin_1*%
%TO.N,/3V3*%
X167340000Y-77500000D03*
D11*
%TO.P,J3,2,Pin_2*%
%TO.N,/SWDIO*%
X168610000Y-77500000D03*
%TO.P,J3,3,Pin_3*%
%TO.N,/SWCLK*%
X169880000Y-77500000D03*
%TO.P,J3,4,Pin_4*%
%TO.N,/SWO*%
X171150000Y-77500000D03*
%TO.P,J3,5,Pin_5*%
%TO.N,/NRST*%
X172420000Y-77500000D03*
%TO.P,J3,6,Pin_6*%
%TO.N,/BOOTO*%
X173690000Y-77500000D03*
%TO.P,J3,7,Pin_7*%
%TO.N,/UART_RX*%
X174960000Y-77500000D03*
%TO.P,J3,8,Pin_8*%
%TO.N,/UART_TX*%
X176230000Y-77500000D03*
%TO.P,J3,9,Pin_9*%
%TO.N,GND*%
X177500000Y-77500000D03*
%TD*%
D12*
%TO.N,/LED3_BLUE*%
X120400000Y-101500000D03*
%TO.N,/LED3_RED*%
X120300000Y-99800000D03*
%TO.N,/LED3_BLUE*%
X140900000Y-104700000D03*
%TO.N,/LED3_RED*%
X140952970Y-103621596D03*
%TO.N,/UART_RX*%
X143900000Y-97100000D03*
%TO.N,/UART_TX*%
X144500000Y-96400000D03*
X174800000Y-83600000D03*
%TO.N,/UART_RX*%
X173900000Y-82800000D03*
%TO.N,GND*%
X146025000Y-107700000D03*
X134250000Y-80475000D03*
X172925000Y-80225000D03*
X143625000Y-108100000D03*
X141625000Y-105300000D03*
X154875000Y-98575000D03*
%TO.N,/MICRO_WAKEUP*%
X147775000Y-102350000D03*
X149025000Y-110100000D03*
%TO.N,/NRST*%
X163625000Y-95900000D03*
X159625000Y-94700000D03*
%TO.N,/3V3*%
X165525000Y-76100000D03*
X125025000Y-82100000D03*
X116025000Y-78600000D03*
X135525000Y-102600000D03*
X147525000Y-83100000D03*
X178525000Y-82600000D03*
X125525000Y-78600000D03*
X194025000Y-106100000D03*
X148850000Y-119125000D03*
X117525000Y-121100000D03*
X108025000Y-106100000D03*
X108025000Y-93600000D03*
X148525000Y-104100000D03*
X154325000Y-89175000D03*
X134025000Y-89350000D03*
%TO.N,/SWO*%
X165275000Y-80300000D03*
X142324265Y-97399265D03*
%TO.N,/SWCLK*%
X159025000Y-79700000D03*
X139525000Y-99350000D03*
%TO.N,/SWDIO*%
X160025000Y-79100000D03*
X140025000Y-97600000D03*
%TO.N,/LED2_BLUE*%
X173025000Y-87100000D03*
X154275000Y-88350000D03*
%TO.N,/LED2_GREEN*%
X173025000Y-86100000D03*
X152275000Y-89100000D03*
%TO.N,/LED1_RED*%
X141775000Y-107600000D03*
X115275000Y-111850000D03*
%TO.N,/LED1_GREEN*%
X117775000Y-106350000D03*
X145275000Y-102850000D03*
%TO.N,/LED1_BLUE*%
X141574265Y-108649265D03*
X114025000Y-114015000D03*
%TO.N,/LED3_GREEN*%
X142025000Y-88100000D03*
X125525000Y-93100000D03*
%TO.N,/LORA_RST*%
X145758060Y-94715470D03*
X166525000Y-104850000D03*
%TO.N,/LORA_MOSI*%
X167025000Y-97850000D03*
X152691293Y-93744737D03*
%TO.N,/LORA_MISO*%
X151025000Y-94350000D03*
X164525000Y-94200000D03*
%TO.N,/LORA_CSB*%
X146475000Y-96225000D03*
X166525000Y-103850000D03*
%TO.N,/OSC_IN*%
X155450000Y-102025000D03*
X153025000Y-99600000D03*
%TO.N,/IMU_SCK*%
X136775000Y-81600000D03*
X139525000Y-79850000D03*
%TO.N,Net-(C19-Pad1)*%
X156025000Y-97100000D03*
X158525000Y-98600000D03*
%TO.N,/LORA_SCK*%
X146975736Y-97800735D03*
X166525000Y-102850000D03*
%TO.N,/USB_DP*%
X133525000Y-98350000D03*
X108605000Y-82180000D03*
%TO.N,/USB_ID*%
X133525000Y-96350000D03*
X115525000Y-85600000D03*
%TO.N,/USB_DM*%
X109805000Y-81380000D03*
X133525000Y-97350000D03*
%TD*%
D13*
%TO.N,/LED3_BLUE*%
X140900000Y-104700000D02*
X124600000Y-104700000D01*
X124600000Y-104700000D02*
X121400000Y-101500000D01*
X121400000Y-101500000D02*
X120400000Y-101500000D01*
%TO.N,/LED3_RED*%
X140952970Y-103621596D02*
X140474566Y-104100000D01*
X140474566Y-104100000D02*
X126700000Y-104100000D01*
X126700000Y-104100000D02*
X122400000Y-99800000D01*
X122400000Y-99800000D02*
X120300000Y-99800000D01*
%TO.N,/UART_TX*%
X144500000Y-96400000D02*
X144500000Y-96300000D01*
X156025001Y-83600000D02*
X174800000Y-83600000D01*
X144500000Y-96400000D02*
X144500000Y-95125001D01*
X144500000Y-95125001D02*
X156025001Y-83600000D01*
%TO.N,/UART_RX*%
X143900000Y-97100000D02*
X143900000Y-94606372D01*
X155706372Y-82800000D02*
X173900000Y-82800000D01*
X143900000Y-94606372D02*
X155706372Y-82800000D01*
%TO.N,GND*%
X144025000Y-107700000D02*
X146025000Y-107700000D01*
X143625000Y-108100000D02*
X144025000Y-107700000D01*
%TO.N,/MICRO_WAKEUP*%
X147775000Y-105100000D02*
X147775000Y-102350000D01*
X149025000Y-110100000D02*
X149025000Y-106350000D01*
X149025000Y-106350000D02*
X147775000Y-105100000D01*
%TO.N,/NRST*%
X162425000Y-94700000D02*
X163625000Y-95900000D01*
X159625000Y-94700000D02*
X162425000Y-94700000D01*
%TO.N,/SWO*%
X157240686Y-80700000D02*
X143075000Y-94865686D01*
X165275000Y-80300000D02*
X164875000Y-80700000D01*
X164875000Y-80700000D02*
X157240686Y-80700000D01*
X143075000Y-94865686D02*
X143075000Y-96648530D01*
X143075000Y-96648530D02*
X142324265Y-97399265D01*
%TO.N,/SWCLK*%
X142675000Y-94700000D02*
X142675000Y-96200000D01*
X159025000Y-79700000D02*
X157675000Y-79700000D01*
X142675000Y-96200000D02*
X139525000Y-99350000D01*
X157675000Y-79700000D02*
X142675000Y-94700000D01*
%TO.N,/SWDIO*%
X157709314Y-79100000D02*
X140025000Y-96784314D01*
X140025000Y-96784314D02*
X140025000Y-97600000D01*
X160025000Y-79100000D02*
X157709314Y-79100000D01*
%TO.N,/LED2_BLUE*%
X173025000Y-87100000D02*
X155525000Y-87100000D01*
X155525000Y-87100000D02*
X154275000Y-88350000D01*
%TO.N,/LED2_GREEN*%
X173025000Y-86100000D02*
X155275000Y-86100000D01*
X155275000Y-86100000D02*
X152275000Y-89100000D01*
%TO.N,/LED1_RED*%
X115275000Y-111850000D02*
X137525000Y-111850000D01*
X137525000Y-111850000D02*
X141775000Y-107600000D01*
%TO.N,/LED1_GREEN*%
X145275000Y-102850000D02*
X145275000Y-103100000D01*
X142025000Y-106350000D02*
X117775000Y-106350000D01*
X145275000Y-103100000D02*
X142025000Y-106350000D01*
%TO.N,/LED1_BLUE*%
X141574265Y-108649265D02*
X137373530Y-112850000D01*
X115190000Y-112850000D02*
X114025000Y-114015000D01*
X137373530Y-112850000D02*
X115190000Y-112850000D01*
%TO.N,/LED3_GREEN*%
X125525000Y-93100000D02*
X130625000Y-88000000D01*
X141925000Y-88000000D02*
X142025000Y-88100000D01*
X130625000Y-88000000D02*
X141925000Y-88000000D01*
%TO.N,/LORA_RST*%
X152525000Y-104850000D02*
X166525000Y-104850000D01*
X145875000Y-94832410D02*
X145875000Y-98200000D01*
X145758060Y-94715470D02*
X145875000Y-94832410D01*
X145875000Y-98200000D02*
X152525000Y-104850000D01*
%TO.N,/LORA_MOSI*%
X167025000Y-95100000D02*
X167025000Y-97850000D01*
X152691293Y-93744737D02*
X152836030Y-93600000D01*
X165525000Y-93600000D02*
X167025000Y-95100000D01*
X152836030Y-93600000D02*
X165525000Y-93600000D01*
%TO.N,/LORA_MISO*%
X164425000Y-94100000D02*
X164525000Y-94200000D01*
X151025000Y-94350000D02*
X151030263Y-94344737D01*
X152939822Y-94344737D02*
X153184559Y-94100000D01*
X153184559Y-94100000D02*
X164425000Y-94100000D01*
X151030263Y-94344737D02*
X152939822Y-94344737D01*
%TO.N,/LORA_CSB*%
X146275000Y-96425000D02*
X146275000Y-97948529D01*
X146275000Y-97948529D02*
X152176471Y-103850000D01*
X146475000Y-96225000D02*
X146275000Y-96425000D01*
X152176471Y-103850000D02*
X166525000Y-103850000D01*
%TO.N,/OSC_IN*%
X155450000Y-102025000D02*
X153025000Y-99600000D01*
%TO.N,/IMU_SCK*%
X136775000Y-81600000D02*
X138525000Y-79850000D01*
X138525000Y-79850000D02*
X139525000Y-79850000D01*
%TO.N,Net-(C19-Pad1)*%
X156025000Y-97100000D02*
X157025000Y-97100000D01*
X157025000Y-97100000D02*
X158525000Y-98600000D01*
%TO.N,/LORA_SCK*%
X146975736Y-97800736D02*
X152025000Y-102850000D01*
X146975736Y-97800735D02*
X146975736Y-97800736D01*
X152025000Y-102850000D02*
X166525000Y-102850000D01*
%TO.N,/USB_DP*%
X124775000Y-98350000D02*
X133525000Y-98350000D01*
X108605000Y-82180000D02*
X124775000Y-98350000D01*
%TO.N,/USB_ID*%
X126275000Y-96350000D02*
X133525000Y-96350000D01*
X115525000Y-85600000D02*
X126275000Y-96350000D01*
%TO.N,/USB_DM*%
X109805000Y-81380000D02*
X125775000Y-97350000D01*
X125775000Y-97350000D02*
X133525000Y-97350000D01*
%TD*%
%TA.AperFunction,Conductor*%
%TO.N,GND*%
G36*
X195029043Y-74100765D02*
G01*
X195277895Y-74117075D01*
X195293953Y-74119190D01*
X195501105Y-74160395D01*
X195534535Y-74167045D01*
X195550202Y-74171243D01*
X195719947Y-74228863D01*
X195782481Y-74250091D01*
X195797458Y-74256294D01*
X196006799Y-74359529D01*
X196017460Y-74364787D01*
X196031508Y-74372897D01*
X196235464Y-74509177D01*
X196248328Y-74519048D01*
X196432749Y-74680781D01*
X196444218Y-74692250D01*
X196605951Y-74876671D01*
X196615825Y-74889539D01*
X196752102Y-75093492D01*
X196760212Y-75107539D01*
X196868702Y-75327534D01*
X196874909Y-75342520D01*
X196953756Y-75574797D01*
X196957954Y-75590464D01*
X197005807Y-75831035D01*
X197007925Y-75847116D01*
X197024235Y-76095956D01*
X197024500Y-76104066D01*
X197024500Y-121095933D01*
X197024235Y-121104043D01*
X197007925Y-121352883D01*
X197005807Y-121368964D01*
X196957954Y-121609535D01*
X196953756Y-121625202D01*
X196874909Y-121857479D01*
X196868702Y-121872465D01*
X196760212Y-122092460D01*
X196752102Y-122106507D01*
X196615825Y-122310460D01*
X196605951Y-122323328D01*
X196444218Y-122507749D01*
X196432749Y-122519218D01*
X196248328Y-122680951D01*
X196235460Y-122690825D01*
X196031507Y-122827102D01*
X196017460Y-122835212D01*
X195797465Y-122943702D01*
X195782479Y-122949909D01*
X195550202Y-123028756D01*
X195534535Y-123032954D01*
X195293964Y-123080807D01*
X195277883Y-123082925D01*
X195029043Y-123099235D01*
X195020933Y-123099500D01*
X100029067Y-123099500D01*
X100020957Y-123099235D01*
X99772116Y-123082925D01*
X99756035Y-123080807D01*
X99515464Y-123032954D01*
X99499797Y-123028756D01*
X99267520Y-122949909D01*
X99252534Y-122943702D01*
X99032539Y-122835212D01*
X99018492Y-122827102D01*
X98814539Y-122690825D01*
X98801671Y-122680951D01*
X98617250Y-122519218D01*
X98605781Y-122507749D01*
X98444048Y-122323328D01*
X98434174Y-122310460D01*
X98297897Y-122106507D01*
X98289787Y-122092460D01*
X98183855Y-121877652D01*
X98181294Y-121872458D01*
X98175090Y-121857479D01*
X98096243Y-121625202D01*
X98092045Y-121609535D01*
X98054113Y-121418838D01*
X98044190Y-121368953D01*
X98042075Y-121352895D01*
X98025765Y-121104043D01*
X98025633Y-121100000D01*
X117019353Y-121100000D01*
X117039834Y-121242456D01*
X117093966Y-121360987D01*
X117099623Y-121373373D01*
X117193872Y-121482143D01*
X117314947Y-121559953D01*
X117314950Y-121559954D01*
X117314949Y-121559954D01*
X117453036Y-121600499D01*
X117453038Y-121600500D01*
X117453039Y-121600500D01*
X117596962Y-121600500D01*
X117596962Y-121600499D01*
X117735053Y-121559953D01*
X117856128Y-121482143D01*
X117950377Y-121373373D01*
X118010165Y-121242457D01*
X118030647Y-121100000D01*
X118010165Y-120957543D01*
X117950377Y-120826627D01*
X117856128Y-120717857D01*
X117735053Y-120640047D01*
X117735051Y-120640046D01*
X117735049Y-120640045D01*
X117735050Y-120640045D01*
X117596963Y-120599500D01*
X117596961Y-120599500D01*
X117453039Y-120599500D01*
X117453036Y-120599500D01*
X117314949Y-120640045D01*
X117193873Y-120717856D01*
X117099623Y-120826626D01*
X117099622Y-120826628D01*
X117039834Y-120957543D01*
X117019353Y-121100000D01*
X98025633Y-121100000D01*
X98025500Y-121095933D01*
X98025500Y-118978711D01*
X100174500Y-118978711D01*
X100174500Y-119221288D01*
X100206161Y-119461785D01*
X100268947Y-119696104D01*
X100279379Y-119721288D01*
X100361776Y-119920212D01*
X100483064Y-120130289D01*
X100483066Y-120130292D01*
X100483067Y-120130293D01*
X100630733Y-120322736D01*
X100630739Y-120322743D01*
X100802256Y-120494260D01*
X100802262Y-120494265D01*
X100994711Y-120641936D01*
X101204788Y-120763224D01*
X101428900Y-120856054D01*
X101663211Y-120918838D01*
X101843586Y-120942584D01*
X101903711Y-120950500D01*
X101903712Y-120950500D01*
X102146289Y-120950500D01*
X102194388Y-120944167D01*
X102386789Y-120918838D01*
X102621100Y-120856054D01*
X102845212Y-120763224D01*
X103055289Y-120641936D01*
X103247738Y-120494265D01*
X103419265Y-120322738D01*
X103566936Y-120130289D01*
X103688224Y-119920212D01*
X103781054Y-119696100D01*
X103843838Y-119461789D01*
X103875500Y-119221288D01*
X103875500Y-119125000D01*
X148344353Y-119125000D01*
X148364834Y-119267456D01*
X148424622Y-119398371D01*
X148424623Y-119398373D01*
X148518872Y-119507143D01*
X148639947Y-119584953D01*
X148639950Y-119584954D01*
X148639949Y-119584954D01*
X148778036Y-119625499D01*
X148778038Y-119625500D01*
X148778039Y-119625500D01*
X148921962Y-119625500D01*
X148921962Y-119625499D01*
X149060053Y-119584953D01*
X149181128Y-119507143D01*
X149205764Y-119478711D01*
X177174500Y-119478711D01*
X177174500Y-119721288D01*
X177206161Y-119961785D01*
X177268947Y-120196104D01*
X177321400Y-120322736D01*
X177361776Y-120420212D01*
X177483064Y-120630289D01*
X177483066Y-120630292D01*
X177483067Y-120630293D01*
X177630733Y-120822736D01*
X177630739Y-120822743D01*
X177802256Y-120994260D01*
X177802263Y-120994266D01*
X177915321Y-121081018D01*
X177994711Y-121141936D01*
X178204788Y-121263224D01*
X178400269Y-121344195D01*
X178421244Y-121352883D01*
X178428900Y-121356054D01*
X178663211Y-121418838D01*
X178843586Y-121442584D01*
X178903711Y-121450500D01*
X178903712Y-121450500D01*
X179146289Y-121450500D01*
X179194388Y-121444167D01*
X179386789Y-121418838D01*
X179621100Y-121356054D01*
X179845212Y-121263224D01*
X180055289Y-121141936D01*
X180247738Y-120994265D01*
X180419265Y-120822738D01*
X180566936Y-120630289D01*
X180688224Y-120420212D01*
X180781054Y-120196100D01*
X180843838Y-119961789D01*
X180875500Y-119721288D01*
X180875500Y-119478712D01*
X180843838Y-119238211D01*
X180781054Y-119003900D01*
X180688224Y-118779788D01*
X180566936Y-118569711D01*
X180419265Y-118377262D01*
X180419260Y-118377256D01*
X180247743Y-118205739D01*
X180247736Y-118205733D01*
X180055293Y-118058067D01*
X180055292Y-118058066D01*
X180055289Y-118058064D01*
X179845212Y-117936776D01*
X179845205Y-117936773D01*
X179621104Y-117843947D01*
X179386785Y-117781161D01*
X179146289Y-117749500D01*
X179146288Y-117749500D01*
X178903712Y-117749500D01*
X178903711Y-117749500D01*
X178663214Y-117781161D01*
X178428895Y-117843947D01*
X178204794Y-117936773D01*
X178204785Y-117936777D01*
X177994706Y-118058067D01*
X177802263Y-118205733D01*
X177802256Y-118205739D01*
X177630739Y-118377256D01*
X177630733Y-118377263D01*
X177483067Y-118569706D01*
X177361777Y-118779785D01*
X177361773Y-118779794D01*
X177268947Y-119003895D01*
X177206161Y-119238214D01*
X177174500Y-119478711D01*
X149205764Y-119478711D01*
X149275377Y-119398373D01*
X149335165Y-119267457D01*
X149355647Y-119125000D01*
X149335165Y-118982543D01*
X149275377Y-118851627D01*
X149181128Y-118742857D01*
X149060053Y-118665047D01*
X149060051Y-118665046D01*
X149060049Y-118665045D01*
X149060050Y-118665045D01*
X148921963Y-118624500D01*
X148921961Y-118624500D01*
X148778039Y-118624500D01*
X148778036Y-118624500D01*
X148639949Y-118665045D01*
X148518873Y-118742856D01*
X148424623Y-118851626D01*
X148424622Y-118851628D01*
X148364834Y-118982543D01*
X148344353Y-119125000D01*
X103875500Y-119125000D01*
X103875500Y-118978712D01*
X103843838Y-118738211D01*
X103781054Y-118503900D01*
X103688224Y-118279788D01*
X103566936Y-118069711D01*
X103419265Y-117877262D01*
X103419260Y-117877256D01*
X103247743Y-117705739D01*
X103247736Y-117705733D01*
X103055293Y-117558067D01*
X103055292Y-117558066D01*
X103055289Y-117558064D01*
X102845212Y-117436776D01*
X102845205Y-117436773D01*
X102621104Y-117343947D01*
X102386785Y-117281161D01*
X102146289Y-117249500D01*
X102146288Y-117249500D01*
X101903712Y-117249500D01*
X101903711Y-117249500D01*
X101663214Y-117281161D01*
X101428895Y-117343947D01*
X101204794Y-117436773D01*
X101204785Y-117436777D01*
X100994706Y-117558067D01*
X100802263Y-117705733D01*
X100802256Y-117705739D01*
X100630739Y-117877256D01*
X100630733Y-117877263D01*
X100483067Y-118069706D01*
X100361777Y-118279785D01*
X100361773Y-118279794D01*
X100268947Y-118503895D01*
X100206161Y-118738214D01*
X100174500Y-118978711D01*
X98025500Y-118978711D01*
X98025500Y-114015000D01*
X113519353Y-114015000D01*
X113539834Y-114157456D01*
X113599622Y-114288371D01*
X113599623Y-114288373D01*
X113693872Y-114397143D01*
X113814947Y-114474953D01*
X113814950Y-114474954D01*
X113814949Y-114474954D01*
X113953036Y-114515499D01*
X113953038Y-114515500D01*
X113953039Y-114515500D01*
X114096962Y-114515500D01*
X114096962Y-114515499D01*
X114235053Y-114474953D01*
X114356128Y-114397143D01*
X114450377Y-114288373D01*
X114510165Y-114157457D01*
X114530647Y-114015000D01*
X114529339Y-114005905D01*
X114539279Y-113936749D01*
X114564392Y-113900577D01*
X115278152Y-113186819D01*
X115339475Y-113153334D01*
X115365833Y-113150500D01*
X137413090Y-113150500D01*
X137413092Y-113150500D01*
X137489519Y-113130021D01*
X137558041Y-113090460D01*
X137613990Y-113034511D01*
X141462416Y-109186083D01*
X141523739Y-109152599D01*
X141550097Y-109149765D01*
X141646227Y-109149765D01*
X141646227Y-109149764D01*
X141784318Y-109109218D01*
X141905393Y-109031408D01*
X141999642Y-108922638D01*
X142059430Y-108791722D01*
X142079912Y-108649265D01*
X142059430Y-108506808D01*
X141999642Y-108375892D01*
X141999640Y-108375890D01*
X141999639Y-108375887D01*
X141904800Y-108266437D01*
X141875775Y-108202882D01*
X141885719Y-108133723D01*
X141931474Y-108080919D01*
X141963579Y-108066258D01*
X141985053Y-108059953D01*
X142106128Y-107982143D01*
X142200377Y-107873373D01*
X142260165Y-107742457D01*
X142280647Y-107600000D01*
X142260165Y-107457543D01*
X142200377Y-107326627D01*
X142106128Y-107217857D01*
X141985053Y-107140047D01*
X141985051Y-107140046D01*
X141985049Y-107140045D01*
X141985050Y-107140045D01*
X141846963Y-107099500D01*
X141846961Y-107099500D01*
X141703039Y-107099500D01*
X141703036Y-107099500D01*
X141564949Y-107140045D01*
X141443873Y-107217856D01*
X141349623Y-107326626D01*
X141349622Y-107326628D01*
X141289834Y-107457543D01*
X141269353Y-107600000D01*
X141269353Y-107600001D01*
X141270661Y-107609103D01*
X141260713Y-107678261D01*
X141235603Y-107714424D01*
X137436848Y-111513181D01*
X137375525Y-111546666D01*
X137349167Y-111549500D01*
X115733501Y-111549500D01*
X115666462Y-111529815D01*
X115639788Y-111506703D01*
X115606128Y-111467857D01*
X115485053Y-111390047D01*
X115485051Y-111390046D01*
X115485049Y-111390045D01*
X115485050Y-111390045D01*
X115346963Y-111349500D01*
X115346961Y-111349500D01*
X115203039Y-111349500D01*
X115203036Y-111349500D01*
X115064949Y-111390045D01*
X114943873Y-111467856D01*
X114849623Y-111576626D01*
X114849622Y-111576628D01*
X114789834Y-111707543D01*
X114769353Y-111850000D01*
X114789834Y-111992456D01*
X114835472Y-112092388D01*
X114849623Y-112123373D01*
X114943872Y-112232143D01*
X115064947Y-112309953D01*
X115108509Y-112322743D01*
X115167287Y-112360517D01*
X115196313Y-112424072D01*
X115186370Y-112493231D01*
X115140616Y-112546036D01*
X115105671Y-112561495D01*
X115074013Y-112569978D01*
X115074004Y-112569982D01*
X115005495Y-112609535D01*
X115005487Y-112609541D01*
X114136847Y-113478181D01*
X114075524Y-113511666D01*
X114049166Y-113514500D01*
X113953036Y-113514500D01*
X113814949Y-113555045D01*
X113693873Y-113632856D01*
X113599623Y-113741626D01*
X113599622Y-113741628D01*
X113539834Y-113872543D01*
X113519353Y-114015000D01*
X98025500Y-114015000D01*
X98025500Y-106100000D01*
X107519353Y-106100000D01*
X107539834Y-106242456D01*
X107588949Y-106350000D01*
X107599623Y-106373373D01*
X107693872Y-106482143D01*
X107814947Y-106559953D01*
X107814950Y-106559954D01*
X107814949Y-106559954D01*
X107953036Y-106600499D01*
X107953038Y-106600500D01*
X107953039Y-106600500D01*
X108096962Y-106600500D01*
X108096962Y-106600499D01*
X108235053Y-106559953D01*
X108356128Y-106482143D01*
X108450377Y-106373373D01*
X108461051Y-106350000D01*
X117269353Y-106350000D01*
X117289834Y-106492456D01*
X117320660Y-106559954D01*
X117349623Y-106623373D01*
X117443872Y-106732143D01*
X117564947Y-106809953D01*
X117564950Y-106809954D01*
X117564949Y-106809954D01*
X117703036Y-106850499D01*
X117703038Y-106850500D01*
X117703039Y-106850500D01*
X117846962Y-106850500D01*
X117846962Y-106850499D01*
X117985053Y-106809953D01*
X118106128Y-106732143D01*
X118139788Y-106693296D01*
X118198567Y-106655523D01*
X118233501Y-106650500D01*
X142064560Y-106650500D01*
X142064562Y-106650500D01*
X142140989Y-106630021D01*
X142209511Y-106590460D01*
X142265460Y-106534511D01*
X145489523Y-103310446D01*
X145510161Y-103293816D01*
X145606125Y-103232145D01*
X145606125Y-103232144D01*
X145606128Y-103232143D01*
X145700377Y-103123373D01*
X145760165Y-102992457D01*
X145780647Y-102850000D01*
X145760165Y-102707543D01*
X145700377Y-102576627D01*
X145606128Y-102467857D01*
X145485053Y-102390047D01*
X145485051Y-102390046D01*
X145485049Y-102390045D01*
X145485050Y-102390045D01*
X145348666Y-102350000D01*
X147269353Y-102350000D01*
X147289834Y-102492456D01*
X147328275Y-102576628D01*
X147349623Y-102623373D01*
X147443872Y-102732143D01*
X147443875Y-102732144D01*
X147444213Y-102732535D01*
X147473238Y-102796091D01*
X147474500Y-102813738D01*
X147474500Y-105139562D01*
X147477431Y-105150500D01*
X147494979Y-105215990D01*
X147506327Y-105235644D01*
X147506329Y-105235647D01*
X147534539Y-105284509D01*
X147534541Y-105284512D01*
X148688181Y-106438152D01*
X148721666Y-106499475D01*
X148724500Y-106525833D01*
X148724500Y-109636260D01*
X148704815Y-109703299D01*
X148694213Y-109717462D01*
X148599625Y-109826622D01*
X148599622Y-109826628D01*
X148539834Y-109957543D01*
X148519353Y-110100000D01*
X148539834Y-110242456D01*
X148599622Y-110373371D01*
X148599623Y-110373373D01*
X148693872Y-110482143D01*
X148814947Y-110559953D01*
X148814950Y-110559954D01*
X148814949Y-110559954D01*
X148953036Y-110600499D01*
X148953038Y-110600500D01*
X148953039Y-110600500D01*
X149096962Y-110600500D01*
X149096962Y-110600499D01*
X149235053Y-110559953D01*
X149356128Y-110482143D01*
X149450377Y-110373373D01*
X149510165Y-110242457D01*
X149530647Y-110100000D01*
X149510165Y-109957543D01*
X149450377Y-109826627D01*
X149450375Y-109826625D01*
X149450374Y-109826622D01*
X149355787Y-109717462D01*
X149326762Y-109653906D01*
X149325500Y-109636260D01*
X149325500Y-106310439D01*
X149307284Y-106242457D01*
X149305021Y-106234011D01*
X149289740Y-106207543D01*
X149265464Y-106165495D01*
X149265458Y-106165487D01*
X149199971Y-106100000D01*
X193519353Y-106100000D01*
X193539834Y-106242456D01*
X193588949Y-106350000D01*
X193599623Y-106373373D01*
X193693872Y-106482143D01*
X193814947Y-106559953D01*
X193814950Y-106559954D01*
X193814949Y-106559954D01*
X193953036Y-106600499D01*
X193953038Y-106600500D01*
X193953039Y-106600500D01*
X194096962Y-106600500D01*
X194096962Y-106600499D01*
X194235053Y-106559953D01*
X194356128Y-106482143D01*
X194450377Y-106373373D01*
X194510165Y-106242457D01*
X194530647Y-106100000D01*
X194510165Y-105957543D01*
X194450377Y-105826627D01*
X194356128Y-105717857D01*
X194235053Y-105640047D01*
X194235051Y-105640046D01*
X194235049Y-105640045D01*
X194235050Y-105640045D01*
X194096963Y-105599500D01*
X194096961Y-105599500D01*
X193953039Y-105599500D01*
X193953036Y-105599500D01*
X193814949Y-105640045D01*
X193693873Y-105717856D01*
X193599623Y-105826626D01*
X193599622Y-105826628D01*
X193539834Y-105957543D01*
X193519353Y-106100000D01*
X149199971Y-106100000D01*
X148111819Y-105011848D01*
X148078334Y-104950525D01*
X148075500Y-104924167D01*
X148075500Y-104633158D01*
X148095185Y-104566119D01*
X148147989Y-104520364D01*
X148217147Y-104510420D01*
X148266535Y-104528841D01*
X148314947Y-104559953D01*
X148314949Y-104559953D01*
X148314950Y-104559954D01*
X148453036Y-104600499D01*
X148453038Y-104600500D01*
X148453039Y-104600500D01*
X148596962Y-104600500D01*
X148596962Y-104600499D01*
X148735053Y-104559953D01*
X148856128Y-104482143D01*
X148950377Y-104373373D01*
X149010165Y-104242457D01*
X149030647Y-104100000D01*
X149010165Y-103957543D01*
X148950377Y-103826627D01*
X148856128Y-103717857D01*
X148735053Y-103640047D01*
X148735051Y-103640046D01*
X148735049Y-103640045D01*
X148735050Y-103640045D01*
X148596963Y-103599500D01*
X148596961Y-103599500D01*
X148453039Y-103599500D01*
X148453036Y-103599500D01*
X148314949Y-103640045D01*
X148274398Y-103666106D01*
X148266541Y-103671156D01*
X148266539Y-103671157D01*
X148199500Y-103690841D01*
X148132460Y-103671156D01*
X148086706Y-103618352D01*
X148075500Y-103566841D01*
X148075500Y-102813738D01*
X148095185Y-102746699D01*
X148105787Y-102732535D01*
X148106124Y-102732144D01*
X148106128Y-102732143D01*
X148200377Y-102623373D01*
X148260165Y-102492457D01*
X148280647Y-102350000D01*
X148260165Y-102207543D01*
X148200377Y-102076627D01*
X148106128Y-101967857D01*
X147985053Y-101890047D01*
X147985051Y-101890046D01*
X147985049Y-101890045D01*
X147985050Y-101890045D01*
X147846963Y-101849500D01*
X147846961Y-101849500D01*
X147703039Y-101849500D01*
X147703036Y-101849500D01*
X147564949Y-101890045D01*
X147443873Y-101967856D01*
X147443872Y-101967856D01*
X147443872Y-101967857D01*
X147431290Y-101982377D01*
X147349623Y-102076626D01*
X147349622Y-102076628D01*
X147289834Y-102207543D01*
X147269353Y-102350000D01*
X145348666Y-102350000D01*
X145346963Y-102349500D01*
X145346961Y-102349500D01*
X145203039Y-102349500D01*
X145203036Y-102349500D01*
X145064949Y-102390045D01*
X144943873Y-102467856D01*
X144849623Y-102576626D01*
X144849622Y-102576628D01*
X144789834Y-102707543D01*
X144769353Y-102850000D01*
X144789834Y-102992456D01*
X144789836Y-102992463D01*
X144806656Y-103029292D01*
X144816600Y-103098450D01*
X144787575Y-103162006D01*
X144781543Y-103168484D01*
X141936848Y-106013181D01*
X141875525Y-106046666D01*
X141849167Y-106049500D01*
X118233501Y-106049500D01*
X118166462Y-106029815D01*
X118139788Y-106006703D01*
X118106128Y-105967857D01*
X117985053Y-105890047D01*
X117985051Y-105890046D01*
X117985049Y-105890045D01*
X117985050Y-105890045D01*
X117846963Y-105849500D01*
X117846961Y-105849500D01*
X117703039Y-105849500D01*
X117703036Y-105849500D01*
X117564949Y-105890045D01*
X117443873Y-105967856D01*
X117349623Y-106076626D01*
X117349622Y-106076628D01*
X117289834Y-106207543D01*
X117269353Y-106350000D01*
X108461051Y-106350000D01*
X108510165Y-106242457D01*
X108530647Y-106100000D01*
X108510165Y-105957543D01*
X108450377Y-105826627D01*
X108356128Y-105717857D01*
X108235053Y-105640047D01*
X108235051Y-105640046D01*
X108235049Y-105640045D01*
X108235050Y-105640045D01*
X108096963Y-105599500D01*
X108096961Y-105599500D01*
X107953039Y-105599500D01*
X107953036Y-105599500D01*
X107814949Y-105640045D01*
X107693873Y-105717856D01*
X107599623Y-105826626D01*
X107599622Y-105826628D01*
X107539834Y-105957543D01*
X107519353Y-106100000D01*
X98025500Y-106100000D01*
X98025500Y-99800000D01*
X119794353Y-99800000D01*
X119814834Y-99942456D01*
X119832959Y-99982143D01*
X119874623Y-100073373D01*
X119968872Y-100182143D01*
X120089947Y-100259953D01*
X120089950Y-100259954D01*
X120089949Y-100259954D01*
X120228036Y-100300499D01*
X120228038Y-100300500D01*
X120228039Y-100300500D01*
X120371962Y-100300500D01*
X120371962Y-100300499D01*
X120510053Y-100259953D01*
X120631128Y-100182143D01*
X120664788Y-100143296D01*
X120723567Y-100105523D01*
X120758501Y-100100500D01*
X122224167Y-100100500D01*
X122291206Y-100120185D01*
X122311848Y-100136819D01*
X126362848Y-104187819D01*
X126396333Y-104249142D01*
X126391349Y-104318834D01*
X126349477Y-104374767D01*
X126284013Y-104399184D01*
X126275167Y-104399500D01*
X124775833Y-104399500D01*
X124708794Y-104379815D01*
X124688152Y-104363181D01*
X121584512Y-101259541D01*
X121584504Y-101259535D01*
X121515995Y-101219982D01*
X121515990Y-101219979D01*
X121490513Y-101213152D01*
X121439562Y-101199500D01*
X121439560Y-101199500D01*
X120858501Y-101199500D01*
X120791462Y-101179815D01*
X120764788Y-101156703D01*
X120731128Y-101117857D01*
X120610053Y-101040047D01*
X120610051Y-101040046D01*
X120610049Y-101040045D01*
X120610050Y-101040045D01*
X120471963Y-100999500D01*
X120471961Y-100999500D01*
X120328039Y-100999500D01*
X120328036Y-100999500D01*
X120189949Y-101040045D01*
X120068873Y-101117856D01*
X119974623Y-101226626D01*
X119974622Y-101226628D01*
X119914834Y-101357543D01*
X119894353Y-101500000D01*
X119914834Y-101642456D01*
X119964691Y-101751626D01*
X119974623Y-101773373D01*
X120068872Y-101882143D01*
X120189947Y-101959953D01*
X120189950Y-101959954D01*
X120189949Y-101959954D01*
X120328036Y-102000499D01*
X120328038Y-102000500D01*
X120328039Y-102000500D01*
X120471962Y-102000500D01*
X120471962Y-102000499D01*
X120610053Y-101959953D01*
X120731128Y-101882143D01*
X120764788Y-101843296D01*
X120823567Y-101805523D01*
X120858501Y-101800500D01*
X121224167Y-101800500D01*
X121291206Y-101820185D01*
X121311848Y-101836819D01*
X124359540Y-104884511D01*
X124415489Y-104940460D01*
X124415491Y-104940461D01*
X124415495Y-104940464D01*
X124484004Y-104980017D01*
X124484011Y-104980021D01*
X124560438Y-105000500D01*
X124639562Y-105000500D01*
X140441499Y-105000500D01*
X140508538Y-105020185D01*
X140535211Y-105043296D01*
X140568872Y-105082143D01*
X140689947Y-105159953D01*
X140689950Y-105159954D01*
X140689949Y-105159954D01*
X140828036Y-105200499D01*
X140828038Y-105200500D01*
X140828039Y-105200500D01*
X140971962Y-105200500D01*
X140971962Y-105200499D01*
X141110053Y-105159953D01*
X141231128Y-105082143D01*
X141325377Y-104973373D01*
X141385165Y-104842457D01*
X141405647Y-104700000D01*
X141385165Y-104557543D01*
X141325377Y-104426627D01*
X141231128Y-104317857D01*
X141231125Y-104317855D01*
X141231126Y-104317855D01*
X141175541Y-104282133D01*
X141129787Y-104229329D01*
X141119843Y-104160171D01*
X141148868Y-104096615D01*
X141175538Y-104073505D01*
X141284098Y-104003739D01*
X141378347Y-103894969D01*
X141438135Y-103764053D01*
X141458617Y-103621596D01*
X141438135Y-103479139D01*
X141378347Y-103348223D01*
X141284098Y-103239453D01*
X141163023Y-103161643D01*
X141163021Y-103161642D01*
X141163019Y-103161641D01*
X141163020Y-103161641D01*
X141024933Y-103121096D01*
X141024931Y-103121096D01*
X140881009Y-103121096D01*
X140881006Y-103121096D01*
X140742919Y-103161641D01*
X140621843Y-103239452D01*
X140527593Y-103348222D01*
X140527592Y-103348224D01*
X140467804Y-103479139D01*
X140447323Y-103621596D01*
X140448631Y-103630697D01*
X140438684Y-103699855D01*
X140413576Y-103736016D01*
X140386416Y-103763178D01*
X140325095Y-103796665D01*
X140298732Y-103799500D01*
X126875833Y-103799500D01*
X126808794Y-103779815D01*
X126788152Y-103763181D01*
X125624971Y-102600000D01*
X135019353Y-102600000D01*
X135039834Y-102742456D01*
X135064329Y-102796091D01*
X135099623Y-102873373D01*
X135193872Y-102982143D01*
X135314947Y-103059953D01*
X135314950Y-103059954D01*
X135314949Y-103059954D01*
X135422107Y-103091417D01*
X135446057Y-103098450D01*
X135453036Y-103100499D01*
X135453038Y-103100500D01*
X135453039Y-103100500D01*
X135596962Y-103100500D01*
X135596962Y-103100499D01*
X135735053Y-103059953D01*
X135856128Y-102982143D01*
X135950377Y-102873373D01*
X136010165Y-102742457D01*
X136030647Y-102600000D01*
X136010165Y-102457543D01*
X135950377Y-102326627D01*
X135856128Y-102217857D01*
X135735053Y-102140047D01*
X135735051Y-102140046D01*
X135735049Y-102140045D01*
X135735050Y-102140045D01*
X135596963Y-102099500D01*
X135596961Y-102099500D01*
X135453039Y-102099500D01*
X135453036Y-102099500D01*
X135314949Y-102140045D01*
X135193873Y-102217856D01*
X135099623Y-102326626D01*
X135099622Y-102326628D01*
X135039834Y-102457543D01*
X135019353Y-102600000D01*
X125624971Y-102600000D01*
X122584512Y-99559541D01*
X122584507Y-99559537D01*
X122557616Y-99544012D01*
X122541159Y-99534511D01*
X122541157Y-99534509D01*
X122541157Y-99534510D01*
X122541155Y-99534509D01*
X122535838Y-99531439D01*
X122515990Y-99519979D01*
X122515991Y-99519979D01*
X122477775Y-99509739D01*
X122439562Y-99499500D01*
X122439560Y-99499500D01*
X120758501Y-99499500D01*
X120691462Y-99479815D01*
X120664788Y-99456703D01*
X120631128Y-99417857D01*
X120525540Y-99350000D01*
X139019353Y-99350000D01*
X139039834Y-99492456D01*
X139088948Y-99599998D01*
X139099623Y-99623373D01*
X139193872Y-99732143D01*
X139314947Y-99809953D01*
X139314950Y-99809954D01*
X139314949Y-99809954D01*
X139453036Y-99850499D01*
X139453038Y-99850500D01*
X139453039Y-99850500D01*
X139596962Y-99850500D01*
X139596962Y-99850499D01*
X139735053Y-99809953D01*
X139856128Y-99732143D01*
X139950377Y-99623373D01*
X140010165Y-99492457D01*
X140030647Y-99350000D01*
X140029339Y-99340905D01*
X140039279Y-99271749D01*
X140064392Y-99235577D01*
X141687469Y-97612500D01*
X141748790Y-97579017D01*
X141818482Y-97584001D01*
X141874415Y-97625873D01*
X141887942Y-97648670D01*
X141898888Y-97672638D01*
X141993137Y-97781408D01*
X142114212Y-97859218D01*
X142114215Y-97859219D01*
X142114214Y-97859219D01*
X142252301Y-97899764D01*
X142252303Y-97899765D01*
X142252304Y-97899765D01*
X142396227Y-97899765D01*
X142396227Y-97899764D01*
X142534318Y-97859218D01*
X142655393Y-97781408D01*
X142749642Y-97672638D01*
X142809430Y-97541722D01*
X142829912Y-97399265D01*
X142828604Y-97390170D01*
X142838544Y-97321014D01*
X142863657Y-97284842D01*
X143188990Y-96959510D01*
X143250312Y-96926026D01*
X143320004Y-96931010D01*
X143375937Y-96972882D01*
X143400354Y-97038346D01*
X143399408Y-97064838D01*
X143394353Y-97099998D01*
X143394353Y-97099999D01*
X143414834Y-97242456D01*
X143461421Y-97344465D01*
X143474623Y-97373373D01*
X143568872Y-97482143D01*
X143689947Y-97559953D01*
X143689950Y-97559954D01*
X143689949Y-97559954D01*
X143797107Y-97591417D01*
X143826336Y-97600000D01*
X143828036Y-97600499D01*
X143828038Y-97600500D01*
X143828039Y-97600500D01*
X143971962Y-97600500D01*
X143971962Y-97600499D01*
X144110053Y-97559953D01*
X144231128Y-97482143D01*
X144325377Y-97373373D01*
X144385165Y-97242457D01*
X144405647Y-97100000D01*
X144397329Y-97042146D01*
X144407273Y-96972988D01*
X144453028Y-96920184D01*
X144520067Y-96900500D01*
X144571962Y-96900500D01*
X144571962Y-96900499D01*
X144710053Y-96859953D01*
X144831128Y-96782143D01*
X144925377Y-96673373D01*
X144985165Y-96542457D01*
X145005647Y-96400000D01*
X144985165Y-96257543D01*
X144925377Y-96126627D01*
X144925375Y-96126625D01*
X144925374Y-96126622D01*
X144830787Y-96017462D01*
X144801762Y-95953906D01*
X144800500Y-95936260D01*
X144800500Y-95300833D01*
X144820185Y-95233794D01*
X144836815Y-95213156D01*
X145121263Y-94928707D01*
X145182586Y-94895223D01*
X145252278Y-94900207D01*
X145308211Y-94942079D01*
X145321737Y-94964876D01*
X145332683Y-94988843D01*
X145426932Y-95097613D01*
X145517539Y-95155843D01*
X145563294Y-95208646D01*
X145574500Y-95260158D01*
X145574500Y-98239562D01*
X145594979Y-98315989D01*
X145601121Y-98326627D01*
X145634540Y-98384511D01*
X152284540Y-105034511D01*
X152340489Y-105090460D01*
X152340491Y-105090461D01*
X152340495Y-105090464D01*
X152397493Y-105123371D01*
X152409011Y-105130021D01*
X152485438Y-105150500D01*
X152564562Y-105150500D01*
X166066499Y-105150500D01*
X166133538Y-105170185D01*
X166160211Y-105193296D01*
X166193872Y-105232143D01*
X166314947Y-105309953D01*
X166314950Y-105309954D01*
X166314949Y-105309954D01*
X166453036Y-105350499D01*
X166453038Y-105350500D01*
X166453039Y-105350500D01*
X166596962Y-105350500D01*
X166596962Y-105350499D01*
X166735053Y-105309953D01*
X166856128Y-105232143D01*
X166950377Y-105123373D01*
X167010165Y-104992457D01*
X167030647Y-104850000D01*
X167010165Y-104707543D01*
X166950377Y-104576627D01*
X166856128Y-104467857D01*
X166856125Y-104467855D01*
X166856125Y-104467854D01*
X166835058Y-104454316D01*
X166789302Y-104401513D01*
X166779358Y-104332354D01*
X166808382Y-104268798D01*
X166835058Y-104245684D01*
X166856125Y-104232145D01*
X166856125Y-104232144D01*
X166856128Y-104232143D01*
X166950377Y-104123373D01*
X167010165Y-103992457D01*
X167030647Y-103850000D01*
X167010165Y-103707543D01*
X166950377Y-103576627D01*
X166856128Y-103467857D01*
X166856125Y-103467855D01*
X166856125Y-103467854D01*
X166835058Y-103454316D01*
X166789302Y-103401513D01*
X166779358Y-103332354D01*
X166808382Y-103268798D01*
X166835058Y-103245684D01*
X166856125Y-103232145D01*
X166856125Y-103232144D01*
X166856128Y-103232143D01*
X166950377Y-103123373D01*
X167010165Y-102992457D01*
X167030647Y-102850000D01*
X167010165Y-102707543D01*
X166950377Y-102576627D01*
X166856128Y-102467857D01*
X166735053Y-102390047D01*
X166735051Y-102390046D01*
X166735049Y-102390045D01*
X166735050Y-102390045D01*
X166596963Y-102349500D01*
X166596961Y-102349500D01*
X166453039Y-102349500D01*
X166453036Y-102349500D01*
X166314949Y-102390045D01*
X166193873Y-102467856D01*
X166160212Y-102506703D01*
X166101433Y-102544477D01*
X166066499Y-102549500D01*
X155929297Y-102549500D01*
X155862258Y-102529815D01*
X155816503Y-102477011D01*
X155806559Y-102407853D01*
X155835584Y-102344298D01*
X155875374Y-102298377D01*
X155875374Y-102298375D01*
X155875377Y-102298373D01*
X155935165Y-102167457D01*
X155955647Y-102025000D01*
X155935165Y-101882543D01*
X155875377Y-101751627D01*
X155781128Y-101642857D01*
X155660053Y-101565047D01*
X155660051Y-101565046D01*
X155660049Y-101565045D01*
X155660050Y-101565045D01*
X155521963Y-101524500D01*
X155521961Y-101524500D01*
X155425833Y-101524500D01*
X155358794Y-101504815D01*
X155338152Y-101488181D01*
X153564395Y-99714424D01*
X153530910Y-99653101D01*
X153529339Y-99609094D01*
X153530647Y-99600000D01*
X153510165Y-99457543D01*
X153450377Y-99326627D01*
X153356128Y-99217857D01*
X153235053Y-99140047D01*
X153235051Y-99140046D01*
X153235049Y-99140045D01*
X153235050Y-99140045D01*
X153096963Y-99099500D01*
X153096961Y-99099500D01*
X152953039Y-99099500D01*
X152953036Y-99099500D01*
X152814949Y-99140045D01*
X152693873Y-99217856D01*
X152599623Y-99326626D01*
X152599622Y-99326628D01*
X152539834Y-99457543D01*
X152519353Y-99600000D01*
X152539834Y-99742456D01*
X152570660Y-99809954D01*
X152599623Y-99873373D01*
X152693872Y-99982143D01*
X152814947Y-100059953D01*
X152814950Y-100059954D01*
X152814949Y-100059954D01*
X152922107Y-100091417D01*
X152950280Y-100099690D01*
X152953036Y-100100499D01*
X152953038Y-100100500D01*
X153049167Y-100100500D01*
X153116206Y-100120185D01*
X153136848Y-100136819D01*
X154910604Y-101910575D01*
X154944089Y-101971898D01*
X154945661Y-102015902D01*
X154944353Y-102024999D01*
X154964834Y-102167456D01*
X155024622Y-102298371D01*
X155024625Y-102298377D01*
X155064416Y-102344298D01*
X155093441Y-102407854D01*
X155083497Y-102477012D01*
X155037742Y-102529816D01*
X154970703Y-102549500D01*
X152200833Y-102549500D01*
X152133794Y-102529815D01*
X152113152Y-102513181D01*
X147515131Y-97915160D01*
X147481646Y-97853837D01*
X147480075Y-97809830D01*
X147481383Y-97800735D01*
X147460901Y-97658278D01*
X147401113Y-97527362D01*
X147306864Y-97418592D01*
X147185789Y-97340782D01*
X147185787Y-97340781D01*
X147185785Y-97340780D01*
X147185786Y-97340780D01*
X147047699Y-97300235D01*
X147047697Y-97300235D01*
X146903775Y-97300235D01*
X146903772Y-97300235D01*
X146765685Y-97340780D01*
X146757618Y-97344465D01*
X146756968Y-97343041D01*
X146699498Y-97359916D01*
X146632459Y-97340230D01*
X146586705Y-97287426D01*
X146575500Y-97235916D01*
X146575500Y-97100000D01*
X155519353Y-97100000D01*
X155539834Y-97242456D01*
X155586421Y-97344465D01*
X155599623Y-97373373D01*
X155693872Y-97482143D01*
X155814947Y-97559953D01*
X155814950Y-97559954D01*
X155814949Y-97559954D01*
X155922107Y-97591417D01*
X155951336Y-97600000D01*
X155953036Y-97600499D01*
X155953038Y-97600500D01*
X155953039Y-97600500D01*
X156096962Y-97600500D01*
X156096962Y-97600499D01*
X156235053Y-97559953D01*
X156356128Y-97482143D01*
X156389788Y-97443296D01*
X156448567Y-97405523D01*
X156483501Y-97400500D01*
X156849167Y-97400500D01*
X156916206Y-97420185D01*
X156936848Y-97436819D01*
X157985604Y-98485575D01*
X158019089Y-98546898D01*
X158020661Y-98590902D01*
X158019353Y-98599999D01*
X158039834Y-98742456D01*
X158070660Y-98809954D01*
X158099623Y-98873373D01*
X158193872Y-98982143D01*
X158314947Y-99059953D01*
X158314950Y-99059954D01*
X158314949Y-99059954D01*
X158371737Y-99076628D01*
X158449633Y-99099500D01*
X158453036Y-99100499D01*
X158453038Y-99100500D01*
X158453039Y-99100500D01*
X158596962Y-99100500D01*
X158596962Y-99100499D01*
X158735053Y-99059953D01*
X158856128Y-98982143D01*
X158950377Y-98873373D01*
X159010165Y-98742457D01*
X159030647Y-98600000D01*
X159010165Y-98457543D01*
X158950377Y-98326627D01*
X158856128Y-98217857D01*
X158735053Y-98140047D01*
X158735051Y-98140046D01*
X158735049Y-98140045D01*
X158735050Y-98140045D01*
X158596963Y-98099500D01*
X158596961Y-98099500D01*
X158500833Y-98099500D01*
X158433794Y-98079815D01*
X158413152Y-98063181D01*
X157209512Y-96859541D01*
X157209507Y-96859537D01*
X157192124Y-96849502D01*
X157192120Y-96849498D01*
X157192120Y-96849499D01*
X157162423Y-96832354D01*
X157140990Y-96819979D01*
X157103542Y-96809945D01*
X157064562Y-96799500D01*
X157064560Y-96799500D01*
X156483501Y-96799500D01*
X156416462Y-96779815D01*
X156389788Y-96756703D01*
X156379433Y-96744753D01*
X156356128Y-96717857D01*
X156235053Y-96640047D01*
X156235051Y-96640046D01*
X156235049Y-96640045D01*
X156235050Y-96640045D01*
X156096963Y-96599500D01*
X156096961Y-96599500D01*
X155953039Y-96599500D01*
X155953036Y-96599500D01*
X155814949Y-96640045D01*
X155693873Y-96717856D01*
X155599623Y-96826626D01*
X155599622Y-96826628D01*
X155539834Y-96957543D01*
X155519353Y-97100000D01*
X146575500Y-97100000D01*
X146575500Y-96809945D01*
X146595185Y-96742906D01*
X146647989Y-96697151D01*
X146664554Y-96690971D01*
X146685053Y-96684953D01*
X146806128Y-96607143D01*
X146900377Y-96498373D01*
X146960165Y-96367457D01*
X146980647Y-96225000D01*
X146960165Y-96082543D01*
X146900377Y-95951627D01*
X146806128Y-95842857D01*
X146685053Y-95765047D01*
X146685051Y-95765046D01*
X146685049Y-95765045D01*
X146685050Y-95765045D01*
X146546963Y-95724500D01*
X146546961Y-95724500D01*
X146403039Y-95724500D01*
X146403035Y-95724500D01*
X146334434Y-95744643D01*
X146264564Y-95744643D01*
X146205786Y-95706868D01*
X146176762Y-95643312D01*
X146175500Y-95625666D01*
X146175500Y-95033196D01*
X146186706Y-94981684D01*
X146190502Y-94973373D01*
X146243225Y-94857927D01*
X146263707Y-94715470D01*
X146243225Y-94573013D01*
X146183437Y-94442097D01*
X146103635Y-94350000D01*
X150519353Y-94350000D01*
X150539834Y-94492456D01*
X150582187Y-94585195D01*
X150599623Y-94623373D01*
X150693872Y-94732143D01*
X150814947Y-94809953D01*
X150814950Y-94809954D01*
X150814949Y-94809954D01*
X150953036Y-94850499D01*
X150953038Y-94850500D01*
X150953039Y-94850500D01*
X151096962Y-94850500D01*
X151096962Y-94850499D01*
X151235053Y-94809953D01*
X151356128Y-94732143D01*
X151394348Y-94688033D01*
X151453126Y-94650260D01*
X151488061Y-94645237D01*
X152979382Y-94645237D01*
X152979384Y-94645237D01*
X153055811Y-94624758D01*
X153124333Y-94585197D01*
X153180282Y-94529248D01*
X153272711Y-94436819D01*
X153334034Y-94403334D01*
X153360392Y-94400500D01*
X159020302Y-94400500D01*
X159087341Y-94420185D01*
X159133096Y-94472989D01*
X159143040Y-94542147D01*
X159140116Y-94555587D01*
X159119353Y-94700000D01*
X159139834Y-94842456D01*
X159185331Y-94942079D01*
X159199623Y-94973373D01*
X159293872Y-95082143D01*
X159414947Y-95159953D01*
X159414950Y-95159954D01*
X159414949Y-95159954D01*
X159553036Y-95200499D01*
X159553038Y-95200500D01*
X159553039Y-95200500D01*
X159696962Y-95200500D01*
X159696962Y-95200499D01*
X159835053Y-95159953D01*
X159956128Y-95082143D01*
X159989788Y-95043296D01*
X160048567Y-95005523D01*
X160083501Y-95000500D01*
X162249167Y-95000500D01*
X162316206Y-95020185D01*
X162336848Y-95036819D01*
X163085604Y-95785575D01*
X163119089Y-95846898D01*
X163120661Y-95890902D01*
X163119353Y-95899999D01*
X163139834Y-96042456D01*
X163178275Y-96126628D01*
X163199623Y-96173373D01*
X163293872Y-96282143D01*
X163414947Y-96359953D01*
X163414950Y-96359954D01*
X163414949Y-96359954D01*
X163522107Y-96391417D01*
X163551336Y-96400000D01*
X163553036Y-96400499D01*
X163553038Y-96400500D01*
X163553039Y-96400500D01*
X163696962Y-96400500D01*
X163696962Y-96400499D01*
X163835053Y-96359953D01*
X163956128Y-96282143D01*
X164050377Y-96173373D01*
X164110165Y-96042457D01*
X164130647Y-95900000D01*
X164110165Y-95757543D01*
X164050377Y-95626627D01*
X163956128Y-95517857D01*
X163835053Y-95440047D01*
X163835051Y-95440046D01*
X163835049Y-95440045D01*
X163835050Y-95440045D01*
X163696963Y-95399500D01*
X163696961Y-95399500D01*
X163600833Y-95399500D01*
X163533794Y-95379815D01*
X163513152Y-95363181D01*
X162762152Y-94612181D01*
X162728667Y-94550858D01*
X162733651Y-94481166D01*
X162775523Y-94425233D01*
X162840987Y-94400816D01*
X162849833Y-94400500D01*
X163986653Y-94400500D01*
X164053692Y-94420185D01*
X164093857Y-94466537D01*
X164094829Y-94465913D01*
X164099168Y-94472665D01*
X164099446Y-94472986D01*
X164099623Y-94473373D01*
X164193872Y-94582143D01*
X164314947Y-94659953D01*
X164314950Y-94659954D01*
X164314949Y-94659954D01*
X164410583Y-94688034D01*
X164451336Y-94700000D01*
X164453036Y-94700499D01*
X164453038Y-94700500D01*
X164453039Y-94700500D01*
X164596962Y-94700500D01*
X164596962Y-94700499D01*
X164735053Y-94659953D01*
X164856128Y-94582143D01*
X164950377Y-94473373D01*
X165010165Y-94342457D01*
X165030647Y-94200000D01*
X165010165Y-94057543D01*
X165008903Y-94048765D01*
X165010720Y-94048503D01*
X165010722Y-93989562D01*
X165048498Y-93930785D01*
X165112055Y-93901762D01*
X165129698Y-93900500D01*
X165349167Y-93900500D01*
X165416206Y-93920185D01*
X165436848Y-93936819D01*
X166688181Y-95188152D01*
X166721666Y-95249475D01*
X166724500Y-95275833D01*
X166724500Y-97386260D01*
X166704815Y-97453299D01*
X166694213Y-97467462D01*
X166599625Y-97576622D01*
X166599622Y-97576628D01*
X166539834Y-97707543D01*
X166519353Y-97850000D01*
X166539834Y-97992456D01*
X166588720Y-98099500D01*
X166599623Y-98123373D01*
X166693872Y-98232143D01*
X166814947Y-98309953D01*
X166814950Y-98309954D01*
X166814949Y-98309954D01*
X166871737Y-98326628D01*
X166951336Y-98350000D01*
X166953036Y-98350499D01*
X166953038Y-98350500D01*
X166953039Y-98350500D01*
X167096962Y-98350500D01*
X167096962Y-98350499D01*
X167235053Y-98309953D01*
X167356128Y-98232143D01*
X167450377Y-98123373D01*
X167510165Y-97992457D01*
X167530647Y-97850000D01*
X167510165Y-97707543D01*
X167450377Y-97576627D01*
X167450375Y-97576625D01*
X167450374Y-97576622D01*
X167355787Y-97467462D01*
X167326762Y-97403906D01*
X167325500Y-97386260D01*
X167325500Y-95060439D01*
X167320541Y-95041932D01*
X167305021Y-94984011D01*
X167280812Y-94942079D01*
X167265464Y-94915495D01*
X167265458Y-94915487D01*
X165709512Y-93359541D01*
X165709507Y-93359537D01*
X165676462Y-93340459D01*
X165676462Y-93340458D01*
X165676460Y-93340458D01*
X165664083Y-93333312D01*
X165640990Y-93319979D01*
X165640991Y-93319979D01*
X165602775Y-93309739D01*
X165564562Y-93299500D01*
X165564560Y-93299500D01*
X152960545Y-93299500D01*
X152909034Y-93288295D01*
X152901341Y-93284781D01*
X152763256Y-93244237D01*
X152763254Y-93244237D01*
X152619332Y-93244237D01*
X152619329Y-93244237D01*
X152481242Y-93284782D01*
X152360166Y-93362593D01*
X152265916Y-93471363D01*
X152265915Y-93471365D01*
X152206127Y-93602280D01*
X152185646Y-93744737D01*
X152207390Y-93895972D01*
X152205572Y-93896233D01*
X152205571Y-93955175D01*
X152167795Y-94013952D01*
X152104238Y-94042975D01*
X152086595Y-94044237D01*
X151478940Y-94044237D01*
X151411901Y-94024552D01*
X151385226Y-94001438D01*
X151356130Y-93967858D01*
X151298443Y-93930785D01*
X151235053Y-93890047D01*
X151235051Y-93890046D01*
X151235049Y-93890045D01*
X151235050Y-93890045D01*
X151096963Y-93849500D01*
X151096961Y-93849500D01*
X150953039Y-93849500D01*
X150953036Y-93849500D01*
X150814949Y-93890045D01*
X150693873Y-93967856D01*
X150599623Y-94076626D01*
X150599622Y-94076628D01*
X150539834Y-94207543D01*
X150519353Y-94350000D01*
X146103635Y-94350000D01*
X146089188Y-94333327D01*
X145991841Y-94270766D01*
X145946087Y-94217963D01*
X145936143Y-94148804D01*
X145965168Y-94085249D01*
X145971186Y-94078784D01*
X150949971Y-89100000D01*
X151769353Y-89100000D01*
X151789834Y-89242456D01*
X151838949Y-89350000D01*
X151849623Y-89373373D01*
X151943872Y-89482143D01*
X152064947Y-89559953D01*
X152064950Y-89559954D01*
X152064949Y-89559954D01*
X152203036Y-89600499D01*
X152203038Y-89600500D01*
X152203039Y-89600500D01*
X152346962Y-89600500D01*
X152346962Y-89600499D01*
X152485053Y-89559953D01*
X152606128Y-89482143D01*
X152700377Y-89373373D01*
X152760165Y-89242457D01*
X152780647Y-89100000D01*
X152779339Y-89090905D01*
X152789279Y-89021749D01*
X152814392Y-88985577D01*
X153559546Y-88240423D01*
X153620867Y-88206940D01*
X153690559Y-88211924D01*
X153746492Y-88253796D01*
X153770909Y-88319260D01*
X153769964Y-88345746D01*
X153769353Y-88349997D01*
X153769353Y-88349999D01*
X153789834Y-88492456D01*
X153820660Y-88559954D01*
X153849623Y-88623373D01*
X153924814Y-88710149D01*
X153953839Y-88773704D01*
X153943895Y-88842863D01*
X153924815Y-88872552D01*
X153899625Y-88901622D01*
X153899622Y-88901628D01*
X153839834Y-89032543D01*
X153819353Y-89175000D01*
X153839834Y-89317456D01*
X153854697Y-89350000D01*
X153899623Y-89448373D01*
X153993872Y-89557143D01*
X154114947Y-89634953D01*
X154114950Y-89634954D01*
X154114949Y-89634954D01*
X154253036Y-89675499D01*
X154253038Y-89675500D01*
X154253039Y-89675500D01*
X154396962Y-89675500D01*
X154396962Y-89675499D01*
X154535053Y-89634953D01*
X154656128Y-89557143D01*
X154750377Y-89448373D01*
X154810165Y-89317457D01*
X154830647Y-89175000D01*
X154810165Y-89032543D01*
X154750377Y-88901627D01*
X154675184Y-88814849D01*
X154646160Y-88751295D01*
X154656104Y-88682137D01*
X154675183Y-88652448D01*
X154700377Y-88623373D01*
X154760165Y-88492457D01*
X154780647Y-88350000D01*
X154779339Y-88340905D01*
X154789279Y-88271749D01*
X154814392Y-88235577D01*
X155613152Y-87436819D01*
X155674475Y-87403334D01*
X155700833Y-87400500D01*
X172566499Y-87400500D01*
X172633538Y-87420185D01*
X172660211Y-87443296D01*
X172693872Y-87482143D01*
X172814947Y-87559953D01*
X172814950Y-87559954D01*
X172814949Y-87559954D01*
X172922107Y-87591417D01*
X172949633Y-87599500D01*
X172953036Y-87600499D01*
X172953038Y-87600500D01*
X172953039Y-87600500D01*
X173096962Y-87600500D01*
X173096962Y-87600499D01*
X173235053Y-87559953D01*
X173356128Y-87482143D01*
X173450377Y-87373373D01*
X173510165Y-87242457D01*
X173530647Y-87100000D01*
X173510165Y-86957543D01*
X173450377Y-86826627D01*
X173356128Y-86717857D01*
X173356125Y-86717855D01*
X173356125Y-86717854D01*
X173335058Y-86704316D01*
X173289302Y-86651513D01*
X173279358Y-86582354D01*
X173308382Y-86518798D01*
X173335058Y-86495684D01*
X173356125Y-86482145D01*
X173356125Y-86482144D01*
X173356128Y-86482143D01*
X173450377Y-86373373D01*
X173510165Y-86242457D01*
X173530647Y-86100000D01*
X173510165Y-85957543D01*
X173450377Y-85826627D01*
X173356128Y-85717857D01*
X173235053Y-85640047D01*
X173235051Y-85640046D01*
X173235049Y-85640045D01*
X173235050Y-85640045D01*
X173096963Y-85599500D01*
X173096961Y-85599500D01*
X172953039Y-85599500D01*
X172953036Y-85599500D01*
X172814949Y-85640045D01*
X172693873Y-85717856D01*
X172660212Y-85756703D01*
X172601433Y-85794477D01*
X172566499Y-85799500D01*
X155235438Y-85799500D01*
X155159010Y-85819978D01*
X155090489Y-85859540D01*
X155090486Y-85859542D01*
X152386847Y-88563181D01*
X152325524Y-88596666D01*
X152299166Y-88599500D01*
X152203036Y-88599500D01*
X152064949Y-88640045D01*
X151943873Y-88717856D01*
X151849623Y-88826626D01*
X151849622Y-88826628D01*
X151789834Y-88957543D01*
X151769353Y-89100000D01*
X150949971Y-89100000D01*
X156113153Y-83936819D01*
X156174476Y-83903334D01*
X156200834Y-83900500D01*
X174341499Y-83900500D01*
X174408538Y-83920185D01*
X174435211Y-83943296D01*
X174468872Y-83982143D01*
X174589947Y-84059953D01*
X174589950Y-84059954D01*
X174589949Y-84059954D01*
X174728036Y-84100499D01*
X174728038Y-84100500D01*
X174728039Y-84100500D01*
X174871962Y-84100500D01*
X174871962Y-84100499D01*
X175010053Y-84059953D01*
X175131128Y-83982143D01*
X175225377Y-83873373D01*
X175285165Y-83742457D01*
X175305647Y-83600000D01*
X175285165Y-83457543D01*
X175225377Y-83326627D01*
X175131128Y-83217857D01*
X175010053Y-83140047D01*
X175010051Y-83140046D01*
X175010049Y-83140045D01*
X175010050Y-83140045D01*
X174871963Y-83099500D01*
X174871961Y-83099500D01*
X174728039Y-83099500D01*
X174728036Y-83099500D01*
X174589949Y-83140045D01*
X174527638Y-83180090D01*
X174460598Y-83199774D01*
X174393559Y-83180089D01*
X174347804Y-83127285D01*
X174337861Y-83058126D01*
X174347805Y-83024262D01*
X174367041Y-82982143D01*
X174385165Y-82942457D01*
X174405647Y-82800000D01*
X174385165Y-82657543D01*
X174358886Y-82600000D01*
X178019353Y-82600000D01*
X178039834Y-82742456D01*
X178078275Y-82826628D01*
X178099623Y-82873373D01*
X178193872Y-82982143D01*
X178314947Y-83059953D01*
X178314950Y-83059954D01*
X178314949Y-83059954D01*
X178422107Y-83091417D01*
X178451336Y-83100000D01*
X178453036Y-83100499D01*
X178453038Y-83100500D01*
X178453039Y-83100500D01*
X178596962Y-83100500D01*
X178596962Y-83100499D01*
X178735053Y-83059953D01*
X178856128Y-82982143D01*
X178950377Y-82873373D01*
X179010165Y-82742457D01*
X179030647Y-82600000D01*
X179010165Y-82457543D01*
X178950377Y-82326627D01*
X178856128Y-82217857D01*
X178735053Y-82140047D01*
X178735051Y-82140046D01*
X178735049Y-82140045D01*
X178735050Y-82140045D01*
X178596963Y-82099500D01*
X178596961Y-82099500D01*
X178453039Y-82099500D01*
X178453036Y-82099500D01*
X178314949Y-82140045D01*
X178193873Y-82217856D01*
X178099623Y-82326626D01*
X178099622Y-82326628D01*
X178039834Y-82457543D01*
X178019353Y-82600000D01*
X174358886Y-82600000D01*
X174325377Y-82526627D01*
X174231128Y-82417857D01*
X174110053Y-82340047D01*
X174110051Y-82340046D01*
X174110049Y-82340045D01*
X174110050Y-82340045D01*
X173971963Y-82299500D01*
X173971961Y-82299500D01*
X173828039Y-82299500D01*
X173828036Y-82299500D01*
X173689949Y-82340045D01*
X173568873Y-82417856D01*
X173535212Y-82456703D01*
X173476433Y-82494477D01*
X173441499Y-82499500D01*
X156165519Y-82499500D01*
X156098480Y-82479815D01*
X156052725Y-82427011D01*
X156042781Y-82357853D01*
X156071806Y-82294297D01*
X156077838Y-82287819D01*
X157328838Y-81036819D01*
X157390161Y-81003334D01*
X157416519Y-81000500D01*
X164914560Y-81000500D01*
X164914562Y-81000500D01*
X164990989Y-80980021D01*
X165059511Y-80940460D01*
X165115460Y-80884511D01*
X165136924Y-80863046D01*
X165163152Y-80836819D01*
X165224475Y-80803334D01*
X165250833Y-80800500D01*
X165346962Y-80800500D01*
X165346962Y-80800499D01*
X165485053Y-80759953D01*
X165606128Y-80682143D01*
X165700377Y-80573373D01*
X165760165Y-80442457D01*
X165780647Y-80300000D01*
X165760165Y-80157543D01*
X165700377Y-80026627D01*
X165606128Y-79917857D01*
X165485053Y-79840047D01*
X165485051Y-79840046D01*
X165485049Y-79840045D01*
X165485050Y-79840045D01*
X165346963Y-79799500D01*
X165346961Y-79799500D01*
X165203039Y-79799500D01*
X165203036Y-79799500D01*
X165064949Y-79840045D01*
X164943873Y-79917856D01*
X164849623Y-80026626D01*
X164849622Y-80026628D01*
X164789834Y-80157543D01*
X164770338Y-80293147D01*
X164741313Y-80356703D01*
X164682535Y-80394477D01*
X164647600Y-80399500D01*
X159280538Y-80399500D01*
X159213499Y-80379815D01*
X159167744Y-80327011D01*
X159157800Y-80257853D01*
X159186825Y-80194297D01*
X159229023Y-80162707D01*
X159235047Y-80159954D01*
X159235053Y-80159953D01*
X159356128Y-80082143D01*
X159450377Y-79973373D01*
X159510165Y-79842457D01*
X159530647Y-79700000D01*
X159518159Y-79613143D01*
X159528103Y-79543985D01*
X159573858Y-79491181D01*
X159640897Y-79471497D01*
X159707936Y-79491182D01*
X159814944Y-79559952D01*
X159814949Y-79559954D01*
X159953036Y-79600499D01*
X159953038Y-79600500D01*
X159953039Y-79600500D01*
X160096962Y-79600500D01*
X160096962Y-79600499D01*
X160235053Y-79559953D01*
X160356128Y-79482143D01*
X160450377Y-79373373D01*
X160510165Y-79242457D01*
X160530647Y-79100000D01*
X160510165Y-78957543D01*
X160450377Y-78826627D01*
X160356128Y-78717857D01*
X160235053Y-78640047D01*
X160235051Y-78640046D01*
X160235049Y-78640045D01*
X160235050Y-78640045D01*
X160096963Y-78599500D01*
X160096961Y-78599500D01*
X159953039Y-78599500D01*
X159953036Y-78599500D01*
X159814949Y-78640045D01*
X159693873Y-78717856D01*
X159660212Y-78756703D01*
X159601433Y-78794477D01*
X159566499Y-78799500D01*
X157669752Y-78799500D01*
X157593324Y-78819978D01*
X157524803Y-78859540D01*
X157524800Y-78859542D01*
X139784541Y-96599801D01*
X139784535Y-96599809D01*
X139744982Y-96668318D01*
X139744979Y-96668323D01*
X139737255Y-96697151D01*
X139727879Y-96732144D01*
X139724500Y-96744753D01*
X139724500Y-97136260D01*
X139704815Y-97203299D01*
X139694213Y-97217462D01*
X139599625Y-97326622D01*
X139599622Y-97326628D01*
X139539834Y-97457543D01*
X139519353Y-97600000D01*
X139539834Y-97742456D01*
X139599622Y-97873371D01*
X139599623Y-97873373D01*
X139693872Y-97982143D01*
X139814947Y-98059953D01*
X139814950Y-98059954D01*
X139814949Y-98059954D01*
X139922107Y-98091417D01*
X139949633Y-98099500D01*
X139953036Y-98100499D01*
X139953038Y-98100500D01*
X140050166Y-98100500D01*
X140117205Y-98120185D01*
X140162960Y-98172989D01*
X140172904Y-98242147D01*
X140143879Y-98305703D01*
X140137847Y-98312181D01*
X139636847Y-98813181D01*
X139575524Y-98846666D01*
X139549166Y-98849500D01*
X139453036Y-98849500D01*
X139314949Y-98890045D01*
X139193873Y-98967856D01*
X139099623Y-99076626D01*
X139099622Y-99076628D01*
X139039834Y-99207543D01*
X139019353Y-99350000D01*
X120525540Y-99350000D01*
X120510053Y-99340047D01*
X120510051Y-99340046D01*
X120510049Y-99340045D01*
X120510050Y-99340045D01*
X120371963Y-99299500D01*
X120371961Y-99299500D01*
X120228039Y-99299500D01*
X120228036Y-99299500D01*
X120089949Y-99340045D01*
X119968873Y-99417856D01*
X119874623Y-99526626D01*
X119874622Y-99526628D01*
X119814834Y-99657543D01*
X119794353Y-99800000D01*
X98025500Y-99800000D01*
X98025500Y-93378711D01*
X100174500Y-93378711D01*
X100174500Y-93621288D01*
X100206161Y-93861785D01*
X100268947Y-94096104D01*
X100341295Y-94270767D01*
X100361776Y-94320212D01*
X100483064Y-94530289D01*
X100483066Y-94530292D01*
X100483067Y-94530293D01*
X100630733Y-94722736D01*
X100630739Y-94722743D01*
X100802256Y-94894260D01*
X100802263Y-94894266D01*
X100905355Y-94973371D01*
X100994711Y-95041936D01*
X101204788Y-95163224D01*
X101428900Y-95256054D01*
X101663211Y-95318838D01*
X101843586Y-95342584D01*
X101903711Y-95350500D01*
X101903712Y-95350500D01*
X102146289Y-95350500D01*
X102194388Y-95344167D01*
X102386789Y-95318838D01*
X102621100Y-95256054D01*
X102845212Y-95163224D01*
X103055289Y-95041936D01*
X103247738Y-94894265D01*
X103419265Y-94722738D01*
X103566936Y-94530289D01*
X103688224Y-94320212D01*
X103781054Y-94096100D01*
X103843838Y-93861789D01*
X103875500Y-93621288D01*
X103875500Y-93600000D01*
X107519353Y-93600000D01*
X107539834Y-93742456D01*
X107540876Y-93744737D01*
X107599623Y-93873373D01*
X107693872Y-93982143D01*
X107814947Y-94059953D01*
X107814950Y-94059954D01*
X107814949Y-94059954D01*
X107901098Y-94085249D01*
X107938067Y-94096104D01*
X107953036Y-94100499D01*
X107953038Y-94100500D01*
X107953039Y-94100500D01*
X108096962Y-94100500D01*
X108096962Y-94100499D01*
X108235053Y-94059953D01*
X108356128Y-93982143D01*
X108450377Y-93873373D01*
X108510165Y-93742457D01*
X108530647Y-93600000D01*
X108510165Y-93457543D01*
X108450377Y-93326627D01*
X108356128Y-93217857D01*
X108235053Y-93140047D01*
X108235051Y-93140046D01*
X108235049Y-93140045D01*
X108235050Y-93140045D01*
X108096963Y-93099500D01*
X108096961Y-93099500D01*
X107953039Y-93099500D01*
X107953036Y-93099500D01*
X107814949Y-93140045D01*
X107693873Y-93217856D01*
X107599623Y-93326626D01*
X107599622Y-93326628D01*
X107539834Y-93457543D01*
X107519353Y-93600000D01*
X103875500Y-93600000D01*
X103875500Y-93378712D01*
X103843838Y-93138211D01*
X103781054Y-92903900D01*
X103688224Y-92679788D01*
X103566936Y-92469711D01*
X103419265Y-92277262D01*
X103419260Y-92277256D01*
X103247743Y-92105739D01*
X103247736Y-92105733D01*
X103055293Y-91958067D01*
X103055292Y-91958066D01*
X103055289Y-91958064D01*
X102845212Y-91836776D01*
X102845205Y-91836773D01*
X102621104Y-91743947D01*
X102386785Y-91681161D01*
X102146289Y-91649500D01*
X102146288Y-91649500D01*
X101903712Y-91649500D01*
X101903711Y-91649500D01*
X101663214Y-91681161D01*
X101428895Y-91743947D01*
X101204794Y-91836773D01*
X101204785Y-91836777D01*
X100994706Y-91958067D01*
X100802263Y-92105733D01*
X100802256Y-92105739D01*
X100630739Y-92277256D01*
X100630733Y-92277263D01*
X100483067Y-92469706D01*
X100361777Y-92679785D01*
X100361773Y-92679794D01*
X100268947Y-92903895D01*
X100206161Y-93138214D01*
X100174500Y-93378711D01*
X98025500Y-93378711D01*
X98025500Y-84448995D01*
X102124499Y-84448995D01*
X102151418Y-84584322D01*
X102151421Y-84584332D01*
X102204221Y-84711804D01*
X102204228Y-84711817D01*
X102280885Y-84826541D01*
X102280888Y-84826545D01*
X102378454Y-84924111D01*
X102378458Y-84924114D01*
X102493182Y-85000771D01*
X102493195Y-85000778D01*
X102620667Y-85053578D01*
X102620672Y-85053580D01*
X102620676Y-85053580D01*
X102620677Y-85053581D01*
X102756004Y-85080500D01*
X102756007Y-85080500D01*
X102893995Y-85080500D01*
X102985041Y-85062389D01*
X103029328Y-85053580D01*
X103156811Y-85000775D01*
X103271542Y-84924114D01*
X103369114Y-84826542D01*
X103445775Y-84711811D01*
X103498580Y-84584328D01*
X103525500Y-84448993D01*
X103525500Y-84311007D01*
X103525500Y-84311004D01*
X103498581Y-84175677D01*
X103498580Y-84175676D01*
X103498580Y-84175672D01*
X103467443Y-84100500D01*
X103445778Y-84048195D01*
X103445771Y-84048182D01*
X103369114Y-83933458D01*
X103369111Y-83933454D01*
X103271545Y-83835888D01*
X103271541Y-83835885D01*
X103156817Y-83759228D01*
X103156804Y-83759221D01*
X103029332Y-83706421D01*
X103029322Y-83706418D01*
X102893995Y-83679500D01*
X102893993Y-83679500D01*
X102756007Y-83679500D01*
X102756005Y-83679500D01*
X102620677Y-83706418D01*
X102620667Y-83706421D01*
X102493195Y-83759221D01*
X102493182Y-83759228D01*
X102378458Y-83835885D01*
X102378454Y-83835888D01*
X102280888Y-83933454D01*
X102280885Y-83933458D01*
X102204228Y-84048182D01*
X102204221Y-84048195D01*
X102151421Y-84175667D01*
X102151418Y-84175677D01*
X102124500Y-84311004D01*
X102124500Y-84311007D01*
X102124500Y-84448993D01*
X102124500Y-84448995D01*
X102124499Y-84448995D01*
X98025500Y-84448995D01*
X98025500Y-82180000D01*
X108099353Y-82180000D01*
X108119834Y-82322456D01*
X108163403Y-82417856D01*
X108179623Y-82453373D01*
X108273872Y-82562143D01*
X108394947Y-82639953D01*
X108394950Y-82639954D01*
X108394949Y-82639954D01*
X108502107Y-82671417D01*
X108530280Y-82679690D01*
X108533036Y-82680499D01*
X108533038Y-82680500D01*
X108629167Y-82680500D01*
X108696206Y-82700185D01*
X108716848Y-82716819D01*
X124534540Y-98534511D01*
X124590489Y-98590460D01*
X124590491Y-98590461D01*
X124590495Y-98590464D01*
X124647493Y-98623371D01*
X124659011Y-98630021D01*
X124735438Y-98650500D01*
X124814562Y-98650500D01*
X133066499Y-98650500D01*
X133133538Y-98670185D01*
X133160211Y-98693296D01*
X133193872Y-98732143D01*
X133314947Y-98809953D01*
X133314950Y-98809954D01*
X133314949Y-98809954D01*
X133422107Y-98841417D01*
X133449633Y-98849500D01*
X133453036Y-98850499D01*
X133453038Y-98850500D01*
X133453039Y-98850500D01*
X133596962Y-98850500D01*
X133596962Y-98850499D01*
X133704121Y-98819035D01*
X133735050Y-98809954D01*
X133735050Y-98809953D01*
X133735053Y-98809953D01*
X133856128Y-98732143D01*
X133950377Y-98623373D01*
X134010165Y-98492457D01*
X134030647Y-98350000D01*
X134010165Y-98207543D01*
X133950377Y-98076627D01*
X133856128Y-97967857D01*
X133856125Y-97967855D01*
X133856125Y-97967854D01*
X133835058Y-97954316D01*
X133789302Y-97901513D01*
X133779358Y-97832354D01*
X133808382Y-97768798D01*
X133835058Y-97745684D01*
X133856125Y-97732145D01*
X133856125Y-97732144D01*
X133856128Y-97732143D01*
X133950377Y-97623373D01*
X134010165Y-97492457D01*
X134030647Y-97350000D01*
X134010165Y-97207543D01*
X133950377Y-97076627D01*
X133856128Y-96967857D01*
X133856125Y-96967855D01*
X133856125Y-96967854D01*
X133835058Y-96954316D01*
X133789302Y-96901513D01*
X133779358Y-96832354D01*
X133808382Y-96768798D01*
X133835058Y-96745684D01*
X133856125Y-96732145D01*
X133856125Y-96732144D01*
X133856128Y-96732143D01*
X133950377Y-96623373D01*
X134010165Y-96492457D01*
X134030647Y-96350000D01*
X134010165Y-96207543D01*
X133950377Y-96076627D01*
X133856128Y-95967857D01*
X133735053Y-95890047D01*
X133735051Y-95890046D01*
X133735049Y-95890045D01*
X133735050Y-95890045D01*
X133596963Y-95849500D01*
X133596961Y-95849500D01*
X133453039Y-95849500D01*
X133453036Y-95849500D01*
X133314949Y-95890045D01*
X133193873Y-95967856D01*
X133160212Y-96006703D01*
X133101433Y-96044477D01*
X133066499Y-96049500D01*
X126450833Y-96049500D01*
X126383794Y-96029815D01*
X126363152Y-96013181D01*
X123449971Y-93100000D01*
X125019353Y-93100000D01*
X125039834Y-93242456D01*
X125093306Y-93359541D01*
X125099623Y-93373373D01*
X125193872Y-93482143D01*
X125314947Y-93559953D01*
X125314950Y-93559954D01*
X125314949Y-93559954D01*
X125422107Y-93591417D01*
X125451336Y-93600000D01*
X125453036Y-93600499D01*
X125453038Y-93600500D01*
X125453039Y-93600500D01*
X125596962Y-93600500D01*
X125596962Y-93600499D01*
X125735053Y-93559953D01*
X125856128Y-93482143D01*
X125950377Y-93373373D01*
X126010165Y-93242457D01*
X126030647Y-93100000D01*
X126029339Y-93090905D01*
X126039279Y-93021749D01*
X126064392Y-92985577D01*
X129699971Y-89350000D01*
X133519353Y-89350000D01*
X133539834Y-89492456D01*
X133570660Y-89559954D01*
X133599623Y-89623373D01*
X133693872Y-89732143D01*
X133814947Y-89809953D01*
X133814950Y-89809954D01*
X133814949Y-89809954D01*
X133953036Y-89850499D01*
X133953038Y-89850500D01*
X133953039Y-89850500D01*
X134096962Y-89850500D01*
X134096962Y-89850499D01*
X134235053Y-89809953D01*
X134356128Y-89732143D01*
X134450377Y-89623373D01*
X134510165Y-89492457D01*
X134530647Y-89350000D01*
X134510165Y-89207543D01*
X134450377Y-89076627D01*
X134356128Y-88967857D01*
X134235053Y-88890047D01*
X134235051Y-88890046D01*
X134235049Y-88890045D01*
X134235050Y-88890045D01*
X134096963Y-88849500D01*
X134096961Y-88849500D01*
X133953039Y-88849500D01*
X133953036Y-88849500D01*
X133814949Y-88890045D01*
X133693873Y-88967856D01*
X133599623Y-89076626D01*
X133599622Y-89076628D01*
X133539834Y-89207543D01*
X133519353Y-89350000D01*
X129699971Y-89350000D01*
X130713152Y-88336819D01*
X130774475Y-88303334D01*
X130800833Y-88300500D01*
X141486653Y-88300500D01*
X141553692Y-88320185D01*
X141593857Y-88366537D01*
X141594829Y-88365913D01*
X141599168Y-88372665D01*
X141599446Y-88372986D01*
X141599623Y-88373373D01*
X141693872Y-88482143D01*
X141814947Y-88559953D01*
X141814950Y-88559954D01*
X141814949Y-88559954D01*
X141922107Y-88591417D01*
X141949633Y-88599500D01*
X141953036Y-88600499D01*
X141953038Y-88600500D01*
X141953039Y-88600500D01*
X142096962Y-88600500D01*
X142096962Y-88600499D01*
X142204121Y-88569035D01*
X142235050Y-88559954D01*
X142235050Y-88559953D01*
X142235053Y-88559953D01*
X142356128Y-88482143D01*
X142450377Y-88373373D01*
X142510165Y-88242457D01*
X142530647Y-88100000D01*
X142510165Y-87957543D01*
X142450377Y-87826627D01*
X142356128Y-87717857D01*
X142235053Y-87640047D01*
X142235051Y-87640046D01*
X142235049Y-87640045D01*
X142235050Y-87640045D01*
X142096963Y-87599500D01*
X142096961Y-87599500D01*
X141953039Y-87599500D01*
X141953036Y-87599500D01*
X141814950Y-87640045D01*
X141814948Y-87640045D01*
X141753064Y-87679816D01*
X141686026Y-87699500D01*
X130585438Y-87699500D01*
X130554265Y-87707853D01*
X130509009Y-87719979D01*
X130509004Y-87719982D01*
X130440495Y-87759535D01*
X130440487Y-87759541D01*
X125636847Y-92563181D01*
X125575524Y-92596666D01*
X125549166Y-92599500D01*
X125453036Y-92599500D01*
X125314949Y-92640045D01*
X125193873Y-92717856D01*
X125099623Y-92826626D01*
X125099622Y-92826628D01*
X125039834Y-92957543D01*
X125019353Y-93100000D01*
X123449971Y-93100000D01*
X116064395Y-85714424D01*
X116030910Y-85653101D01*
X116029339Y-85609094D01*
X116030647Y-85600000D01*
X116010165Y-85457543D01*
X115950377Y-85326627D01*
X115856128Y-85217857D01*
X115735053Y-85140047D01*
X115735051Y-85140046D01*
X115735049Y-85140045D01*
X115735050Y-85140045D01*
X115596963Y-85099500D01*
X115596961Y-85099500D01*
X115453039Y-85099500D01*
X115453036Y-85099500D01*
X115314949Y-85140045D01*
X115193873Y-85217856D01*
X115099623Y-85326626D01*
X115099622Y-85326628D01*
X115039834Y-85457543D01*
X115019353Y-85600000D01*
X115039834Y-85742456D01*
X115099622Y-85873371D01*
X115099623Y-85873373D01*
X115193872Y-85982143D01*
X115314947Y-86059953D01*
X115314950Y-86059954D01*
X115314949Y-86059954D01*
X115422107Y-86091417D01*
X115451336Y-86100000D01*
X115453036Y-86100499D01*
X115453038Y-86100500D01*
X115549167Y-86100500D01*
X115616206Y-86120185D01*
X115636848Y-86136819D01*
X126090489Y-96590460D01*
X126159012Y-96630022D01*
X126235438Y-96650500D01*
X126314562Y-96650500D01*
X133066499Y-96650500D01*
X133133538Y-96670185D01*
X133160211Y-96693296D01*
X133193872Y-96732143D01*
X133201324Y-96736932D01*
X133214943Y-96745685D01*
X133260698Y-96798489D01*
X133270641Y-96867648D01*
X133241615Y-96931203D01*
X133214943Y-96954315D01*
X133193874Y-96967855D01*
X133193873Y-96967855D01*
X133160212Y-97006703D01*
X133101433Y-97044477D01*
X133066499Y-97049500D01*
X125950833Y-97049500D01*
X125883794Y-97029815D01*
X125863152Y-97013181D01*
X111949971Y-83100000D01*
X147019353Y-83100000D01*
X147039834Y-83242456D01*
X147099622Y-83373371D01*
X147099623Y-83373373D01*
X147193872Y-83482143D01*
X147314947Y-83559953D01*
X147314950Y-83559954D01*
X147314949Y-83559954D01*
X147422107Y-83591417D01*
X147451336Y-83600000D01*
X147453036Y-83600499D01*
X147453038Y-83600500D01*
X147453039Y-83600500D01*
X147596962Y-83600500D01*
X147596962Y-83600499D01*
X147735053Y-83559953D01*
X147856128Y-83482143D01*
X147950377Y-83373373D01*
X148010165Y-83242457D01*
X148030647Y-83100000D01*
X148010165Y-82957543D01*
X147950377Y-82826627D01*
X147856128Y-82717857D01*
X147735053Y-82640047D01*
X147735051Y-82640046D01*
X147735049Y-82640045D01*
X147735050Y-82640045D01*
X147596963Y-82599500D01*
X147596961Y-82599500D01*
X147453039Y-82599500D01*
X147453036Y-82599500D01*
X147314949Y-82640045D01*
X147193873Y-82717856D01*
X147099623Y-82826626D01*
X147099622Y-82826628D01*
X147039834Y-82957543D01*
X147019353Y-83100000D01*
X111949971Y-83100000D01*
X110949971Y-82100000D01*
X124519353Y-82100000D01*
X124539834Y-82242456D01*
X124578275Y-82326628D01*
X124599623Y-82373373D01*
X124693872Y-82482143D01*
X124814947Y-82559953D01*
X124814950Y-82559954D01*
X124814949Y-82559954D01*
X124922107Y-82591417D01*
X124951336Y-82600000D01*
X124953036Y-82600499D01*
X124953038Y-82600500D01*
X124953039Y-82600500D01*
X125096962Y-82600500D01*
X125096962Y-82600499D01*
X125204121Y-82569035D01*
X125235050Y-82559954D01*
X125235050Y-82559953D01*
X125235053Y-82559953D01*
X125356128Y-82482143D01*
X125450377Y-82373373D01*
X125510165Y-82242457D01*
X125530647Y-82100000D01*
X125510165Y-81957543D01*
X125450377Y-81826627D01*
X125356128Y-81717857D01*
X125235053Y-81640047D01*
X125235051Y-81640046D01*
X125235049Y-81640045D01*
X125235050Y-81640045D01*
X125098666Y-81600000D01*
X136269353Y-81600000D01*
X136289834Y-81742456D01*
X136328275Y-81826628D01*
X136349623Y-81873373D01*
X136443872Y-81982143D01*
X136564947Y-82059953D01*
X136564950Y-82059954D01*
X136564949Y-82059954D01*
X136672107Y-82091417D01*
X136701336Y-82100000D01*
X136703036Y-82100499D01*
X136703038Y-82100500D01*
X136703039Y-82100500D01*
X136846962Y-82100500D01*
X136846962Y-82100499D01*
X136985053Y-82059953D01*
X137106128Y-81982143D01*
X137200377Y-81873373D01*
X137260165Y-81742457D01*
X137280647Y-81600000D01*
X137279339Y-81590905D01*
X137289279Y-81521749D01*
X137314392Y-81485577D01*
X138613152Y-80186819D01*
X138674475Y-80153334D01*
X138700833Y-80150500D01*
X139066499Y-80150500D01*
X139133538Y-80170185D01*
X139160211Y-80193296D01*
X139193872Y-80232143D01*
X139314947Y-80309953D01*
X139314950Y-80309954D01*
X139314949Y-80309954D01*
X139453036Y-80350499D01*
X139453038Y-80350500D01*
X139453039Y-80350500D01*
X139596962Y-80350500D01*
X139596962Y-80350499D01*
X139735053Y-80309953D01*
X139856128Y-80232143D01*
X139950377Y-80123373D01*
X140010165Y-79992457D01*
X140030647Y-79850000D01*
X140010165Y-79707543D01*
X139950377Y-79576627D01*
X139856128Y-79467857D01*
X139735053Y-79390047D01*
X139735051Y-79390046D01*
X139735049Y-79390045D01*
X139735050Y-79390045D01*
X139596963Y-79349500D01*
X139596961Y-79349500D01*
X139453039Y-79349500D01*
X139453036Y-79349500D01*
X139314949Y-79390045D01*
X139193873Y-79467856D01*
X139193872Y-79467856D01*
X139193872Y-79467857D01*
X139170989Y-79494266D01*
X139160212Y-79506703D01*
X139101433Y-79544477D01*
X139066499Y-79549500D01*
X138485438Y-79549500D01*
X138409010Y-79569978D01*
X138340489Y-79609540D01*
X138340486Y-79609542D01*
X136886847Y-81063181D01*
X136825524Y-81096666D01*
X136799166Y-81099500D01*
X136703036Y-81099500D01*
X136564949Y-81140045D01*
X136443873Y-81217856D01*
X136349623Y-81326626D01*
X136349622Y-81326628D01*
X136289834Y-81457543D01*
X136269353Y-81600000D01*
X125098666Y-81600000D01*
X125096963Y-81599500D01*
X125096961Y-81599500D01*
X124953039Y-81599500D01*
X124953036Y-81599500D01*
X124814949Y-81640045D01*
X124693873Y-81717856D01*
X124599623Y-81826626D01*
X124599622Y-81826628D01*
X124539834Y-81957543D01*
X124519353Y-82100000D01*
X110949971Y-82100000D01*
X110344395Y-81494424D01*
X110310910Y-81433101D01*
X110309339Y-81389094D01*
X110310647Y-81380000D01*
X110290165Y-81237543D01*
X110230377Y-81106627D01*
X110136128Y-80997857D01*
X110015053Y-80920047D01*
X110015051Y-80920046D01*
X110015049Y-80920045D01*
X110015050Y-80920045D01*
X109876963Y-80879500D01*
X109876961Y-80879500D01*
X109733039Y-80879500D01*
X109733036Y-80879500D01*
X109594949Y-80920045D01*
X109473873Y-80997856D01*
X109379623Y-81106626D01*
X109379622Y-81106628D01*
X109319834Y-81237543D01*
X109299353Y-81380000D01*
X109319834Y-81522456D01*
X109355248Y-81600000D01*
X109379623Y-81653373D01*
X109473872Y-81762143D01*
X109594947Y-81839953D01*
X109594950Y-81839954D01*
X109594949Y-81839954D01*
X109702107Y-81871417D01*
X109730280Y-81879690D01*
X109733036Y-81880499D01*
X109733038Y-81880500D01*
X109829167Y-81880500D01*
X109896206Y-81900185D01*
X109916848Y-81916819D01*
X125590489Y-97590460D01*
X125659012Y-97630022D01*
X125735438Y-97650500D01*
X133066499Y-97650500D01*
X133133538Y-97670185D01*
X133160211Y-97693296D01*
X133193872Y-97732143D01*
X133201324Y-97736932D01*
X133214943Y-97745685D01*
X133260698Y-97798489D01*
X133270641Y-97867648D01*
X133241615Y-97931203D01*
X133214943Y-97954315D01*
X133193874Y-97967855D01*
X133193873Y-97967855D01*
X133160212Y-98006703D01*
X133101433Y-98044477D01*
X133066499Y-98049500D01*
X124950833Y-98049500D01*
X124883794Y-98029815D01*
X124863152Y-98013181D01*
X109144395Y-82294424D01*
X109110910Y-82233101D01*
X109109339Y-82189094D01*
X109110647Y-82180000D01*
X109090165Y-82037543D01*
X109030377Y-81906627D01*
X108936128Y-81797857D01*
X108815053Y-81720047D01*
X108815051Y-81720046D01*
X108815049Y-81720045D01*
X108815050Y-81720045D01*
X108676963Y-81679500D01*
X108676961Y-81679500D01*
X108533039Y-81679500D01*
X108533036Y-81679500D01*
X108394949Y-81720045D01*
X108273873Y-81797856D01*
X108179623Y-81906626D01*
X108179622Y-81906628D01*
X108119834Y-82037543D01*
X108099353Y-82180000D01*
X98025500Y-82180000D01*
X98025500Y-80048995D01*
X102124499Y-80048995D01*
X102151418Y-80184322D01*
X102151421Y-80184332D01*
X102204221Y-80311804D01*
X102204228Y-80311817D01*
X102280885Y-80426541D01*
X102280888Y-80426545D01*
X102378454Y-80524111D01*
X102378458Y-80524114D01*
X102493182Y-80600771D01*
X102493195Y-80600778D01*
X102620667Y-80653578D01*
X102620672Y-80653580D01*
X102620676Y-80653580D01*
X102620677Y-80653581D01*
X102756004Y-80680500D01*
X102756007Y-80680500D01*
X102893995Y-80680500D01*
X102985041Y-80662389D01*
X103029328Y-80653580D01*
X103156811Y-80600775D01*
X103271542Y-80524114D01*
X103369114Y-80426542D01*
X103445775Y-80311811D01*
X103498580Y-80184328D01*
X103525500Y-80048993D01*
X103525500Y-79911007D01*
X103525500Y-79911004D01*
X103498581Y-79775677D01*
X103498580Y-79775676D01*
X103498580Y-79775672D01*
X103467236Y-79700000D01*
X103445778Y-79648195D01*
X103445771Y-79648182D01*
X103369114Y-79533458D01*
X103369111Y-79533454D01*
X103271545Y-79435888D01*
X103271541Y-79435885D01*
X103156817Y-79359228D01*
X103156804Y-79359221D01*
X103029332Y-79306421D01*
X103029322Y-79306418D01*
X102893995Y-79279500D01*
X102893993Y-79279500D01*
X102756007Y-79279500D01*
X102756005Y-79279500D01*
X102620677Y-79306418D01*
X102620667Y-79306421D01*
X102493195Y-79359221D01*
X102493182Y-79359228D01*
X102378458Y-79435885D01*
X102378454Y-79435888D01*
X102280888Y-79533454D01*
X102280885Y-79533458D01*
X102204228Y-79648182D01*
X102204221Y-79648195D01*
X102151421Y-79775667D01*
X102151418Y-79775677D01*
X102124500Y-79911004D01*
X102124500Y-79911007D01*
X102124500Y-80048993D01*
X102124500Y-80048995D01*
X102124499Y-80048995D01*
X98025500Y-80048995D01*
X98025500Y-78600000D01*
X115519353Y-78600000D01*
X115539834Y-78742456D01*
X115599622Y-78873371D01*
X115599623Y-78873373D01*
X115693872Y-78982143D01*
X115814947Y-79059953D01*
X115814950Y-79059954D01*
X115814949Y-79059954D01*
X115922107Y-79091417D01*
X115951336Y-79100000D01*
X115953036Y-79100499D01*
X115953038Y-79100500D01*
X115953039Y-79100500D01*
X116096962Y-79100500D01*
X116096962Y-79100499D01*
X116235053Y-79059953D01*
X116356128Y-78982143D01*
X116450377Y-78873373D01*
X116510165Y-78742457D01*
X116530647Y-78600000D01*
X125019353Y-78600000D01*
X125039834Y-78742456D01*
X125099622Y-78873371D01*
X125099623Y-78873373D01*
X125193872Y-78982143D01*
X125314947Y-79059953D01*
X125314950Y-79059954D01*
X125314949Y-79059954D01*
X125422107Y-79091417D01*
X125451336Y-79100000D01*
X125453036Y-79100499D01*
X125453038Y-79100500D01*
X125453039Y-79100500D01*
X125596962Y-79100500D01*
X125596962Y-79100499D01*
X125735053Y-79059953D01*
X125856128Y-78982143D01*
X125950377Y-78873373D01*
X126010165Y-78742457D01*
X126030647Y-78600000D01*
X126010165Y-78457543D01*
X125950377Y-78326627D01*
X125856128Y-78217857D01*
X125735053Y-78140047D01*
X125735051Y-78140046D01*
X125735049Y-78140045D01*
X125735050Y-78140045D01*
X125596963Y-78099500D01*
X125596961Y-78099500D01*
X125453039Y-78099500D01*
X125453036Y-78099500D01*
X125314949Y-78140045D01*
X125193873Y-78217856D01*
X125099623Y-78326626D01*
X125099622Y-78326628D01*
X125039834Y-78457543D01*
X125019353Y-78600000D01*
X116530647Y-78600000D01*
X116510165Y-78457543D01*
X116450377Y-78326627D01*
X116356128Y-78217857D01*
X116235053Y-78140047D01*
X116235051Y-78140046D01*
X116235049Y-78140045D01*
X116235050Y-78140045D01*
X116096963Y-78099500D01*
X116096961Y-78099500D01*
X115953039Y-78099500D01*
X115953036Y-78099500D01*
X115814949Y-78140045D01*
X115693873Y-78217856D01*
X115599623Y-78326626D01*
X115599622Y-78326628D01*
X115539834Y-78457543D01*
X115519353Y-78600000D01*
X98025500Y-78600000D01*
X98025500Y-76980247D01*
X166639500Y-76980247D01*
X166639500Y-78019752D01*
X166651131Y-78078229D01*
X166651132Y-78078230D01*
X166695447Y-78144552D01*
X166761769Y-78188867D01*
X166761770Y-78188868D01*
X166820247Y-78200499D01*
X166820250Y-78200500D01*
X166820252Y-78200500D01*
X167859750Y-78200500D01*
X167859751Y-78200499D01*
X167874568Y-78197552D01*
X167918229Y-78188868D01*
X167918229Y-78188867D01*
X167918231Y-78188867D01*
X167984552Y-78144552D01*
X168015899Y-78097638D01*
X168069508Y-78052836D01*
X168138833Y-78044127D01*
X168201225Y-78073715D01*
X168209148Y-78080734D01*
X168359775Y-78159790D01*
X168524944Y-78200500D01*
X168695056Y-78200500D01*
X168860225Y-78159790D01*
X168978639Y-78097641D01*
X169010849Y-78080736D01*
X169010850Y-78080734D01*
X169010852Y-78080734D01*
X169138183Y-77967929D01*
X169142950Y-77961021D01*
X169197230Y-77917033D01*
X169266678Y-77909372D01*
X169329244Y-77940473D01*
X169347046Y-77961017D01*
X169351817Y-77967929D01*
X169437827Y-78044127D01*
X169479150Y-78080736D01*
X169629773Y-78159789D01*
X169629775Y-78159790D01*
X169794944Y-78200500D01*
X169965056Y-78200500D01*
X170130225Y-78159790D01*
X170248639Y-78097641D01*
X170280849Y-78080736D01*
X170280850Y-78080734D01*
X170280852Y-78080734D01*
X170408183Y-77967929D01*
X170412950Y-77961021D01*
X170467230Y-77917033D01*
X170536678Y-77909372D01*
X170599244Y-77940473D01*
X170617046Y-77961017D01*
X170621817Y-77967929D01*
X170707827Y-78044127D01*
X170749150Y-78080736D01*
X170899773Y-78159789D01*
X170899775Y-78159790D01*
X171064944Y-78200500D01*
X171235056Y-78200500D01*
X171400225Y-78159790D01*
X171518639Y-78097641D01*
X171550849Y-78080736D01*
X171550850Y-78080734D01*
X171550852Y-78080734D01*
X171678183Y-77967929D01*
X171682950Y-77961021D01*
X171737230Y-77917033D01*
X171806678Y-77909372D01*
X171869244Y-77940473D01*
X171887046Y-77961017D01*
X171891817Y-77967929D01*
X171977827Y-78044127D01*
X172019150Y-78080736D01*
X172169773Y-78159789D01*
X172169775Y-78159790D01*
X172334944Y-78200500D01*
X172505056Y-78200500D01*
X172670225Y-78159790D01*
X172788639Y-78097641D01*
X172820849Y-78080736D01*
X172820850Y-78080734D01*
X172820852Y-78080734D01*
X172948183Y-77967929D01*
X172952950Y-77961021D01*
X173007230Y-77917033D01*
X173076678Y-77909372D01*
X173139244Y-77940473D01*
X173157046Y-77961017D01*
X173161817Y-77967929D01*
X173247827Y-78044127D01*
X173289150Y-78080736D01*
X173439773Y-78159789D01*
X173439775Y-78159790D01*
X173604944Y-78200500D01*
X173775056Y-78200500D01*
X173940225Y-78159790D01*
X174058639Y-78097641D01*
X174090849Y-78080736D01*
X174090850Y-78080734D01*
X174090852Y-78080734D01*
X174218183Y-77967929D01*
X174222950Y-77961021D01*
X174277230Y-77917033D01*
X174346678Y-77909372D01*
X174409244Y-77940473D01*
X174427046Y-77961017D01*
X174431817Y-77967929D01*
X174517827Y-78044127D01*
X174559150Y-78080736D01*
X174709773Y-78159789D01*
X174709775Y-78159790D01*
X174874944Y-78200500D01*
X175045056Y-78200500D01*
X175210225Y-78159790D01*
X175328639Y-78097641D01*
X175360849Y-78080736D01*
X175360850Y-78080734D01*
X175360852Y-78080734D01*
X175488183Y-77967929D01*
X175492950Y-77961021D01*
X175547230Y-77917033D01*
X175616678Y-77909372D01*
X175679244Y-77940473D01*
X175697046Y-77961017D01*
X175701817Y-77967929D01*
X175787827Y-78044127D01*
X175829150Y-78080736D01*
X175979773Y-78159789D01*
X175979775Y-78159790D01*
X176144944Y-78200500D01*
X176315056Y-78200500D01*
X176480225Y-78159790D01*
X176577852Y-78108550D01*
X176646358Y-78094825D01*
X176711412Y-78120317D01*
X176731331Y-78139683D01*
X176789472Y-78210528D01*
X176941739Y-78335491D01*
X177115465Y-78428349D01*
X177250000Y-78469159D01*
X177750000Y-78469159D01*
X177884534Y-78428349D01*
X178058260Y-78335491D01*
X178210528Y-78210528D01*
X178335492Y-78058260D01*
X178335496Y-78058253D01*
X178378012Y-77978711D01*
X191174500Y-77978711D01*
X191174500Y-78221288D01*
X191206161Y-78461785D01*
X191268947Y-78696104D01*
X191361773Y-78920205D01*
X191361776Y-78920212D01*
X191483064Y-79130289D01*
X191483066Y-79130292D01*
X191483067Y-79130293D01*
X191630733Y-79322736D01*
X191630739Y-79322743D01*
X191802256Y-79494260D01*
X191802263Y-79494266D01*
X191867700Y-79544477D01*
X191994711Y-79641936D01*
X192204788Y-79763224D01*
X192428900Y-79856054D01*
X192663211Y-79918838D01*
X192843586Y-79942584D01*
X192903711Y-79950500D01*
X192903712Y-79950500D01*
X193146289Y-79950500D01*
X193194388Y-79944167D01*
X193386789Y-79918838D01*
X193621100Y-79856054D01*
X193845212Y-79763224D01*
X194055289Y-79641936D01*
X194247738Y-79494265D01*
X194419265Y-79322738D01*
X194566936Y-79130289D01*
X194688224Y-78920212D01*
X194781054Y-78696100D01*
X194843838Y-78461789D01*
X194875500Y-78221288D01*
X194875500Y-77978712D01*
X194874080Y-77967929D01*
X194858555Y-77850000D01*
X194843838Y-77738211D01*
X194781054Y-77503900D01*
X194688224Y-77279788D01*
X194566936Y-77069711D01*
X194451494Y-76919264D01*
X194419266Y-76877263D01*
X194419260Y-76877256D01*
X194247743Y-76705739D01*
X194247736Y-76705733D01*
X194055293Y-76558067D01*
X194055292Y-76558066D01*
X194055289Y-76558064D01*
X193845212Y-76436776D01*
X193845205Y-76436773D01*
X193621104Y-76343947D01*
X193386785Y-76281161D01*
X193146289Y-76249500D01*
X193146288Y-76249500D01*
X192903712Y-76249500D01*
X192903711Y-76249500D01*
X192663214Y-76281161D01*
X192428895Y-76343947D01*
X192204794Y-76436773D01*
X192204785Y-76436777D01*
X191994706Y-76558067D01*
X191802263Y-76705733D01*
X191802256Y-76705739D01*
X191630739Y-76877256D01*
X191630733Y-76877263D01*
X191483067Y-77069706D01*
X191361777Y-77279785D01*
X191361773Y-77279794D01*
X191268947Y-77503895D01*
X191206161Y-77738214D01*
X191174500Y-77978711D01*
X178378012Y-77978711D01*
X178428347Y-77884541D01*
X178469160Y-77750000D01*
X177750000Y-77750000D01*
X177750000Y-78469159D01*
X177250000Y-78469159D01*
X177250000Y-77744975D01*
X177285095Y-77780070D01*
X177364905Y-77826148D01*
X177453922Y-77850000D01*
X177546078Y-77850000D01*
X177635095Y-77826148D01*
X177714905Y-77780070D01*
X177780070Y-77714905D01*
X177826148Y-77635095D01*
X177850000Y-77546078D01*
X177850000Y-77453922D01*
X177826148Y-77364905D01*
X177780070Y-77285095D01*
X177744975Y-77250000D01*
X177750000Y-77250000D01*
X178469160Y-77250000D01*
X178469160Y-77249999D01*
X178428347Y-77115458D01*
X178335496Y-76941746D01*
X178335492Y-76941739D01*
X178210528Y-76789471D01*
X178058260Y-76664507D01*
X178058253Y-76664503D01*
X177884541Y-76571652D01*
X177750000Y-76530839D01*
X177750000Y-77250000D01*
X177744975Y-77250000D01*
X177714905Y-77219930D01*
X177635095Y-77173852D01*
X177546078Y-77150000D01*
X177453922Y-77150000D01*
X177364905Y-77173852D01*
X177285095Y-77219930D01*
X177250000Y-77255025D01*
X177250000Y-76530839D01*
X177249999Y-76530839D01*
X177115458Y-76571652D01*
X176941746Y-76664503D01*
X176941739Y-76664507D01*
X176789471Y-76789471D01*
X176731330Y-76860317D01*
X176673584Y-76899651D01*
X176603739Y-76901522D01*
X176577851Y-76891448D01*
X176480226Y-76840210D01*
X176315056Y-76799500D01*
X176144944Y-76799500D01*
X175979773Y-76840210D01*
X175829150Y-76919263D01*
X175701815Y-77032072D01*
X175697049Y-77038978D01*
X175642766Y-77082968D01*
X175573317Y-77090627D01*
X175510753Y-77059523D01*
X175492951Y-77038978D01*
X175488184Y-77032072D01*
X175360849Y-76919263D01*
X175210226Y-76840210D01*
X175045056Y-76799500D01*
X174874944Y-76799500D01*
X174709773Y-76840210D01*
X174559150Y-76919263D01*
X174431815Y-77032072D01*
X174427049Y-77038978D01*
X174372766Y-77082968D01*
X174303317Y-77090627D01*
X174240753Y-77059523D01*
X174222951Y-77038978D01*
X174218184Y-77032072D01*
X174090849Y-76919263D01*
X173940226Y-76840210D01*
X173775056Y-76799500D01*
X173604944Y-76799500D01*
X173439773Y-76840210D01*
X173289150Y-76919263D01*
X173161815Y-77032072D01*
X173157049Y-77038978D01*
X173102766Y-77082968D01*
X173033317Y-77090627D01*
X172970753Y-77059523D01*
X172952951Y-77038978D01*
X172948184Y-77032072D01*
X172820849Y-76919263D01*
X172670226Y-76840210D01*
X172505056Y-76799500D01*
X172334944Y-76799500D01*
X172169773Y-76840210D01*
X172019150Y-76919263D01*
X171891815Y-77032072D01*
X171887049Y-77038978D01*
X171832766Y-77082968D01*
X171763317Y-77090627D01*
X171700753Y-77059523D01*
X171682951Y-77038978D01*
X171678184Y-77032072D01*
X171550849Y-76919263D01*
X171400226Y-76840210D01*
X171235056Y-76799500D01*
X171064944Y-76799500D01*
X170899773Y-76840210D01*
X170749150Y-76919263D01*
X170621815Y-77032072D01*
X170617049Y-77038978D01*
X170562766Y-77082968D01*
X170493317Y-77090627D01*
X170430753Y-77059523D01*
X170412951Y-77038978D01*
X170408184Y-77032072D01*
X170280849Y-76919263D01*
X170130226Y-76840210D01*
X169965056Y-76799500D01*
X169794944Y-76799500D01*
X169629773Y-76840210D01*
X169479150Y-76919263D01*
X169351815Y-77032072D01*
X169347049Y-77038978D01*
X169292766Y-77082968D01*
X169223317Y-77090627D01*
X169160753Y-77059523D01*
X169142951Y-77038978D01*
X169138184Y-77032072D01*
X169010849Y-76919263D01*
X168860226Y-76840210D01*
X168695056Y-76799500D01*
X168524944Y-76799500D01*
X168359773Y-76840210D01*
X168209149Y-76919264D01*
X168209147Y-76919266D01*
X168201223Y-76926286D01*
X168137989Y-76956005D01*
X168068726Y-76946820D01*
X168015897Y-76902358D01*
X167984553Y-76855448D01*
X167918230Y-76811132D01*
X167918229Y-76811131D01*
X167859752Y-76799500D01*
X167859748Y-76799500D01*
X166820252Y-76799500D01*
X166820247Y-76799500D01*
X166761770Y-76811131D01*
X166761769Y-76811132D01*
X166695447Y-76855447D01*
X166651132Y-76921769D01*
X166651131Y-76921770D01*
X166639500Y-76980247D01*
X98025500Y-76980247D01*
X98025500Y-76104066D01*
X98025633Y-76100000D01*
X165019353Y-76100000D01*
X165039834Y-76242456D01*
X165057511Y-76281162D01*
X165099623Y-76373373D01*
X165193872Y-76482143D01*
X165314947Y-76559953D01*
X165314950Y-76559954D01*
X165314949Y-76559954D01*
X165453036Y-76600499D01*
X165453038Y-76600500D01*
X165453039Y-76600500D01*
X165596962Y-76600500D01*
X165596962Y-76600499D01*
X165735053Y-76559953D01*
X165856128Y-76482143D01*
X165950377Y-76373373D01*
X166010165Y-76242457D01*
X166030647Y-76100000D01*
X166010165Y-75957543D01*
X165950377Y-75826627D01*
X165856128Y-75717857D01*
X165735053Y-75640047D01*
X165735051Y-75640046D01*
X165735049Y-75640045D01*
X165735050Y-75640045D01*
X165596963Y-75599500D01*
X165596961Y-75599500D01*
X165453039Y-75599500D01*
X165453036Y-75599500D01*
X165314949Y-75640045D01*
X165193873Y-75717856D01*
X165099623Y-75826626D01*
X165099622Y-75826628D01*
X165039834Y-75957543D01*
X165019353Y-76100000D01*
X98025633Y-76100000D01*
X98025765Y-76095956D01*
X98034837Y-75957543D01*
X98042075Y-75847102D01*
X98044190Y-75831048D01*
X98092045Y-75590462D01*
X98096243Y-75574797D01*
X98119337Y-75506762D01*
X98175093Y-75342512D01*
X98181291Y-75327547D01*
X98289790Y-75107533D01*
X98297893Y-75093498D01*
X98434182Y-74889527D01*
X98444039Y-74876681D01*
X98605786Y-74692244D01*
X98617244Y-74680786D01*
X98801681Y-74519039D01*
X98814527Y-74509182D01*
X99018498Y-74372893D01*
X99032533Y-74364790D01*
X99252547Y-74256291D01*
X99267512Y-74250093D01*
X99431762Y-74194337D01*
X99499797Y-74171243D01*
X99515464Y-74167045D01*
X99756048Y-74119190D01*
X99772102Y-74117075D01*
X100020957Y-74100765D01*
X100029067Y-74100500D01*
X100090892Y-74100500D01*
X194959108Y-74100500D01*
X195020933Y-74100500D01*
X195029043Y-74100765D01*
G37*
%TD.AperFunction*%
%TD*%
M02*
