M48
; DRILL file {KiCad 8.0.4-8.0.4-0~ubuntu24.04.1} date 2024-07-23T16:29:01+1000
; FORMAT={-:-/ absolute / metric / decimal}
; #@! TF.CreationDate,2024-07-23T16:29:01+10:00
; #@! TF.GenerationSoftware,Kicad,Pcbnew,8.0.4-8.0.4-0~ubuntu24.04.1
; #@! TF.FileFunction,Plated,1,4,PTH
FMAT,2
METRIC
; #@! TA.AperFunction,Plated,PTH,ViaDrill
T1C0.300
; #@! TA.AperFunction,Plated,PTH,ComponentDrill
T2C1.000
%
G90
G05
T1
X108.3Y-98.6
X108.3Y-110.9
X108.605Y-82.18
X109.805Y-81.38
X114.025Y-114.015
X115.275Y-111.85
X115.525Y-85.6
X116.025Y-78.6
X117.525Y-121.1
X117.775Y-106.35
X120.3Y-99.8
X121.2Y-80.95
X122.45Y-102.55
X123.15Y-83.5
X124.8Y-81.0
X126.7Y-80.4
X126.837Y-91.787
X126.9Y-85.55
X127.8Y-82.4
X129.3Y-76.85
X132.7Y-92.1
X132.8Y-77.35
X133.525Y-96.35
X133.525Y-97.35
X133.525Y-98.35
X133.7Y-95.5
X134.025Y-89.35
X134.15Y-94.55
X135.525Y-102.6
X135.65Y-96.15
X138.75Y-105.5
X138.95Y-104.0
X139.5Y-104.7
X139.525Y-99.35
X139.65Y-103.15
X139.7Y-106.6
X140.025Y-97.6
X140.6Y-103.15
X140.85Y-107.7
X141.4Y-86.6
X141.5Y-103.15
X141.574Y-108.649
X142.025Y-88.1
X142.324Y-97.399
X143.1Y-104.5
X143.9Y-97.1
X144.5Y-96.4
X145.275Y-102.85
X145.758Y-94.715
X146.025Y-107.7
X146.475Y-96.225
X146.976Y-97.801
X147.525Y-83.1
X147.775Y-102.35
X148.525Y-104.1
X148.85Y-119.125
X149.025Y-110.1
X152.275Y-89.1
X153.025Y-99.6
X153.05Y-93.0
X153.85Y-94.5
X154.2Y-96.0
X154.275Y-88.35
X154.325Y-89.175
X154.875Y-98.575
X155.45Y-102.025
X157.025Y-97.1
X158.6Y-98.1
X159.025Y-79.7
X159.625Y-94.7
X160.0Y-78.4
X162.2Y-77.4
X163.625Y-95.9
X165.3Y-93.0
X166.6Y-80.7
X171.8Y-87.5
X173.025Y-86.1
X179.6Y-89.9
X180.2Y-80.4
X182.5Y-80.4
X186.65Y-99.8
X186.85Y-101.8
X187.1Y-103.8
X194.025Y-106.1
T2
X121.81Y-87.7
X124.35Y-87.7
X126.89Y-87.7
X165.25Y-76.375
X167.79Y-76.375
X169.2Y-97.04
X169.2Y-99.58
X169.2Y-102.12
X169.2Y-104.66
X169.2Y-107.2
X170.33Y-76.375
X172.87Y-76.375
X175.41Y-76.375
X177.95Y-76.375
X180.49Y-76.375
X183.03Y-76.375
X185.57Y-76.375
M30
