%TF.GenerationSoftware,KiCad,Pcbnew,8.0.3-8.0.3-0~ubuntu22.04.1*%
%TF.CreationDate,2024-06-29T20:27:06+10:00*%
%TF.ProjectId,lo_cate_pcb,6c6f5f63-6174-4655-9f70-63622e6b6963,rev?*%
%TF.SameCoordinates,Original*%
%TF.FileFunction,Drillmap*%
%TF.FilePolarity,Positive*%
%FSLAX45Y45*%
G04 Gerber Fmt 4.5, Leading zero omitted, Abs format (unit mm)*
G04 Created by KiCad (PCBNEW 8.0.3-8.0.3-0~ubuntu22.04.1) date 2024-06-29 20:27:06*
%MOMM*%
%LPD*%
G01*
G04 APERTURE LIST*
%ADD10C,0.050000*%
%ADD11C,0.200000*%
%ADD12C,0.100000*%
G04 APERTURE END LIST*
D10*
X9752500Y-7610000D02*
X9752500Y-12110000D01*
X19752500Y-12110000D02*
G75*
G02*
X19502500Y-12360000I-250000J0D01*
G01*
X10002500Y-12360000D02*
G75*
G02*
X9752500Y-12110000I0J250000D01*
G01*
X9752500Y-7610000D02*
G75*
G02*
X10002500Y-7360000I250000J0D01*
G01*
X19752500Y-7610000D02*
X19752500Y-12110000D01*
X19502500Y-7360000D02*
G75*
G02*
X19752500Y-7610000I0J-250000D01*
G01*
X10002500Y-7360000D02*
X19502500Y-7360000D01*
X10002500Y-12360000D02*
X19502500Y-12360000D01*
D11*
D12*
X10787500Y-9345000D02*
X10817500Y-9375000D01*
X10817500Y-9345000D02*
X10787500Y-9375000D01*
X10787500Y-10595000D02*
X10817500Y-10625000D01*
X10817500Y-10595000D02*
X10787500Y-10625000D01*
X10845500Y-8203000D02*
X10875500Y-8233000D01*
X10875500Y-8203000D02*
X10845500Y-8233000D01*
X10965500Y-8123000D02*
X10995500Y-8153000D01*
X10995500Y-8123000D02*
X10965500Y-8153000D01*
X11387500Y-11386500D02*
X11417500Y-11416500D01*
X11417500Y-11386500D02*
X11387500Y-11416500D01*
X11512500Y-11170000D02*
X11542500Y-11200000D01*
X11542500Y-11170000D02*
X11512500Y-11200000D01*
X11537500Y-8545000D02*
X11567500Y-8575000D01*
X11567500Y-8545000D02*
X11537500Y-8575000D01*
X11587500Y-7845000D02*
X11617500Y-7875000D01*
X11617500Y-7845000D02*
X11587500Y-7875000D01*
X11737500Y-12095000D02*
X11767500Y-12125000D01*
X11767500Y-12095000D02*
X11737500Y-12125000D01*
X11762500Y-10620000D02*
X11792500Y-10650000D01*
X11792500Y-10620000D02*
X11762500Y-10650000D01*
X12015000Y-9965000D02*
X12045000Y-9995000D01*
X12045000Y-9965000D02*
X12015000Y-9995000D01*
X12025000Y-10135000D02*
X12055000Y-10165000D01*
X12055000Y-10135000D02*
X12025000Y-10165000D01*
X12487500Y-8195000D02*
X12517500Y-8225000D01*
X12517500Y-8195000D02*
X12487500Y-8225000D01*
X12537500Y-7845000D02*
X12567500Y-7875000D01*
X12567500Y-7845000D02*
X12537500Y-7875000D01*
X12537500Y-9295000D02*
X12567500Y-9325000D01*
X12567500Y-9295000D02*
X12537500Y-9325000D01*
X13337500Y-9620000D02*
X13367500Y-9650000D01*
X13367500Y-9620000D02*
X13337500Y-9650000D01*
X13337500Y-9720000D02*
X13367500Y-9750000D01*
X13367500Y-9720000D02*
X13337500Y-9750000D01*
X13337500Y-9820000D02*
X13367500Y-9850000D01*
X13367500Y-9820000D02*
X13337500Y-9850000D01*
X13387500Y-8920000D02*
X13417500Y-8950000D01*
X13417500Y-8920000D02*
X13387500Y-8950000D01*
X13410000Y-8032500D02*
X13440000Y-8062500D01*
X13440000Y-8032500D02*
X13410000Y-8062500D01*
X13537500Y-10245000D02*
X13567500Y-10275000D01*
X13567500Y-10245000D02*
X13537500Y-10275000D01*
X13662500Y-8145000D02*
X13692500Y-8175000D01*
X13692500Y-8145000D02*
X13662500Y-8175000D01*
X13937500Y-7970000D02*
X13967500Y-8000000D01*
X13967500Y-7970000D02*
X13937500Y-8000000D01*
X13937500Y-9920000D02*
X13967500Y-9950000D01*
X13967500Y-9920000D02*
X13937500Y-9950000D01*
X13987500Y-9745000D02*
X14017500Y-9775000D01*
X14017500Y-9745000D02*
X13987500Y-9775000D01*
X14075000Y-10455000D02*
X14105000Y-10485000D01*
X14105000Y-10455000D02*
X14075000Y-10485000D01*
X14080297Y-10347160D02*
X14110297Y-10377160D01*
X14110297Y-10347160D02*
X14080297Y-10377160D01*
X14142426Y-10849927D02*
X14172426Y-10879927D01*
X14172426Y-10849927D02*
X14142426Y-10879927D01*
X14147500Y-10515000D02*
X14177500Y-10545000D01*
X14177500Y-10515000D02*
X14147500Y-10545000D01*
X14162500Y-10745000D02*
X14192500Y-10775000D01*
X14192500Y-10745000D02*
X14162500Y-10775000D01*
X14187500Y-8795000D02*
X14217500Y-8825000D01*
X14217500Y-8795000D02*
X14187500Y-8825000D01*
X14217426Y-9724927D02*
X14247426Y-9754927D01*
X14247426Y-9724927D02*
X14217426Y-9754927D01*
X14347500Y-10795000D02*
X14377500Y-10825000D01*
X14377500Y-10795000D02*
X14347500Y-10825000D01*
X14375000Y-9695000D02*
X14405000Y-9725000D01*
X14405000Y-9695000D02*
X14375000Y-9725000D01*
X14435000Y-9625000D02*
X14465000Y-9655000D01*
X14465000Y-9625000D02*
X14435000Y-9655000D01*
X14512500Y-10270000D02*
X14542500Y-10300000D01*
X14542500Y-10270000D02*
X14512500Y-10300000D01*
X14560806Y-9456547D02*
X14590806Y-9486547D01*
X14590806Y-9456547D02*
X14560806Y-9486547D01*
X14587500Y-10755000D02*
X14617500Y-10785000D01*
X14617500Y-10755000D02*
X14587500Y-10785000D01*
X14632500Y-9607500D02*
X14662500Y-9637500D01*
X14662500Y-9607500D02*
X14632500Y-9637500D01*
X14682574Y-9765074D02*
X14712574Y-9795074D01*
X14712574Y-9765074D02*
X14682574Y-9795074D01*
X14737500Y-8295000D02*
X14767500Y-8325000D01*
X14767500Y-8295000D02*
X14737500Y-8325000D01*
X14762500Y-10220000D02*
X14792500Y-10250000D01*
X14792500Y-10220000D02*
X14762500Y-10250000D01*
X14837500Y-10395000D02*
X14867500Y-10425000D01*
X14867500Y-10395000D02*
X14837500Y-10425000D01*
X14870000Y-11897500D02*
X14900000Y-11927500D01*
X14900000Y-11897500D02*
X14870000Y-11927500D01*
X14887500Y-10995000D02*
X14917500Y-11025000D01*
X14917500Y-10995000D02*
X14887500Y-11025000D01*
X15087500Y-9420000D02*
X15117500Y-9450000D01*
X15117500Y-9420000D02*
X15087500Y-9450000D01*
X15212500Y-8895000D02*
X15242500Y-8925000D01*
X15242500Y-8895000D02*
X15212500Y-8925000D01*
X15254129Y-9359474D02*
X15284129Y-9389474D01*
X15284129Y-9359474D02*
X15254129Y-9389474D01*
X15287500Y-9945000D02*
X15317500Y-9975000D01*
X15317500Y-9945000D02*
X15287500Y-9975000D01*
X15412500Y-8820000D02*
X15442500Y-8850000D01*
X15442500Y-8820000D02*
X15412500Y-8850000D01*
X15417500Y-8902500D02*
X15447500Y-8932500D01*
X15447500Y-8902500D02*
X15417500Y-8932500D01*
X15472500Y-9842500D02*
X15502500Y-9872500D01*
X15502500Y-9842500D02*
X15472500Y-9872500D01*
X15530000Y-10187500D02*
X15560000Y-10217500D01*
X15560000Y-10187500D02*
X15530000Y-10217500D01*
X15587500Y-9695000D02*
X15617500Y-9725000D01*
X15617500Y-9695000D02*
X15587500Y-9725000D01*
X15837500Y-9845000D02*
X15867500Y-9875000D01*
X15867500Y-9845000D02*
X15837500Y-9875000D01*
X15887500Y-7955000D02*
X15917500Y-7985000D01*
X15917500Y-7955000D02*
X15887500Y-7985000D01*
X15947500Y-9455000D02*
X15977500Y-9485000D01*
X15977500Y-9455000D02*
X15947500Y-9485000D01*
X15987500Y-7895000D02*
X16017500Y-7925000D01*
X16017500Y-7895000D02*
X15987500Y-7925000D01*
X16347500Y-9575000D02*
X16377500Y-9605000D01*
X16377500Y-9575000D02*
X16347500Y-9605000D01*
X16437500Y-9405000D02*
X16467500Y-9435000D01*
X16467500Y-9405000D02*
X16437500Y-9435000D01*
X16512500Y-8015000D02*
X16542500Y-8045000D01*
X16542500Y-8015000D02*
X16512500Y-8045000D01*
X16537500Y-7595000D02*
X16567500Y-7625000D01*
X16567500Y-7595000D02*
X16537500Y-7625000D01*
X16637500Y-10270000D02*
X16667500Y-10300000D01*
X16667500Y-10270000D02*
X16637500Y-10300000D01*
X16637500Y-10370000D02*
X16667500Y-10400000D01*
X16667500Y-10370000D02*
X16637500Y-10400000D01*
X16637500Y-10470000D02*
X16667500Y-10500000D01*
X16667500Y-10470000D02*
X16637500Y-10500000D01*
X16687500Y-9770000D02*
X16717500Y-9800000D01*
X16717500Y-9770000D02*
X16687500Y-9800000D01*
X17277500Y-8007500D02*
X17307500Y-8037500D01*
X17307500Y-8007500D02*
X17277500Y-8037500D01*
X17287500Y-8595000D02*
X17317500Y-8625000D01*
X17317500Y-8595000D02*
X17287500Y-8625000D01*
X17287500Y-8695000D02*
X17317500Y-8725000D01*
X17317500Y-8695000D02*
X17287500Y-8725000D01*
X17375000Y-8265000D02*
X17405000Y-8295000D01*
X17405000Y-8265000D02*
X17375000Y-8295000D01*
X17465000Y-8345000D02*
X17495000Y-8375000D01*
X17495000Y-8345000D02*
X17465000Y-8375000D01*
X17837500Y-8245000D02*
X17867500Y-8275000D01*
X17867500Y-8245000D02*
X17837500Y-8275000D01*
X19387500Y-10595000D02*
X19417500Y-10625000D01*
X19417500Y-10595000D02*
X19387500Y-10625000D01*
X16769000Y-7750000D02*
G75*
G02*
X16699000Y-7750000I-35000J0D01*
G01*
X16699000Y-7750000D02*
G75*
G02*
X16769000Y-7750000I35000J0D01*
G01*
X16896000Y-7750000D02*
G75*
G02*
X16826000Y-7750000I-35000J0D01*
G01*
X16826000Y-7750000D02*
G75*
G02*
X16896000Y-7750000I35000J0D01*
G01*
X17023000Y-7750000D02*
G75*
G02*
X16953000Y-7750000I-35000J0D01*
G01*
X16953000Y-7750000D02*
G75*
G02*
X17023000Y-7750000I35000J0D01*
G01*
X17150000Y-7750000D02*
G75*
G02*
X17080000Y-7750000I-35000J0D01*
G01*
X17080000Y-7750000D02*
G75*
G02*
X17150000Y-7750000I35000J0D01*
G01*
X17277000Y-7750000D02*
G75*
G02*
X17207000Y-7750000I-35000J0D01*
G01*
X17207000Y-7750000D02*
G75*
G02*
X17277000Y-7750000I35000J0D01*
G01*
X17404000Y-7750000D02*
G75*
G02*
X17334000Y-7750000I-35000J0D01*
G01*
X17334000Y-7750000D02*
G75*
G02*
X17404000Y-7750000I35000J0D01*
G01*
X17531000Y-7750000D02*
G75*
G02*
X17461000Y-7750000I-35000J0D01*
G01*
X17461000Y-7750000D02*
G75*
G02*
X17531000Y-7750000I35000J0D01*
G01*
X17658000Y-7750000D02*
G75*
G02*
X17588000Y-7750000I-35000J0D01*
G01*
X17588000Y-7750000D02*
G75*
G02*
X17658000Y-7750000I35000J0D01*
G01*
X17785000Y-7750000D02*
G75*
G02*
X17715000Y-7750000I-35000J0D01*
G01*
X17715000Y-7750000D02*
G75*
G02*
X17785000Y-7750000I35000J0D01*
G01*
D11*
X10010777Y-12673984D02*
X10010777Y-12473984D01*
X10010777Y-12473984D02*
X10058396Y-12473984D01*
X10058396Y-12473984D02*
X10086967Y-12483508D01*
X10086967Y-12483508D02*
X10106015Y-12502555D01*
X10106015Y-12502555D02*
X10115539Y-12521603D01*
X10115539Y-12521603D02*
X10125063Y-12559698D01*
X10125063Y-12559698D02*
X10125063Y-12588269D01*
X10125063Y-12588269D02*
X10115539Y-12626365D01*
X10115539Y-12626365D02*
X10106015Y-12645412D01*
X10106015Y-12645412D02*
X10086967Y-12664460D01*
X10086967Y-12664460D02*
X10058396Y-12673984D01*
X10058396Y-12673984D02*
X10010777Y-12673984D01*
X10210777Y-12673984D02*
X10210777Y-12540650D01*
X10210777Y-12578746D02*
X10220301Y-12559698D01*
X10220301Y-12559698D02*
X10229824Y-12550174D01*
X10229824Y-12550174D02*
X10248872Y-12540650D01*
X10248872Y-12540650D02*
X10267920Y-12540650D01*
X10334586Y-12673984D02*
X10334586Y-12540650D01*
X10334586Y-12473984D02*
X10325063Y-12483508D01*
X10325063Y-12483508D02*
X10334586Y-12493031D01*
X10334586Y-12493031D02*
X10344110Y-12483508D01*
X10344110Y-12483508D02*
X10334586Y-12473984D01*
X10334586Y-12473984D02*
X10334586Y-12493031D01*
X10458396Y-12673984D02*
X10439348Y-12664460D01*
X10439348Y-12664460D02*
X10429824Y-12645412D01*
X10429824Y-12645412D02*
X10429824Y-12473984D01*
X10563158Y-12673984D02*
X10544110Y-12664460D01*
X10544110Y-12664460D02*
X10534586Y-12645412D01*
X10534586Y-12645412D02*
X10534586Y-12473984D01*
X10791729Y-12673984D02*
X10791729Y-12473984D01*
X10791729Y-12473984D02*
X10858396Y-12616841D01*
X10858396Y-12616841D02*
X10925063Y-12473984D01*
X10925063Y-12473984D02*
X10925063Y-12673984D01*
X11106015Y-12673984D02*
X11106015Y-12569222D01*
X11106015Y-12569222D02*
X11096491Y-12550174D01*
X11096491Y-12550174D02*
X11077444Y-12540650D01*
X11077444Y-12540650D02*
X11039348Y-12540650D01*
X11039348Y-12540650D02*
X11020301Y-12550174D01*
X11106015Y-12664460D02*
X11086967Y-12673984D01*
X11086967Y-12673984D02*
X11039348Y-12673984D01*
X11039348Y-12673984D02*
X11020301Y-12664460D01*
X11020301Y-12664460D02*
X11010777Y-12645412D01*
X11010777Y-12645412D02*
X11010777Y-12626365D01*
X11010777Y-12626365D02*
X11020301Y-12607317D01*
X11020301Y-12607317D02*
X11039348Y-12597793D01*
X11039348Y-12597793D02*
X11086967Y-12597793D01*
X11086967Y-12597793D02*
X11106015Y-12588269D01*
X11201253Y-12540650D02*
X11201253Y-12740650D01*
X11201253Y-12550174D02*
X11220301Y-12540650D01*
X11220301Y-12540650D02*
X11258396Y-12540650D01*
X11258396Y-12540650D02*
X11277443Y-12550174D01*
X11277443Y-12550174D02*
X11286967Y-12559698D01*
X11286967Y-12559698D02*
X11296491Y-12578746D01*
X11296491Y-12578746D02*
X11296491Y-12635888D01*
X11296491Y-12635888D02*
X11286967Y-12654936D01*
X11286967Y-12654936D02*
X11277443Y-12664460D01*
X11277443Y-12664460D02*
X11258396Y-12673984D01*
X11258396Y-12673984D02*
X11220301Y-12673984D01*
X11220301Y-12673984D02*
X11201253Y-12664460D01*
X11382205Y-12654936D02*
X11391729Y-12664460D01*
X11391729Y-12664460D02*
X11382205Y-12673984D01*
X11382205Y-12673984D02*
X11372682Y-12664460D01*
X11372682Y-12664460D02*
X11382205Y-12654936D01*
X11382205Y-12654936D02*
X11382205Y-12673984D01*
X11382205Y-12550174D02*
X11391729Y-12559698D01*
X11391729Y-12559698D02*
X11382205Y-12569222D01*
X11382205Y-12569222D02*
X11372682Y-12559698D01*
X11372682Y-12559698D02*
X11382205Y-12550174D01*
X11382205Y-12550174D02*
X11382205Y-12569222D01*
D12*
X9720000Y-12987500D02*
X9750000Y-13017500D01*
X9750000Y-12987500D02*
X9720000Y-13017500D01*
D11*
X10048872Y-12893984D02*
X10067920Y-12893984D01*
X10067920Y-12893984D02*
X10086967Y-12903508D01*
X10086967Y-12903508D02*
X10096491Y-12913031D01*
X10096491Y-12913031D02*
X10106015Y-12932079D01*
X10106015Y-12932079D02*
X10115539Y-12970174D01*
X10115539Y-12970174D02*
X10115539Y-13017793D01*
X10115539Y-13017793D02*
X10106015Y-13055888D01*
X10106015Y-13055888D02*
X10096491Y-13074936D01*
X10096491Y-13074936D02*
X10086967Y-13084460D01*
X10086967Y-13084460D02*
X10067920Y-13093984D01*
X10067920Y-13093984D02*
X10048872Y-13093984D01*
X10048872Y-13093984D02*
X10029824Y-13084460D01*
X10029824Y-13084460D02*
X10020301Y-13074936D01*
X10020301Y-13074936D02*
X10010777Y-13055888D01*
X10010777Y-13055888D02*
X10001253Y-13017793D01*
X10001253Y-13017793D02*
X10001253Y-12970174D01*
X10001253Y-12970174D02*
X10010777Y-12932079D01*
X10010777Y-12932079D02*
X10020301Y-12913031D01*
X10020301Y-12913031D02*
X10029824Y-12903508D01*
X10029824Y-12903508D02*
X10048872Y-12893984D01*
X10201253Y-13074936D02*
X10210777Y-13084460D01*
X10210777Y-13084460D02*
X10201253Y-13093984D01*
X10201253Y-13093984D02*
X10191729Y-13084460D01*
X10191729Y-13084460D02*
X10201253Y-13074936D01*
X10201253Y-13074936D02*
X10201253Y-13093984D01*
X10277444Y-12893984D02*
X10401253Y-12893984D01*
X10401253Y-12893984D02*
X10334586Y-12970174D01*
X10334586Y-12970174D02*
X10363158Y-12970174D01*
X10363158Y-12970174D02*
X10382205Y-12979698D01*
X10382205Y-12979698D02*
X10391729Y-12989222D01*
X10391729Y-12989222D02*
X10401253Y-13008269D01*
X10401253Y-13008269D02*
X10401253Y-13055888D01*
X10401253Y-13055888D02*
X10391729Y-13074936D01*
X10391729Y-13074936D02*
X10382205Y-13084460D01*
X10382205Y-13084460D02*
X10363158Y-13093984D01*
X10363158Y-13093984D02*
X10306015Y-13093984D01*
X10306015Y-13093984D02*
X10286967Y-13084460D01*
X10286967Y-13084460D02*
X10277444Y-13074936D01*
X10525063Y-12893984D02*
X10544110Y-12893984D01*
X10544110Y-12893984D02*
X10563158Y-12903508D01*
X10563158Y-12903508D02*
X10572682Y-12913031D01*
X10572682Y-12913031D02*
X10582205Y-12932079D01*
X10582205Y-12932079D02*
X10591729Y-12970174D01*
X10591729Y-12970174D02*
X10591729Y-13017793D01*
X10591729Y-13017793D02*
X10582205Y-13055888D01*
X10582205Y-13055888D02*
X10572682Y-13074936D01*
X10572682Y-13074936D02*
X10563158Y-13084460D01*
X10563158Y-13084460D02*
X10544110Y-13093984D01*
X10544110Y-13093984D02*
X10525063Y-13093984D01*
X10525063Y-13093984D02*
X10506015Y-13084460D01*
X10506015Y-13084460D02*
X10496491Y-13074936D01*
X10496491Y-13074936D02*
X10486967Y-13055888D01*
X10486967Y-13055888D02*
X10477444Y-13017793D01*
X10477444Y-13017793D02*
X10477444Y-12970174D01*
X10477444Y-12970174D02*
X10486967Y-12932079D01*
X10486967Y-12932079D02*
X10496491Y-12913031D01*
X10496491Y-12913031D02*
X10506015Y-12903508D01*
X10506015Y-12903508D02*
X10525063Y-12893984D01*
X10715539Y-12893984D02*
X10734586Y-12893984D01*
X10734586Y-12893984D02*
X10753634Y-12903508D01*
X10753634Y-12903508D02*
X10763158Y-12913031D01*
X10763158Y-12913031D02*
X10772682Y-12932079D01*
X10772682Y-12932079D02*
X10782205Y-12970174D01*
X10782205Y-12970174D02*
X10782205Y-13017793D01*
X10782205Y-13017793D02*
X10772682Y-13055888D01*
X10772682Y-13055888D02*
X10763158Y-13074936D01*
X10763158Y-13074936D02*
X10753634Y-13084460D01*
X10753634Y-13084460D02*
X10734586Y-13093984D01*
X10734586Y-13093984D02*
X10715539Y-13093984D01*
X10715539Y-13093984D02*
X10696491Y-13084460D01*
X10696491Y-13084460D02*
X10686967Y-13074936D01*
X10686967Y-13074936D02*
X10677444Y-13055888D01*
X10677444Y-13055888D02*
X10667920Y-13017793D01*
X10667920Y-13017793D02*
X10667920Y-12970174D01*
X10667920Y-12970174D02*
X10677444Y-12932079D01*
X10677444Y-12932079D02*
X10686967Y-12913031D01*
X10686967Y-12913031D02*
X10696491Y-12903508D01*
X10696491Y-12903508D02*
X10715539Y-12893984D01*
X10867920Y-13093984D02*
X10867920Y-12960650D01*
X10867920Y-12979698D02*
X10877444Y-12970174D01*
X10877444Y-12970174D02*
X10896491Y-12960650D01*
X10896491Y-12960650D02*
X10925063Y-12960650D01*
X10925063Y-12960650D02*
X10944110Y-12970174D01*
X10944110Y-12970174D02*
X10953634Y-12989222D01*
X10953634Y-12989222D02*
X10953634Y-13093984D01*
X10953634Y-12989222D02*
X10963158Y-12970174D01*
X10963158Y-12970174D02*
X10982205Y-12960650D01*
X10982205Y-12960650D02*
X11010777Y-12960650D01*
X11010777Y-12960650D02*
X11029825Y-12970174D01*
X11029825Y-12970174D02*
X11039348Y-12989222D01*
X11039348Y-12989222D02*
X11039348Y-13093984D01*
X11134586Y-13093984D02*
X11134586Y-12960650D01*
X11134586Y-12979698D02*
X11144110Y-12970174D01*
X11144110Y-12970174D02*
X11163158Y-12960650D01*
X11163158Y-12960650D02*
X11191729Y-12960650D01*
X11191729Y-12960650D02*
X11210777Y-12970174D01*
X11210777Y-12970174D02*
X11220301Y-12989222D01*
X11220301Y-12989222D02*
X11220301Y-13093984D01*
X11220301Y-12989222D02*
X11229824Y-12970174D01*
X11229824Y-12970174D02*
X11248872Y-12960650D01*
X11248872Y-12960650D02*
X11277443Y-12960650D01*
X11277443Y-12960650D02*
X11296491Y-12970174D01*
X11296491Y-12970174D02*
X11306015Y-12989222D01*
X11306015Y-12989222D02*
X11306015Y-13093984D01*
X11696491Y-12884460D02*
X11525063Y-13141603D01*
X11953634Y-12893984D02*
X11972682Y-12893984D01*
X11972682Y-12893984D02*
X11991729Y-12903508D01*
X11991729Y-12903508D02*
X12001253Y-12913031D01*
X12001253Y-12913031D02*
X12010777Y-12932079D01*
X12010777Y-12932079D02*
X12020301Y-12970174D01*
X12020301Y-12970174D02*
X12020301Y-13017793D01*
X12020301Y-13017793D02*
X12010777Y-13055888D01*
X12010777Y-13055888D02*
X12001253Y-13074936D01*
X12001253Y-13074936D02*
X11991729Y-13084460D01*
X11991729Y-13084460D02*
X11972682Y-13093984D01*
X11972682Y-13093984D02*
X11953634Y-13093984D01*
X11953634Y-13093984D02*
X11934586Y-13084460D01*
X11934586Y-13084460D02*
X11925063Y-13074936D01*
X11925063Y-13074936D02*
X11915539Y-13055888D01*
X11915539Y-13055888D02*
X11906015Y-13017793D01*
X11906015Y-13017793D02*
X11906015Y-12970174D01*
X11906015Y-12970174D02*
X11915539Y-12932079D01*
X11915539Y-12932079D02*
X11925063Y-12913031D01*
X11925063Y-12913031D02*
X11934586Y-12903508D01*
X11934586Y-12903508D02*
X11953634Y-12893984D01*
X12106015Y-13074936D02*
X12115539Y-13084460D01*
X12115539Y-13084460D02*
X12106015Y-13093984D01*
X12106015Y-13093984D02*
X12096491Y-13084460D01*
X12096491Y-13084460D02*
X12106015Y-13074936D01*
X12106015Y-13074936D02*
X12106015Y-13093984D01*
X12239348Y-12893984D02*
X12258396Y-12893984D01*
X12258396Y-12893984D02*
X12277444Y-12903508D01*
X12277444Y-12903508D02*
X12286967Y-12913031D01*
X12286967Y-12913031D02*
X12296491Y-12932079D01*
X12296491Y-12932079D02*
X12306015Y-12970174D01*
X12306015Y-12970174D02*
X12306015Y-13017793D01*
X12306015Y-13017793D02*
X12296491Y-13055888D01*
X12296491Y-13055888D02*
X12286967Y-13074936D01*
X12286967Y-13074936D02*
X12277444Y-13084460D01*
X12277444Y-13084460D02*
X12258396Y-13093984D01*
X12258396Y-13093984D02*
X12239348Y-13093984D01*
X12239348Y-13093984D02*
X12220301Y-13084460D01*
X12220301Y-13084460D02*
X12210777Y-13074936D01*
X12210777Y-13074936D02*
X12201253Y-13055888D01*
X12201253Y-13055888D02*
X12191729Y-13017793D01*
X12191729Y-13017793D02*
X12191729Y-12970174D01*
X12191729Y-12970174D02*
X12201253Y-12932079D01*
X12201253Y-12932079D02*
X12210777Y-12913031D01*
X12210777Y-12913031D02*
X12220301Y-12903508D01*
X12220301Y-12903508D02*
X12239348Y-12893984D01*
X12496491Y-13093984D02*
X12382206Y-13093984D01*
X12439348Y-13093984D02*
X12439348Y-12893984D01*
X12439348Y-12893984D02*
X12420301Y-12922555D01*
X12420301Y-12922555D02*
X12401253Y-12941603D01*
X12401253Y-12941603D02*
X12382206Y-12951127D01*
X12686967Y-13093984D02*
X12572682Y-13093984D01*
X12629825Y-13093984D02*
X12629825Y-12893984D01*
X12629825Y-12893984D02*
X12610777Y-12922555D01*
X12610777Y-12922555D02*
X12591729Y-12941603D01*
X12591729Y-12941603D02*
X12572682Y-12951127D01*
X12801253Y-12979698D02*
X12782206Y-12970174D01*
X12782206Y-12970174D02*
X12772682Y-12960650D01*
X12772682Y-12960650D02*
X12763158Y-12941603D01*
X12763158Y-12941603D02*
X12763158Y-12932079D01*
X12763158Y-12932079D02*
X12772682Y-12913031D01*
X12772682Y-12913031D02*
X12782206Y-12903508D01*
X12782206Y-12903508D02*
X12801253Y-12893984D01*
X12801253Y-12893984D02*
X12839348Y-12893984D01*
X12839348Y-12893984D02*
X12858396Y-12903508D01*
X12858396Y-12903508D02*
X12867920Y-12913031D01*
X12867920Y-12913031D02*
X12877444Y-12932079D01*
X12877444Y-12932079D02*
X12877444Y-12941603D01*
X12877444Y-12941603D02*
X12867920Y-12960650D01*
X12867920Y-12960650D02*
X12858396Y-12970174D01*
X12858396Y-12970174D02*
X12839348Y-12979698D01*
X12839348Y-12979698D02*
X12801253Y-12979698D01*
X12801253Y-12979698D02*
X12782206Y-12989222D01*
X12782206Y-12989222D02*
X12772682Y-12998746D01*
X12772682Y-12998746D02*
X12763158Y-13017793D01*
X12763158Y-13017793D02*
X12763158Y-13055888D01*
X12763158Y-13055888D02*
X12772682Y-13074936D01*
X12772682Y-13074936D02*
X12782206Y-13084460D01*
X12782206Y-13084460D02*
X12801253Y-13093984D01*
X12801253Y-13093984D02*
X12839348Y-13093984D01*
X12839348Y-13093984D02*
X12858396Y-13084460D01*
X12858396Y-13084460D02*
X12867920Y-13074936D01*
X12867920Y-13074936D02*
X12877444Y-13055888D01*
X12877444Y-13055888D02*
X12877444Y-13017793D01*
X12877444Y-13017793D02*
X12867920Y-12998746D01*
X12867920Y-12998746D02*
X12858396Y-12989222D01*
X12858396Y-12989222D02*
X12839348Y-12979698D01*
X12953634Y-12893984D02*
X12953634Y-12932079D01*
X13029825Y-12893984D02*
X13029825Y-12932079D01*
X13325063Y-13170174D02*
X13315539Y-13160650D01*
X13315539Y-13160650D02*
X13296491Y-13132079D01*
X13296491Y-13132079D02*
X13286968Y-13113031D01*
X13286968Y-13113031D02*
X13277444Y-13084460D01*
X13277444Y-13084460D02*
X13267920Y-13036841D01*
X13267920Y-13036841D02*
X13267920Y-12998746D01*
X13267920Y-12998746D02*
X13277444Y-12951127D01*
X13277444Y-12951127D02*
X13286968Y-12922555D01*
X13286968Y-12922555D02*
X13296491Y-12903508D01*
X13296491Y-12903508D02*
X13315539Y-12874936D01*
X13315539Y-12874936D02*
X13325063Y-12865412D01*
X13382206Y-12893984D02*
X13515539Y-12893984D01*
X13515539Y-12893984D02*
X13429825Y-13093984D01*
X13572682Y-12893984D02*
X13696491Y-12893984D01*
X13696491Y-12893984D02*
X13629825Y-12970174D01*
X13629825Y-12970174D02*
X13658396Y-12970174D01*
X13658396Y-12970174D02*
X13677444Y-12979698D01*
X13677444Y-12979698D02*
X13686968Y-12989222D01*
X13686968Y-12989222D02*
X13696491Y-13008269D01*
X13696491Y-13008269D02*
X13696491Y-13055888D01*
X13696491Y-13055888D02*
X13686968Y-13074936D01*
X13686968Y-13074936D02*
X13677444Y-13084460D01*
X13677444Y-13084460D02*
X13658396Y-13093984D01*
X13658396Y-13093984D02*
X13601253Y-13093984D01*
X13601253Y-13093984D02*
X13582206Y-13084460D01*
X13582206Y-13084460D02*
X13572682Y-13074936D01*
X13934587Y-13093984D02*
X13934587Y-12893984D01*
X14020301Y-13093984D02*
X14020301Y-12989222D01*
X14020301Y-12989222D02*
X14010777Y-12970174D01*
X14010777Y-12970174D02*
X13991730Y-12960650D01*
X13991730Y-12960650D02*
X13963158Y-12960650D01*
X13963158Y-12960650D02*
X13944110Y-12970174D01*
X13944110Y-12970174D02*
X13934587Y-12979698D01*
X14144110Y-13093984D02*
X14125063Y-13084460D01*
X14125063Y-13084460D02*
X14115539Y-13074936D01*
X14115539Y-13074936D02*
X14106015Y-13055888D01*
X14106015Y-13055888D02*
X14106015Y-12998746D01*
X14106015Y-12998746D02*
X14115539Y-12979698D01*
X14115539Y-12979698D02*
X14125063Y-12970174D01*
X14125063Y-12970174D02*
X14144110Y-12960650D01*
X14144110Y-12960650D02*
X14172682Y-12960650D01*
X14172682Y-12960650D02*
X14191730Y-12970174D01*
X14191730Y-12970174D02*
X14201253Y-12979698D01*
X14201253Y-12979698D02*
X14210777Y-12998746D01*
X14210777Y-12998746D02*
X14210777Y-13055888D01*
X14210777Y-13055888D02*
X14201253Y-13074936D01*
X14201253Y-13074936D02*
X14191730Y-13084460D01*
X14191730Y-13084460D02*
X14172682Y-13093984D01*
X14172682Y-13093984D02*
X14144110Y-13093984D01*
X14325063Y-13093984D02*
X14306015Y-13084460D01*
X14306015Y-13084460D02*
X14296491Y-13065412D01*
X14296491Y-13065412D02*
X14296491Y-12893984D01*
X14477444Y-13084460D02*
X14458396Y-13093984D01*
X14458396Y-13093984D02*
X14420301Y-13093984D01*
X14420301Y-13093984D02*
X14401253Y-13084460D01*
X14401253Y-13084460D02*
X14391730Y-13065412D01*
X14391730Y-13065412D02*
X14391730Y-12989222D01*
X14391730Y-12989222D02*
X14401253Y-12970174D01*
X14401253Y-12970174D02*
X14420301Y-12960650D01*
X14420301Y-12960650D02*
X14458396Y-12960650D01*
X14458396Y-12960650D02*
X14477444Y-12970174D01*
X14477444Y-12970174D02*
X14486968Y-12989222D01*
X14486968Y-12989222D02*
X14486968Y-13008269D01*
X14486968Y-13008269D02*
X14391730Y-13027317D01*
X14563158Y-13084460D02*
X14582206Y-13093984D01*
X14582206Y-13093984D02*
X14620301Y-13093984D01*
X14620301Y-13093984D02*
X14639349Y-13084460D01*
X14639349Y-13084460D02*
X14648872Y-13065412D01*
X14648872Y-13065412D02*
X14648872Y-13055888D01*
X14648872Y-13055888D02*
X14639349Y-13036841D01*
X14639349Y-13036841D02*
X14620301Y-13027317D01*
X14620301Y-13027317D02*
X14591730Y-13027317D01*
X14591730Y-13027317D02*
X14572682Y-13017793D01*
X14572682Y-13017793D02*
X14563158Y-12998746D01*
X14563158Y-12998746D02*
X14563158Y-12989222D01*
X14563158Y-12989222D02*
X14572682Y-12970174D01*
X14572682Y-12970174D02*
X14591730Y-12960650D01*
X14591730Y-12960650D02*
X14620301Y-12960650D01*
X14620301Y-12960650D02*
X14639349Y-12970174D01*
X14715539Y-13170174D02*
X14725063Y-13160650D01*
X14725063Y-13160650D02*
X14744111Y-13132079D01*
X14744111Y-13132079D02*
X14753634Y-13113031D01*
X14753634Y-13113031D02*
X14763158Y-13084460D01*
X14763158Y-13084460D02*
X14772682Y-13036841D01*
X14772682Y-13036841D02*
X14772682Y-12998746D01*
X14772682Y-12998746D02*
X14763158Y-12951127D01*
X14763158Y-12951127D02*
X14753634Y-12922555D01*
X14753634Y-12922555D02*
X14744111Y-12903508D01*
X14744111Y-12903508D02*
X14725063Y-12874936D01*
X14725063Y-12874936D02*
X14715539Y-12865412D01*
D12*
X9750000Y-13266500D02*
G75*
G02*
X9680000Y-13266500I-35000J0D01*
G01*
X9680000Y-13266500D02*
G75*
G02*
X9750000Y-13266500I35000J0D01*
G01*
D11*
X10048872Y-13157984D02*
X10067920Y-13157984D01*
X10067920Y-13157984D02*
X10086967Y-13167508D01*
X10086967Y-13167508D02*
X10096491Y-13177031D01*
X10096491Y-13177031D02*
X10106015Y-13196079D01*
X10106015Y-13196079D02*
X10115539Y-13234174D01*
X10115539Y-13234174D02*
X10115539Y-13281793D01*
X10115539Y-13281793D02*
X10106015Y-13319888D01*
X10106015Y-13319888D02*
X10096491Y-13338936D01*
X10096491Y-13338936D02*
X10086967Y-13348460D01*
X10086967Y-13348460D02*
X10067920Y-13357984D01*
X10067920Y-13357984D02*
X10048872Y-13357984D01*
X10048872Y-13357984D02*
X10029824Y-13348460D01*
X10029824Y-13348460D02*
X10020301Y-13338936D01*
X10020301Y-13338936D02*
X10010777Y-13319888D01*
X10010777Y-13319888D02*
X10001253Y-13281793D01*
X10001253Y-13281793D02*
X10001253Y-13234174D01*
X10001253Y-13234174D02*
X10010777Y-13196079D01*
X10010777Y-13196079D02*
X10020301Y-13177031D01*
X10020301Y-13177031D02*
X10029824Y-13167508D01*
X10029824Y-13167508D02*
X10048872Y-13157984D01*
X10201253Y-13338936D02*
X10210777Y-13348460D01*
X10210777Y-13348460D02*
X10201253Y-13357984D01*
X10201253Y-13357984D02*
X10191729Y-13348460D01*
X10191729Y-13348460D02*
X10201253Y-13338936D01*
X10201253Y-13338936D02*
X10201253Y-13357984D01*
X10277444Y-13157984D02*
X10410777Y-13157984D01*
X10410777Y-13157984D02*
X10325063Y-13357984D01*
X10525063Y-13157984D02*
X10544110Y-13157984D01*
X10544110Y-13157984D02*
X10563158Y-13167508D01*
X10563158Y-13167508D02*
X10572682Y-13177031D01*
X10572682Y-13177031D02*
X10582205Y-13196079D01*
X10582205Y-13196079D02*
X10591729Y-13234174D01*
X10591729Y-13234174D02*
X10591729Y-13281793D01*
X10591729Y-13281793D02*
X10582205Y-13319888D01*
X10582205Y-13319888D02*
X10572682Y-13338936D01*
X10572682Y-13338936D02*
X10563158Y-13348460D01*
X10563158Y-13348460D02*
X10544110Y-13357984D01*
X10544110Y-13357984D02*
X10525063Y-13357984D01*
X10525063Y-13357984D02*
X10506015Y-13348460D01*
X10506015Y-13348460D02*
X10496491Y-13338936D01*
X10496491Y-13338936D02*
X10486967Y-13319888D01*
X10486967Y-13319888D02*
X10477444Y-13281793D01*
X10477444Y-13281793D02*
X10477444Y-13234174D01*
X10477444Y-13234174D02*
X10486967Y-13196079D01*
X10486967Y-13196079D02*
X10496491Y-13177031D01*
X10496491Y-13177031D02*
X10506015Y-13167508D01*
X10506015Y-13167508D02*
X10525063Y-13157984D01*
X10715539Y-13157984D02*
X10734586Y-13157984D01*
X10734586Y-13157984D02*
X10753634Y-13167508D01*
X10753634Y-13167508D02*
X10763158Y-13177031D01*
X10763158Y-13177031D02*
X10772682Y-13196079D01*
X10772682Y-13196079D02*
X10782205Y-13234174D01*
X10782205Y-13234174D02*
X10782205Y-13281793D01*
X10782205Y-13281793D02*
X10772682Y-13319888D01*
X10772682Y-13319888D02*
X10763158Y-13338936D01*
X10763158Y-13338936D02*
X10753634Y-13348460D01*
X10753634Y-13348460D02*
X10734586Y-13357984D01*
X10734586Y-13357984D02*
X10715539Y-13357984D01*
X10715539Y-13357984D02*
X10696491Y-13348460D01*
X10696491Y-13348460D02*
X10686967Y-13338936D01*
X10686967Y-13338936D02*
X10677444Y-13319888D01*
X10677444Y-13319888D02*
X10667920Y-13281793D01*
X10667920Y-13281793D02*
X10667920Y-13234174D01*
X10667920Y-13234174D02*
X10677444Y-13196079D01*
X10677444Y-13196079D02*
X10686967Y-13177031D01*
X10686967Y-13177031D02*
X10696491Y-13167508D01*
X10696491Y-13167508D02*
X10715539Y-13157984D01*
X10867920Y-13357984D02*
X10867920Y-13224650D01*
X10867920Y-13243698D02*
X10877444Y-13234174D01*
X10877444Y-13234174D02*
X10896491Y-13224650D01*
X10896491Y-13224650D02*
X10925063Y-13224650D01*
X10925063Y-13224650D02*
X10944110Y-13234174D01*
X10944110Y-13234174D02*
X10953634Y-13253222D01*
X10953634Y-13253222D02*
X10953634Y-13357984D01*
X10953634Y-13253222D02*
X10963158Y-13234174D01*
X10963158Y-13234174D02*
X10982205Y-13224650D01*
X10982205Y-13224650D02*
X11010777Y-13224650D01*
X11010777Y-13224650D02*
X11029825Y-13234174D01*
X11029825Y-13234174D02*
X11039348Y-13253222D01*
X11039348Y-13253222D02*
X11039348Y-13357984D01*
X11134586Y-13357984D02*
X11134586Y-13224650D01*
X11134586Y-13243698D02*
X11144110Y-13234174D01*
X11144110Y-13234174D02*
X11163158Y-13224650D01*
X11163158Y-13224650D02*
X11191729Y-13224650D01*
X11191729Y-13224650D02*
X11210777Y-13234174D01*
X11210777Y-13234174D02*
X11220301Y-13253222D01*
X11220301Y-13253222D02*
X11220301Y-13357984D01*
X11220301Y-13253222D02*
X11229824Y-13234174D01*
X11229824Y-13234174D02*
X11248872Y-13224650D01*
X11248872Y-13224650D02*
X11277443Y-13224650D01*
X11277443Y-13224650D02*
X11296491Y-13234174D01*
X11296491Y-13234174D02*
X11306015Y-13253222D01*
X11306015Y-13253222D02*
X11306015Y-13357984D01*
X11696491Y-13148460D02*
X11525063Y-13405603D01*
X11953634Y-13157984D02*
X11972682Y-13157984D01*
X11972682Y-13157984D02*
X11991729Y-13167508D01*
X11991729Y-13167508D02*
X12001253Y-13177031D01*
X12001253Y-13177031D02*
X12010777Y-13196079D01*
X12010777Y-13196079D02*
X12020301Y-13234174D01*
X12020301Y-13234174D02*
X12020301Y-13281793D01*
X12020301Y-13281793D02*
X12010777Y-13319888D01*
X12010777Y-13319888D02*
X12001253Y-13338936D01*
X12001253Y-13338936D02*
X11991729Y-13348460D01*
X11991729Y-13348460D02*
X11972682Y-13357984D01*
X11972682Y-13357984D02*
X11953634Y-13357984D01*
X11953634Y-13357984D02*
X11934586Y-13348460D01*
X11934586Y-13348460D02*
X11925063Y-13338936D01*
X11925063Y-13338936D02*
X11915539Y-13319888D01*
X11915539Y-13319888D02*
X11906015Y-13281793D01*
X11906015Y-13281793D02*
X11906015Y-13234174D01*
X11906015Y-13234174D02*
X11915539Y-13196079D01*
X11915539Y-13196079D02*
X11925063Y-13177031D01*
X11925063Y-13177031D02*
X11934586Y-13167508D01*
X11934586Y-13167508D02*
X11953634Y-13157984D01*
X12106015Y-13338936D02*
X12115539Y-13348460D01*
X12115539Y-13348460D02*
X12106015Y-13357984D01*
X12106015Y-13357984D02*
X12096491Y-13348460D01*
X12096491Y-13348460D02*
X12106015Y-13338936D01*
X12106015Y-13338936D02*
X12106015Y-13357984D01*
X12239348Y-13157984D02*
X12258396Y-13157984D01*
X12258396Y-13157984D02*
X12277444Y-13167508D01*
X12277444Y-13167508D02*
X12286967Y-13177031D01*
X12286967Y-13177031D02*
X12296491Y-13196079D01*
X12296491Y-13196079D02*
X12306015Y-13234174D01*
X12306015Y-13234174D02*
X12306015Y-13281793D01*
X12306015Y-13281793D02*
X12296491Y-13319888D01*
X12296491Y-13319888D02*
X12286967Y-13338936D01*
X12286967Y-13338936D02*
X12277444Y-13348460D01*
X12277444Y-13348460D02*
X12258396Y-13357984D01*
X12258396Y-13357984D02*
X12239348Y-13357984D01*
X12239348Y-13357984D02*
X12220301Y-13348460D01*
X12220301Y-13348460D02*
X12210777Y-13338936D01*
X12210777Y-13338936D02*
X12201253Y-13319888D01*
X12201253Y-13319888D02*
X12191729Y-13281793D01*
X12191729Y-13281793D02*
X12191729Y-13234174D01*
X12191729Y-13234174D02*
X12201253Y-13196079D01*
X12201253Y-13196079D02*
X12210777Y-13177031D01*
X12210777Y-13177031D02*
X12220301Y-13167508D01*
X12220301Y-13167508D02*
X12239348Y-13157984D01*
X12382206Y-13177031D02*
X12391729Y-13167508D01*
X12391729Y-13167508D02*
X12410777Y-13157984D01*
X12410777Y-13157984D02*
X12458396Y-13157984D01*
X12458396Y-13157984D02*
X12477444Y-13167508D01*
X12477444Y-13167508D02*
X12486967Y-13177031D01*
X12486967Y-13177031D02*
X12496491Y-13196079D01*
X12496491Y-13196079D02*
X12496491Y-13215127D01*
X12496491Y-13215127D02*
X12486967Y-13243698D01*
X12486967Y-13243698D02*
X12372682Y-13357984D01*
X12372682Y-13357984D02*
X12496491Y-13357984D01*
X12563158Y-13157984D02*
X12696491Y-13157984D01*
X12696491Y-13157984D02*
X12610777Y-13357984D01*
X12858396Y-13157984D02*
X12820301Y-13157984D01*
X12820301Y-13157984D02*
X12801253Y-13167508D01*
X12801253Y-13167508D02*
X12791729Y-13177031D01*
X12791729Y-13177031D02*
X12772682Y-13205603D01*
X12772682Y-13205603D02*
X12763158Y-13243698D01*
X12763158Y-13243698D02*
X12763158Y-13319888D01*
X12763158Y-13319888D02*
X12772682Y-13338936D01*
X12772682Y-13338936D02*
X12782206Y-13348460D01*
X12782206Y-13348460D02*
X12801253Y-13357984D01*
X12801253Y-13357984D02*
X12839348Y-13357984D01*
X12839348Y-13357984D02*
X12858396Y-13348460D01*
X12858396Y-13348460D02*
X12867920Y-13338936D01*
X12867920Y-13338936D02*
X12877444Y-13319888D01*
X12877444Y-13319888D02*
X12877444Y-13272269D01*
X12877444Y-13272269D02*
X12867920Y-13253222D01*
X12867920Y-13253222D02*
X12858396Y-13243698D01*
X12858396Y-13243698D02*
X12839348Y-13234174D01*
X12839348Y-13234174D02*
X12801253Y-13234174D01*
X12801253Y-13234174D02*
X12782206Y-13243698D01*
X12782206Y-13243698D02*
X12772682Y-13253222D01*
X12772682Y-13253222D02*
X12763158Y-13272269D01*
X12953634Y-13157984D02*
X12953634Y-13196079D01*
X13029825Y-13157984D02*
X13029825Y-13196079D01*
X13325063Y-13434174D02*
X13315539Y-13424650D01*
X13315539Y-13424650D02*
X13296491Y-13396079D01*
X13296491Y-13396079D02*
X13286968Y-13377031D01*
X13286968Y-13377031D02*
X13277444Y-13348460D01*
X13277444Y-13348460D02*
X13267920Y-13300841D01*
X13267920Y-13300841D02*
X13267920Y-13262746D01*
X13267920Y-13262746D02*
X13277444Y-13215127D01*
X13277444Y-13215127D02*
X13286968Y-13186555D01*
X13286968Y-13186555D02*
X13296491Y-13167508D01*
X13296491Y-13167508D02*
X13315539Y-13138936D01*
X13315539Y-13138936D02*
X13325063Y-13129412D01*
X13410777Y-13357984D02*
X13448872Y-13357984D01*
X13448872Y-13357984D02*
X13467920Y-13348460D01*
X13467920Y-13348460D02*
X13477444Y-13338936D01*
X13477444Y-13338936D02*
X13496491Y-13310365D01*
X13496491Y-13310365D02*
X13506015Y-13272269D01*
X13506015Y-13272269D02*
X13506015Y-13196079D01*
X13506015Y-13196079D02*
X13496491Y-13177031D01*
X13496491Y-13177031D02*
X13486968Y-13167508D01*
X13486968Y-13167508D02*
X13467920Y-13157984D01*
X13467920Y-13157984D02*
X13429825Y-13157984D01*
X13429825Y-13157984D02*
X13410777Y-13167508D01*
X13410777Y-13167508D02*
X13401253Y-13177031D01*
X13401253Y-13177031D02*
X13391729Y-13196079D01*
X13391729Y-13196079D02*
X13391729Y-13243698D01*
X13391729Y-13243698D02*
X13401253Y-13262746D01*
X13401253Y-13262746D02*
X13410777Y-13272269D01*
X13410777Y-13272269D02*
X13429825Y-13281793D01*
X13429825Y-13281793D02*
X13467920Y-13281793D01*
X13467920Y-13281793D02*
X13486968Y-13272269D01*
X13486968Y-13272269D02*
X13496491Y-13262746D01*
X13496491Y-13262746D02*
X13506015Y-13243698D01*
X13744110Y-13357984D02*
X13744110Y-13157984D01*
X13829825Y-13357984D02*
X13829825Y-13253222D01*
X13829825Y-13253222D02*
X13820301Y-13234174D01*
X13820301Y-13234174D02*
X13801253Y-13224650D01*
X13801253Y-13224650D02*
X13772682Y-13224650D01*
X13772682Y-13224650D02*
X13753634Y-13234174D01*
X13753634Y-13234174D02*
X13744110Y-13243698D01*
X13953634Y-13357984D02*
X13934587Y-13348460D01*
X13934587Y-13348460D02*
X13925063Y-13338936D01*
X13925063Y-13338936D02*
X13915539Y-13319888D01*
X13915539Y-13319888D02*
X13915539Y-13262746D01*
X13915539Y-13262746D02*
X13925063Y-13243698D01*
X13925063Y-13243698D02*
X13934587Y-13234174D01*
X13934587Y-13234174D02*
X13953634Y-13224650D01*
X13953634Y-13224650D02*
X13982206Y-13224650D01*
X13982206Y-13224650D02*
X14001253Y-13234174D01*
X14001253Y-13234174D02*
X14010777Y-13243698D01*
X14010777Y-13243698D02*
X14020301Y-13262746D01*
X14020301Y-13262746D02*
X14020301Y-13319888D01*
X14020301Y-13319888D02*
X14010777Y-13338936D01*
X14010777Y-13338936D02*
X14001253Y-13348460D01*
X14001253Y-13348460D02*
X13982206Y-13357984D01*
X13982206Y-13357984D02*
X13953634Y-13357984D01*
X14134587Y-13357984D02*
X14115539Y-13348460D01*
X14115539Y-13348460D02*
X14106015Y-13329412D01*
X14106015Y-13329412D02*
X14106015Y-13157984D01*
X14286968Y-13348460D02*
X14267920Y-13357984D01*
X14267920Y-13357984D02*
X14229825Y-13357984D01*
X14229825Y-13357984D02*
X14210777Y-13348460D01*
X14210777Y-13348460D02*
X14201253Y-13329412D01*
X14201253Y-13329412D02*
X14201253Y-13253222D01*
X14201253Y-13253222D02*
X14210777Y-13234174D01*
X14210777Y-13234174D02*
X14229825Y-13224650D01*
X14229825Y-13224650D02*
X14267920Y-13224650D01*
X14267920Y-13224650D02*
X14286968Y-13234174D01*
X14286968Y-13234174D02*
X14296491Y-13253222D01*
X14296491Y-13253222D02*
X14296491Y-13272269D01*
X14296491Y-13272269D02*
X14201253Y-13291317D01*
X14372682Y-13348460D02*
X14391730Y-13357984D01*
X14391730Y-13357984D02*
X14429825Y-13357984D01*
X14429825Y-13357984D02*
X14448872Y-13348460D01*
X14448872Y-13348460D02*
X14458396Y-13329412D01*
X14458396Y-13329412D02*
X14458396Y-13319888D01*
X14458396Y-13319888D02*
X14448872Y-13300841D01*
X14448872Y-13300841D02*
X14429825Y-13291317D01*
X14429825Y-13291317D02*
X14401253Y-13291317D01*
X14401253Y-13291317D02*
X14382206Y-13281793D01*
X14382206Y-13281793D02*
X14372682Y-13262746D01*
X14372682Y-13262746D02*
X14372682Y-13253222D01*
X14372682Y-13253222D02*
X14382206Y-13234174D01*
X14382206Y-13234174D02*
X14401253Y-13224650D01*
X14401253Y-13224650D02*
X14429825Y-13224650D01*
X14429825Y-13224650D02*
X14448872Y-13234174D01*
X14525063Y-13434174D02*
X14534587Y-13424650D01*
X14534587Y-13424650D02*
X14553634Y-13396079D01*
X14553634Y-13396079D02*
X14563158Y-13377031D01*
X14563158Y-13377031D02*
X14572682Y-13348460D01*
X14572682Y-13348460D02*
X14582206Y-13300841D01*
X14582206Y-13300841D02*
X14582206Y-13262746D01*
X14582206Y-13262746D02*
X14572682Y-13215127D01*
X14572682Y-13215127D02*
X14563158Y-13186555D01*
X14563158Y-13186555D02*
X14553634Y-13167508D01*
X14553634Y-13167508D02*
X14534587Y-13138936D01*
X14534587Y-13138936D02*
X14525063Y-13129412D01*
M02*
