%TF.GenerationSoftware,KiCad,Pcbnew,8.0.3-8.0.3-0~ubuntu22.04.1*%
%TF.CreationDate,2024-06-29T20:27:06+10:00*%
%TF.ProjectId,lo_cate_pcb,6c6f5f63-6174-4655-9f70-63622e6b6963,rev?*%
%TF.SameCoordinates,Original*%
%TF.FileFunction,Drillmap*%
%TF.FilePolarity,Positive*%
%FSLAX45Y45*%
G04 Gerber Fmt 4.5, Leading zero omitted, Abs format (unit mm)*
G04 Created by KiCad (PCBNEW 8.0.3-8.0.3-0~ubuntu22.04.1) date 2024-06-29 20:27:06*
%MOMM*%
%LPD*%
G01*
G04 APERTURE LIST*
%ADD10C,0.050000*%
%ADD11C,0.200000*%
%ADD12C,0.100000*%
%ADD13C,0.320000*%
G04 APERTURE END LIST*
D10*
X9752500Y-7610000D02*
X9752500Y-12110000D01*
X19752500Y-12110000D02*
G75*
G02*
X19502500Y-12360000I-250000J0D01*
G01*
X10002500Y-12360000D02*
G75*
G02*
X9752500Y-12110000I0J250000D01*
G01*
X9752500Y-7610000D02*
G75*
G02*
X10002500Y-7360000I250000J0D01*
G01*
X19752500Y-7610000D02*
X19752500Y-12110000D01*
X19502500Y-7360000D02*
G75*
G02*
X19752500Y-7610000I0J-250000D01*
G01*
X10002500Y-7360000D02*
X19502500Y-7360000D01*
X10002500Y-12360000D02*
X19502500Y-12360000D01*
D11*
D12*
X10237500Y-7953000D02*
X10327500Y-8043000D01*
X10327500Y-7953000D02*
X10237500Y-8043000D01*
X10237500Y-8393000D02*
X10327500Y-8483000D01*
X10327500Y-8393000D02*
X10237500Y-8483000D01*
D13*
X10362500Y-9350000D02*
G75*
G02*
X10042500Y-9350000I-160000J0D01*
G01*
X10042500Y-9350000D02*
G75*
G02*
X10362500Y-9350000I160000J0D01*
G01*
X10362500Y-11910000D02*
G75*
G02*
X10042500Y-11910000I-160000J0D01*
G01*
X10042500Y-11910000D02*
G75*
G02*
X10362500Y-11910000I160000J0D01*
G01*
X18062500Y-11960000D02*
G75*
G02*
X17742500Y-11960000I-160000J0D01*
G01*
X17742500Y-11960000D02*
G75*
G02*
X18062500Y-11960000I160000J0D01*
G01*
X19462500Y-7810000D02*
G75*
G02*
X19142500Y-7810000I-160000J0D01*
G01*
X19142500Y-7810000D02*
G75*
G02*
X19462500Y-7810000I160000J0D01*
G01*
D11*
X10010777Y-12673984D02*
X10010777Y-12473984D01*
X10010777Y-12473984D02*
X10058396Y-12473984D01*
X10058396Y-12473984D02*
X10086967Y-12483508D01*
X10086967Y-12483508D02*
X10106015Y-12502555D01*
X10106015Y-12502555D02*
X10115539Y-12521603D01*
X10115539Y-12521603D02*
X10125063Y-12559698D01*
X10125063Y-12559698D02*
X10125063Y-12588269D01*
X10125063Y-12588269D02*
X10115539Y-12626365D01*
X10115539Y-12626365D02*
X10106015Y-12645412D01*
X10106015Y-12645412D02*
X10086967Y-12664460D01*
X10086967Y-12664460D02*
X10058396Y-12673984D01*
X10058396Y-12673984D02*
X10010777Y-12673984D01*
X10210777Y-12673984D02*
X10210777Y-12540650D01*
X10210777Y-12578746D02*
X10220301Y-12559698D01*
X10220301Y-12559698D02*
X10229824Y-12550174D01*
X10229824Y-12550174D02*
X10248872Y-12540650D01*
X10248872Y-12540650D02*
X10267920Y-12540650D01*
X10334586Y-12673984D02*
X10334586Y-12540650D01*
X10334586Y-12473984D02*
X10325063Y-12483508D01*
X10325063Y-12483508D02*
X10334586Y-12493031D01*
X10334586Y-12493031D02*
X10344110Y-12483508D01*
X10344110Y-12483508D02*
X10334586Y-12473984D01*
X10334586Y-12473984D02*
X10334586Y-12493031D01*
X10458396Y-12673984D02*
X10439348Y-12664460D01*
X10439348Y-12664460D02*
X10429824Y-12645412D01*
X10429824Y-12645412D02*
X10429824Y-12473984D01*
X10563158Y-12673984D02*
X10544110Y-12664460D01*
X10544110Y-12664460D02*
X10534586Y-12645412D01*
X10534586Y-12645412D02*
X10534586Y-12473984D01*
X10791729Y-12673984D02*
X10791729Y-12473984D01*
X10791729Y-12473984D02*
X10858396Y-12616841D01*
X10858396Y-12616841D02*
X10925063Y-12473984D01*
X10925063Y-12473984D02*
X10925063Y-12673984D01*
X11106015Y-12673984D02*
X11106015Y-12569222D01*
X11106015Y-12569222D02*
X11096491Y-12550174D01*
X11096491Y-12550174D02*
X11077444Y-12540650D01*
X11077444Y-12540650D02*
X11039348Y-12540650D01*
X11039348Y-12540650D02*
X11020301Y-12550174D01*
X11106015Y-12664460D02*
X11086967Y-12673984D01*
X11086967Y-12673984D02*
X11039348Y-12673984D01*
X11039348Y-12673984D02*
X11020301Y-12664460D01*
X11020301Y-12664460D02*
X11010777Y-12645412D01*
X11010777Y-12645412D02*
X11010777Y-12626365D01*
X11010777Y-12626365D02*
X11020301Y-12607317D01*
X11020301Y-12607317D02*
X11039348Y-12597793D01*
X11039348Y-12597793D02*
X11086967Y-12597793D01*
X11086967Y-12597793D02*
X11106015Y-12588269D01*
X11201253Y-12540650D02*
X11201253Y-12740650D01*
X11201253Y-12550174D02*
X11220301Y-12540650D01*
X11220301Y-12540650D02*
X11258396Y-12540650D01*
X11258396Y-12540650D02*
X11277443Y-12550174D01*
X11277443Y-12550174D02*
X11286967Y-12559698D01*
X11286967Y-12559698D02*
X11296491Y-12578746D01*
X11296491Y-12578746D02*
X11296491Y-12635888D01*
X11296491Y-12635888D02*
X11286967Y-12654936D01*
X11286967Y-12654936D02*
X11277443Y-12664460D01*
X11277443Y-12664460D02*
X11258396Y-12673984D01*
X11258396Y-12673984D02*
X11220301Y-12673984D01*
X11220301Y-12673984D02*
X11201253Y-12664460D01*
X11382205Y-12654936D02*
X11391729Y-12664460D01*
X11391729Y-12664460D02*
X11382205Y-12673984D01*
X11382205Y-12673984D02*
X11372682Y-12664460D01*
X11372682Y-12664460D02*
X11382205Y-12654936D01*
X11382205Y-12654936D02*
X11382205Y-12673984D01*
X11382205Y-12550174D02*
X11391729Y-12559698D01*
X11391729Y-12559698D02*
X11382205Y-12569222D01*
X11382205Y-12569222D02*
X11372682Y-12559698D01*
X11372682Y-12559698D02*
X11382205Y-12550174D01*
X11382205Y-12550174D02*
X11382205Y-12569222D01*
D12*
X9660000Y-12957500D02*
X9750000Y-13047500D01*
X9750000Y-12957500D02*
X9660000Y-13047500D01*
D11*
X10048872Y-12893984D02*
X10067920Y-12893984D01*
X10067920Y-12893984D02*
X10086967Y-12903508D01*
X10086967Y-12903508D02*
X10096491Y-12913031D01*
X10096491Y-12913031D02*
X10106015Y-12932079D01*
X10106015Y-12932079D02*
X10115539Y-12970174D01*
X10115539Y-12970174D02*
X10115539Y-13017793D01*
X10115539Y-13017793D02*
X10106015Y-13055888D01*
X10106015Y-13055888D02*
X10096491Y-13074936D01*
X10096491Y-13074936D02*
X10086967Y-13084460D01*
X10086967Y-13084460D02*
X10067920Y-13093984D01*
X10067920Y-13093984D02*
X10048872Y-13093984D01*
X10048872Y-13093984D02*
X10029824Y-13084460D01*
X10029824Y-13084460D02*
X10020301Y-13074936D01*
X10020301Y-13074936D02*
X10010777Y-13055888D01*
X10010777Y-13055888D02*
X10001253Y-13017793D01*
X10001253Y-13017793D02*
X10001253Y-12970174D01*
X10001253Y-12970174D02*
X10010777Y-12932079D01*
X10010777Y-12932079D02*
X10020301Y-12913031D01*
X10020301Y-12913031D02*
X10029824Y-12903508D01*
X10029824Y-12903508D02*
X10048872Y-12893984D01*
X10201253Y-13074936D02*
X10210777Y-13084460D01*
X10210777Y-13084460D02*
X10201253Y-13093984D01*
X10201253Y-13093984D02*
X10191729Y-13084460D01*
X10191729Y-13084460D02*
X10201253Y-13074936D01*
X10201253Y-13074936D02*
X10201253Y-13093984D01*
X10306015Y-13093984D02*
X10344110Y-13093984D01*
X10344110Y-13093984D02*
X10363158Y-13084460D01*
X10363158Y-13084460D02*
X10372682Y-13074936D01*
X10372682Y-13074936D02*
X10391729Y-13046365D01*
X10391729Y-13046365D02*
X10401253Y-13008269D01*
X10401253Y-13008269D02*
X10401253Y-12932079D01*
X10401253Y-12932079D02*
X10391729Y-12913031D01*
X10391729Y-12913031D02*
X10382205Y-12903508D01*
X10382205Y-12903508D02*
X10363158Y-12893984D01*
X10363158Y-12893984D02*
X10325063Y-12893984D01*
X10325063Y-12893984D02*
X10306015Y-12903508D01*
X10306015Y-12903508D02*
X10296491Y-12913031D01*
X10296491Y-12913031D02*
X10286967Y-12932079D01*
X10286967Y-12932079D02*
X10286967Y-12979698D01*
X10286967Y-12979698D02*
X10296491Y-12998746D01*
X10296491Y-12998746D02*
X10306015Y-13008269D01*
X10306015Y-13008269D02*
X10325063Y-13017793D01*
X10325063Y-13017793D02*
X10363158Y-13017793D01*
X10363158Y-13017793D02*
X10382205Y-13008269D01*
X10382205Y-13008269D02*
X10391729Y-12998746D01*
X10391729Y-12998746D02*
X10401253Y-12979698D01*
X10525063Y-12893984D02*
X10544110Y-12893984D01*
X10544110Y-12893984D02*
X10563158Y-12903508D01*
X10563158Y-12903508D02*
X10572682Y-12913031D01*
X10572682Y-12913031D02*
X10582205Y-12932079D01*
X10582205Y-12932079D02*
X10591729Y-12970174D01*
X10591729Y-12970174D02*
X10591729Y-13017793D01*
X10591729Y-13017793D02*
X10582205Y-13055888D01*
X10582205Y-13055888D02*
X10572682Y-13074936D01*
X10572682Y-13074936D02*
X10563158Y-13084460D01*
X10563158Y-13084460D02*
X10544110Y-13093984D01*
X10544110Y-13093984D02*
X10525063Y-13093984D01*
X10525063Y-13093984D02*
X10506015Y-13084460D01*
X10506015Y-13084460D02*
X10496491Y-13074936D01*
X10496491Y-13074936D02*
X10486967Y-13055888D01*
X10486967Y-13055888D02*
X10477444Y-13017793D01*
X10477444Y-13017793D02*
X10477444Y-12970174D01*
X10477444Y-12970174D02*
X10486967Y-12932079D01*
X10486967Y-12932079D02*
X10496491Y-12913031D01*
X10496491Y-12913031D02*
X10506015Y-12903508D01*
X10506015Y-12903508D02*
X10525063Y-12893984D01*
X10715539Y-12893984D02*
X10734586Y-12893984D01*
X10734586Y-12893984D02*
X10753634Y-12903508D01*
X10753634Y-12903508D02*
X10763158Y-12913031D01*
X10763158Y-12913031D02*
X10772682Y-12932079D01*
X10772682Y-12932079D02*
X10782205Y-12970174D01*
X10782205Y-12970174D02*
X10782205Y-13017793D01*
X10782205Y-13017793D02*
X10772682Y-13055888D01*
X10772682Y-13055888D02*
X10763158Y-13074936D01*
X10763158Y-13074936D02*
X10753634Y-13084460D01*
X10753634Y-13084460D02*
X10734586Y-13093984D01*
X10734586Y-13093984D02*
X10715539Y-13093984D01*
X10715539Y-13093984D02*
X10696491Y-13084460D01*
X10696491Y-13084460D02*
X10686967Y-13074936D01*
X10686967Y-13074936D02*
X10677444Y-13055888D01*
X10677444Y-13055888D02*
X10667920Y-13017793D01*
X10667920Y-13017793D02*
X10667920Y-12970174D01*
X10667920Y-12970174D02*
X10677444Y-12932079D01*
X10677444Y-12932079D02*
X10686967Y-12913031D01*
X10686967Y-12913031D02*
X10696491Y-12903508D01*
X10696491Y-12903508D02*
X10715539Y-12893984D01*
X10867920Y-13093984D02*
X10867920Y-12960650D01*
X10867920Y-12979698D02*
X10877444Y-12970174D01*
X10877444Y-12970174D02*
X10896491Y-12960650D01*
X10896491Y-12960650D02*
X10925063Y-12960650D01*
X10925063Y-12960650D02*
X10944110Y-12970174D01*
X10944110Y-12970174D02*
X10953634Y-12989222D01*
X10953634Y-12989222D02*
X10953634Y-13093984D01*
X10953634Y-12989222D02*
X10963158Y-12970174D01*
X10963158Y-12970174D02*
X10982205Y-12960650D01*
X10982205Y-12960650D02*
X11010777Y-12960650D01*
X11010777Y-12960650D02*
X11029825Y-12970174D01*
X11029825Y-12970174D02*
X11039348Y-12989222D01*
X11039348Y-12989222D02*
X11039348Y-13093984D01*
X11134586Y-13093984D02*
X11134586Y-12960650D01*
X11134586Y-12979698D02*
X11144110Y-12970174D01*
X11144110Y-12970174D02*
X11163158Y-12960650D01*
X11163158Y-12960650D02*
X11191729Y-12960650D01*
X11191729Y-12960650D02*
X11210777Y-12970174D01*
X11210777Y-12970174D02*
X11220301Y-12989222D01*
X11220301Y-12989222D02*
X11220301Y-13093984D01*
X11220301Y-12989222D02*
X11229824Y-12970174D01*
X11229824Y-12970174D02*
X11248872Y-12960650D01*
X11248872Y-12960650D02*
X11277443Y-12960650D01*
X11277443Y-12960650D02*
X11296491Y-12970174D01*
X11296491Y-12970174D02*
X11306015Y-12989222D01*
X11306015Y-12989222D02*
X11306015Y-13093984D01*
X11696491Y-12884460D02*
X11525063Y-13141603D01*
X11953634Y-12893984D02*
X11972682Y-12893984D01*
X11972682Y-12893984D02*
X11991729Y-12903508D01*
X11991729Y-12903508D02*
X12001253Y-12913031D01*
X12001253Y-12913031D02*
X12010777Y-12932079D01*
X12010777Y-12932079D02*
X12020301Y-12970174D01*
X12020301Y-12970174D02*
X12020301Y-13017793D01*
X12020301Y-13017793D02*
X12010777Y-13055888D01*
X12010777Y-13055888D02*
X12001253Y-13074936D01*
X12001253Y-13074936D02*
X11991729Y-13084460D01*
X11991729Y-13084460D02*
X11972682Y-13093984D01*
X11972682Y-13093984D02*
X11953634Y-13093984D01*
X11953634Y-13093984D02*
X11934586Y-13084460D01*
X11934586Y-13084460D02*
X11925063Y-13074936D01*
X11925063Y-13074936D02*
X11915539Y-13055888D01*
X11915539Y-13055888D02*
X11906015Y-13017793D01*
X11906015Y-13017793D02*
X11906015Y-12970174D01*
X11906015Y-12970174D02*
X11915539Y-12932079D01*
X11915539Y-12932079D02*
X11925063Y-12913031D01*
X11925063Y-12913031D02*
X11934586Y-12903508D01*
X11934586Y-12903508D02*
X11953634Y-12893984D01*
X12106015Y-13074936D02*
X12115539Y-13084460D01*
X12115539Y-13084460D02*
X12106015Y-13093984D01*
X12106015Y-13093984D02*
X12096491Y-13084460D01*
X12096491Y-13084460D02*
X12106015Y-13074936D01*
X12106015Y-13074936D02*
X12106015Y-13093984D01*
X12239348Y-12893984D02*
X12258396Y-12893984D01*
X12258396Y-12893984D02*
X12277444Y-12903508D01*
X12277444Y-12903508D02*
X12286967Y-12913031D01*
X12286967Y-12913031D02*
X12296491Y-12932079D01*
X12296491Y-12932079D02*
X12306015Y-12970174D01*
X12306015Y-12970174D02*
X12306015Y-13017793D01*
X12306015Y-13017793D02*
X12296491Y-13055888D01*
X12296491Y-13055888D02*
X12286967Y-13074936D01*
X12286967Y-13074936D02*
X12277444Y-13084460D01*
X12277444Y-13084460D02*
X12258396Y-13093984D01*
X12258396Y-13093984D02*
X12239348Y-13093984D01*
X12239348Y-13093984D02*
X12220301Y-13084460D01*
X12220301Y-13084460D02*
X12210777Y-13074936D01*
X12210777Y-13074936D02*
X12201253Y-13055888D01*
X12201253Y-13055888D02*
X12191729Y-13017793D01*
X12191729Y-13017793D02*
X12191729Y-12970174D01*
X12191729Y-12970174D02*
X12201253Y-12932079D01*
X12201253Y-12932079D02*
X12210777Y-12913031D01*
X12210777Y-12913031D02*
X12220301Y-12903508D01*
X12220301Y-12903508D02*
X12239348Y-12893984D01*
X12372682Y-12893984D02*
X12496491Y-12893984D01*
X12496491Y-12893984D02*
X12429825Y-12970174D01*
X12429825Y-12970174D02*
X12458396Y-12970174D01*
X12458396Y-12970174D02*
X12477444Y-12979698D01*
X12477444Y-12979698D02*
X12486967Y-12989222D01*
X12486967Y-12989222D02*
X12496491Y-13008269D01*
X12496491Y-13008269D02*
X12496491Y-13055888D01*
X12496491Y-13055888D02*
X12486967Y-13074936D01*
X12486967Y-13074936D02*
X12477444Y-13084460D01*
X12477444Y-13084460D02*
X12458396Y-13093984D01*
X12458396Y-13093984D02*
X12401253Y-13093984D01*
X12401253Y-13093984D02*
X12382206Y-13084460D01*
X12382206Y-13084460D02*
X12372682Y-13074936D01*
X12677444Y-12893984D02*
X12582206Y-12893984D01*
X12582206Y-12893984D02*
X12572682Y-12989222D01*
X12572682Y-12989222D02*
X12582206Y-12979698D01*
X12582206Y-12979698D02*
X12601253Y-12970174D01*
X12601253Y-12970174D02*
X12648872Y-12970174D01*
X12648872Y-12970174D02*
X12667920Y-12979698D01*
X12667920Y-12979698D02*
X12677444Y-12989222D01*
X12677444Y-12989222D02*
X12686967Y-13008269D01*
X12686967Y-13008269D02*
X12686967Y-13055888D01*
X12686967Y-13055888D02*
X12677444Y-13074936D01*
X12677444Y-13074936D02*
X12667920Y-13084460D01*
X12667920Y-13084460D02*
X12648872Y-13093984D01*
X12648872Y-13093984D02*
X12601253Y-13093984D01*
X12601253Y-13093984D02*
X12582206Y-13084460D01*
X12582206Y-13084460D02*
X12572682Y-13074936D01*
X12858396Y-12960650D02*
X12858396Y-13093984D01*
X12810777Y-12884460D02*
X12763158Y-13027317D01*
X12763158Y-13027317D02*
X12886967Y-13027317D01*
X12953634Y-12893984D02*
X12953634Y-12932079D01*
X13029825Y-12893984D02*
X13029825Y-12932079D01*
X13325063Y-13170174D02*
X13315539Y-13160650D01*
X13315539Y-13160650D02*
X13296491Y-13132079D01*
X13296491Y-13132079D02*
X13286968Y-13113031D01*
X13286968Y-13113031D02*
X13277444Y-13084460D01*
X13277444Y-13084460D02*
X13267920Y-13036841D01*
X13267920Y-13036841D02*
X13267920Y-12998746D01*
X13267920Y-12998746D02*
X13277444Y-12951127D01*
X13277444Y-12951127D02*
X13286968Y-12922555D01*
X13286968Y-12922555D02*
X13296491Y-12903508D01*
X13296491Y-12903508D02*
X13315539Y-12874936D01*
X13315539Y-12874936D02*
X13325063Y-12865412D01*
X13391729Y-12913031D02*
X13401253Y-12903508D01*
X13401253Y-12903508D02*
X13420301Y-12893984D01*
X13420301Y-12893984D02*
X13467920Y-12893984D01*
X13467920Y-12893984D02*
X13486968Y-12903508D01*
X13486968Y-12903508D02*
X13496491Y-12913031D01*
X13496491Y-12913031D02*
X13506015Y-12932079D01*
X13506015Y-12932079D02*
X13506015Y-12951127D01*
X13506015Y-12951127D02*
X13496491Y-12979698D01*
X13496491Y-12979698D02*
X13382206Y-13093984D01*
X13382206Y-13093984D02*
X13506015Y-13093984D01*
X13744110Y-13093984D02*
X13744110Y-12893984D01*
X13829825Y-13093984D02*
X13829825Y-12989222D01*
X13829825Y-12989222D02*
X13820301Y-12970174D01*
X13820301Y-12970174D02*
X13801253Y-12960650D01*
X13801253Y-12960650D02*
X13772682Y-12960650D01*
X13772682Y-12960650D02*
X13753634Y-12970174D01*
X13753634Y-12970174D02*
X13744110Y-12979698D01*
X13953634Y-13093984D02*
X13934587Y-13084460D01*
X13934587Y-13084460D02*
X13925063Y-13074936D01*
X13925063Y-13074936D02*
X13915539Y-13055888D01*
X13915539Y-13055888D02*
X13915539Y-12998746D01*
X13915539Y-12998746D02*
X13925063Y-12979698D01*
X13925063Y-12979698D02*
X13934587Y-12970174D01*
X13934587Y-12970174D02*
X13953634Y-12960650D01*
X13953634Y-12960650D02*
X13982206Y-12960650D01*
X13982206Y-12960650D02*
X14001253Y-12970174D01*
X14001253Y-12970174D02*
X14010777Y-12979698D01*
X14010777Y-12979698D02*
X14020301Y-12998746D01*
X14020301Y-12998746D02*
X14020301Y-13055888D01*
X14020301Y-13055888D02*
X14010777Y-13074936D01*
X14010777Y-13074936D02*
X14001253Y-13084460D01*
X14001253Y-13084460D02*
X13982206Y-13093984D01*
X13982206Y-13093984D02*
X13953634Y-13093984D01*
X14134587Y-13093984D02*
X14115539Y-13084460D01*
X14115539Y-13084460D02*
X14106015Y-13065412D01*
X14106015Y-13065412D02*
X14106015Y-12893984D01*
X14286968Y-13084460D02*
X14267920Y-13093984D01*
X14267920Y-13093984D02*
X14229825Y-13093984D01*
X14229825Y-13093984D02*
X14210777Y-13084460D01*
X14210777Y-13084460D02*
X14201253Y-13065412D01*
X14201253Y-13065412D02*
X14201253Y-12989222D01*
X14201253Y-12989222D02*
X14210777Y-12970174D01*
X14210777Y-12970174D02*
X14229825Y-12960650D01*
X14229825Y-12960650D02*
X14267920Y-12960650D01*
X14267920Y-12960650D02*
X14286968Y-12970174D01*
X14286968Y-12970174D02*
X14296491Y-12989222D01*
X14296491Y-12989222D02*
X14296491Y-13008269D01*
X14296491Y-13008269D02*
X14201253Y-13027317D01*
X14372682Y-13084460D02*
X14391730Y-13093984D01*
X14391730Y-13093984D02*
X14429825Y-13093984D01*
X14429825Y-13093984D02*
X14448872Y-13084460D01*
X14448872Y-13084460D02*
X14458396Y-13065412D01*
X14458396Y-13065412D02*
X14458396Y-13055888D01*
X14458396Y-13055888D02*
X14448872Y-13036841D01*
X14448872Y-13036841D02*
X14429825Y-13027317D01*
X14429825Y-13027317D02*
X14401253Y-13027317D01*
X14401253Y-13027317D02*
X14382206Y-13017793D01*
X14382206Y-13017793D02*
X14372682Y-12998746D01*
X14372682Y-12998746D02*
X14372682Y-12989222D01*
X14372682Y-12989222D02*
X14382206Y-12970174D01*
X14382206Y-12970174D02*
X14401253Y-12960650D01*
X14401253Y-12960650D02*
X14429825Y-12960650D01*
X14429825Y-12960650D02*
X14448872Y-12970174D01*
X14525063Y-13170174D02*
X14534587Y-13160650D01*
X14534587Y-13160650D02*
X14553634Y-13132079D01*
X14553634Y-13132079D02*
X14563158Y-13113031D01*
X14563158Y-13113031D02*
X14572682Y-13084460D01*
X14572682Y-13084460D02*
X14582206Y-13036841D01*
X14582206Y-13036841D02*
X14582206Y-12998746D01*
X14582206Y-12998746D02*
X14572682Y-12951127D01*
X14572682Y-12951127D02*
X14563158Y-12922555D01*
X14563158Y-12922555D02*
X14553634Y-12903508D01*
X14553634Y-12903508D02*
X14534587Y-12874936D01*
X14534587Y-12874936D02*
X14525063Y-12865412D01*
X14886968Y-13170174D02*
X14877444Y-13160650D01*
X14877444Y-13160650D02*
X14858396Y-13132079D01*
X14858396Y-13132079D02*
X14848872Y-13113031D01*
X14848872Y-13113031D02*
X14839349Y-13084460D01*
X14839349Y-13084460D02*
X14829825Y-13036841D01*
X14829825Y-13036841D02*
X14829825Y-12998746D01*
X14829825Y-12998746D02*
X14839349Y-12951127D01*
X14839349Y-12951127D02*
X14848872Y-12922555D01*
X14848872Y-12922555D02*
X14858396Y-12903508D01*
X14858396Y-12903508D02*
X14877444Y-12874936D01*
X14877444Y-12874936D02*
X14886968Y-12865412D01*
X14963158Y-12960650D02*
X14963158Y-13093984D01*
X14963158Y-12979698D02*
X14972682Y-12970174D01*
X14972682Y-12970174D02*
X14991730Y-12960650D01*
X14991730Y-12960650D02*
X15020301Y-12960650D01*
X15020301Y-12960650D02*
X15039349Y-12970174D01*
X15039349Y-12970174D02*
X15048872Y-12989222D01*
X15048872Y-12989222D02*
X15048872Y-13093984D01*
X15172682Y-13093984D02*
X15153634Y-13084460D01*
X15153634Y-13084460D02*
X15144111Y-13074936D01*
X15144111Y-13074936D02*
X15134587Y-13055888D01*
X15134587Y-13055888D02*
X15134587Y-12998746D01*
X15134587Y-12998746D02*
X15144111Y-12979698D01*
X15144111Y-12979698D02*
X15153634Y-12970174D01*
X15153634Y-12970174D02*
X15172682Y-12960650D01*
X15172682Y-12960650D02*
X15201253Y-12960650D01*
X15201253Y-12960650D02*
X15220301Y-12970174D01*
X15220301Y-12970174D02*
X15229825Y-12979698D01*
X15229825Y-12979698D02*
X15239349Y-12998746D01*
X15239349Y-12998746D02*
X15239349Y-13055888D01*
X15239349Y-13055888D02*
X15229825Y-13074936D01*
X15229825Y-13074936D02*
X15220301Y-13084460D01*
X15220301Y-13084460D02*
X15201253Y-13093984D01*
X15201253Y-13093984D02*
X15172682Y-13093984D01*
X15296492Y-12960650D02*
X15372682Y-12960650D01*
X15325063Y-12893984D02*
X15325063Y-13065412D01*
X15325063Y-13065412D02*
X15334587Y-13084460D01*
X15334587Y-13084460D02*
X15353634Y-13093984D01*
X15353634Y-13093984D02*
X15372682Y-13093984D01*
X15591730Y-12960650D02*
X15591730Y-13160650D01*
X15591730Y-12970174D02*
X15610777Y-12960650D01*
X15610777Y-12960650D02*
X15648873Y-12960650D01*
X15648873Y-12960650D02*
X15667920Y-12970174D01*
X15667920Y-12970174D02*
X15677444Y-12979698D01*
X15677444Y-12979698D02*
X15686968Y-12998746D01*
X15686968Y-12998746D02*
X15686968Y-13055888D01*
X15686968Y-13055888D02*
X15677444Y-13074936D01*
X15677444Y-13074936D02*
X15667920Y-13084460D01*
X15667920Y-13084460D02*
X15648873Y-13093984D01*
X15648873Y-13093984D02*
X15610777Y-13093984D01*
X15610777Y-13093984D02*
X15591730Y-13084460D01*
X15801253Y-13093984D02*
X15782206Y-13084460D01*
X15782206Y-13084460D02*
X15772682Y-13065412D01*
X15772682Y-13065412D02*
X15772682Y-12893984D01*
X15963158Y-13093984D02*
X15963158Y-12989222D01*
X15963158Y-12989222D02*
X15953634Y-12970174D01*
X15953634Y-12970174D02*
X15934587Y-12960650D01*
X15934587Y-12960650D02*
X15896492Y-12960650D01*
X15896492Y-12960650D02*
X15877444Y-12970174D01*
X15963158Y-13084460D02*
X15944111Y-13093984D01*
X15944111Y-13093984D02*
X15896492Y-13093984D01*
X15896492Y-13093984D02*
X15877444Y-13084460D01*
X15877444Y-13084460D02*
X15867920Y-13065412D01*
X15867920Y-13065412D02*
X15867920Y-13046365D01*
X15867920Y-13046365D02*
X15877444Y-13027317D01*
X15877444Y-13027317D02*
X15896492Y-13017793D01*
X15896492Y-13017793D02*
X15944111Y-13017793D01*
X15944111Y-13017793D02*
X15963158Y-13008269D01*
X16029825Y-12960650D02*
X16106015Y-12960650D01*
X16058396Y-12893984D02*
X16058396Y-13065412D01*
X16058396Y-13065412D02*
X16067920Y-13084460D01*
X16067920Y-13084460D02*
X16086968Y-13093984D01*
X16086968Y-13093984D02*
X16106015Y-13093984D01*
X16248873Y-13084460D02*
X16229825Y-13093984D01*
X16229825Y-13093984D02*
X16191730Y-13093984D01*
X16191730Y-13093984D02*
X16172682Y-13084460D01*
X16172682Y-13084460D02*
X16163158Y-13065412D01*
X16163158Y-13065412D02*
X16163158Y-12989222D01*
X16163158Y-12989222D02*
X16172682Y-12970174D01*
X16172682Y-12970174D02*
X16191730Y-12960650D01*
X16191730Y-12960650D02*
X16229825Y-12960650D01*
X16229825Y-12960650D02*
X16248873Y-12970174D01*
X16248873Y-12970174D02*
X16258396Y-12989222D01*
X16258396Y-12989222D02*
X16258396Y-13008269D01*
X16258396Y-13008269D02*
X16163158Y-13027317D01*
X16429825Y-13093984D02*
X16429825Y-12893984D01*
X16429825Y-13084460D02*
X16410777Y-13093984D01*
X16410777Y-13093984D02*
X16372682Y-13093984D01*
X16372682Y-13093984D02*
X16353634Y-13084460D01*
X16353634Y-13084460D02*
X16344111Y-13074936D01*
X16344111Y-13074936D02*
X16334587Y-13055888D01*
X16334587Y-13055888D02*
X16334587Y-12998746D01*
X16334587Y-12998746D02*
X16344111Y-12979698D01*
X16344111Y-12979698D02*
X16353634Y-12970174D01*
X16353634Y-12970174D02*
X16372682Y-12960650D01*
X16372682Y-12960650D02*
X16410777Y-12960650D01*
X16410777Y-12960650D02*
X16429825Y-12970174D01*
X16506015Y-13170174D02*
X16515539Y-13160650D01*
X16515539Y-13160650D02*
X16534587Y-13132079D01*
X16534587Y-13132079D02*
X16544111Y-13113031D01*
X16544111Y-13113031D02*
X16553634Y-13084460D01*
X16553634Y-13084460D02*
X16563158Y-13036841D01*
X16563158Y-13036841D02*
X16563158Y-12998746D01*
X16563158Y-12998746D02*
X16553634Y-12951127D01*
X16553634Y-12951127D02*
X16544111Y-12922555D01*
X16544111Y-12922555D02*
X16534587Y-12903508D01*
X16534587Y-12903508D02*
X16515539Y-12874936D01*
X16515539Y-12874936D02*
X16506015Y-12865412D01*
X9750000Y-13266500D02*
G75*
G02*
X9550000Y-13266500I-100000J0D01*
G01*
X9550000Y-13266500D02*
G75*
G02*
X9750000Y-13266500I100000J0D01*
G01*
X9991729Y-13157984D02*
X10115539Y-13157984D01*
X10115539Y-13157984D02*
X10048872Y-13234174D01*
X10048872Y-13234174D02*
X10077444Y-13234174D01*
X10077444Y-13234174D02*
X10096491Y-13243698D01*
X10096491Y-13243698D02*
X10106015Y-13253222D01*
X10106015Y-13253222D02*
X10115539Y-13272269D01*
X10115539Y-13272269D02*
X10115539Y-13319888D01*
X10115539Y-13319888D02*
X10106015Y-13338936D01*
X10106015Y-13338936D02*
X10096491Y-13348460D01*
X10096491Y-13348460D02*
X10077444Y-13357984D01*
X10077444Y-13357984D02*
X10020301Y-13357984D01*
X10020301Y-13357984D02*
X10001253Y-13348460D01*
X10001253Y-13348460D02*
X9991729Y-13338936D01*
X10201253Y-13338936D02*
X10210777Y-13348460D01*
X10210777Y-13348460D02*
X10201253Y-13357984D01*
X10201253Y-13357984D02*
X10191729Y-13348460D01*
X10191729Y-13348460D02*
X10201253Y-13338936D01*
X10201253Y-13338936D02*
X10201253Y-13357984D01*
X10286967Y-13177031D02*
X10296491Y-13167508D01*
X10296491Y-13167508D02*
X10315539Y-13157984D01*
X10315539Y-13157984D02*
X10363158Y-13157984D01*
X10363158Y-13157984D02*
X10382205Y-13167508D01*
X10382205Y-13167508D02*
X10391729Y-13177031D01*
X10391729Y-13177031D02*
X10401253Y-13196079D01*
X10401253Y-13196079D02*
X10401253Y-13215127D01*
X10401253Y-13215127D02*
X10391729Y-13243698D01*
X10391729Y-13243698D02*
X10277444Y-13357984D01*
X10277444Y-13357984D02*
X10401253Y-13357984D01*
X10525063Y-13157984D02*
X10544110Y-13157984D01*
X10544110Y-13157984D02*
X10563158Y-13167508D01*
X10563158Y-13167508D02*
X10572682Y-13177031D01*
X10572682Y-13177031D02*
X10582205Y-13196079D01*
X10582205Y-13196079D02*
X10591729Y-13234174D01*
X10591729Y-13234174D02*
X10591729Y-13281793D01*
X10591729Y-13281793D02*
X10582205Y-13319888D01*
X10582205Y-13319888D02*
X10572682Y-13338936D01*
X10572682Y-13338936D02*
X10563158Y-13348460D01*
X10563158Y-13348460D02*
X10544110Y-13357984D01*
X10544110Y-13357984D02*
X10525063Y-13357984D01*
X10525063Y-13357984D02*
X10506015Y-13348460D01*
X10506015Y-13348460D02*
X10496491Y-13338936D01*
X10496491Y-13338936D02*
X10486967Y-13319888D01*
X10486967Y-13319888D02*
X10477444Y-13281793D01*
X10477444Y-13281793D02*
X10477444Y-13234174D01*
X10477444Y-13234174D02*
X10486967Y-13196079D01*
X10486967Y-13196079D02*
X10496491Y-13177031D01*
X10496491Y-13177031D02*
X10506015Y-13167508D01*
X10506015Y-13167508D02*
X10525063Y-13157984D01*
X10715539Y-13157984D02*
X10734586Y-13157984D01*
X10734586Y-13157984D02*
X10753634Y-13167508D01*
X10753634Y-13167508D02*
X10763158Y-13177031D01*
X10763158Y-13177031D02*
X10772682Y-13196079D01*
X10772682Y-13196079D02*
X10782205Y-13234174D01*
X10782205Y-13234174D02*
X10782205Y-13281793D01*
X10782205Y-13281793D02*
X10772682Y-13319888D01*
X10772682Y-13319888D02*
X10763158Y-13338936D01*
X10763158Y-13338936D02*
X10753634Y-13348460D01*
X10753634Y-13348460D02*
X10734586Y-13357984D01*
X10734586Y-13357984D02*
X10715539Y-13357984D01*
X10715539Y-13357984D02*
X10696491Y-13348460D01*
X10696491Y-13348460D02*
X10686967Y-13338936D01*
X10686967Y-13338936D02*
X10677444Y-13319888D01*
X10677444Y-13319888D02*
X10667920Y-13281793D01*
X10667920Y-13281793D02*
X10667920Y-13234174D01*
X10667920Y-13234174D02*
X10677444Y-13196079D01*
X10677444Y-13196079D02*
X10686967Y-13177031D01*
X10686967Y-13177031D02*
X10696491Y-13167508D01*
X10696491Y-13167508D02*
X10715539Y-13157984D01*
X10867920Y-13357984D02*
X10867920Y-13224650D01*
X10867920Y-13243698D02*
X10877444Y-13234174D01*
X10877444Y-13234174D02*
X10896491Y-13224650D01*
X10896491Y-13224650D02*
X10925063Y-13224650D01*
X10925063Y-13224650D02*
X10944110Y-13234174D01*
X10944110Y-13234174D02*
X10953634Y-13253222D01*
X10953634Y-13253222D02*
X10953634Y-13357984D01*
X10953634Y-13253222D02*
X10963158Y-13234174D01*
X10963158Y-13234174D02*
X10982205Y-13224650D01*
X10982205Y-13224650D02*
X11010777Y-13224650D01*
X11010777Y-13224650D02*
X11029825Y-13234174D01*
X11029825Y-13234174D02*
X11039348Y-13253222D01*
X11039348Y-13253222D02*
X11039348Y-13357984D01*
X11134586Y-13357984D02*
X11134586Y-13224650D01*
X11134586Y-13243698D02*
X11144110Y-13234174D01*
X11144110Y-13234174D02*
X11163158Y-13224650D01*
X11163158Y-13224650D02*
X11191729Y-13224650D01*
X11191729Y-13224650D02*
X11210777Y-13234174D01*
X11210777Y-13234174D02*
X11220301Y-13253222D01*
X11220301Y-13253222D02*
X11220301Y-13357984D01*
X11220301Y-13253222D02*
X11229824Y-13234174D01*
X11229824Y-13234174D02*
X11248872Y-13224650D01*
X11248872Y-13224650D02*
X11277443Y-13224650D01*
X11277443Y-13224650D02*
X11296491Y-13234174D01*
X11296491Y-13234174D02*
X11306015Y-13253222D01*
X11306015Y-13253222D02*
X11306015Y-13357984D01*
X11696491Y-13148460D02*
X11525063Y-13405603D01*
X11953634Y-13157984D02*
X11972682Y-13157984D01*
X11972682Y-13157984D02*
X11991729Y-13167508D01*
X11991729Y-13167508D02*
X12001253Y-13177031D01*
X12001253Y-13177031D02*
X12010777Y-13196079D01*
X12010777Y-13196079D02*
X12020301Y-13234174D01*
X12020301Y-13234174D02*
X12020301Y-13281793D01*
X12020301Y-13281793D02*
X12010777Y-13319888D01*
X12010777Y-13319888D02*
X12001253Y-13338936D01*
X12001253Y-13338936D02*
X11991729Y-13348460D01*
X11991729Y-13348460D02*
X11972682Y-13357984D01*
X11972682Y-13357984D02*
X11953634Y-13357984D01*
X11953634Y-13357984D02*
X11934586Y-13348460D01*
X11934586Y-13348460D02*
X11925063Y-13338936D01*
X11925063Y-13338936D02*
X11915539Y-13319888D01*
X11915539Y-13319888D02*
X11906015Y-13281793D01*
X11906015Y-13281793D02*
X11906015Y-13234174D01*
X11906015Y-13234174D02*
X11915539Y-13196079D01*
X11915539Y-13196079D02*
X11925063Y-13177031D01*
X11925063Y-13177031D02*
X11934586Y-13167508D01*
X11934586Y-13167508D02*
X11953634Y-13157984D01*
X12106015Y-13338936D02*
X12115539Y-13348460D01*
X12115539Y-13348460D02*
X12106015Y-13357984D01*
X12106015Y-13357984D02*
X12096491Y-13348460D01*
X12096491Y-13348460D02*
X12106015Y-13338936D01*
X12106015Y-13338936D02*
X12106015Y-13357984D01*
X12306015Y-13357984D02*
X12191729Y-13357984D01*
X12248872Y-13357984D02*
X12248872Y-13157984D01*
X12248872Y-13157984D02*
X12229825Y-13186555D01*
X12229825Y-13186555D02*
X12210777Y-13205603D01*
X12210777Y-13205603D02*
X12191729Y-13215127D01*
X12382206Y-13177031D02*
X12391729Y-13167508D01*
X12391729Y-13167508D02*
X12410777Y-13157984D01*
X12410777Y-13157984D02*
X12458396Y-13157984D01*
X12458396Y-13157984D02*
X12477444Y-13167508D01*
X12477444Y-13167508D02*
X12486967Y-13177031D01*
X12486967Y-13177031D02*
X12496491Y-13196079D01*
X12496491Y-13196079D02*
X12496491Y-13215127D01*
X12496491Y-13215127D02*
X12486967Y-13243698D01*
X12486967Y-13243698D02*
X12372682Y-13357984D01*
X12372682Y-13357984D02*
X12496491Y-13357984D01*
X12667920Y-13157984D02*
X12629825Y-13157984D01*
X12629825Y-13157984D02*
X12610777Y-13167508D01*
X12610777Y-13167508D02*
X12601253Y-13177031D01*
X12601253Y-13177031D02*
X12582206Y-13205603D01*
X12582206Y-13205603D02*
X12572682Y-13243698D01*
X12572682Y-13243698D02*
X12572682Y-13319888D01*
X12572682Y-13319888D02*
X12582206Y-13338936D01*
X12582206Y-13338936D02*
X12591729Y-13348460D01*
X12591729Y-13348460D02*
X12610777Y-13357984D01*
X12610777Y-13357984D02*
X12648872Y-13357984D01*
X12648872Y-13357984D02*
X12667920Y-13348460D01*
X12667920Y-13348460D02*
X12677444Y-13338936D01*
X12677444Y-13338936D02*
X12686967Y-13319888D01*
X12686967Y-13319888D02*
X12686967Y-13272269D01*
X12686967Y-13272269D02*
X12677444Y-13253222D01*
X12677444Y-13253222D02*
X12667920Y-13243698D01*
X12667920Y-13243698D02*
X12648872Y-13234174D01*
X12648872Y-13234174D02*
X12610777Y-13234174D01*
X12610777Y-13234174D02*
X12591729Y-13243698D01*
X12591729Y-13243698D02*
X12582206Y-13253222D01*
X12582206Y-13253222D02*
X12572682Y-13272269D01*
X12810777Y-13157984D02*
X12829825Y-13157984D01*
X12829825Y-13157984D02*
X12848872Y-13167508D01*
X12848872Y-13167508D02*
X12858396Y-13177031D01*
X12858396Y-13177031D02*
X12867920Y-13196079D01*
X12867920Y-13196079D02*
X12877444Y-13234174D01*
X12877444Y-13234174D02*
X12877444Y-13281793D01*
X12877444Y-13281793D02*
X12867920Y-13319888D01*
X12867920Y-13319888D02*
X12858396Y-13338936D01*
X12858396Y-13338936D02*
X12848872Y-13348460D01*
X12848872Y-13348460D02*
X12829825Y-13357984D01*
X12829825Y-13357984D02*
X12810777Y-13357984D01*
X12810777Y-13357984D02*
X12791729Y-13348460D01*
X12791729Y-13348460D02*
X12782206Y-13338936D01*
X12782206Y-13338936D02*
X12772682Y-13319888D01*
X12772682Y-13319888D02*
X12763158Y-13281793D01*
X12763158Y-13281793D02*
X12763158Y-13234174D01*
X12763158Y-13234174D02*
X12772682Y-13196079D01*
X12772682Y-13196079D02*
X12782206Y-13177031D01*
X12782206Y-13177031D02*
X12791729Y-13167508D01*
X12791729Y-13167508D02*
X12810777Y-13157984D01*
X12953634Y-13157984D02*
X12953634Y-13196079D01*
X13029825Y-13157984D02*
X13029825Y-13196079D01*
X13325063Y-13434174D02*
X13315539Y-13424650D01*
X13315539Y-13424650D02*
X13296491Y-13396079D01*
X13296491Y-13396079D02*
X13286968Y-13377031D01*
X13286968Y-13377031D02*
X13277444Y-13348460D01*
X13277444Y-13348460D02*
X13267920Y-13300841D01*
X13267920Y-13300841D02*
X13267920Y-13262746D01*
X13267920Y-13262746D02*
X13277444Y-13215127D01*
X13277444Y-13215127D02*
X13286968Y-13186555D01*
X13286968Y-13186555D02*
X13296491Y-13167508D01*
X13296491Y-13167508D02*
X13315539Y-13138936D01*
X13315539Y-13138936D02*
X13325063Y-13129412D01*
X13486968Y-13224650D02*
X13486968Y-13357984D01*
X13439348Y-13148460D02*
X13391729Y-13291317D01*
X13391729Y-13291317D02*
X13515539Y-13291317D01*
X13744110Y-13357984D02*
X13744110Y-13157984D01*
X13829825Y-13357984D02*
X13829825Y-13253222D01*
X13829825Y-13253222D02*
X13820301Y-13234174D01*
X13820301Y-13234174D02*
X13801253Y-13224650D01*
X13801253Y-13224650D02*
X13772682Y-13224650D01*
X13772682Y-13224650D02*
X13753634Y-13234174D01*
X13753634Y-13234174D02*
X13744110Y-13243698D01*
X13953634Y-13357984D02*
X13934587Y-13348460D01*
X13934587Y-13348460D02*
X13925063Y-13338936D01*
X13925063Y-13338936D02*
X13915539Y-13319888D01*
X13915539Y-13319888D02*
X13915539Y-13262746D01*
X13915539Y-13262746D02*
X13925063Y-13243698D01*
X13925063Y-13243698D02*
X13934587Y-13234174D01*
X13934587Y-13234174D02*
X13953634Y-13224650D01*
X13953634Y-13224650D02*
X13982206Y-13224650D01*
X13982206Y-13224650D02*
X14001253Y-13234174D01*
X14001253Y-13234174D02*
X14010777Y-13243698D01*
X14010777Y-13243698D02*
X14020301Y-13262746D01*
X14020301Y-13262746D02*
X14020301Y-13319888D01*
X14020301Y-13319888D02*
X14010777Y-13338936D01*
X14010777Y-13338936D02*
X14001253Y-13348460D01*
X14001253Y-13348460D02*
X13982206Y-13357984D01*
X13982206Y-13357984D02*
X13953634Y-13357984D01*
X14134587Y-13357984D02*
X14115539Y-13348460D01*
X14115539Y-13348460D02*
X14106015Y-13329412D01*
X14106015Y-13329412D02*
X14106015Y-13157984D01*
X14286968Y-13348460D02*
X14267920Y-13357984D01*
X14267920Y-13357984D02*
X14229825Y-13357984D01*
X14229825Y-13357984D02*
X14210777Y-13348460D01*
X14210777Y-13348460D02*
X14201253Y-13329412D01*
X14201253Y-13329412D02*
X14201253Y-13253222D01*
X14201253Y-13253222D02*
X14210777Y-13234174D01*
X14210777Y-13234174D02*
X14229825Y-13224650D01*
X14229825Y-13224650D02*
X14267920Y-13224650D01*
X14267920Y-13224650D02*
X14286968Y-13234174D01*
X14286968Y-13234174D02*
X14296491Y-13253222D01*
X14296491Y-13253222D02*
X14296491Y-13272269D01*
X14296491Y-13272269D02*
X14201253Y-13291317D01*
X14372682Y-13348460D02*
X14391730Y-13357984D01*
X14391730Y-13357984D02*
X14429825Y-13357984D01*
X14429825Y-13357984D02*
X14448872Y-13348460D01*
X14448872Y-13348460D02*
X14458396Y-13329412D01*
X14458396Y-13329412D02*
X14458396Y-13319888D01*
X14458396Y-13319888D02*
X14448872Y-13300841D01*
X14448872Y-13300841D02*
X14429825Y-13291317D01*
X14429825Y-13291317D02*
X14401253Y-13291317D01*
X14401253Y-13291317D02*
X14382206Y-13281793D01*
X14382206Y-13281793D02*
X14372682Y-13262746D01*
X14372682Y-13262746D02*
X14372682Y-13253222D01*
X14372682Y-13253222D02*
X14382206Y-13234174D01*
X14382206Y-13234174D02*
X14401253Y-13224650D01*
X14401253Y-13224650D02*
X14429825Y-13224650D01*
X14429825Y-13224650D02*
X14448872Y-13234174D01*
X14525063Y-13434174D02*
X14534587Y-13424650D01*
X14534587Y-13424650D02*
X14553634Y-13396079D01*
X14553634Y-13396079D02*
X14563158Y-13377031D01*
X14563158Y-13377031D02*
X14572682Y-13348460D01*
X14572682Y-13348460D02*
X14582206Y-13300841D01*
X14582206Y-13300841D02*
X14582206Y-13262746D01*
X14582206Y-13262746D02*
X14572682Y-13215127D01*
X14572682Y-13215127D02*
X14563158Y-13186555D01*
X14563158Y-13186555D02*
X14553634Y-13167508D01*
X14553634Y-13167508D02*
X14534587Y-13138936D01*
X14534587Y-13138936D02*
X14525063Y-13129412D01*
X14886968Y-13434174D02*
X14877444Y-13424650D01*
X14877444Y-13424650D02*
X14858396Y-13396079D01*
X14858396Y-13396079D02*
X14848872Y-13377031D01*
X14848872Y-13377031D02*
X14839349Y-13348460D01*
X14839349Y-13348460D02*
X14829825Y-13300841D01*
X14829825Y-13300841D02*
X14829825Y-13262746D01*
X14829825Y-13262746D02*
X14839349Y-13215127D01*
X14839349Y-13215127D02*
X14848872Y-13186555D01*
X14848872Y-13186555D02*
X14858396Y-13167508D01*
X14858396Y-13167508D02*
X14877444Y-13138936D01*
X14877444Y-13138936D02*
X14886968Y-13129412D01*
X14963158Y-13224650D02*
X14963158Y-13357984D01*
X14963158Y-13243698D02*
X14972682Y-13234174D01*
X14972682Y-13234174D02*
X14991730Y-13224650D01*
X14991730Y-13224650D02*
X15020301Y-13224650D01*
X15020301Y-13224650D02*
X15039349Y-13234174D01*
X15039349Y-13234174D02*
X15048872Y-13253222D01*
X15048872Y-13253222D02*
X15048872Y-13357984D01*
X15172682Y-13357984D02*
X15153634Y-13348460D01*
X15153634Y-13348460D02*
X15144111Y-13338936D01*
X15144111Y-13338936D02*
X15134587Y-13319888D01*
X15134587Y-13319888D02*
X15134587Y-13262746D01*
X15134587Y-13262746D02*
X15144111Y-13243698D01*
X15144111Y-13243698D02*
X15153634Y-13234174D01*
X15153634Y-13234174D02*
X15172682Y-13224650D01*
X15172682Y-13224650D02*
X15201253Y-13224650D01*
X15201253Y-13224650D02*
X15220301Y-13234174D01*
X15220301Y-13234174D02*
X15229825Y-13243698D01*
X15229825Y-13243698D02*
X15239349Y-13262746D01*
X15239349Y-13262746D02*
X15239349Y-13319888D01*
X15239349Y-13319888D02*
X15229825Y-13338936D01*
X15229825Y-13338936D02*
X15220301Y-13348460D01*
X15220301Y-13348460D02*
X15201253Y-13357984D01*
X15201253Y-13357984D02*
X15172682Y-13357984D01*
X15296492Y-13224650D02*
X15372682Y-13224650D01*
X15325063Y-13157984D02*
X15325063Y-13329412D01*
X15325063Y-13329412D02*
X15334587Y-13348460D01*
X15334587Y-13348460D02*
X15353634Y-13357984D01*
X15353634Y-13357984D02*
X15372682Y-13357984D01*
X15591730Y-13224650D02*
X15591730Y-13424650D01*
X15591730Y-13234174D02*
X15610777Y-13224650D01*
X15610777Y-13224650D02*
X15648873Y-13224650D01*
X15648873Y-13224650D02*
X15667920Y-13234174D01*
X15667920Y-13234174D02*
X15677444Y-13243698D01*
X15677444Y-13243698D02*
X15686968Y-13262746D01*
X15686968Y-13262746D02*
X15686968Y-13319888D01*
X15686968Y-13319888D02*
X15677444Y-13338936D01*
X15677444Y-13338936D02*
X15667920Y-13348460D01*
X15667920Y-13348460D02*
X15648873Y-13357984D01*
X15648873Y-13357984D02*
X15610777Y-13357984D01*
X15610777Y-13357984D02*
X15591730Y-13348460D01*
X15801253Y-13357984D02*
X15782206Y-13348460D01*
X15782206Y-13348460D02*
X15772682Y-13329412D01*
X15772682Y-13329412D02*
X15772682Y-13157984D01*
X15963158Y-13357984D02*
X15963158Y-13253222D01*
X15963158Y-13253222D02*
X15953634Y-13234174D01*
X15953634Y-13234174D02*
X15934587Y-13224650D01*
X15934587Y-13224650D02*
X15896492Y-13224650D01*
X15896492Y-13224650D02*
X15877444Y-13234174D01*
X15963158Y-13348460D02*
X15944111Y-13357984D01*
X15944111Y-13357984D02*
X15896492Y-13357984D01*
X15896492Y-13357984D02*
X15877444Y-13348460D01*
X15877444Y-13348460D02*
X15867920Y-13329412D01*
X15867920Y-13329412D02*
X15867920Y-13310365D01*
X15867920Y-13310365D02*
X15877444Y-13291317D01*
X15877444Y-13291317D02*
X15896492Y-13281793D01*
X15896492Y-13281793D02*
X15944111Y-13281793D01*
X15944111Y-13281793D02*
X15963158Y-13272269D01*
X16029825Y-13224650D02*
X16106015Y-13224650D01*
X16058396Y-13157984D02*
X16058396Y-13329412D01*
X16058396Y-13329412D02*
X16067920Y-13348460D01*
X16067920Y-13348460D02*
X16086968Y-13357984D01*
X16086968Y-13357984D02*
X16106015Y-13357984D01*
X16248873Y-13348460D02*
X16229825Y-13357984D01*
X16229825Y-13357984D02*
X16191730Y-13357984D01*
X16191730Y-13357984D02*
X16172682Y-13348460D01*
X16172682Y-13348460D02*
X16163158Y-13329412D01*
X16163158Y-13329412D02*
X16163158Y-13253222D01*
X16163158Y-13253222D02*
X16172682Y-13234174D01*
X16172682Y-13234174D02*
X16191730Y-13224650D01*
X16191730Y-13224650D02*
X16229825Y-13224650D01*
X16229825Y-13224650D02*
X16248873Y-13234174D01*
X16248873Y-13234174D02*
X16258396Y-13253222D01*
X16258396Y-13253222D02*
X16258396Y-13272269D01*
X16258396Y-13272269D02*
X16163158Y-13291317D01*
X16429825Y-13357984D02*
X16429825Y-13157984D01*
X16429825Y-13348460D02*
X16410777Y-13357984D01*
X16410777Y-13357984D02*
X16372682Y-13357984D01*
X16372682Y-13357984D02*
X16353634Y-13348460D01*
X16353634Y-13348460D02*
X16344111Y-13338936D01*
X16344111Y-13338936D02*
X16334587Y-13319888D01*
X16334587Y-13319888D02*
X16334587Y-13262746D01*
X16334587Y-13262746D02*
X16344111Y-13243698D01*
X16344111Y-13243698D02*
X16353634Y-13234174D01*
X16353634Y-13234174D02*
X16372682Y-13224650D01*
X16372682Y-13224650D02*
X16410777Y-13224650D01*
X16410777Y-13224650D02*
X16429825Y-13234174D01*
X16506015Y-13434174D02*
X16515539Y-13424650D01*
X16515539Y-13424650D02*
X16534587Y-13396079D01*
X16534587Y-13396079D02*
X16544111Y-13377031D01*
X16544111Y-13377031D02*
X16553634Y-13348460D01*
X16553634Y-13348460D02*
X16563158Y-13300841D01*
X16563158Y-13300841D02*
X16563158Y-13262746D01*
X16563158Y-13262746D02*
X16553634Y-13215127D01*
X16553634Y-13215127D02*
X16544111Y-13186555D01*
X16544111Y-13186555D02*
X16534587Y-13167508D01*
X16534587Y-13167508D02*
X16515539Y-13138936D01*
X16515539Y-13138936D02*
X16506015Y-13129412D01*
M02*
