M48
; DRILL file {KiCad 8.0.3-8.0.3-0~ubuntu22.04.1} date 2024-06-29T20:27:03+1000
; FORMAT={-:-/ absolute / metric / decimal}
; #@! TF.CreationDate,2024-06-29T20:27:03+10:00
; #@! TF.GenerationSoftware,Kicad,Pcbnew,8.0.3-8.0.3-0~ubuntu22.04.1
; #@! TF.FileFunction,Plated,1,4,PTH
FMAT,2
METRIC
; #@! TA.AperFunction,Plated,PTH,ViaDrill
T1C0.300
; #@! TA.AperFunction,Plated,PTH,ComponentDrill
T2C0.700
%
G90
G05
T1
X108.025Y-93.6
X108.025Y-106.1
X108.605Y-82.18
X109.805Y-81.38
X114.025Y-114.015
X115.275Y-111.85
X115.525Y-85.6
X116.025Y-78.6
X117.525Y-121.1
X117.775Y-106.35
X120.3Y-99.8
X120.4Y-101.5
X125.025Y-82.1
X125.525Y-78.6
X125.525Y-93.1
X133.525Y-96.35
X133.525Y-97.35
X133.525Y-98.35
X134.025Y-89.35
X134.25Y-80.475
X135.525Y-102.6
X136.775Y-81.6
X139.525Y-79.85
X139.525Y-99.35
X140.025Y-97.6
X140.9Y-104.7
X140.953Y-103.622
X141.574Y-108.649
X141.625Y-105.3
X141.775Y-107.6
X142.025Y-88.1
X142.324Y-97.399
X143.625Y-108.1
X143.9Y-97.1
X144.5Y-96.4
X145.275Y-102.85
X145.758Y-94.715
X146.025Y-107.7
X146.475Y-96.225
X146.976Y-97.801
X147.525Y-83.1
X147.775Y-102.35
X148.525Y-104.1
X148.85Y-119.125
X149.025Y-110.1
X151.025Y-94.35
X152.275Y-89.1
X152.691Y-93.745
X153.025Y-99.6
X154.275Y-88.35
X154.325Y-89.175
X154.875Y-98.575
X155.45Y-102.025
X156.025Y-97.1
X158.525Y-98.6
X159.025Y-79.7
X159.625Y-94.7
X160.025Y-79.1
X163.625Y-95.9
X164.525Y-94.2
X165.275Y-80.3
X165.525Y-76.1
X166.525Y-102.85
X166.525Y-103.85
X166.525Y-104.85
X167.025Y-97.85
X172.925Y-80.225
X173.025Y-86.1
X173.025Y-87.1
X173.9Y-82.8
X174.8Y-83.6
X178.525Y-82.6
X194.025Y-106.1
T2
X167.34Y-77.5
X168.61Y-77.5
X169.88Y-77.5
X171.15Y-77.5
X172.42Y-77.5
X173.69Y-77.5
X174.96Y-77.5
X176.23Y-77.5
X177.5Y-77.5
M30
