%TF.GenerationSoftware,KiCad,Pcbnew,8.0.4-8.0.4-0~ubuntu24.04.1*%
%TF.CreationDate,2024-07-23T16:28:14+10:00*%
%TF.ProjectId,lo_cate_pcb,6c6f5f63-6174-4655-9f70-63622e6b6963,rev?*%
%TF.SameCoordinates,Original*%
%TF.FileFunction,Soldermask,Top*%
%TF.FilePolarity,Negative*%
%FSLAX46Y46*%
G04 Gerber Fmt 4.6, Leading zero omitted, Abs format (unit mm)*
G04 Created by KiCad (PCBNEW 8.0.4-8.0.4-0~ubuntu24.04.1) date 2024-07-23 16:28:14*
%MOMM*%
%LPD*%
G01*
G04 APERTURE LIST*
G04 Aperture macros list*
%AMRoundRect*
0 Rectangle with rounded corners*
0 $1 Rounding radius*
0 $2 $3 $4 $5 $6 $7 $8 $9 X,Y pos of 4 corners*
0 Add a 4 corners polygon primitive as box body*
4,1,4,$2,$3,$4,$5,$6,$7,$8,$9,$2,$3,0*
0 Add four circle primitives for the rounded corners*
1,1,$1+$1,$2,$3*
1,1,$1+$1,$4,$5*
1,1,$1+$1,$6,$7*
1,1,$1+$1,$8,$9*
0 Add four rect primitives between the rounded corners*
20,1,$1+$1,$2,$3,$4,$5,0*
20,1,$1+$1,$4,$5,$6,$7,0*
20,1,$1+$1,$6,$7,$8,$9,0*
20,1,$1+$1,$8,$9,$2,$3,0*%
G04 Aperture macros list end*
%ADD10RoundRect,0.250000X0.525000X0.250000X-0.525000X0.250000X-0.525000X-0.250000X0.525000X-0.250000X0*%
%ADD11R,1.700000X2.100000*%
%ADD12RoundRect,0.250000X-0.475000X0.337500X-0.475000X-0.337500X0.475000X-0.337500X0.475000X0.337500X0*%
%ADD13RoundRect,0.102000X-0.750000X-0.450000X0.750000X-0.450000X0.750000X0.450000X-0.750000X0.450000X0*%
%ADD14RoundRect,0.250000X0.450000X-0.350000X0.450000X0.350000X-0.450000X0.350000X-0.450000X-0.350000X0*%
%ADD15R,1.700000X1.700000*%
%ADD16O,1.700000X1.700000*%
%ADD17RoundRect,0.250000X-0.337500X-0.475000X0.337500X-0.475000X0.337500X0.475000X-0.337500X0.475000X0*%
%ADD18RoundRect,0.250000X0.475000X-0.337500X0.475000X0.337500X-0.475000X0.337500X-0.475000X-0.337500X0*%
%ADD19RoundRect,0.250000X-0.350000X-0.450000X0.350000X-0.450000X0.350000X0.450000X-0.350000X0.450000X0*%
%ADD20RoundRect,0.250000X0.350000X0.450000X-0.350000X0.450000X-0.350000X-0.450000X0.350000X-0.450000X0*%
%ADD21RoundRect,0.102000X-0.975000X-0.525000X0.975000X-0.525000X0.975000X0.525000X-0.975000X0.525000X0*%
%ADD22RoundRect,0.102000X0.975000X0.525000X-0.975000X0.525000X-0.975000X-0.525000X0.975000X-0.525000X0*%
%ADD23R,0.584200X0.304800*%
%ADD24R,0.304800X0.584200*%
%ADD25C,3.200000*%
%ADD26RoundRect,0.250000X0.337500X0.475000X-0.337500X0.475000X-0.337500X-0.475000X0.337500X-0.475000X0*%
%ADD27C,0.900000*%
%ADD28RoundRect,0.102000X-1.150000X0.250000X-1.150000X-0.250000X1.150000X-0.250000X1.150000X0.250000X0*%
%ADD29RoundRect,0.102000X-1.250000X1.000000X-1.250000X-1.000000X1.250000X-1.000000X1.250000X1.000000X0*%
%ADD30RoundRect,0.250000X-0.450000X0.350000X-0.450000X-0.350000X0.450000X-0.350000X0.450000X0.350000X0*%
%ADD31R,0.990600X0.990600*%
%ADD32R,1.041400X2.209800*%
%ADD33R,0.508000X1.181100*%
%ADD34RoundRect,0.075000X0.700000X0.075000X-0.700000X0.075000X-0.700000X-0.075000X0.700000X-0.075000X0*%
%ADD35RoundRect,0.075000X0.075000X0.700000X-0.075000X0.700000X-0.075000X-0.700000X0.075000X-0.700000X0*%
G04 APERTURE END LIST*
D10*
%TO.C,SW4*%
X134525000Y-120800000D03*
X129275000Y-120800000D03*
X134525000Y-117600000D03*
X129275000Y-117600000D03*
%TD*%
D11*
%TO.C,Y1*%
X161500000Y-107025000D03*
X161500000Y-101125000D03*
X158800000Y-101125000D03*
X158800000Y-107025000D03*
%TD*%
D12*
%TO.C,C8*%
X127600000Y-75175000D03*
X127600000Y-77250000D03*
%TD*%
D13*
%TO.C,D1*%
X108350000Y-109300000D03*
X108350000Y-107900000D03*
X111450000Y-109300000D03*
X111450000Y-107900000D03*
%TD*%
D14*
%TO.C,R12*%
X129525000Y-112100000D03*
X129525000Y-110100000D03*
%TD*%
%TO.C,R1*%
X155775000Y-111812500D03*
X155775000Y-109812500D03*
%TD*%
D15*
%TO.C,J3*%
X165250000Y-76375000D03*
D16*
X167790000Y-76375000D03*
X170330000Y-76375000D03*
X172870000Y-76375000D03*
X175410000Y-76375000D03*
X177950000Y-76375000D03*
X180490000Y-76375000D03*
X183030000Y-76375000D03*
X185570000Y-76375000D03*
%TD*%
D17*
%TO.C,C12*%
X133487500Y-101100000D03*
X135562500Y-101100000D03*
%TD*%
D18*
%TO.C,C3*%
X192025000Y-108137500D03*
X192025000Y-106062500D03*
%TD*%
D19*
%TO.C,R2*%
X177500000Y-87500000D03*
X179500000Y-87500000D03*
%TD*%
D12*
%TO.C,C7*%
X131100000Y-75175000D03*
X131100000Y-77250000D03*
%TD*%
D14*
%TO.C,R11*%
X139525000Y-112100000D03*
X139525000Y-110100000D03*
%TD*%
%TO.C,R8*%
X105300000Y-98000000D03*
X105300000Y-96000000D03*
%TD*%
D17*
%TO.C,C17*%
X116687501Y-76566850D03*
X118762501Y-76566850D03*
%TD*%
D15*
%TO.C,J1*%
X169200000Y-97040000D03*
D16*
X169200000Y-99580000D03*
X169200000Y-102120000D03*
X169200000Y-104660000D03*
X169200000Y-107200000D03*
%TD*%
D20*
%TO.C,R4*%
X185200000Y-84300000D03*
X183200000Y-84300000D03*
%TD*%
D14*
%TO.C,R7*%
X105200000Y-109900000D03*
X105200000Y-107900000D03*
%TD*%
D19*
%TO.C,R10*%
X114400000Y-95800000D03*
X116400000Y-95800000D03*
%TD*%
%TO.C,R6*%
X111952200Y-104965000D03*
X113952200Y-104965000D03*
%TD*%
D21*
%TO.C,U6*%
X174125000Y-99850000D03*
X174125000Y-101850000D03*
X174125000Y-103850000D03*
X174125000Y-105850000D03*
X174125000Y-107850000D03*
X174125000Y-109850000D03*
X174125000Y-111850000D03*
X174125000Y-113850000D03*
D22*
X188925000Y-113850000D03*
X188925000Y-111850000D03*
X188925000Y-109850000D03*
X188925000Y-107850000D03*
X188925000Y-105850000D03*
X188925000Y-103850000D03*
X188925000Y-101850000D03*
X188925000Y-99850000D03*
%TD*%
D23*
%TO.C,U2*%
X130755700Y-81000001D03*
X130755700Y-80500000D03*
X130755700Y-80000000D03*
X130755700Y-79499999D03*
D24*
X130099999Y-79335600D03*
X129600000Y-79335600D03*
X129100001Y-79335600D03*
D23*
X128444300Y-79499999D03*
X128444300Y-80000000D03*
X128444300Y-80500000D03*
X128444300Y-81000001D03*
D24*
X129100001Y-81164400D03*
X129600000Y-81164400D03*
X130099999Y-81164400D03*
%TD*%
D25*
%TO.C,H2*%
X101900000Y-92100000D03*
%TD*%
D26*
%TO.C,C6*%
X121562500Y-114600000D03*
X119487500Y-114600000D03*
%TD*%
D25*
%TO.C,H4*%
X102025000Y-119100000D03*
%TD*%
D18*
%TO.C,C15*%
X139025000Y-86637500D03*
X139025000Y-84562500D03*
%TD*%
D10*
%TO.C,SW3*%
X144525000Y-120800000D03*
X139275000Y-120800000D03*
X144525000Y-117600000D03*
X139275000Y-117600000D03*
%TD*%
D25*
%TO.C,H1*%
X193025000Y-78100000D03*
%TD*%
D12*
%TO.C,C9*%
X150525000Y-101062500D03*
X150525000Y-103137500D03*
%TD*%
D19*
%TO.C,R9*%
X111625000Y-99800000D03*
X113625000Y-99800000D03*
%TD*%
D18*
%TO.C,C11*%
X146625000Y-105837500D03*
X146625000Y-103762500D03*
%TD*%
D17*
%TO.C,C16*%
X115937501Y-80566850D03*
X118012501Y-80566850D03*
%TD*%
D26*
%TO.C,C4*%
X141562500Y-114600000D03*
X139487500Y-114600000D03*
%TD*%
D27*
%TO.C,J2*%
X102825000Y-79980000D03*
X102825000Y-84380000D03*
D28*
X105475000Y-80580000D03*
X105475000Y-81380000D03*
X105475000Y-82180000D03*
X105475000Y-82980000D03*
X105475000Y-83780000D03*
D29*
X105375000Y-77730000D03*
X105375000Y-86630000D03*
X99875000Y-86630000D03*
X99875000Y-77730000D03*
%TD*%
D30*
%TO.C,R15*%
X121300000Y-82400000D03*
X121300000Y-84400000D03*
%TD*%
D31*
%TO.C,U8*%
X189025000Y-116649998D03*
D32*
X187775000Y-118124999D03*
D31*
X189025000Y-119600000D03*
D32*
X190275000Y-118124999D03*
%TD*%
D15*
%TO.C,J4*%
X126890000Y-87700000D03*
D16*
X124350000Y-87700000D03*
X121810000Y-87700000D03*
%TD*%
D25*
%TO.C,H3*%
X179025000Y-119600000D03*
%TD*%
D20*
%TO.C,R3*%
X185200000Y-91900000D03*
X183200000Y-91900000D03*
%TD*%
D19*
%TO.C,R5*%
X111552200Y-112215000D03*
X113552200Y-112215000D03*
%TD*%
D26*
%TO.C,C1*%
X152562500Y-112812500D03*
X150487500Y-112812500D03*
%TD*%
D13*
%TO.C,D2*%
X182100000Y-88800000D03*
X182100000Y-87400000D03*
X185200000Y-88800000D03*
X185200000Y-87400000D03*
%TD*%
%TO.C,D3*%
X108350000Y-97200000D03*
X108350000Y-95800000D03*
X111450000Y-97200000D03*
X111450000Y-95800000D03*
%TD*%
D17*
%TO.C,C19*%
X159987500Y-98100000D03*
X162062500Y-98100000D03*
%TD*%
D18*
%TO.C,C10*%
X145825000Y-83837500D03*
X145825000Y-81762500D03*
%TD*%
D10*
%TO.C,SW5*%
X124525000Y-120800000D03*
X119275000Y-120800000D03*
X124525000Y-117600000D03*
X119275000Y-117600000D03*
%TD*%
%TO.C,SW1*%
X169150000Y-119200000D03*
X163900000Y-119200000D03*
X169150000Y-116000000D03*
X163900000Y-116000000D03*
%TD*%
D14*
%TO.C,R13*%
X119525000Y-112100000D03*
X119525000Y-110100000D03*
%TD*%
D26*
%TO.C,C14*%
X156212500Y-90750000D03*
X154137500Y-90750000D03*
%TD*%
D30*
%TO.C,R14*%
X125000000Y-82450000D03*
X125000000Y-84450000D03*
%TD*%
D33*
%TO.C,U7*%
X113475001Y-76633150D03*
X112525000Y-76633150D03*
X111574999Y-76633150D03*
X111574999Y-79566850D03*
X113475001Y-79566850D03*
%TD*%
D12*
%TO.C,C13*%
X135775000Y-86462500D03*
X135775000Y-88537500D03*
%TD*%
D10*
%TO.C,SW2*%
X155650000Y-119200000D03*
X150400000Y-119200000D03*
X155650000Y-116000000D03*
X150400000Y-116000000D03*
%TD*%
D26*
%TO.C,C2*%
X166062500Y-112100000D03*
X163987500Y-112100000D03*
%TD*%
D34*
%TO.C,U1*%
X148700000Y-99350000D03*
X148700000Y-98850000D03*
X148700000Y-98350000D03*
X148700000Y-97850000D03*
X148700000Y-97350000D03*
X148700000Y-96850000D03*
X148700000Y-96350000D03*
X148700000Y-95850000D03*
X148700000Y-95350000D03*
X148700000Y-94850000D03*
X148700000Y-94350000D03*
X148700000Y-93850000D03*
X148700000Y-93350000D03*
X148700000Y-92850000D03*
X148700000Y-92350000D03*
X148700000Y-91850000D03*
D35*
X146775000Y-89925000D03*
X146275000Y-89925000D03*
X145775000Y-89925000D03*
X145275000Y-89925000D03*
X144775000Y-89925000D03*
X144275000Y-89925000D03*
X143775000Y-89925000D03*
X143275000Y-89925000D03*
X142775000Y-89925000D03*
X142275000Y-89925000D03*
X141775000Y-89925000D03*
X141275000Y-89925000D03*
X140775000Y-89925000D03*
X140275000Y-89925000D03*
X139775000Y-89925000D03*
X139275000Y-89925000D03*
D34*
X137350000Y-91850000D03*
X137350000Y-92350000D03*
X137350000Y-92850000D03*
X137350000Y-93350000D03*
X137350000Y-93850000D03*
X137350000Y-94350000D03*
X137350000Y-94850000D03*
X137350000Y-95350000D03*
X137350000Y-95850000D03*
X137350000Y-96350000D03*
X137350000Y-96850000D03*
X137350000Y-97350000D03*
X137350000Y-97850000D03*
X137350000Y-98350000D03*
X137350000Y-98850000D03*
X137350000Y-99350000D03*
D35*
X139275000Y-101275000D03*
X139775000Y-101275000D03*
X140275000Y-101275000D03*
X140775000Y-101275000D03*
X141275000Y-101275000D03*
X141775000Y-101275000D03*
X142275000Y-101275000D03*
X142775000Y-101275000D03*
X143275000Y-101275000D03*
X143775000Y-101275000D03*
X144275000Y-101275000D03*
X144775000Y-101275000D03*
X145275000Y-101275000D03*
X145775000Y-101275000D03*
X146275000Y-101275000D03*
X146775000Y-101275000D03*
%TD*%
D26*
%TO.C,C18*%
X161187500Y-110200000D03*
X159112500Y-110200000D03*
%TD*%
%TO.C,C5*%
X131562500Y-114600000D03*
X129487500Y-114600000D03*
%TD*%
M02*
