%TF.GenerationSoftware,KiCad,Pcbnew,8.0.4-8.0.4-0~ubuntu24.04.1*%
%TF.CreationDate,2024-07-23T16:28:14+10:00*%
%TF.ProjectId,lo_cate_pcb,6c6f5f63-6174-4655-9f70-63622e6b6963,rev?*%
%TF.SameCoordinates,Original*%
%TF.FileFunction,Copper,L3,Inr*%
%TF.FilePolarity,Positive*%
%FSLAX46Y46*%
G04 Gerber Fmt 4.6, Leading zero omitted, Abs format (unit mm)*
G04 Created by KiCad (PCBNEW 8.0.4-8.0.4-0~ubuntu24.04.1) date 2024-07-23 16:28:14*
%MOMM*%
%LPD*%
G01*
G04 APERTURE LIST*
%TA.AperFunction,ComponentPad*%
%ADD10R,1.700000X1.700000*%
%TD*%
%TA.AperFunction,ComponentPad*%
%ADD11O,1.700000X1.700000*%
%TD*%
%TA.AperFunction,ViaPad*%
%ADD12C,0.600000*%
%TD*%
G04 APERTURE END LIST*
D10*
%TO.N,/3V3*%
%TO.C,J3*%
X165250000Y-76375000D03*
D11*
%TO.N,/SWDIO*%
X167790000Y-76375000D03*
%TO.N,/SWCLK*%
X170330000Y-76375000D03*
%TO.N,/SWO*%
X172870000Y-76375000D03*
%TO.N,/NRST*%
X175410000Y-76375000D03*
%TO.N,/BOOTO*%
X177950000Y-76375000D03*
%TO.N,/UART_RX*%
X180490000Y-76375000D03*
%TO.N,/UART_TX*%
X183030000Y-76375000D03*
%TO.N,GND*%
X185570000Y-76375000D03*
%TD*%
D10*
%TO.N,/LORA_MISO*%
%TO.C,J1*%
X169200000Y-97040000D03*
D11*
%TO.N,/LORA_MOSI*%
X169200000Y-99580000D03*
%TO.N,/LORA_SCK*%
X169200000Y-102120000D03*
%TO.N,/LORA_CSB*%
X169200000Y-104660000D03*
%TO.N,/LORA_RST*%
X169200000Y-107200000D03*
%TD*%
D10*
%TO.N,/IMU_SA0*%
%TO.C,J4*%
X126890000Y-87700000D03*
D11*
%TO.N,/IMU_SDA*%
X124350000Y-87700000D03*
%TO.N,/IMU_SCL*%
X121810000Y-87700000D03*
%TD*%
D12*
%TO.N,GND*%
X139700000Y-106600000D03*
X146025000Y-107700000D03*
X126900000Y-85550000D03*
X154200000Y-96000000D03*
X154875000Y-98575000D03*
%TO.N,/MICRO_WAKEUP*%
X147775000Y-102350000D03*
X149025000Y-110100000D03*
%TO.N,/NRST*%
X163625000Y-95900000D03*
X159625000Y-94700000D03*
%TO.N,/3V3*%
X121200000Y-80950000D03*
X162200000Y-77400000D03*
X129299999Y-76850000D03*
X116025000Y-78600000D03*
X135525000Y-102600000D03*
X124800000Y-81000000D03*
X147525000Y-83100000D03*
X132799999Y-77350000D03*
X108300000Y-110900000D03*
X194025000Y-106100000D03*
X148850000Y-119125000D03*
X117525000Y-121100000D03*
X108300000Y-98600000D03*
X179600000Y-89900000D03*
X148525000Y-104100000D03*
X154325000Y-89175000D03*
X134025000Y-89350000D03*
%TO.N,/SWO*%
X166600000Y-80700000D03*
X142324265Y-97399265D03*
%TO.N,/SWCLK*%
X159025000Y-79700000D03*
X139525000Y-99350000D03*
%TO.N,/SWDIO*%
X160000000Y-78400000D03*
X140025000Y-97600000D03*
%TO.N,/LED2_BLUE*%
X171800000Y-87500000D03*
X154275000Y-88350000D03*
%TO.N,/LED2_GREEN*%
X173025000Y-86100000D03*
X152275000Y-89100000D03*
%TO.N,/LED1_RED*%
X140850000Y-107700000D03*
X115275000Y-111850000D03*
%TO.N,/LED1_GREEN*%
X138750000Y-105500000D03*
X117775000Y-106350000D03*
X145275000Y-102850000D03*
X143100000Y-104500000D03*
%TO.N,/LED1_BLUE*%
X141574265Y-108649265D03*
X114025000Y-114015000D03*
%TO.N,/LED3_BLUE*%
X122450000Y-102550000D03*
X139500000Y-104700000D03*
%TO.N,/LED3_RED*%
X138950000Y-104000000D03*
X120300000Y-99800000D03*
%TO.N,/LED3_GREEN*%
X142025000Y-88100000D03*
X126837500Y-91787500D03*
%TO.N,/UART_TX*%
X182500000Y-80400000D03*
X144500000Y-96400000D03*
%TO.N,/LORA_RST*%
X145758060Y-94715470D03*
%TO.N,/LORA_MOSI*%
X165300000Y-93000000D03*
X153050000Y-93000000D03*
%TO.N,/LORA_MISO*%
X153850000Y-94500000D03*
%TO.N,/LORA_CSB*%
X146475000Y-96225000D03*
%TO.N,/OSC_IN*%
X155450000Y-102025000D03*
X153025000Y-99600000D03*
%TO.N,/UART_RX*%
X143900000Y-97100000D03*
X180200000Y-80400000D03*
%TO.N,/IMU_SDA*%
X134150000Y-94550000D03*
%TO.N,/IMU_SCL*%
X133700000Y-95500000D03*
X127800000Y-82400000D03*
X123150000Y-83500000D03*
%TO.N,/LORA_SCK*%
X146975736Y-97800735D03*
%TO.N,/USB_DP*%
X133525000Y-98350000D03*
X108605000Y-82180000D03*
%TO.N,/USB_ID*%
X133525000Y-96350000D03*
X115525000Y-85600000D03*
%TO.N,/USB_DM*%
X109805000Y-81380000D03*
X133525000Y-97350000D03*
%TO.N,/IMU_SA0*%
X132700000Y-92100000D03*
X135650000Y-96150000D03*
%TO.N,/OSC_OUT*%
X157025000Y-97100000D03*
X158600000Y-98100000D03*
%TO.N,/LORA_DIO0*%
X139650000Y-103150000D03*
X187100000Y-103800000D03*
%TO.N,/LORA_DIO2*%
X141500000Y-103150000D03*
X186650000Y-99800000D03*
%TO.N,/LORA_DIO1*%
X140600000Y-103150000D03*
X186850000Y-101800000D03*
%TO.N,/IMU_INT2*%
X126700000Y-80400000D03*
X141400000Y-86600000D03*
%TD*%
%TA.AperFunction,Conductor*%
%TO.N,/3V3*%
G36*
X195029043Y-74100765D02*
G01*
X195277895Y-74117075D01*
X195293953Y-74119190D01*
X195501105Y-74160395D01*
X195534535Y-74167045D01*
X195550202Y-74171243D01*
X195719947Y-74228863D01*
X195782481Y-74250091D01*
X195797458Y-74256294D01*
X196006799Y-74359529D01*
X196017460Y-74364787D01*
X196031508Y-74372897D01*
X196235464Y-74509177D01*
X196248328Y-74519048D01*
X196432749Y-74680781D01*
X196444218Y-74692250D01*
X196605951Y-74876671D01*
X196615825Y-74889539D01*
X196752102Y-75093492D01*
X196760212Y-75107539D01*
X196868702Y-75327534D01*
X196874909Y-75342520D01*
X196953756Y-75574797D01*
X196957954Y-75590464D01*
X197005807Y-75831035D01*
X197007925Y-75847116D01*
X197024235Y-76095956D01*
X197024500Y-76104066D01*
X197024500Y-121095933D01*
X197024235Y-121104043D01*
X197007925Y-121352883D01*
X197005807Y-121368964D01*
X196957954Y-121609535D01*
X196953756Y-121625202D01*
X196874909Y-121857479D01*
X196868702Y-121872465D01*
X196760212Y-122092460D01*
X196752102Y-122106507D01*
X196615825Y-122310460D01*
X196605951Y-122323328D01*
X196444218Y-122507749D01*
X196432749Y-122519218D01*
X196248328Y-122680951D01*
X196235460Y-122690825D01*
X196031507Y-122827102D01*
X196017460Y-122835212D01*
X195797465Y-122943702D01*
X195782479Y-122949909D01*
X195550202Y-123028756D01*
X195534535Y-123032954D01*
X195293964Y-123080807D01*
X195277883Y-123082925D01*
X195029043Y-123099235D01*
X195020933Y-123099500D01*
X100029067Y-123099500D01*
X100020957Y-123099235D01*
X99772116Y-123082925D01*
X99756035Y-123080807D01*
X99515464Y-123032954D01*
X99499797Y-123028756D01*
X99267520Y-122949909D01*
X99252534Y-122943702D01*
X99032539Y-122835212D01*
X99018492Y-122827102D01*
X98814539Y-122690825D01*
X98801671Y-122680951D01*
X98617250Y-122519218D01*
X98605781Y-122507749D01*
X98444048Y-122323328D01*
X98434174Y-122310460D01*
X98297897Y-122106507D01*
X98289787Y-122092460D01*
X98183855Y-121877652D01*
X98181294Y-121872458D01*
X98175090Y-121857479D01*
X98096243Y-121625202D01*
X98092045Y-121609535D01*
X98054113Y-121418838D01*
X98044190Y-121368953D01*
X98042075Y-121352895D01*
X98025765Y-121104043D01*
X98025500Y-121095933D01*
X98025500Y-118978711D01*
X100174500Y-118978711D01*
X100174500Y-119221288D01*
X100206161Y-119461785D01*
X100268947Y-119696104D01*
X100279379Y-119721288D01*
X100361776Y-119920212D01*
X100483064Y-120130289D01*
X100483066Y-120130292D01*
X100483067Y-120130293D01*
X100630733Y-120322736D01*
X100630739Y-120322743D01*
X100802256Y-120494260D01*
X100802262Y-120494265D01*
X100994711Y-120641936D01*
X101204788Y-120763224D01*
X101428900Y-120856054D01*
X101663211Y-120918838D01*
X101843586Y-120942584D01*
X101903711Y-120950500D01*
X101903712Y-120950500D01*
X102146289Y-120950500D01*
X102194388Y-120944167D01*
X102386789Y-120918838D01*
X102621100Y-120856054D01*
X102845212Y-120763224D01*
X103055289Y-120641936D01*
X103247738Y-120494265D01*
X103419265Y-120322738D01*
X103566936Y-120130289D01*
X103688224Y-119920212D01*
X103781054Y-119696100D01*
X103839304Y-119478711D01*
X177174500Y-119478711D01*
X177174500Y-119721288D01*
X177206161Y-119961785D01*
X177268947Y-120196104D01*
X177321400Y-120322736D01*
X177361776Y-120420212D01*
X177483064Y-120630289D01*
X177483066Y-120630292D01*
X177483067Y-120630293D01*
X177630733Y-120822736D01*
X177630739Y-120822743D01*
X177802256Y-120994260D01*
X177802263Y-120994266D01*
X177915321Y-121081018D01*
X177994711Y-121141936D01*
X178204788Y-121263224D01*
X178400269Y-121344195D01*
X178421244Y-121352883D01*
X178428900Y-121356054D01*
X178663211Y-121418838D01*
X178843586Y-121442584D01*
X178903711Y-121450500D01*
X178903712Y-121450500D01*
X179146289Y-121450500D01*
X179194388Y-121444167D01*
X179386789Y-121418838D01*
X179621100Y-121356054D01*
X179845212Y-121263224D01*
X180055289Y-121141936D01*
X180247738Y-120994265D01*
X180419265Y-120822738D01*
X180566936Y-120630289D01*
X180688224Y-120420212D01*
X180781054Y-120196100D01*
X180843838Y-119961789D01*
X180875500Y-119721288D01*
X180875500Y-119478712D01*
X180843838Y-119238211D01*
X180781054Y-119003900D01*
X180688224Y-118779788D01*
X180566936Y-118569711D01*
X180419265Y-118377262D01*
X180419260Y-118377256D01*
X180247743Y-118205739D01*
X180247736Y-118205733D01*
X180055293Y-118058067D01*
X180055292Y-118058066D01*
X180055289Y-118058064D01*
X179845212Y-117936776D01*
X179845205Y-117936773D01*
X179621104Y-117843947D01*
X179386785Y-117781161D01*
X179146289Y-117749500D01*
X179146288Y-117749500D01*
X178903712Y-117749500D01*
X178903711Y-117749500D01*
X178663214Y-117781161D01*
X178428895Y-117843947D01*
X178204794Y-117936773D01*
X178204785Y-117936777D01*
X177994706Y-118058067D01*
X177802263Y-118205733D01*
X177802256Y-118205739D01*
X177630739Y-118377256D01*
X177630733Y-118377263D01*
X177483067Y-118569706D01*
X177361777Y-118779785D01*
X177361773Y-118779794D01*
X177268947Y-119003895D01*
X177206161Y-119238214D01*
X177174500Y-119478711D01*
X103839304Y-119478711D01*
X103843838Y-119461789D01*
X103875500Y-119221288D01*
X103875500Y-118978712D01*
X103843838Y-118738211D01*
X103781054Y-118503900D01*
X103688224Y-118279788D01*
X103566936Y-118069711D01*
X103419265Y-117877262D01*
X103419260Y-117877256D01*
X103247743Y-117705739D01*
X103247736Y-117705733D01*
X103055293Y-117558067D01*
X103055292Y-117558066D01*
X103055289Y-117558064D01*
X102845212Y-117436776D01*
X102845205Y-117436773D01*
X102621104Y-117343947D01*
X102386785Y-117281161D01*
X102146289Y-117249500D01*
X102146288Y-117249500D01*
X101903712Y-117249500D01*
X101903711Y-117249500D01*
X101663214Y-117281161D01*
X101428895Y-117343947D01*
X101204794Y-117436773D01*
X101204785Y-117436777D01*
X100994706Y-117558067D01*
X100802263Y-117705733D01*
X100802256Y-117705739D01*
X100630739Y-117877256D01*
X100630733Y-117877263D01*
X100483067Y-118069706D01*
X100361777Y-118279785D01*
X100361773Y-118279794D01*
X100268947Y-118503895D01*
X100206161Y-118738214D01*
X100174500Y-118978711D01*
X98025500Y-118978711D01*
X98025500Y-114015000D01*
X113519353Y-114015000D01*
X113539834Y-114157456D01*
X113599622Y-114288371D01*
X113599623Y-114288373D01*
X113693872Y-114397143D01*
X113814947Y-114474953D01*
X113814950Y-114474954D01*
X113814949Y-114474954D01*
X113953036Y-114515499D01*
X113953038Y-114515500D01*
X113953039Y-114515500D01*
X114096962Y-114515500D01*
X114096962Y-114515499D01*
X114235053Y-114474953D01*
X114356128Y-114397143D01*
X114450377Y-114288373D01*
X114510165Y-114157457D01*
X114530647Y-114015000D01*
X114510165Y-113872543D01*
X114450377Y-113741627D01*
X114356128Y-113632857D01*
X114235053Y-113555047D01*
X114235051Y-113555046D01*
X114235049Y-113555045D01*
X114235050Y-113555045D01*
X114096963Y-113514500D01*
X114096961Y-113514500D01*
X113953039Y-113514500D01*
X113953036Y-113514500D01*
X113814949Y-113555045D01*
X113693873Y-113632856D01*
X113599623Y-113741626D01*
X113599622Y-113741628D01*
X113539834Y-113872543D01*
X113519353Y-114015000D01*
X98025500Y-114015000D01*
X98025500Y-111850000D01*
X114769353Y-111850000D01*
X114789834Y-111992456D01*
X114849622Y-112123371D01*
X114849623Y-112123373D01*
X114943872Y-112232143D01*
X115064947Y-112309953D01*
X115064950Y-112309954D01*
X115064949Y-112309954D01*
X115203036Y-112350499D01*
X115203038Y-112350500D01*
X115203039Y-112350500D01*
X115346962Y-112350500D01*
X115346962Y-112350499D01*
X115485053Y-112309953D01*
X115606128Y-112232143D01*
X115700377Y-112123373D01*
X115760165Y-111992457D01*
X115780647Y-111850000D01*
X115760165Y-111707543D01*
X115700377Y-111576627D01*
X115606128Y-111467857D01*
X115485053Y-111390047D01*
X115485051Y-111390046D01*
X115485049Y-111390045D01*
X115485050Y-111390045D01*
X115346963Y-111349500D01*
X115346961Y-111349500D01*
X115203039Y-111349500D01*
X115203036Y-111349500D01*
X115064949Y-111390045D01*
X114943873Y-111467856D01*
X114849623Y-111576626D01*
X114849622Y-111576628D01*
X114789834Y-111707543D01*
X114769353Y-111850000D01*
X98025500Y-111850000D01*
X98025500Y-110100000D01*
X148519353Y-110100000D01*
X148539834Y-110242456D01*
X148599622Y-110373371D01*
X148599623Y-110373373D01*
X148693872Y-110482143D01*
X148814947Y-110559953D01*
X148814950Y-110559954D01*
X148814949Y-110559954D01*
X148953036Y-110600499D01*
X148953038Y-110600500D01*
X148953039Y-110600500D01*
X149096962Y-110600500D01*
X149096962Y-110600499D01*
X149235053Y-110559953D01*
X149356128Y-110482143D01*
X149450377Y-110373373D01*
X149510165Y-110242457D01*
X149530647Y-110100000D01*
X149510165Y-109957543D01*
X149450377Y-109826627D01*
X149356128Y-109717857D01*
X149235053Y-109640047D01*
X149235051Y-109640046D01*
X149235049Y-109640045D01*
X149235050Y-109640045D01*
X149096963Y-109599500D01*
X149096961Y-109599500D01*
X148953039Y-109599500D01*
X148953036Y-109599500D01*
X148814949Y-109640045D01*
X148693873Y-109717856D01*
X148599623Y-109826626D01*
X148599622Y-109826628D01*
X148539834Y-109957543D01*
X148519353Y-110100000D01*
X98025500Y-110100000D01*
X98025500Y-107700000D01*
X140344353Y-107700000D01*
X140364834Y-107842456D01*
X140412309Y-107946410D01*
X140424623Y-107973373D01*
X140518872Y-108082143D01*
X140639947Y-108159953D01*
X140639950Y-108159954D01*
X140639949Y-108159954D01*
X140778036Y-108200499D01*
X140778038Y-108200500D01*
X140778039Y-108200500D01*
X140921961Y-108200500D01*
X141024971Y-108170254D01*
X141094837Y-108170254D01*
X141153616Y-108208028D01*
X141182641Y-108271583D01*
X141172698Y-108340742D01*
X141153622Y-108370427D01*
X141148890Y-108375887D01*
X141148887Y-108375893D01*
X141089099Y-108506808D01*
X141068618Y-108649265D01*
X141089099Y-108791721D01*
X141148887Y-108922636D01*
X141148888Y-108922638D01*
X141243137Y-109031408D01*
X141364212Y-109109218D01*
X141364215Y-109109219D01*
X141364214Y-109109219D01*
X141502301Y-109149764D01*
X141502303Y-109149765D01*
X141502304Y-109149765D01*
X141646227Y-109149765D01*
X141646227Y-109149764D01*
X141784318Y-109109218D01*
X141905393Y-109031408D01*
X141999642Y-108922638D01*
X142059430Y-108791722D01*
X142079912Y-108649265D01*
X142059430Y-108506808D01*
X141999642Y-108375892D01*
X141905393Y-108267122D01*
X141784318Y-108189312D01*
X141784316Y-108189311D01*
X141784314Y-108189310D01*
X141784315Y-108189310D01*
X141646228Y-108148765D01*
X141646226Y-108148765D01*
X141502304Y-108148765D01*
X141502301Y-108148765D01*
X141399295Y-108179010D01*
X141329426Y-108179010D01*
X141270648Y-108141235D01*
X141241623Y-108077679D01*
X141251567Y-108008521D01*
X141270649Y-107978829D01*
X141275377Y-107973373D01*
X141335165Y-107842457D01*
X141355647Y-107700000D01*
X145519353Y-107700000D01*
X145539834Y-107842456D01*
X145587309Y-107946410D01*
X145599623Y-107973373D01*
X145693872Y-108082143D01*
X145814947Y-108159953D01*
X145814950Y-108159954D01*
X145814949Y-108159954D01*
X145953036Y-108200499D01*
X145953038Y-108200500D01*
X145953039Y-108200500D01*
X146096962Y-108200500D01*
X146096962Y-108200499D01*
X146235053Y-108159953D01*
X146356128Y-108082143D01*
X146450377Y-107973373D01*
X146510165Y-107842457D01*
X146530647Y-107700000D01*
X146510165Y-107557543D01*
X146450377Y-107426627D01*
X146356128Y-107317857D01*
X146235053Y-107240047D01*
X146235051Y-107240046D01*
X146235049Y-107240045D01*
X146235050Y-107240045D01*
X146098666Y-107200000D01*
X168144417Y-107200000D01*
X168164699Y-107405932D01*
X168170977Y-107426627D01*
X168224768Y-107603954D01*
X168322315Y-107786450D01*
X168322317Y-107786452D01*
X168453589Y-107946410D01*
X168529273Y-108008521D01*
X168613550Y-108077685D01*
X168796046Y-108175232D01*
X168994066Y-108235300D01*
X168994065Y-108235300D01*
X169012529Y-108237118D01*
X169200000Y-108255583D01*
X169405934Y-108235300D01*
X169603954Y-108175232D01*
X169786450Y-108077685D01*
X169946410Y-107946410D01*
X170077685Y-107786450D01*
X170175232Y-107603954D01*
X170235300Y-107405934D01*
X170255583Y-107200000D01*
X170235300Y-106994066D01*
X170175232Y-106796046D01*
X170077685Y-106613550D01*
X170025702Y-106550209D01*
X169946410Y-106453589D01*
X169786452Y-106322317D01*
X169786453Y-106322317D01*
X169786450Y-106322315D01*
X169603954Y-106224768D01*
X169405934Y-106164700D01*
X169405932Y-106164699D01*
X169405934Y-106164699D01*
X169200000Y-106144417D01*
X168994067Y-106164699D01*
X168796043Y-106224769D01*
X168685898Y-106283643D01*
X168613550Y-106322315D01*
X168613548Y-106322316D01*
X168613547Y-106322317D01*
X168453589Y-106453589D01*
X168333435Y-106600000D01*
X168322315Y-106613550D01*
X168283643Y-106685898D01*
X168224769Y-106796043D01*
X168164699Y-106994067D01*
X168144417Y-107200000D01*
X146098666Y-107200000D01*
X146096963Y-107199500D01*
X146096961Y-107199500D01*
X145953039Y-107199500D01*
X145953036Y-107199500D01*
X145814949Y-107240045D01*
X145693873Y-107317856D01*
X145599623Y-107426626D01*
X145599622Y-107426628D01*
X145539834Y-107557543D01*
X145519353Y-107700000D01*
X141355647Y-107700000D01*
X141335165Y-107557543D01*
X141275377Y-107426627D01*
X141181128Y-107317857D01*
X141060053Y-107240047D01*
X141060051Y-107240046D01*
X141060049Y-107240045D01*
X141060050Y-107240045D01*
X140921963Y-107199500D01*
X140921961Y-107199500D01*
X140778039Y-107199500D01*
X140778036Y-107199500D01*
X140639949Y-107240045D01*
X140518873Y-107317856D01*
X140424623Y-107426626D01*
X140424622Y-107426628D01*
X140364834Y-107557543D01*
X140344353Y-107700000D01*
X98025500Y-107700000D01*
X98025500Y-106350000D01*
X117269353Y-106350000D01*
X117289834Y-106492456D01*
X117345137Y-106613550D01*
X117349623Y-106623373D01*
X117443872Y-106732143D01*
X117564947Y-106809953D01*
X117564950Y-106809954D01*
X117564949Y-106809954D01*
X117703036Y-106850499D01*
X117703038Y-106850500D01*
X117703039Y-106850500D01*
X117846962Y-106850500D01*
X117846962Y-106850499D01*
X117985053Y-106809953D01*
X118106128Y-106732143D01*
X118200377Y-106623373D01*
X118211051Y-106600000D01*
X139194353Y-106600000D01*
X139214834Y-106742456D01*
X139245660Y-106809954D01*
X139274623Y-106873373D01*
X139368872Y-106982143D01*
X139489947Y-107059953D01*
X139489950Y-107059954D01*
X139489949Y-107059954D01*
X139628036Y-107100499D01*
X139628038Y-107100500D01*
X139628039Y-107100500D01*
X139771962Y-107100500D01*
X139771962Y-107100499D01*
X139910053Y-107059953D01*
X140031128Y-106982143D01*
X140125377Y-106873373D01*
X140185165Y-106742457D01*
X140205647Y-106600000D01*
X140185165Y-106457543D01*
X140125377Y-106326627D01*
X140031128Y-106217857D01*
X139910053Y-106140047D01*
X139910051Y-106140046D01*
X139910049Y-106140045D01*
X139910050Y-106140045D01*
X139771963Y-106099500D01*
X139771961Y-106099500D01*
X139628039Y-106099500D01*
X139628036Y-106099500D01*
X139489949Y-106140045D01*
X139368873Y-106217856D01*
X139274623Y-106326626D01*
X139274622Y-106326628D01*
X139214834Y-106457543D01*
X139194353Y-106600000D01*
X118211051Y-106600000D01*
X118260165Y-106492457D01*
X118280647Y-106350000D01*
X118260165Y-106207543D01*
X118200377Y-106076627D01*
X118106128Y-105967857D01*
X117985053Y-105890047D01*
X117985051Y-105890046D01*
X117985049Y-105890045D01*
X117985050Y-105890045D01*
X117846963Y-105849500D01*
X117846961Y-105849500D01*
X117703039Y-105849500D01*
X117703036Y-105849500D01*
X117564949Y-105890045D01*
X117443873Y-105967856D01*
X117349623Y-106076626D01*
X117349622Y-106076628D01*
X117289834Y-106207543D01*
X117269353Y-106350000D01*
X98025500Y-106350000D01*
X98025500Y-105500000D01*
X138244353Y-105500000D01*
X138264834Y-105642456D01*
X138298230Y-105715582D01*
X138324623Y-105773373D01*
X138418872Y-105882143D01*
X138539947Y-105959953D01*
X138539950Y-105959954D01*
X138539949Y-105959954D01*
X138678036Y-106000499D01*
X138678038Y-106000500D01*
X138678039Y-106000500D01*
X138821962Y-106000500D01*
X138821962Y-106000499D01*
X138960053Y-105959953D01*
X139081128Y-105882143D01*
X139175377Y-105773373D01*
X139235165Y-105642457D01*
X139255647Y-105500000D01*
X139235165Y-105357543D01*
X139235165Y-105357542D01*
X139232667Y-105349036D01*
X139233956Y-105348657D01*
X139225320Y-105288609D01*
X139254343Y-105225052D01*
X139313119Y-105187275D01*
X139382988Y-105187272D01*
X139382990Y-105187272D01*
X139382993Y-105187274D01*
X139428036Y-105200499D01*
X139428038Y-105200500D01*
X139428039Y-105200500D01*
X139571962Y-105200500D01*
X139571962Y-105200499D01*
X139710053Y-105159953D01*
X139831128Y-105082143D01*
X139925377Y-104973373D01*
X139985165Y-104842457D01*
X140005647Y-104700000D01*
X139985165Y-104557543D01*
X139958886Y-104500000D01*
X142594353Y-104500000D01*
X142614834Y-104642456D01*
X142641114Y-104700000D01*
X142674623Y-104773373D01*
X142768872Y-104882143D01*
X142889947Y-104959953D01*
X142889950Y-104959954D01*
X142889949Y-104959954D01*
X142941029Y-104974952D01*
X143024633Y-104999500D01*
X143028036Y-105000499D01*
X143028038Y-105000500D01*
X143028039Y-105000500D01*
X143171962Y-105000500D01*
X143171962Y-105000499D01*
X143310053Y-104959953D01*
X143431128Y-104882143D01*
X143525377Y-104773373D01*
X143577153Y-104660000D01*
X168144417Y-104660000D01*
X168164699Y-104865932D01*
X168164700Y-104865934D01*
X168224768Y-105063954D01*
X168322315Y-105246450D01*
X168322317Y-105246452D01*
X168453589Y-105406410D01*
X168550209Y-105485702D01*
X168613550Y-105537685D01*
X168796046Y-105635232D01*
X168994066Y-105695300D01*
X168994065Y-105695300D01*
X169012529Y-105697118D01*
X169200000Y-105715583D01*
X169405934Y-105695300D01*
X169603954Y-105635232D01*
X169786450Y-105537685D01*
X169946410Y-105406410D01*
X170077685Y-105246450D01*
X170175232Y-105063954D01*
X170235300Y-104865934D01*
X170255583Y-104660000D01*
X170235300Y-104454066D01*
X170175232Y-104256046D01*
X170077685Y-104073550D01*
X170025702Y-104010209D01*
X169946410Y-103913589D01*
X169807999Y-103800000D01*
X186594353Y-103800000D01*
X186614834Y-103942456D01*
X186640886Y-103999500D01*
X186674623Y-104073373D01*
X186768872Y-104182143D01*
X186889947Y-104259953D01*
X186889950Y-104259954D01*
X186889949Y-104259954D01*
X187028036Y-104300499D01*
X187028038Y-104300500D01*
X187028039Y-104300500D01*
X187171962Y-104300500D01*
X187171962Y-104300499D01*
X187310053Y-104259953D01*
X187431128Y-104182143D01*
X187525377Y-104073373D01*
X187585165Y-103942457D01*
X187605647Y-103800000D01*
X187585165Y-103657543D01*
X187525377Y-103526627D01*
X187431128Y-103417857D01*
X187310053Y-103340047D01*
X187310051Y-103340046D01*
X187310049Y-103340045D01*
X187310050Y-103340045D01*
X187171963Y-103299500D01*
X187171961Y-103299500D01*
X187028039Y-103299500D01*
X187028036Y-103299500D01*
X186889949Y-103340045D01*
X186768873Y-103417856D01*
X186674623Y-103526626D01*
X186674622Y-103526628D01*
X186614834Y-103657543D01*
X186594353Y-103800000D01*
X169807999Y-103800000D01*
X169786452Y-103782317D01*
X169786453Y-103782317D01*
X169786450Y-103782315D01*
X169603954Y-103684768D01*
X169405934Y-103624700D01*
X169405932Y-103624699D01*
X169405934Y-103624699D01*
X169200000Y-103604417D01*
X168994067Y-103624699D01*
X168796043Y-103684769D01*
X168717736Y-103726626D01*
X168613550Y-103782315D01*
X168613548Y-103782316D01*
X168613547Y-103782317D01*
X168453589Y-103913589D01*
X168322317Y-104073547D01*
X168224769Y-104256043D01*
X168164699Y-104454067D01*
X168144417Y-104660000D01*
X143577153Y-104660000D01*
X143585165Y-104642457D01*
X143605647Y-104500000D01*
X143585165Y-104357543D01*
X143525377Y-104226627D01*
X143431128Y-104117857D01*
X143310053Y-104040047D01*
X143310051Y-104040046D01*
X143310049Y-104040045D01*
X143310050Y-104040045D01*
X143171963Y-103999500D01*
X143171961Y-103999500D01*
X143028039Y-103999500D01*
X143028036Y-103999500D01*
X142889949Y-104040045D01*
X142768873Y-104117856D01*
X142674623Y-104226626D01*
X142674622Y-104226628D01*
X142614834Y-104357543D01*
X142594353Y-104500000D01*
X139958886Y-104500000D01*
X139925377Y-104426627D01*
X139831128Y-104317857D01*
X139710053Y-104240047D01*
X139710051Y-104240046D01*
X139710049Y-104240045D01*
X139710050Y-104240045D01*
X139571963Y-104199500D01*
X139571961Y-104199500D01*
X139570067Y-104199500D01*
X139568249Y-104198966D01*
X139563184Y-104198238D01*
X139563288Y-104197509D01*
X139503028Y-104179815D01*
X139457273Y-104127011D01*
X139447329Y-104057853D01*
X139449889Y-104040045D01*
X139455647Y-104000000D01*
X139435165Y-103857543D01*
X139416636Y-103816971D01*
X139406693Y-103747816D01*
X139435717Y-103684260D01*
X139494495Y-103646485D01*
X139564361Y-103646484D01*
X139564367Y-103646485D01*
X139564368Y-103646486D01*
X139578036Y-103650499D01*
X139578038Y-103650500D01*
X139578039Y-103650500D01*
X139721962Y-103650500D01*
X139721962Y-103650499D01*
X139860053Y-103609953D01*
X139981128Y-103532143D01*
X140031287Y-103474256D01*
X140090065Y-103436481D01*
X140159934Y-103436481D01*
X140218711Y-103474253D01*
X140218713Y-103474255D01*
X140218713Y-103474256D01*
X140264091Y-103526626D01*
X140268872Y-103532143D01*
X140389947Y-103609953D01*
X140389950Y-103609954D01*
X140389949Y-103609954D01*
X140440171Y-103624700D01*
X140514368Y-103646486D01*
X140528036Y-103650499D01*
X140528038Y-103650500D01*
X140528039Y-103650500D01*
X140671962Y-103650500D01*
X140671962Y-103650499D01*
X140810053Y-103609953D01*
X140931128Y-103532143D01*
X140956288Y-103503106D01*
X141015065Y-103465333D01*
X141084935Y-103465333D01*
X141143711Y-103503106D01*
X141168872Y-103532143D01*
X141289947Y-103609953D01*
X141289950Y-103609954D01*
X141289949Y-103609954D01*
X141340171Y-103624700D01*
X141414368Y-103646486D01*
X141428036Y-103650499D01*
X141428038Y-103650500D01*
X141428039Y-103650500D01*
X141571962Y-103650500D01*
X141571962Y-103650499D01*
X141710053Y-103609953D01*
X141831128Y-103532143D01*
X141925377Y-103423373D01*
X141985165Y-103292457D01*
X142005647Y-103150000D01*
X141985165Y-103007543D01*
X141925377Y-102876627D01*
X141902305Y-102850000D01*
X144769353Y-102850000D01*
X144789834Y-102992456D01*
X144836770Y-103095230D01*
X144849623Y-103123373D01*
X144943872Y-103232143D01*
X145064947Y-103309953D01*
X145064950Y-103309954D01*
X145064949Y-103309954D01*
X145203036Y-103350499D01*
X145203038Y-103350500D01*
X145203039Y-103350500D01*
X145346962Y-103350500D01*
X145346962Y-103350499D01*
X145454121Y-103319035D01*
X145485050Y-103309954D01*
X145485050Y-103309953D01*
X145485053Y-103309953D01*
X145606128Y-103232143D01*
X145700377Y-103123373D01*
X145760165Y-102992457D01*
X145780647Y-102850000D01*
X145760165Y-102707543D01*
X145700377Y-102576627D01*
X145606128Y-102467857D01*
X145485053Y-102390047D01*
X145485051Y-102390046D01*
X145485049Y-102390045D01*
X145485050Y-102390045D01*
X145348666Y-102350000D01*
X147269353Y-102350000D01*
X147289834Y-102492456D01*
X147328275Y-102576628D01*
X147349623Y-102623373D01*
X147443872Y-102732143D01*
X147564947Y-102809953D01*
X147564950Y-102809954D01*
X147564949Y-102809954D01*
X147649116Y-102834667D01*
X147701336Y-102850000D01*
X147703036Y-102850499D01*
X147703038Y-102850500D01*
X147703039Y-102850500D01*
X147846962Y-102850500D01*
X147846962Y-102850499D01*
X147985053Y-102809953D01*
X148106128Y-102732143D01*
X148200377Y-102623373D01*
X148260165Y-102492457D01*
X148280647Y-102350000D01*
X148260165Y-102207543D01*
X148200377Y-102076627D01*
X148155642Y-102025000D01*
X154944353Y-102025000D01*
X154964834Y-102167456D01*
X155007077Y-102259953D01*
X155024623Y-102298373D01*
X155118872Y-102407143D01*
X155239947Y-102484953D01*
X155239950Y-102484954D01*
X155239949Y-102484954D01*
X155378036Y-102525499D01*
X155378038Y-102525500D01*
X155378039Y-102525500D01*
X155521962Y-102525500D01*
X155521962Y-102525499D01*
X155660053Y-102484953D01*
X155781128Y-102407143D01*
X155875377Y-102298373D01*
X155935165Y-102167457D01*
X155941988Y-102120000D01*
X168144417Y-102120000D01*
X168164699Y-102325932D01*
X168194734Y-102424944D01*
X168224768Y-102523954D01*
X168322315Y-102706450D01*
X168322317Y-102706452D01*
X168453589Y-102866410D01*
X168531737Y-102930543D01*
X168613550Y-102997685D01*
X168796046Y-103095232D01*
X168994066Y-103155300D01*
X168994065Y-103155300D01*
X169012529Y-103157118D01*
X169200000Y-103175583D01*
X169405934Y-103155300D01*
X169603954Y-103095232D01*
X169786450Y-102997685D01*
X169946410Y-102866410D01*
X170077685Y-102706450D01*
X170175232Y-102523954D01*
X170235300Y-102325934D01*
X170255583Y-102120000D01*
X170235300Y-101914066D01*
X170200699Y-101800000D01*
X186344353Y-101800000D01*
X186364834Y-101942456D01*
X186413720Y-102049500D01*
X186424623Y-102073373D01*
X186518872Y-102182143D01*
X186639947Y-102259953D01*
X186639950Y-102259954D01*
X186639949Y-102259954D01*
X186696737Y-102276628D01*
X186770788Y-102298371D01*
X186778036Y-102300499D01*
X186778038Y-102300500D01*
X186778039Y-102300500D01*
X186921962Y-102300500D01*
X186921962Y-102300499D01*
X187060053Y-102259953D01*
X187181128Y-102182143D01*
X187275377Y-102073373D01*
X187335165Y-101942457D01*
X187355647Y-101800000D01*
X187335165Y-101657543D01*
X187275377Y-101526627D01*
X187181128Y-101417857D01*
X187060053Y-101340047D01*
X187060051Y-101340046D01*
X187060049Y-101340045D01*
X187060050Y-101340045D01*
X186921963Y-101299500D01*
X186921961Y-101299500D01*
X186778039Y-101299500D01*
X186778036Y-101299500D01*
X186639949Y-101340045D01*
X186518873Y-101417856D01*
X186424623Y-101526626D01*
X186424622Y-101526628D01*
X186364834Y-101657543D01*
X186344353Y-101800000D01*
X170200699Y-101800000D01*
X170175232Y-101716046D01*
X170077685Y-101533550D01*
X169982738Y-101417856D01*
X169946410Y-101373589D01*
X169786452Y-101242317D01*
X169786453Y-101242317D01*
X169786450Y-101242315D01*
X169603954Y-101144768D01*
X169405934Y-101084700D01*
X169405932Y-101084699D01*
X169405934Y-101084699D01*
X169200000Y-101064417D01*
X168994067Y-101084699D01*
X168796043Y-101144769D01*
X168685898Y-101203643D01*
X168613550Y-101242315D01*
X168613548Y-101242316D01*
X168613547Y-101242317D01*
X168453589Y-101373589D01*
X168322317Y-101533547D01*
X168322315Y-101533550D01*
X168283643Y-101605898D01*
X168224769Y-101716043D01*
X168164699Y-101914067D01*
X168144417Y-102120000D01*
X155941988Y-102120000D01*
X155955647Y-102025000D01*
X155935165Y-101882543D01*
X155875377Y-101751627D01*
X155781128Y-101642857D01*
X155660053Y-101565047D01*
X155660051Y-101565046D01*
X155660049Y-101565045D01*
X155660050Y-101565045D01*
X155521963Y-101524500D01*
X155521961Y-101524500D01*
X155378039Y-101524500D01*
X155378036Y-101524500D01*
X155239949Y-101565045D01*
X155118873Y-101642856D01*
X155024623Y-101751626D01*
X155024622Y-101751628D01*
X154964834Y-101882543D01*
X154944353Y-102025000D01*
X148155642Y-102025000D01*
X148106128Y-101967857D01*
X147985053Y-101890047D01*
X147985051Y-101890046D01*
X147985049Y-101890045D01*
X147985050Y-101890045D01*
X147846963Y-101849500D01*
X147846961Y-101849500D01*
X147703039Y-101849500D01*
X147703036Y-101849500D01*
X147564949Y-101890045D01*
X147443873Y-101967856D01*
X147349623Y-102076626D01*
X147349622Y-102076628D01*
X147289834Y-102207543D01*
X147269353Y-102350000D01*
X145348666Y-102350000D01*
X145346963Y-102349500D01*
X145346961Y-102349500D01*
X145203039Y-102349500D01*
X145203036Y-102349500D01*
X145064949Y-102390045D01*
X144943873Y-102467856D01*
X144849623Y-102576626D01*
X144849622Y-102576628D01*
X144789834Y-102707543D01*
X144769353Y-102850000D01*
X141902305Y-102850000D01*
X141831128Y-102767857D01*
X141710053Y-102690047D01*
X141710051Y-102690046D01*
X141710049Y-102690045D01*
X141710050Y-102690045D01*
X141571963Y-102649500D01*
X141571961Y-102649500D01*
X141428039Y-102649500D01*
X141428036Y-102649500D01*
X141289949Y-102690045D01*
X141168872Y-102767856D01*
X141143712Y-102796893D01*
X141084933Y-102834667D01*
X141015064Y-102834666D01*
X140956288Y-102796893D01*
X140931127Y-102767856D01*
X140837277Y-102707543D01*
X140810053Y-102690047D01*
X140810051Y-102690046D01*
X140810049Y-102690045D01*
X140810050Y-102690045D01*
X140671963Y-102649500D01*
X140671961Y-102649500D01*
X140528039Y-102649500D01*
X140528036Y-102649500D01*
X140389949Y-102690045D01*
X140268873Y-102767856D01*
X140218713Y-102825744D01*
X140159935Y-102863518D01*
X140090065Y-102863518D01*
X140031287Y-102825744D01*
X140030263Y-102824563D01*
X139981128Y-102767857D01*
X139860053Y-102690047D01*
X139860051Y-102690046D01*
X139860049Y-102690045D01*
X139860050Y-102690045D01*
X139721963Y-102649500D01*
X139721961Y-102649500D01*
X139578039Y-102649500D01*
X139578036Y-102649500D01*
X139439949Y-102690045D01*
X139318873Y-102767856D01*
X139224623Y-102876626D01*
X139224622Y-102876628D01*
X139164834Y-103007543D01*
X139144353Y-103150000D01*
X139164834Y-103292456D01*
X139183362Y-103333025D01*
X139193306Y-103402184D01*
X139164281Y-103465740D01*
X139105503Y-103503514D01*
X139035634Y-103503514D01*
X139021964Y-103499500D01*
X139021961Y-103499500D01*
X138878039Y-103499500D01*
X138878036Y-103499500D01*
X138739949Y-103540045D01*
X138618873Y-103617856D01*
X138524623Y-103726626D01*
X138524622Y-103726628D01*
X138464834Y-103857543D01*
X138444353Y-104000000D01*
X138464834Y-104142456D01*
X138516710Y-104256046D01*
X138524623Y-104273373D01*
X138618872Y-104382143D01*
X138739947Y-104459953D01*
X138739950Y-104459954D01*
X138739949Y-104459954D01*
X138847107Y-104491417D01*
X138876336Y-104500000D01*
X138878036Y-104500499D01*
X138878038Y-104500500D01*
X138879933Y-104500500D01*
X138881750Y-104501033D01*
X138886816Y-104501762D01*
X138886711Y-104502490D01*
X138946972Y-104520185D01*
X138992727Y-104572989D01*
X139002670Y-104642146D01*
X139002626Y-104642457D01*
X138994353Y-104700000D01*
X139014834Y-104842457D01*
X139017333Y-104850964D01*
X139016043Y-104851342D01*
X139024678Y-104911397D01*
X138995652Y-104974952D01*
X138936873Y-105012726D01*
X138867007Y-105012726D01*
X138821961Y-104999500D01*
X138678039Y-104999500D01*
X138678036Y-104999500D01*
X138539949Y-105040045D01*
X138418873Y-105117856D01*
X138324623Y-105226626D01*
X138324622Y-105226628D01*
X138264834Y-105357543D01*
X138244353Y-105500000D01*
X98025500Y-105500000D01*
X98025500Y-102550000D01*
X121944353Y-102550000D01*
X121964834Y-102692456D01*
X121982959Y-102732143D01*
X122024623Y-102823373D01*
X122118872Y-102932143D01*
X122239947Y-103009953D01*
X122239950Y-103009954D01*
X122239949Y-103009954D01*
X122378036Y-103050499D01*
X122378038Y-103050500D01*
X122378039Y-103050500D01*
X122521962Y-103050500D01*
X122521962Y-103050499D01*
X122660053Y-103009953D01*
X122781128Y-102932143D01*
X122875377Y-102823373D01*
X122935165Y-102692457D01*
X122955647Y-102550000D01*
X122935165Y-102407543D01*
X122875377Y-102276627D01*
X122781128Y-102167857D01*
X122660053Y-102090047D01*
X122660051Y-102090046D01*
X122660049Y-102090045D01*
X122660050Y-102090045D01*
X122521963Y-102049500D01*
X122521961Y-102049500D01*
X122378039Y-102049500D01*
X122378036Y-102049500D01*
X122239949Y-102090045D01*
X122118873Y-102167856D01*
X122024623Y-102276626D01*
X122024622Y-102276628D01*
X121964834Y-102407543D01*
X121944353Y-102550000D01*
X98025500Y-102550000D01*
X98025500Y-99800000D01*
X119794353Y-99800000D01*
X119814834Y-99942456D01*
X119832959Y-99982143D01*
X119874623Y-100073373D01*
X119968872Y-100182143D01*
X120089947Y-100259953D01*
X120089950Y-100259954D01*
X120089949Y-100259954D01*
X120228036Y-100300499D01*
X120228038Y-100300500D01*
X120228039Y-100300500D01*
X120371962Y-100300500D01*
X120371962Y-100300499D01*
X120510053Y-100259953D01*
X120631128Y-100182143D01*
X120725377Y-100073373D01*
X120785165Y-99942457D01*
X120805647Y-99800000D01*
X120785165Y-99657543D01*
X120725377Y-99526627D01*
X120631128Y-99417857D01*
X120525540Y-99350000D01*
X139019353Y-99350000D01*
X139039834Y-99492456D01*
X139079815Y-99580000D01*
X139099623Y-99623373D01*
X139193872Y-99732143D01*
X139314947Y-99809953D01*
X139314950Y-99809954D01*
X139314949Y-99809954D01*
X139453036Y-99850499D01*
X139453038Y-99850500D01*
X139453039Y-99850500D01*
X139596962Y-99850500D01*
X139596962Y-99850499D01*
X139735053Y-99809953D01*
X139856128Y-99732143D01*
X139950377Y-99623373D01*
X139961051Y-99600000D01*
X152519353Y-99600000D01*
X152539834Y-99742456D01*
X152570660Y-99809954D01*
X152599623Y-99873373D01*
X152693872Y-99982143D01*
X152814947Y-100059953D01*
X152814950Y-100059954D01*
X152814949Y-100059954D01*
X152953036Y-100100499D01*
X152953038Y-100100500D01*
X152953039Y-100100500D01*
X153096962Y-100100500D01*
X153096962Y-100100499D01*
X153235053Y-100059953D01*
X153356128Y-99982143D01*
X153450377Y-99873373D01*
X153510165Y-99742457D01*
X153530647Y-99600000D01*
X153527771Y-99580000D01*
X168144417Y-99580000D01*
X168164699Y-99785932D01*
X168171986Y-99809953D01*
X168224768Y-99983954D01*
X168322315Y-100166450D01*
X168322317Y-100166452D01*
X168453589Y-100326410D01*
X168550209Y-100405702D01*
X168613550Y-100457685D01*
X168796046Y-100555232D01*
X168994066Y-100615300D01*
X168994065Y-100615300D01*
X169012529Y-100617118D01*
X169200000Y-100635583D01*
X169405934Y-100615300D01*
X169603954Y-100555232D01*
X169786450Y-100457685D01*
X169946410Y-100326410D01*
X170077685Y-100166450D01*
X170175232Y-99983954D01*
X170231033Y-99800000D01*
X186144353Y-99800000D01*
X186164834Y-99942456D01*
X186182959Y-99982143D01*
X186224623Y-100073373D01*
X186318872Y-100182143D01*
X186439947Y-100259953D01*
X186439950Y-100259954D01*
X186439949Y-100259954D01*
X186578036Y-100300499D01*
X186578038Y-100300500D01*
X186578039Y-100300500D01*
X186721962Y-100300500D01*
X186721962Y-100300499D01*
X186860053Y-100259953D01*
X186981128Y-100182143D01*
X187075377Y-100073373D01*
X187135165Y-99942457D01*
X187155647Y-99800000D01*
X187135165Y-99657543D01*
X187075377Y-99526627D01*
X186981128Y-99417857D01*
X186860053Y-99340047D01*
X186860051Y-99340046D01*
X186860049Y-99340045D01*
X186860050Y-99340045D01*
X186721963Y-99299500D01*
X186721961Y-99299500D01*
X186578039Y-99299500D01*
X186578036Y-99299500D01*
X186439949Y-99340045D01*
X186318873Y-99417856D01*
X186224623Y-99526626D01*
X186224622Y-99526628D01*
X186164834Y-99657543D01*
X186144353Y-99800000D01*
X170231033Y-99800000D01*
X170235300Y-99785934D01*
X170255583Y-99580000D01*
X170235300Y-99374066D01*
X170175232Y-99176046D01*
X170077685Y-98993550D01*
X169960287Y-98850499D01*
X169946410Y-98833589D01*
X169822796Y-98732143D01*
X169786450Y-98702315D01*
X169603954Y-98604768D01*
X169405934Y-98544700D01*
X169405932Y-98544699D01*
X169405934Y-98544699D01*
X169200000Y-98524417D01*
X168994067Y-98544699D01*
X168796043Y-98604769D01*
X168685898Y-98663643D01*
X168613550Y-98702315D01*
X168613548Y-98702316D01*
X168613547Y-98702317D01*
X168453589Y-98833589D01*
X168322317Y-98993547D01*
X168322315Y-98993550D01*
X168300184Y-99034954D01*
X168224769Y-99176043D01*
X168164699Y-99374067D01*
X168144417Y-99580000D01*
X153527771Y-99580000D01*
X153510165Y-99457543D01*
X153450377Y-99326627D01*
X153356128Y-99217857D01*
X153235053Y-99140047D01*
X153235051Y-99140046D01*
X153235049Y-99140045D01*
X153235050Y-99140045D01*
X153096963Y-99099500D01*
X153096961Y-99099500D01*
X152953039Y-99099500D01*
X152953036Y-99099500D01*
X152814949Y-99140045D01*
X152693873Y-99217856D01*
X152599623Y-99326626D01*
X152599622Y-99326628D01*
X152539834Y-99457543D01*
X152519353Y-99600000D01*
X139961051Y-99600000D01*
X140010165Y-99492457D01*
X140030647Y-99350000D01*
X140010165Y-99207543D01*
X139950377Y-99076627D01*
X139856128Y-98967857D01*
X139735053Y-98890047D01*
X139735051Y-98890046D01*
X139735049Y-98890045D01*
X139735050Y-98890045D01*
X139596963Y-98849500D01*
X139596961Y-98849500D01*
X139453039Y-98849500D01*
X139453036Y-98849500D01*
X139314949Y-98890045D01*
X139193873Y-98967856D01*
X139099623Y-99076626D01*
X139099622Y-99076628D01*
X139039834Y-99207543D01*
X139019353Y-99350000D01*
X120525540Y-99350000D01*
X120510053Y-99340047D01*
X120510051Y-99340046D01*
X120510049Y-99340045D01*
X120510050Y-99340045D01*
X120371963Y-99299500D01*
X120371961Y-99299500D01*
X120228039Y-99299500D01*
X120228036Y-99299500D01*
X120089949Y-99340045D01*
X119968873Y-99417856D01*
X119874623Y-99526626D01*
X119874622Y-99526628D01*
X119814834Y-99657543D01*
X119794353Y-99800000D01*
X98025500Y-99800000D01*
X98025500Y-96350000D01*
X133019353Y-96350000D01*
X133039834Y-96492456D01*
X133057959Y-96532143D01*
X133099623Y-96623373D01*
X133193872Y-96732143D01*
X133201324Y-96736932D01*
X133214943Y-96745685D01*
X133260698Y-96798489D01*
X133270641Y-96867648D01*
X133241615Y-96931203D01*
X133214943Y-96954315D01*
X133193874Y-96967855D01*
X133099623Y-97076626D01*
X133099622Y-97076628D01*
X133039834Y-97207543D01*
X133019353Y-97350000D01*
X133039834Y-97492456D01*
X133070660Y-97559954D01*
X133099623Y-97623373D01*
X133193872Y-97732143D01*
X133201324Y-97736932D01*
X133214943Y-97745685D01*
X133260698Y-97798489D01*
X133270641Y-97867648D01*
X133241615Y-97931203D01*
X133214943Y-97954315D01*
X133193874Y-97967855D01*
X133099623Y-98076626D01*
X133099622Y-98076628D01*
X133039834Y-98207543D01*
X133019353Y-98350000D01*
X133039834Y-98492456D01*
X133089177Y-98600499D01*
X133099623Y-98623373D01*
X133193872Y-98732143D01*
X133314947Y-98809953D01*
X133314950Y-98809954D01*
X133314949Y-98809954D01*
X133395448Y-98833590D01*
X133449633Y-98849500D01*
X133453036Y-98850499D01*
X133453038Y-98850500D01*
X133453039Y-98850500D01*
X133596962Y-98850500D01*
X133596962Y-98850499D01*
X133735053Y-98809953D01*
X133856128Y-98732143D01*
X133950377Y-98623373D01*
X133972468Y-98575000D01*
X154369353Y-98575000D01*
X154389834Y-98717456D01*
X154432077Y-98809953D01*
X154449623Y-98848373D01*
X154543872Y-98957143D01*
X154664947Y-99034953D01*
X154664950Y-99034954D01*
X154664949Y-99034954D01*
X154803036Y-99075499D01*
X154803038Y-99075500D01*
X154803039Y-99075500D01*
X154946962Y-99075500D01*
X154946962Y-99075499D01*
X155085053Y-99034953D01*
X155206128Y-98957143D01*
X155300377Y-98848373D01*
X155360165Y-98717457D01*
X155380647Y-98575000D01*
X155360165Y-98432543D01*
X155300377Y-98301627D01*
X155206128Y-98192857D01*
X155085053Y-98115047D01*
X155085051Y-98115046D01*
X155085049Y-98115045D01*
X155085050Y-98115045D01*
X155033810Y-98100000D01*
X158094353Y-98100000D01*
X158114834Y-98242456D01*
X158163949Y-98350000D01*
X158174623Y-98373373D01*
X158268872Y-98482143D01*
X158389947Y-98559953D01*
X158389950Y-98559954D01*
X158389949Y-98559954D01*
X158528036Y-98600499D01*
X158528038Y-98600500D01*
X158528039Y-98600500D01*
X158671962Y-98600500D01*
X158671962Y-98600499D01*
X158810053Y-98559953D01*
X158931128Y-98482143D01*
X159025377Y-98373373D01*
X159085165Y-98242457D01*
X159105647Y-98100000D01*
X159085165Y-97957543D01*
X159025377Y-97826627D01*
X158931128Y-97717857D01*
X158810053Y-97640047D01*
X158810051Y-97640046D01*
X158810049Y-97640045D01*
X158810050Y-97640045D01*
X158671963Y-97599500D01*
X158671961Y-97599500D01*
X158528039Y-97599500D01*
X158528036Y-97599500D01*
X158389949Y-97640045D01*
X158268873Y-97717856D01*
X158174623Y-97826626D01*
X158174622Y-97826628D01*
X158114834Y-97957543D01*
X158094353Y-98100000D01*
X155033810Y-98100000D01*
X154946963Y-98074500D01*
X154946961Y-98074500D01*
X154803039Y-98074500D01*
X154803036Y-98074500D01*
X154664949Y-98115045D01*
X154543873Y-98192856D01*
X154449623Y-98301626D01*
X154449622Y-98301628D01*
X154389834Y-98432543D01*
X154369353Y-98575000D01*
X133972468Y-98575000D01*
X134010165Y-98492457D01*
X134030647Y-98350000D01*
X134010165Y-98207543D01*
X133950377Y-98076627D01*
X133856128Y-97967857D01*
X133856125Y-97967855D01*
X133856125Y-97967854D01*
X133835058Y-97954316D01*
X133789302Y-97901513D01*
X133779358Y-97832354D01*
X133808382Y-97768798D01*
X133835058Y-97745684D01*
X133856125Y-97732145D01*
X133856125Y-97732144D01*
X133856128Y-97732143D01*
X133950377Y-97623373D01*
X133961051Y-97600000D01*
X139519353Y-97600000D01*
X139539834Y-97742456D01*
X139593159Y-97859219D01*
X139599623Y-97873373D01*
X139693872Y-97982143D01*
X139814947Y-98059953D01*
X139814950Y-98059954D01*
X139814949Y-98059954D01*
X139879366Y-98078868D01*
X139951336Y-98100000D01*
X139953036Y-98100499D01*
X139953038Y-98100500D01*
X139953039Y-98100500D01*
X140096962Y-98100500D01*
X140096962Y-98100499D01*
X140235053Y-98059953D01*
X140356128Y-97982143D01*
X140450377Y-97873373D01*
X140510165Y-97742457D01*
X140530647Y-97600000D01*
X140510165Y-97457543D01*
X140483550Y-97399265D01*
X141818618Y-97399265D01*
X141839099Y-97541721D01*
X141865715Y-97600000D01*
X141898888Y-97672638D01*
X141993137Y-97781408D01*
X142114212Y-97859218D01*
X142114215Y-97859219D01*
X142114214Y-97859219D01*
X142252301Y-97899764D01*
X142252303Y-97899765D01*
X142252304Y-97899765D01*
X142396227Y-97899765D01*
X142396227Y-97899764D01*
X142534318Y-97859218D01*
X142625320Y-97800735D01*
X146470089Y-97800735D01*
X146490570Y-97943191D01*
X146543895Y-98059954D01*
X146550359Y-98074108D01*
X146644608Y-98182878D01*
X146765683Y-98260688D01*
X146765686Y-98260689D01*
X146765685Y-98260689D01*
X146903772Y-98301234D01*
X146903774Y-98301235D01*
X146903775Y-98301235D01*
X147047698Y-98301235D01*
X147047698Y-98301234D01*
X147185789Y-98260688D01*
X147306864Y-98182878D01*
X147401113Y-98074108D01*
X147460901Y-97943192D01*
X147481383Y-97800735D01*
X147460901Y-97658278D01*
X147401113Y-97527362D01*
X147306864Y-97418592D01*
X147185789Y-97340782D01*
X147185787Y-97340781D01*
X147185785Y-97340780D01*
X147185786Y-97340780D01*
X147047699Y-97300235D01*
X147047697Y-97300235D01*
X146903775Y-97300235D01*
X146903772Y-97300235D01*
X146765685Y-97340780D01*
X146644609Y-97418591D01*
X146550359Y-97527361D01*
X146550358Y-97527363D01*
X146490570Y-97658278D01*
X146470089Y-97800735D01*
X142625320Y-97800735D01*
X142655393Y-97781408D01*
X142749642Y-97672638D01*
X142809430Y-97541722D01*
X142829912Y-97399265D01*
X142809430Y-97256808D01*
X142749642Y-97125892D01*
X142727207Y-97100000D01*
X143394353Y-97100000D01*
X143414834Y-97242456D01*
X143453275Y-97326628D01*
X143474623Y-97373373D01*
X143568872Y-97482143D01*
X143689947Y-97559953D01*
X143689950Y-97559954D01*
X143689949Y-97559954D01*
X143797107Y-97591417D01*
X143826336Y-97600000D01*
X143828036Y-97600499D01*
X143828038Y-97600500D01*
X143828039Y-97600500D01*
X143971962Y-97600500D01*
X143971962Y-97600499D01*
X144110053Y-97559953D01*
X144231128Y-97482143D01*
X144325377Y-97373373D01*
X144385165Y-97242457D01*
X144405647Y-97100000D01*
X156519353Y-97100000D01*
X156539834Y-97242456D01*
X156578275Y-97326628D01*
X156599623Y-97373373D01*
X156693872Y-97482143D01*
X156814947Y-97559953D01*
X156814950Y-97559954D01*
X156814949Y-97559954D01*
X156922107Y-97591417D01*
X156951336Y-97600000D01*
X156953036Y-97600499D01*
X156953038Y-97600500D01*
X156953039Y-97600500D01*
X157096962Y-97600500D01*
X157096962Y-97600499D01*
X157235053Y-97559953D01*
X157356128Y-97482143D01*
X157450377Y-97373373D01*
X157510165Y-97242457D01*
X157530647Y-97100000D01*
X157510165Y-96957543D01*
X157450377Y-96826627D01*
X157356128Y-96717857D01*
X157235053Y-96640047D01*
X157235051Y-96640046D01*
X157235049Y-96640045D01*
X157235050Y-96640045D01*
X157096963Y-96599500D01*
X157096961Y-96599500D01*
X156953039Y-96599500D01*
X156953036Y-96599500D01*
X156814949Y-96640045D01*
X156693873Y-96717856D01*
X156599623Y-96826626D01*
X156599622Y-96826628D01*
X156539834Y-96957543D01*
X156519353Y-97100000D01*
X144405647Y-97100000D01*
X144397329Y-97042146D01*
X144407273Y-96972988D01*
X144453028Y-96920184D01*
X144520067Y-96900500D01*
X144571962Y-96900500D01*
X144571962Y-96900499D01*
X144710053Y-96859953D01*
X144831128Y-96782143D01*
X144925377Y-96673373D01*
X144985165Y-96542457D01*
X145005647Y-96400000D01*
X144985165Y-96257543D01*
X144970303Y-96225000D01*
X145969353Y-96225000D01*
X145989834Y-96367456D01*
X146004697Y-96400000D01*
X146049623Y-96498373D01*
X146143872Y-96607143D01*
X146264947Y-96684953D01*
X146264950Y-96684954D01*
X146264949Y-96684954D01*
X146403036Y-96725499D01*
X146403038Y-96725500D01*
X146403039Y-96725500D01*
X146546962Y-96725500D01*
X146546962Y-96725499D01*
X146685053Y-96684953D01*
X146806128Y-96607143D01*
X146900377Y-96498373D01*
X146960165Y-96367457D01*
X146980647Y-96225000D01*
X146960165Y-96082543D01*
X146922468Y-96000000D01*
X153694353Y-96000000D01*
X153714834Y-96142456D01*
X153774622Y-96273371D01*
X153774623Y-96273373D01*
X153868872Y-96382143D01*
X153989947Y-96459953D01*
X153989950Y-96459954D01*
X153989949Y-96459954D01*
X154097107Y-96491417D01*
X154120788Y-96498371D01*
X154128036Y-96500499D01*
X154128038Y-96500500D01*
X154128039Y-96500500D01*
X154271962Y-96500500D01*
X154271962Y-96500499D01*
X154410053Y-96459953D01*
X154531128Y-96382143D01*
X154625377Y-96273373D01*
X154685165Y-96142457D01*
X154705647Y-96000000D01*
X154691269Y-95900000D01*
X163119353Y-95900000D01*
X163139834Y-96042456D01*
X163185504Y-96142457D01*
X163199623Y-96173373D01*
X163293872Y-96282143D01*
X163414947Y-96359953D01*
X163414950Y-96359954D01*
X163414949Y-96359954D01*
X163490520Y-96382143D01*
X163551336Y-96400000D01*
X163553036Y-96400499D01*
X163553038Y-96400500D01*
X163553039Y-96400500D01*
X163696962Y-96400500D01*
X163696962Y-96400499D01*
X163835053Y-96359953D01*
X163956128Y-96282143D01*
X164050377Y-96173373D01*
X164051805Y-96170247D01*
X168149500Y-96170247D01*
X168149500Y-97909752D01*
X168161131Y-97968229D01*
X168161132Y-97968230D01*
X168205447Y-98034552D01*
X168271769Y-98078867D01*
X168271770Y-98078868D01*
X168330247Y-98090499D01*
X168330250Y-98090500D01*
X168330252Y-98090500D01*
X170069750Y-98090500D01*
X170069751Y-98090499D01*
X170084568Y-98087552D01*
X170128229Y-98078868D01*
X170128229Y-98078867D01*
X170128231Y-98078867D01*
X170194552Y-98034552D01*
X170238867Y-97968231D01*
X170238867Y-97968229D01*
X170238868Y-97968229D01*
X170250499Y-97909752D01*
X170250500Y-97909750D01*
X170250500Y-96170249D01*
X170250499Y-96170247D01*
X170238868Y-96111770D01*
X170238867Y-96111769D01*
X170194552Y-96045447D01*
X170128230Y-96001132D01*
X170128229Y-96001131D01*
X170069752Y-95989500D01*
X170069748Y-95989500D01*
X168330252Y-95989500D01*
X168330247Y-95989500D01*
X168271770Y-96001131D01*
X168271769Y-96001132D01*
X168205447Y-96045447D01*
X168161132Y-96111769D01*
X168161131Y-96111770D01*
X168149500Y-96170247D01*
X164051805Y-96170247D01*
X164110165Y-96042457D01*
X164130647Y-95900000D01*
X164110165Y-95757543D01*
X164050377Y-95626627D01*
X163956128Y-95517857D01*
X163835053Y-95440047D01*
X163835051Y-95440046D01*
X163835049Y-95440045D01*
X163835050Y-95440045D01*
X163696963Y-95399500D01*
X163696961Y-95399500D01*
X163553039Y-95399500D01*
X163553036Y-95399500D01*
X163414949Y-95440045D01*
X163293873Y-95517856D01*
X163199623Y-95626626D01*
X163199622Y-95626628D01*
X163139834Y-95757543D01*
X163119353Y-95900000D01*
X154691269Y-95900000D01*
X154685165Y-95857543D01*
X154625377Y-95726627D01*
X154531128Y-95617857D01*
X154410053Y-95540047D01*
X154410051Y-95540046D01*
X154410049Y-95540045D01*
X154410050Y-95540045D01*
X154271963Y-95499500D01*
X154271961Y-95499500D01*
X154128039Y-95499500D01*
X154128036Y-95499500D01*
X153989949Y-95540045D01*
X153868873Y-95617856D01*
X153774623Y-95726626D01*
X153774622Y-95726628D01*
X153714834Y-95857543D01*
X153694353Y-96000000D01*
X146922468Y-96000000D01*
X146900377Y-95951627D01*
X146806128Y-95842857D01*
X146685053Y-95765047D01*
X146685051Y-95765046D01*
X146685049Y-95765045D01*
X146685050Y-95765045D01*
X146546963Y-95724500D01*
X146546961Y-95724500D01*
X146403039Y-95724500D01*
X146403036Y-95724500D01*
X146264949Y-95765045D01*
X146143873Y-95842856D01*
X146049623Y-95951626D01*
X146049622Y-95951628D01*
X145989834Y-96082543D01*
X145969353Y-96225000D01*
X144970303Y-96225000D01*
X144925377Y-96126627D01*
X144831128Y-96017857D01*
X144710053Y-95940047D01*
X144710051Y-95940046D01*
X144710049Y-95940045D01*
X144710050Y-95940045D01*
X144571963Y-95899500D01*
X144571961Y-95899500D01*
X144428039Y-95899500D01*
X144428036Y-95899500D01*
X144289949Y-95940045D01*
X144168873Y-96017856D01*
X144074623Y-96126626D01*
X144074622Y-96126628D01*
X144014834Y-96257543D01*
X143999032Y-96367456D01*
X143994353Y-96400000D01*
X144002671Y-96457853D01*
X143992727Y-96527012D01*
X143946972Y-96579816D01*
X143879933Y-96599500D01*
X143828036Y-96599500D01*
X143689949Y-96640045D01*
X143568873Y-96717856D01*
X143474623Y-96826626D01*
X143474622Y-96826628D01*
X143414834Y-96957543D01*
X143394353Y-97100000D01*
X142727207Y-97100000D01*
X142655393Y-97017122D01*
X142534318Y-96939312D01*
X142534316Y-96939311D01*
X142534314Y-96939310D01*
X142534315Y-96939310D01*
X142396228Y-96898765D01*
X142396226Y-96898765D01*
X142252304Y-96898765D01*
X142252301Y-96898765D01*
X142114214Y-96939310D01*
X141993138Y-97017121D01*
X141898888Y-97125891D01*
X141898887Y-97125893D01*
X141839099Y-97256808D01*
X141818618Y-97399265D01*
X140483550Y-97399265D01*
X140450377Y-97326627D01*
X140356128Y-97217857D01*
X140235053Y-97140047D01*
X140235051Y-97140046D01*
X140235049Y-97140045D01*
X140235050Y-97140045D01*
X140096963Y-97099500D01*
X140096961Y-97099500D01*
X139953039Y-97099500D01*
X139953036Y-97099500D01*
X139814949Y-97140045D01*
X139693873Y-97217856D01*
X139599623Y-97326626D01*
X139599622Y-97326628D01*
X139539834Y-97457543D01*
X139519353Y-97600000D01*
X133961051Y-97600000D01*
X134010165Y-97492457D01*
X134030647Y-97350000D01*
X134010165Y-97207543D01*
X133950377Y-97076627D01*
X133856128Y-96967857D01*
X133856125Y-96967855D01*
X133856125Y-96967854D01*
X133835058Y-96954316D01*
X133789302Y-96901513D01*
X133779358Y-96832354D01*
X133808382Y-96768798D01*
X133835058Y-96745684D01*
X133856125Y-96732145D01*
X133856125Y-96732144D01*
X133856128Y-96732143D01*
X133950377Y-96623373D01*
X134010165Y-96492457D01*
X134030647Y-96350000D01*
X134010165Y-96207543D01*
X133983886Y-96150000D01*
X135144353Y-96150000D01*
X135164834Y-96292456D01*
X135213948Y-96399999D01*
X135224623Y-96423373D01*
X135318872Y-96532143D01*
X135439947Y-96609953D01*
X135439950Y-96609954D01*
X135439949Y-96609954D01*
X135578036Y-96650499D01*
X135578038Y-96650500D01*
X135578039Y-96650500D01*
X135721962Y-96650500D01*
X135721962Y-96650499D01*
X135860053Y-96609953D01*
X135981128Y-96532143D01*
X136075377Y-96423373D01*
X136135165Y-96292457D01*
X136155647Y-96150000D01*
X136135165Y-96007543D01*
X136075377Y-95876627D01*
X135981128Y-95767857D01*
X135860053Y-95690047D01*
X135860051Y-95690046D01*
X135860049Y-95690045D01*
X135860050Y-95690045D01*
X135721963Y-95649500D01*
X135721961Y-95649500D01*
X135578039Y-95649500D01*
X135578036Y-95649500D01*
X135439949Y-95690045D01*
X135318873Y-95767856D01*
X135224623Y-95876626D01*
X135224622Y-95876628D01*
X135164834Y-96007543D01*
X135144353Y-96150000D01*
X133983886Y-96150000D01*
X133973212Y-96126628D01*
X133946693Y-96068560D01*
X133948899Y-96067552D01*
X133932880Y-96012985D01*
X133952568Y-95945947D01*
X133989839Y-95908677D01*
X134031128Y-95882143D01*
X134125377Y-95773373D01*
X134185165Y-95642457D01*
X134205647Y-95500000D01*
X134185165Y-95357543D01*
X134124661Y-95225059D01*
X134114717Y-95155900D01*
X134143742Y-95092345D01*
X134202520Y-95054570D01*
X134219815Y-95050808D01*
X134221953Y-95050500D01*
X134221961Y-95050500D01*
X134360053Y-95009953D01*
X134481128Y-94932143D01*
X134575377Y-94823373D01*
X134624655Y-94715470D01*
X145252413Y-94715470D01*
X145272894Y-94857926D01*
X145318440Y-94957655D01*
X145332683Y-94988843D01*
X145426932Y-95097613D01*
X145548007Y-95175423D01*
X145548010Y-95175424D01*
X145548009Y-95175424D01*
X145686096Y-95215969D01*
X145686098Y-95215970D01*
X145686099Y-95215970D01*
X145830022Y-95215970D01*
X145830022Y-95215969D01*
X145968113Y-95175423D01*
X146089188Y-95097613D01*
X146183437Y-94988843D01*
X146243225Y-94857927D01*
X146263707Y-94715470D01*
X146243225Y-94573013D01*
X146209881Y-94500000D01*
X153344353Y-94500000D01*
X153364834Y-94642456D01*
X153387669Y-94692456D01*
X153424623Y-94773373D01*
X153518872Y-94882143D01*
X153639947Y-94959953D01*
X153639950Y-94959954D01*
X153639949Y-94959954D01*
X153738332Y-94988841D01*
X153774633Y-94999500D01*
X153778036Y-95000499D01*
X153778038Y-95000500D01*
X153778039Y-95000500D01*
X153921962Y-95000500D01*
X153921962Y-95000499D01*
X154060053Y-94959953D01*
X154181128Y-94882143D01*
X154275377Y-94773373D01*
X154308886Y-94700000D01*
X159119353Y-94700000D01*
X159139834Y-94842456D01*
X159192445Y-94957655D01*
X159199623Y-94973373D01*
X159293872Y-95082143D01*
X159414947Y-95159953D01*
X159414950Y-95159954D01*
X159414949Y-95159954D01*
X159553036Y-95200499D01*
X159553038Y-95200500D01*
X159553039Y-95200500D01*
X159696962Y-95200500D01*
X159696962Y-95200499D01*
X159835053Y-95159953D01*
X159956128Y-95082143D01*
X160050377Y-94973373D01*
X160110165Y-94842457D01*
X160130647Y-94700000D01*
X160110165Y-94557543D01*
X160050377Y-94426627D01*
X159956128Y-94317857D01*
X159835053Y-94240047D01*
X159835051Y-94240046D01*
X159835049Y-94240045D01*
X159835050Y-94240045D01*
X159696963Y-94199500D01*
X159696961Y-94199500D01*
X159553039Y-94199500D01*
X159553036Y-94199500D01*
X159414949Y-94240045D01*
X159293873Y-94317856D01*
X159199623Y-94426626D01*
X159199622Y-94426628D01*
X159139834Y-94557543D01*
X159119353Y-94700000D01*
X154308886Y-94700000D01*
X154335165Y-94642457D01*
X154355647Y-94500000D01*
X154335165Y-94357543D01*
X154275377Y-94226627D01*
X154181128Y-94117857D01*
X154060053Y-94040047D01*
X154060051Y-94040046D01*
X154060049Y-94040045D01*
X154060050Y-94040045D01*
X153921963Y-93999500D01*
X153921961Y-93999500D01*
X153778039Y-93999500D01*
X153778036Y-93999500D01*
X153639949Y-94040045D01*
X153518873Y-94117856D01*
X153424623Y-94226626D01*
X153424622Y-94226628D01*
X153364834Y-94357543D01*
X153344353Y-94500000D01*
X146209881Y-94500000D01*
X146183437Y-94442097D01*
X146089188Y-94333327D01*
X145968113Y-94255517D01*
X145968111Y-94255516D01*
X145968109Y-94255515D01*
X145968110Y-94255515D01*
X145830023Y-94214970D01*
X145830021Y-94214970D01*
X145686099Y-94214970D01*
X145686096Y-94214970D01*
X145548009Y-94255515D01*
X145426933Y-94333326D01*
X145332683Y-94442096D01*
X145332682Y-94442098D01*
X145272894Y-94573013D01*
X145252413Y-94715470D01*
X134624655Y-94715470D01*
X134635165Y-94692457D01*
X134655647Y-94550000D01*
X134635165Y-94407543D01*
X134575377Y-94276627D01*
X134481128Y-94167857D01*
X134360053Y-94090047D01*
X134360051Y-94090046D01*
X134360049Y-94090045D01*
X134360050Y-94090045D01*
X134221963Y-94049500D01*
X134221961Y-94049500D01*
X134078039Y-94049500D01*
X134078036Y-94049500D01*
X133939949Y-94090045D01*
X133818873Y-94167856D01*
X133724623Y-94276626D01*
X133724622Y-94276628D01*
X133664834Y-94407543D01*
X133644353Y-94550000D01*
X133664834Y-94692457D01*
X133664835Y-94692458D01*
X133725338Y-94824941D01*
X133735282Y-94894099D01*
X133706257Y-94957655D01*
X133647479Y-94995429D01*
X133630197Y-94999189D01*
X133628039Y-94999499D01*
X133489949Y-95040045D01*
X133368873Y-95117856D01*
X133274623Y-95226626D01*
X133274622Y-95226628D01*
X133214834Y-95357543D01*
X133194353Y-95500000D01*
X133214834Y-95642456D01*
X133278307Y-95781440D01*
X133276098Y-95782448D01*
X133292119Y-95837007D01*
X133272435Y-95904046D01*
X133235160Y-95941321D01*
X133193876Y-95967853D01*
X133193874Y-95967855D01*
X133099623Y-96076626D01*
X133099622Y-96076628D01*
X133039834Y-96207543D01*
X133019353Y-96350000D01*
X98025500Y-96350000D01*
X98025500Y-91978711D01*
X100049500Y-91978711D01*
X100049500Y-92221288D01*
X100081161Y-92461785D01*
X100143947Y-92696104D01*
X100236773Y-92920205D01*
X100236776Y-92920212D01*
X100358064Y-93130289D01*
X100358066Y-93130292D01*
X100358067Y-93130293D01*
X100505733Y-93322736D01*
X100505739Y-93322743D01*
X100677256Y-93494260D01*
X100677263Y-93494266D01*
X100790321Y-93581018D01*
X100869711Y-93641936D01*
X101079788Y-93763224D01*
X101303900Y-93856054D01*
X101538211Y-93918838D01*
X101718586Y-93942584D01*
X101778711Y-93950500D01*
X101778712Y-93950500D01*
X102021289Y-93950500D01*
X102069388Y-93944167D01*
X102261789Y-93918838D01*
X102496100Y-93856054D01*
X102720212Y-93763224D01*
X102930289Y-93641936D01*
X103122738Y-93494265D01*
X103294265Y-93322738D01*
X103441936Y-93130289D01*
X103517158Y-93000000D01*
X152544353Y-93000000D01*
X152564834Y-93142456D01*
X152624622Y-93273371D01*
X152624623Y-93273373D01*
X152718872Y-93382143D01*
X152839947Y-93459953D01*
X152839950Y-93459954D01*
X152839949Y-93459954D01*
X152978036Y-93500499D01*
X152978038Y-93500500D01*
X152978039Y-93500500D01*
X153121962Y-93500500D01*
X153121962Y-93500499D01*
X153260053Y-93459953D01*
X153381128Y-93382143D01*
X153475377Y-93273373D01*
X153535165Y-93142457D01*
X153555647Y-93000000D01*
X164794353Y-93000000D01*
X164814834Y-93142456D01*
X164874622Y-93273371D01*
X164874623Y-93273373D01*
X164968872Y-93382143D01*
X165089947Y-93459953D01*
X165089950Y-93459954D01*
X165089949Y-93459954D01*
X165228036Y-93500499D01*
X165228038Y-93500500D01*
X165228039Y-93500500D01*
X165371962Y-93500500D01*
X165371962Y-93500499D01*
X165510053Y-93459953D01*
X165631128Y-93382143D01*
X165725377Y-93273373D01*
X165785165Y-93142457D01*
X165805647Y-93000000D01*
X165785165Y-92857543D01*
X165725377Y-92726627D01*
X165631128Y-92617857D01*
X165510053Y-92540047D01*
X165510051Y-92540046D01*
X165510049Y-92540045D01*
X165510050Y-92540045D01*
X165371963Y-92499500D01*
X165371961Y-92499500D01*
X165228039Y-92499500D01*
X165228036Y-92499500D01*
X165089949Y-92540045D01*
X164968873Y-92617856D01*
X164874623Y-92726626D01*
X164874622Y-92726628D01*
X164814834Y-92857543D01*
X164794353Y-93000000D01*
X153555647Y-93000000D01*
X153535165Y-92857543D01*
X153475377Y-92726627D01*
X153381128Y-92617857D01*
X153260053Y-92540047D01*
X153260051Y-92540046D01*
X153260049Y-92540045D01*
X153260050Y-92540045D01*
X153121963Y-92499500D01*
X153121961Y-92499500D01*
X152978039Y-92499500D01*
X152978036Y-92499500D01*
X152839949Y-92540045D01*
X152718873Y-92617856D01*
X152624623Y-92726626D01*
X152624622Y-92726628D01*
X152564834Y-92857543D01*
X152544353Y-93000000D01*
X103517158Y-93000000D01*
X103563224Y-92920212D01*
X103656054Y-92696100D01*
X103718838Y-92461789D01*
X103750500Y-92221288D01*
X103750500Y-91978712D01*
X103725327Y-91787500D01*
X126331853Y-91787500D01*
X126352334Y-91929956D01*
X126364933Y-91957543D01*
X126412123Y-92060873D01*
X126506372Y-92169643D01*
X126627447Y-92247453D01*
X126627450Y-92247454D01*
X126627449Y-92247454D01*
X126765536Y-92287999D01*
X126765538Y-92288000D01*
X126765539Y-92288000D01*
X126909462Y-92288000D01*
X126909462Y-92287999D01*
X127047553Y-92247453D01*
X127168628Y-92169643D01*
X127228974Y-92100000D01*
X132194353Y-92100000D01*
X132214834Y-92242456D01*
X132235634Y-92288000D01*
X132274623Y-92373373D01*
X132368872Y-92482143D01*
X132489947Y-92559953D01*
X132489950Y-92559954D01*
X132489949Y-92559954D01*
X132628036Y-92600499D01*
X132628038Y-92600500D01*
X132628039Y-92600500D01*
X132771962Y-92600500D01*
X132771962Y-92600499D01*
X132910053Y-92559953D01*
X133031128Y-92482143D01*
X133125377Y-92373373D01*
X133185165Y-92242457D01*
X133205647Y-92100000D01*
X133185165Y-91957543D01*
X133125377Y-91826627D01*
X133031128Y-91717857D01*
X132910053Y-91640047D01*
X132910051Y-91640046D01*
X132910049Y-91640045D01*
X132910050Y-91640045D01*
X132771963Y-91599500D01*
X132771961Y-91599500D01*
X132628039Y-91599500D01*
X132628036Y-91599500D01*
X132489949Y-91640045D01*
X132368873Y-91717856D01*
X132274623Y-91826626D01*
X132274622Y-91826628D01*
X132214834Y-91957543D01*
X132194353Y-92100000D01*
X127228974Y-92100000D01*
X127262877Y-92060873D01*
X127322665Y-91929957D01*
X127343147Y-91787500D01*
X127322665Y-91645043D01*
X127262877Y-91514127D01*
X127168628Y-91405357D01*
X127047553Y-91327547D01*
X127047551Y-91327546D01*
X127047549Y-91327545D01*
X127047550Y-91327545D01*
X126909463Y-91287000D01*
X126909461Y-91287000D01*
X126765539Y-91287000D01*
X126765536Y-91287000D01*
X126627449Y-91327545D01*
X126506373Y-91405356D01*
X126412123Y-91514126D01*
X126412122Y-91514128D01*
X126352334Y-91645043D01*
X126331853Y-91787500D01*
X103725327Y-91787500D01*
X103718838Y-91738211D01*
X103656054Y-91503900D01*
X103563224Y-91279788D01*
X103441936Y-91069711D01*
X103294265Y-90877262D01*
X103294260Y-90877256D01*
X103122743Y-90705739D01*
X103122736Y-90705733D01*
X102930293Y-90558067D01*
X102930292Y-90558066D01*
X102930289Y-90558064D01*
X102720212Y-90436776D01*
X102720205Y-90436773D01*
X102496104Y-90343947D01*
X102261785Y-90281161D01*
X102021289Y-90249500D01*
X102021288Y-90249500D01*
X101778712Y-90249500D01*
X101778711Y-90249500D01*
X101538214Y-90281161D01*
X101303895Y-90343947D01*
X101079794Y-90436773D01*
X101079785Y-90436777D01*
X100869706Y-90558067D01*
X100677263Y-90705733D01*
X100677256Y-90705739D01*
X100505739Y-90877256D01*
X100505733Y-90877263D01*
X100358067Y-91069706D01*
X100236777Y-91279785D01*
X100236773Y-91279794D01*
X100143947Y-91503895D01*
X100081161Y-91738214D01*
X100049500Y-91978711D01*
X98025500Y-91978711D01*
X98025500Y-89100000D01*
X151769353Y-89100000D01*
X151789834Y-89242456D01*
X151849622Y-89373371D01*
X151849623Y-89373373D01*
X151943872Y-89482143D01*
X152064947Y-89559953D01*
X152064950Y-89559954D01*
X152064949Y-89559954D01*
X152203036Y-89600499D01*
X152203038Y-89600500D01*
X152203039Y-89600500D01*
X152346962Y-89600500D01*
X152346962Y-89600499D01*
X152485053Y-89559953D01*
X152606128Y-89482143D01*
X152700377Y-89373373D01*
X152760165Y-89242457D01*
X152780647Y-89100000D01*
X152760165Y-88957543D01*
X152700377Y-88826627D01*
X152606128Y-88717857D01*
X152485053Y-88640047D01*
X152485051Y-88640046D01*
X152485049Y-88640045D01*
X152485050Y-88640045D01*
X152346963Y-88599500D01*
X152346961Y-88599500D01*
X152203039Y-88599500D01*
X152203036Y-88599500D01*
X152064949Y-88640045D01*
X151943873Y-88717856D01*
X151849623Y-88826626D01*
X151849622Y-88826628D01*
X151789834Y-88957543D01*
X151769353Y-89100000D01*
X98025500Y-89100000D01*
X98025500Y-87700000D01*
X120754417Y-87700000D01*
X120774699Y-87905932D01*
X120793484Y-87967857D01*
X120834768Y-88103954D01*
X120932315Y-88286450D01*
X120932317Y-88286452D01*
X121063589Y-88446410D01*
X121160209Y-88525702D01*
X121223550Y-88577685D01*
X121406046Y-88675232D01*
X121604066Y-88735300D01*
X121604065Y-88735300D01*
X121622529Y-88737118D01*
X121810000Y-88755583D01*
X122015934Y-88735300D01*
X122213954Y-88675232D01*
X122396450Y-88577685D01*
X122556410Y-88446410D01*
X122687685Y-88286450D01*
X122785232Y-88103954D01*
X122845300Y-87905934D01*
X122865583Y-87700000D01*
X123294417Y-87700000D01*
X123314699Y-87905932D01*
X123333484Y-87967857D01*
X123374768Y-88103954D01*
X123472315Y-88286450D01*
X123472317Y-88286452D01*
X123603589Y-88446410D01*
X123700209Y-88525702D01*
X123763550Y-88577685D01*
X123946046Y-88675232D01*
X124144066Y-88735300D01*
X124144065Y-88735300D01*
X124162529Y-88737118D01*
X124350000Y-88755583D01*
X124555934Y-88735300D01*
X124753954Y-88675232D01*
X124936450Y-88577685D01*
X125096410Y-88446410D01*
X125227685Y-88286450D01*
X125325232Y-88103954D01*
X125385300Y-87905934D01*
X125405583Y-87700000D01*
X125385300Y-87494066D01*
X125325232Y-87296046D01*
X125227685Y-87113550D01*
X125167361Y-87040045D01*
X125096410Y-86953589D01*
X124946121Y-86830252D01*
X124946115Y-86830247D01*
X125839500Y-86830247D01*
X125839500Y-88569752D01*
X125851131Y-88628229D01*
X125851132Y-88628230D01*
X125895447Y-88694552D01*
X125961769Y-88738867D01*
X125961770Y-88738868D01*
X126020247Y-88750499D01*
X126020250Y-88750500D01*
X126020252Y-88750500D01*
X127759750Y-88750500D01*
X127759751Y-88750499D01*
X127774568Y-88747552D01*
X127818229Y-88738868D01*
X127818229Y-88738867D01*
X127818231Y-88738867D01*
X127884552Y-88694552D01*
X127928867Y-88628231D01*
X127928867Y-88628229D01*
X127928868Y-88628229D01*
X127940499Y-88569752D01*
X127940500Y-88569750D01*
X127940500Y-88100000D01*
X141519353Y-88100000D01*
X141539834Y-88242456D01*
X141559926Y-88286450D01*
X141599623Y-88373373D01*
X141693872Y-88482143D01*
X141814947Y-88559953D01*
X141814950Y-88559954D01*
X141814949Y-88559954D01*
X141875327Y-88577682D01*
X141949633Y-88599500D01*
X141953036Y-88600499D01*
X141953038Y-88600500D01*
X141953039Y-88600500D01*
X142096962Y-88600500D01*
X142096962Y-88600499D01*
X142235053Y-88559953D01*
X142356128Y-88482143D01*
X142450377Y-88373373D01*
X142461051Y-88350000D01*
X153769353Y-88350000D01*
X153789834Y-88492456D01*
X153820660Y-88559954D01*
X153849623Y-88623373D01*
X153943872Y-88732143D01*
X154064947Y-88809953D01*
X154064950Y-88809954D01*
X154064949Y-88809954D01*
X154203036Y-88850499D01*
X154203038Y-88850500D01*
X154203039Y-88850500D01*
X154346962Y-88850500D01*
X154346962Y-88850499D01*
X154485053Y-88809953D01*
X154606128Y-88732143D01*
X154700377Y-88623373D01*
X154760165Y-88492457D01*
X154780647Y-88350000D01*
X154760165Y-88207543D01*
X154700377Y-88076627D01*
X154606128Y-87967857D01*
X154485053Y-87890047D01*
X154485051Y-87890046D01*
X154485049Y-87890045D01*
X154485050Y-87890045D01*
X154346963Y-87849500D01*
X154346961Y-87849500D01*
X154203039Y-87849500D01*
X154203036Y-87849500D01*
X154064949Y-87890045D01*
X153943873Y-87967856D01*
X153849623Y-88076626D01*
X153849622Y-88076628D01*
X153789834Y-88207543D01*
X153769353Y-88350000D01*
X142461051Y-88350000D01*
X142510165Y-88242457D01*
X142530647Y-88100000D01*
X142510165Y-87957543D01*
X142450377Y-87826627D01*
X142356128Y-87717857D01*
X142235053Y-87640047D01*
X142235051Y-87640046D01*
X142235049Y-87640045D01*
X142235050Y-87640045D01*
X142096963Y-87599500D01*
X142096961Y-87599500D01*
X141953039Y-87599500D01*
X141953036Y-87599500D01*
X141814949Y-87640045D01*
X141693873Y-87717856D01*
X141599623Y-87826626D01*
X141599622Y-87826628D01*
X141539834Y-87957543D01*
X141519353Y-88100000D01*
X127940500Y-88100000D01*
X127940500Y-87500000D01*
X171294353Y-87500000D01*
X171314834Y-87642456D01*
X171341114Y-87700000D01*
X171374623Y-87773373D01*
X171468872Y-87882143D01*
X171589947Y-87959953D01*
X171589950Y-87959954D01*
X171589949Y-87959954D01*
X171728036Y-88000499D01*
X171728038Y-88000500D01*
X171728039Y-88000500D01*
X171871962Y-88000500D01*
X171871962Y-88000499D01*
X172010053Y-87959953D01*
X172131128Y-87882143D01*
X172225377Y-87773373D01*
X172285165Y-87642457D01*
X172305647Y-87500000D01*
X172285165Y-87357543D01*
X172225377Y-87226627D01*
X172131128Y-87117857D01*
X172010053Y-87040047D01*
X172010051Y-87040046D01*
X172010049Y-87040045D01*
X172010050Y-87040045D01*
X171871963Y-86999500D01*
X171871961Y-86999500D01*
X171728039Y-86999500D01*
X171728036Y-86999500D01*
X171589949Y-87040045D01*
X171468873Y-87117856D01*
X171374623Y-87226626D01*
X171374622Y-87226628D01*
X171314834Y-87357543D01*
X171294353Y-87500000D01*
X127940500Y-87500000D01*
X127940500Y-86830249D01*
X127940499Y-86830247D01*
X127928868Y-86771770D01*
X127928867Y-86771769D01*
X127884552Y-86705447D01*
X127818230Y-86661132D01*
X127818229Y-86661131D01*
X127759752Y-86649500D01*
X127759748Y-86649500D01*
X126020252Y-86649500D01*
X126020247Y-86649500D01*
X125961770Y-86661131D01*
X125961769Y-86661132D01*
X125895447Y-86705447D01*
X125851132Y-86771769D01*
X125851131Y-86771770D01*
X125839500Y-86830247D01*
X124946115Y-86830247D01*
X124936450Y-86822315D01*
X124753954Y-86724768D01*
X124555934Y-86664700D01*
X124555932Y-86664699D01*
X124555934Y-86664699D01*
X124350000Y-86644417D01*
X124144067Y-86664699D01*
X123946043Y-86724769D01*
X123912954Y-86742456D01*
X123763550Y-86822315D01*
X123763548Y-86822316D01*
X123763547Y-86822317D01*
X123603589Y-86953589D01*
X123472317Y-87113547D01*
X123472315Y-87113550D01*
X123470013Y-87117857D01*
X123374769Y-87296043D01*
X123314699Y-87494067D01*
X123294417Y-87700000D01*
X122865583Y-87700000D01*
X122845300Y-87494066D01*
X122785232Y-87296046D01*
X122687685Y-87113550D01*
X122627361Y-87040045D01*
X122556410Y-86953589D01*
X122406121Y-86830252D01*
X122396450Y-86822315D01*
X122213954Y-86724768D01*
X122015934Y-86664700D01*
X122015932Y-86664699D01*
X122015934Y-86664699D01*
X121810000Y-86644417D01*
X121604067Y-86664699D01*
X121406043Y-86724769D01*
X121372954Y-86742456D01*
X121223550Y-86822315D01*
X121223548Y-86822316D01*
X121223547Y-86822317D01*
X121063589Y-86953589D01*
X120932317Y-87113547D01*
X120932315Y-87113550D01*
X120930013Y-87117857D01*
X120834769Y-87296043D01*
X120774699Y-87494067D01*
X120754417Y-87700000D01*
X98025500Y-87700000D01*
X98025500Y-86600000D01*
X140894353Y-86600000D01*
X140914834Y-86742456D01*
X140954930Y-86830252D01*
X140974623Y-86873373D01*
X141068872Y-86982143D01*
X141189947Y-87059953D01*
X141189950Y-87059954D01*
X141189949Y-87059954D01*
X141328036Y-87100499D01*
X141328038Y-87100500D01*
X141328039Y-87100500D01*
X141471962Y-87100500D01*
X141471962Y-87100499D01*
X141610053Y-87059953D01*
X141731128Y-86982143D01*
X141825377Y-86873373D01*
X141885165Y-86742457D01*
X141905647Y-86600000D01*
X141885165Y-86457543D01*
X141825377Y-86326627D01*
X141731128Y-86217857D01*
X141610053Y-86140047D01*
X141610051Y-86140046D01*
X141610049Y-86140045D01*
X141610050Y-86140045D01*
X141473666Y-86100000D01*
X172519353Y-86100000D01*
X172539834Y-86242456D01*
X172578275Y-86326628D01*
X172599623Y-86373373D01*
X172693872Y-86482143D01*
X172814947Y-86559953D01*
X172814950Y-86559954D01*
X172814949Y-86559954D01*
X172922107Y-86591417D01*
X172951336Y-86600000D01*
X172953036Y-86600499D01*
X172953038Y-86600500D01*
X172953039Y-86600500D01*
X173096962Y-86600500D01*
X173096962Y-86600499D01*
X173235053Y-86559953D01*
X173356128Y-86482143D01*
X173450377Y-86373373D01*
X173510165Y-86242457D01*
X173530647Y-86100000D01*
X173510165Y-85957543D01*
X173450377Y-85826627D01*
X173356128Y-85717857D01*
X173235053Y-85640047D01*
X173235051Y-85640046D01*
X173235049Y-85640045D01*
X173235050Y-85640045D01*
X173096963Y-85599500D01*
X173096961Y-85599500D01*
X172953039Y-85599500D01*
X172953036Y-85599500D01*
X172814949Y-85640045D01*
X172693873Y-85717856D01*
X172599623Y-85826626D01*
X172599622Y-85826628D01*
X172539834Y-85957543D01*
X172519353Y-86100000D01*
X141473666Y-86100000D01*
X141471963Y-86099500D01*
X141471961Y-86099500D01*
X141328039Y-86099500D01*
X141328036Y-86099500D01*
X141189949Y-86140045D01*
X141068873Y-86217856D01*
X140974623Y-86326626D01*
X140974622Y-86326628D01*
X140914834Y-86457543D01*
X140894353Y-86600000D01*
X98025500Y-86600000D01*
X98025500Y-85600000D01*
X115019353Y-85600000D01*
X115039834Y-85742456D01*
X115078275Y-85826628D01*
X115099623Y-85873373D01*
X115193872Y-85982143D01*
X115314947Y-86059953D01*
X115314950Y-86059954D01*
X115314949Y-86059954D01*
X115422107Y-86091417D01*
X115451336Y-86100000D01*
X115453036Y-86100499D01*
X115453038Y-86100500D01*
X115453039Y-86100500D01*
X115596962Y-86100500D01*
X115596962Y-86100499D01*
X115735053Y-86059953D01*
X115856128Y-85982143D01*
X115950377Y-85873373D01*
X116010165Y-85742457D01*
X116030647Y-85600000D01*
X116023458Y-85550000D01*
X126394353Y-85550000D01*
X126414834Y-85692456D01*
X126437669Y-85742456D01*
X126474623Y-85823373D01*
X126568872Y-85932143D01*
X126689947Y-86009953D01*
X126689950Y-86009954D01*
X126689949Y-86009954D01*
X126828036Y-86050499D01*
X126828038Y-86050500D01*
X126828039Y-86050500D01*
X126971962Y-86050500D01*
X126971962Y-86050499D01*
X127110053Y-86009953D01*
X127231128Y-85932143D01*
X127325377Y-85823373D01*
X127385165Y-85692457D01*
X127405647Y-85550000D01*
X127385165Y-85407543D01*
X127325377Y-85276627D01*
X127231128Y-85167857D01*
X127110053Y-85090047D01*
X127110051Y-85090046D01*
X127110049Y-85090045D01*
X127110050Y-85090045D01*
X126971963Y-85049500D01*
X126971961Y-85049500D01*
X126828039Y-85049500D01*
X126828036Y-85049500D01*
X126689949Y-85090045D01*
X126568873Y-85167856D01*
X126474623Y-85276626D01*
X126474622Y-85276628D01*
X126414834Y-85407543D01*
X126394353Y-85550000D01*
X116023458Y-85550000D01*
X116010165Y-85457543D01*
X115950377Y-85326627D01*
X115856128Y-85217857D01*
X115735053Y-85140047D01*
X115735051Y-85140046D01*
X115735049Y-85140045D01*
X115735050Y-85140045D01*
X115596963Y-85099500D01*
X115596961Y-85099500D01*
X115453039Y-85099500D01*
X115453036Y-85099500D01*
X115314949Y-85140045D01*
X115193873Y-85217856D01*
X115099623Y-85326626D01*
X115099622Y-85326628D01*
X115039834Y-85457543D01*
X115019353Y-85600000D01*
X98025500Y-85600000D01*
X98025500Y-84448995D01*
X102124499Y-84448995D01*
X102151418Y-84584322D01*
X102151421Y-84584332D01*
X102204221Y-84711804D01*
X102204228Y-84711817D01*
X102280885Y-84826541D01*
X102280888Y-84826545D01*
X102378454Y-84924111D01*
X102378458Y-84924114D01*
X102493182Y-85000771D01*
X102493195Y-85000778D01*
X102610822Y-85049500D01*
X102620672Y-85053580D01*
X102620676Y-85053580D01*
X102620677Y-85053581D01*
X102756004Y-85080500D01*
X102756007Y-85080500D01*
X102893995Y-85080500D01*
X102985041Y-85062389D01*
X103029328Y-85053580D01*
X103156811Y-85000775D01*
X103271542Y-84924114D01*
X103369114Y-84826542D01*
X103445775Y-84711811D01*
X103498580Y-84584328D01*
X103525500Y-84448993D01*
X103525500Y-84311007D01*
X103525500Y-84311004D01*
X103498581Y-84175677D01*
X103498580Y-84175676D01*
X103498580Y-84175672D01*
X103498578Y-84175667D01*
X103445778Y-84048195D01*
X103445771Y-84048182D01*
X103369114Y-83933458D01*
X103369111Y-83933454D01*
X103271545Y-83835888D01*
X103271541Y-83835885D01*
X103156817Y-83759228D01*
X103156804Y-83759221D01*
X103029332Y-83706421D01*
X103029322Y-83706418D01*
X102893995Y-83679500D01*
X102893993Y-83679500D01*
X102756007Y-83679500D01*
X102756005Y-83679500D01*
X102620677Y-83706418D01*
X102620667Y-83706421D01*
X102493195Y-83759221D01*
X102493182Y-83759228D01*
X102378458Y-83835885D01*
X102378454Y-83835888D01*
X102280888Y-83933454D01*
X102280885Y-83933458D01*
X102204228Y-84048182D01*
X102204221Y-84048195D01*
X102151421Y-84175667D01*
X102151418Y-84175677D01*
X102124500Y-84311004D01*
X102124500Y-84311007D01*
X102124500Y-84448993D01*
X102124500Y-84448995D01*
X102124499Y-84448995D01*
X98025500Y-84448995D01*
X98025500Y-83500000D01*
X122644353Y-83500000D01*
X122664834Y-83642456D01*
X122718160Y-83759221D01*
X122724623Y-83773373D01*
X122818872Y-83882143D01*
X122939947Y-83959953D01*
X122939950Y-83959954D01*
X122939949Y-83959954D01*
X123078036Y-84000499D01*
X123078038Y-84000500D01*
X123078039Y-84000500D01*
X123221962Y-84000500D01*
X123221962Y-84000499D01*
X123360053Y-83959953D01*
X123481128Y-83882143D01*
X123575377Y-83773373D01*
X123635165Y-83642457D01*
X123655647Y-83500000D01*
X123635165Y-83357543D01*
X123575377Y-83226627D01*
X123481128Y-83117857D01*
X123360053Y-83040047D01*
X123360051Y-83040046D01*
X123360049Y-83040045D01*
X123360050Y-83040045D01*
X123221963Y-82999500D01*
X123221961Y-82999500D01*
X123078039Y-82999500D01*
X123078036Y-82999500D01*
X122939949Y-83040045D01*
X122818873Y-83117856D01*
X122724623Y-83226626D01*
X122724622Y-83226628D01*
X122664834Y-83357543D01*
X122644353Y-83500000D01*
X98025500Y-83500000D01*
X98025500Y-82180000D01*
X108099353Y-82180000D01*
X108119834Y-82322456D01*
X108155248Y-82400000D01*
X108179623Y-82453373D01*
X108273872Y-82562143D01*
X108394947Y-82639953D01*
X108394950Y-82639954D01*
X108394949Y-82639954D01*
X108533036Y-82680499D01*
X108533038Y-82680500D01*
X108533039Y-82680500D01*
X108676962Y-82680500D01*
X108676962Y-82680499D01*
X108815053Y-82639953D01*
X108936128Y-82562143D01*
X109030377Y-82453373D01*
X109054752Y-82400000D01*
X127294353Y-82400000D01*
X127314834Y-82542456D01*
X127323825Y-82562143D01*
X127374623Y-82673373D01*
X127468872Y-82782143D01*
X127589947Y-82859953D01*
X127589950Y-82859954D01*
X127589949Y-82859954D01*
X127728036Y-82900499D01*
X127728038Y-82900500D01*
X127728039Y-82900500D01*
X127871962Y-82900500D01*
X127871962Y-82900499D01*
X128010053Y-82859953D01*
X128131128Y-82782143D01*
X128225377Y-82673373D01*
X128285165Y-82542457D01*
X128305647Y-82400000D01*
X128285165Y-82257543D01*
X128225377Y-82126627D01*
X128131128Y-82017857D01*
X128010053Y-81940047D01*
X128010051Y-81940046D01*
X128010049Y-81940045D01*
X128010050Y-81940045D01*
X127871963Y-81899500D01*
X127871961Y-81899500D01*
X127728039Y-81899500D01*
X127728036Y-81899500D01*
X127589949Y-81940045D01*
X127468873Y-82017856D01*
X127374623Y-82126626D01*
X127374622Y-82126628D01*
X127314834Y-82257543D01*
X127294353Y-82400000D01*
X109054752Y-82400000D01*
X109090165Y-82322457D01*
X109110647Y-82180000D01*
X109090165Y-82037543D01*
X109030377Y-81906627D01*
X108936128Y-81797857D01*
X108815053Y-81720047D01*
X108815051Y-81720046D01*
X108815049Y-81720045D01*
X108815050Y-81720045D01*
X108676963Y-81679500D01*
X108676961Y-81679500D01*
X108533039Y-81679500D01*
X108533036Y-81679500D01*
X108394949Y-81720045D01*
X108273873Y-81797856D01*
X108179623Y-81906626D01*
X108179622Y-81906628D01*
X108119834Y-82037543D01*
X108099353Y-82180000D01*
X98025500Y-82180000D01*
X98025500Y-81380000D01*
X109299353Y-81380000D01*
X109319834Y-81522456D01*
X109379622Y-81653371D01*
X109379623Y-81653373D01*
X109473872Y-81762143D01*
X109594947Y-81839953D01*
X109594950Y-81839954D01*
X109594949Y-81839954D01*
X109733036Y-81880499D01*
X109733038Y-81880500D01*
X109733039Y-81880500D01*
X109876962Y-81880500D01*
X109876962Y-81880499D01*
X110015053Y-81839953D01*
X110136128Y-81762143D01*
X110230377Y-81653373D01*
X110290165Y-81522457D01*
X110310647Y-81380000D01*
X110290165Y-81237543D01*
X110230377Y-81106627D01*
X110136128Y-80997857D01*
X110015053Y-80920047D01*
X110015051Y-80920046D01*
X110015049Y-80920045D01*
X110015050Y-80920045D01*
X109876963Y-80879500D01*
X109876961Y-80879500D01*
X109733039Y-80879500D01*
X109733036Y-80879500D01*
X109594949Y-80920045D01*
X109473873Y-80997856D01*
X109379623Y-81106626D01*
X109379622Y-81106628D01*
X109319834Y-81237543D01*
X109299353Y-81380000D01*
X98025500Y-81380000D01*
X98025500Y-80048995D01*
X102124499Y-80048995D01*
X102151418Y-80184322D01*
X102151421Y-80184332D01*
X102204221Y-80311804D01*
X102204228Y-80311817D01*
X102280885Y-80426541D01*
X102280888Y-80426545D01*
X102378454Y-80524111D01*
X102378458Y-80524114D01*
X102493182Y-80600771D01*
X102493195Y-80600778D01*
X102620667Y-80653578D01*
X102620672Y-80653580D01*
X102620676Y-80653580D01*
X102620677Y-80653581D01*
X102756004Y-80680500D01*
X102756007Y-80680500D01*
X102893995Y-80680500D01*
X102985041Y-80662389D01*
X103029328Y-80653580D01*
X103156811Y-80600775D01*
X103271542Y-80524114D01*
X103369114Y-80426542D01*
X103386849Y-80400000D01*
X126194353Y-80400000D01*
X126214834Y-80542456D01*
X126265583Y-80653578D01*
X126274623Y-80673373D01*
X126368872Y-80782143D01*
X126489947Y-80859953D01*
X126489950Y-80859954D01*
X126489949Y-80859954D01*
X126628036Y-80900499D01*
X126628038Y-80900500D01*
X126628039Y-80900500D01*
X126771962Y-80900500D01*
X126771962Y-80900499D01*
X126910053Y-80859953D01*
X127031128Y-80782143D01*
X127102305Y-80700000D01*
X166094353Y-80700000D01*
X166114834Y-80842456D01*
X166174622Y-80973371D01*
X166174623Y-80973373D01*
X166268872Y-81082143D01*
X166389947Y-81159953D01*
X166389950Y-81159954D01*
X166389949Y-81159954D01*
X166528036Y-81200499D01*
X166528038Y-81200500D01*
X166528039Y-81200500D01*
X166671962Y-81200500D01*
X166671962Y-81200499D01*
X166810053Y-81159953D01*
X166931128Y-81082143D01*
X167025377Y-80973373D01*
X167085165Y-80842457D01*
X167105647Y-80700000D01*
X167085165Y-80557543D01*
X167025377Y-80426627D01*
X167002305Y-80400000D01*
X179694353Y-80400000D01*
X179714834Y-80542456D01*
X179765583Y-80653578D01*
X179774623Y-80673373D01*
X179868872Y-80782143D01*
X179989947Y-80859953D01*
X179989950Y-80859954D01*
X179989949Y-80859954D01*
X180128036Y-80900499D01*
X180128038Y-80900500D01*
X180128039Y-80900500D01*
X180271962Y-80900500D01*
X180271962Y-80900499D01*
X180410053Y-80859953D01*
X180531128Y-80782143D01*
X180625377Y-80673373D01*
X180685165Y-80542457D01*
X180705647Y-80400000D01*
X181994353Y-80400000D01*
X182014834Y-80542456D01*
X182065583Y-80653578D01*
X182074623Y-80673373D01*
X182168872Y-80782143D01*
X182289947Y-80859953D01*
X182289950Y-80859954D01*
X182289949Y-80859954D01*
X182428036Y-80900499D01*
X182428038Y-80900500D01*
X182428039Y-80900500D01*
X182571962Y-80900500D01*
X182571962Y-80900499D01*
X182710053Y-80859953D01*
X182831128Y-80782143D01*
X182925377Y-80673373D01*
X182985165Y-80542457D01*
X183005647Y-80400000D01*
X182985165Y-80257543D01*
X182925377Y-80126627D01*
X182831128Y-80017857D01*
X182710053Y-79940047D01*
X182710051Y-79940046D01*
X182710049Y-79940045D01*
X182710050Y-79940045D01*
X182571963Y-79899500D01*
X182571961Y-79899500D01*
X182428039Y-79899500D01*
X182428036Y-79899500D01*
X182289949Y-79940045D01*
X182168873Y-80017856D01*
X182074623Y-80126626D01*
X182074622Y-80126628D01*
X182014834Y-80257543D01*
X181994353Y-80400000D01*
X180705647Y-80400000D01*
X180685165Y-80257543D01*
X180625377Y-80126627D01*
X180531128Y-80017857D01*
X180410053Y-79940047D01*
X180410051Y-79940046D01*
X180410049Y-79940045D01*
X180410050Y-79940045D01*
X180271963Y-79899500D01*
X180271961Y-79899500D01*
X180128039Y-79899500D01*
X180128036Y-79899500D01*
X179989949Y-79940045D01*
X179868873Y-80017856D01*
X179774623Y-80126626D01*
X179774622Y-80126628D01*
X179714834Y-80257543D01*
X179694353Y-80400000D01*
X167002305Y-80400000D01*
X166931128Y-80317857D01*
X166810053Y-80240047D01*
X166810051Y-80240046D01*
X166810049Y-80240045D01*
X166810050Y-80240045D01*
X166671963Y-80199500D01*
X166671961Y-80199500D01*
X166528039Y-80199500D01*
X166528036Y-80199500D01*
X166389949Y-80240045D01*
X166268873Y-80317856D01*
X166174623Y-80426626D01*
X166174622Y-80426628D01*
X166114834Y-80557543D01*
X166094353Y-80700000D01*
X127102305Y-80700000D01*
X127125377Y-80673373D01*
X127185165Y-80542457D01*
X127205647Y-80400000D01*
X127185165Y-80257543D01*
X127125377Y-80126627D01*
X127031128Y-80017857D01*
X126910053Y-79940047D01*
X126910051Y-79940046D01*
X126910049Y-79940045D01*
X126910050Y-79940045D01*
X126771963Y-79899500D01*
X126771961Y-79899500D01*
X126628039Y-79899500D01*
X126628036Y-79899500D01*
X126489949Y-79940045D01*
X126368873Y-80017856D01*
X126274623Y-80126626D01*
X126274622Y-80126628D01*
X126214834Y-80257543D01*
X126194353Y-80400000D01*
X103386849Y-80400000D01*
X103445775Y-80311811D01*
X103498580Y-80184328D01*
X103525500Y-80048993D01*
X103525500Y-79911007D01*
X103525500Y-79911004D01*
X103498581Y-79775677D01*
X103498580Y-79775676D01*
X103498580Y-79775672D01*
X103467236Y-79700000D01*
X158519353Y-79700000D01*
X158539834Y-79842456D01*
X158571141Y-79911007D01*
X158599623Y-79973373D01*
X158693872Y-80082143D01*
X158814947Y-80159953D01*
X158814950Y-80159954D01*
X158814949Y-80159954D01*
X158897975Y-80184332D01*
X158949633Y-80199500D01*
X158953036Y-80200499D01*
X158953038Y-80200500D01*
X158953039Y-80200500D01*
X159096962Y-80200500D01*
X159096962Y-80200499D01*
X159235053Y-80159953D01*
X159356128Y-80082143D01*
X159450377Y-79973373D01*
X159510165Y-79842457D01*
X159530647Y-79700000D01*
X159510165Y-79557543D01*
X159450377Y-79426627D01*
X159356128Y-79317857D01*
X159235053Y-79240047D01*
X159235051Y-79240046D01*
X159235049Y-79240045D01*
X159235050Y-79240045D01*
X159096963Y-79199500D01*
X159096961Y-79199500D01*
X158953039Y-79199500D01*
X158953036Y-79199500D01*
X158814949Y-79240045D01*
X158693873Y-79317856D01*
X158599623Y-79426626D01*
X158599622Y-79426628D01*
X158539834Y-79557543D01*
X158519353Y-79700000D01*
X103467236Y-79700000D01*
X103445778Y-79648195D01*
X103445771Y-79648182D01*
X103369114Y-79533458D01*
X103369111Y-79533454D01*
X103271545Y-79435888D01*
X103271541Y-79435885D01*
X103156817Y-79359228D01*
X103156804Y-79359221D01*
X103029332Y-79306421D01*
X103029322Y-79306418D01*
X102893995Y-79279500D01*
X102893993Y-79279500D01*
X102756007Y-79279500D01*
X102756005Y-79279500D01*
X102620677Y-79306418D01*
X102620667Y-79306421D01*
X102493195Y-79359221D01*
X102493182Y-79359228D01*
X102378458Y-79435885D01*
X102378454Y-79435888D01*
X102280888Y-79533454D01*
X102280885Y-79533458D01*
X102204228Y-79648182D01*
X102204221Y-79648195D01*
X102151421Y-79775667D01*
X102151418Y-79775677D01*
X102124500Y-79911004D01*
X102124500Y-79911007D01*
X102124500Y-80048993D01*
X102124500Y-80048995D01*
X102124499Y-80048995D01*
X98025500Y-80048995D01*
X98025500Y-78400000D01*
X159494353Y-78400000D01*
X159514834Y-78542456D01*
X159574622Y-78673371D01*
X159574623Y-78673373D01*
X159668872Y-78782143D01*
X159789947Y-78859953D01*
X159789950Y-78859954D01*
X159789949Y-78859954D01*
X159928036Y-78900499D01*
X159928038Y-78900500D01*
X159928039Y-78900500D01*
X160071962Y-78900500D01*
X160071962Y-78900499D01*
X160210053Y-78859953D01*
X160331128Y-78782143D01*
X160425377Y-78673373D01*
X160485165Y-78542457D01*
X160505647Y-78400000D01*
X160485165Y-78257543D01*
X160425377Y-78126627D01*
X160331128Y-78017857D01*
X160270215Y-77978711D01*
X191174500Y-77978711D01*
X191174500Y-78221288D01*
X191206161Y-78461785D01*
X191268947Y-78696104D01*
X191353611Y-78900500D01*
X191361776Y-78920212D01*
X191483064Y-79130289D01*
X191483066Y-79130292D01*
X191483067Y-79130293D01*
X191630733Y-79322736D01*
X191630739Y-79322743D01*
X191802256Y-79494260D01*
X191802262Y-79494265D01*
X191994711Y-79641936D01*
X192204788Y-79763224D01*
X192428900Y-79856054D01*
X192663211Y-79918838D01*
X192843586Y-79942584D01*
X192903711Y-79950500D01*
X192903712Y-79950500D01*
X193146289Y-79950500D01*
X193194388Y-79944167D01*
X193386789Y-79918838D01*
X193621100Y-79856054D01*
X193845212Y-79763224D01*
X194055289Y-79641936D01*
X194247738Y-79494265D01*
X194419265Y-79322738D01*
X194566936Y-79130289D01*
X194688224Y-78920212D01*
X194781054Y-78696100D01*
X194843838Y-78461789D01*
X194875500Y-78221288D01*
X194875500Y-77978712D01*
X194870409Y-77940045D01*
X194843838Y-77738214D01*
X194843838Y-77738211D01*
X194781054Y-77503900D01*
X194688224Y-77279788D01*
X194566936Y-77069711D01*
X194419265Y-76877262D01*
X194419260Y-76877256D01*
X194247743Y-76705739D01*
X194247736Y-76705733D01*
X194055293Y-76558067D01*
X194055292Y-76558066D01*
X194055289Y-76558064D01*
X193845212Y-76436776D01*
X193845205Y-76436773D01*
X193621104Y-76343947D01*
X193386785Y-76281161D01*
X193146289Y-76249500D01*
X193146288Y-76249500D01*
X192903712Y-76249500D01*
X192903711Y-76249500D01*
X192663214Y-76281161D01*
X192428895Y-76343947D01*
X192204794Y-76436773D01*
X192204785Y-76436777D01*
X191994706Y-76558067D01*
X191802263Y-76705733D01*
X191802256Y-76705739D01*
X191630739Y-76877256D01*
X191630733Y-76877263D01*
X191483067Y-77069706D01*
X191361777Y-77279785D01*
X191361773Y-77279794D01*
X191268947Y-77503895D01*
X191206161Y-77738214D01*
X191174500Y-77978711D01*
X160270215Y-77978711D01*
X160210053Y-77940047D01*
X160210051Y-77940046D01*
X160210049Y-77940045D01*
X160210050Y-77940045D01*
X160071963Y-77899500D01*
X160071961Y-77899500D01*
X159928039Y-77899500D01*
X159928036Y-77899500D01*
X159789949Y-77940045D01*
X159668873Y-78017856D01*
X159574623Y-78126626D01*
X159574622Y-78126628D01*
X159514834Y-78257543D01*
X159494353Y-78400000D01*
X98025500Y-78400000D01*
X98025500Y-76104066D01*
X98025765Y-76095956D01*
X98031951Y-76001571D01*
X98042075Y-75847102D01*
X98044190Y-75831048D01*
X98092045Y-75590462D01*
X98096243Y-75574797D01*
X98129388Y-75477155D01*
X163900000Y-75477155D01*
X163900000Y-76125000D01*
X164816988Y-76125000D01*
X164784075Y-76182007D01*
X164750000Y-76309174D01*
X164750000Y-76440826D01*
X164784075Y-76567993D01*
X164816988Y-76625000D01*
X163900000Y-76625000D01*
X163900000Y-77272844D01*
X163906401Y-77332372D01*
X163906403Y-77332379D01*
X163956645Y-77467086D01*
X163956649Y-77467093D01*
X164042809Y-77582187D01*
X164042812Y-77582190D01*
X164157906Y-77668350D01*
X164157913Y-77668354D01*
X164292620Y-77718596D01*
X164292627Y-77718598D01*
X164352155Y-77724999D01*
X164352172Y-77725000D01*
X165000000Y-77725000D01*
X165000000Y-76808012D01*
X165057007Y-76840925D01*
X165184174Y-76875000D01*
X165315826Y-76875000D01*
X165442993Y-76840925D01*
X165500000Y-76808012D01*
X165500000Y-77725000D01*
X166147828Y-77725000D01*
X166147844Y-77724999D01*
X166207372Y-77718598D01*
X166207379Y-77718596D01*
X166342086Y-77668354D01*
X166342093Y-77668350D01*
X166457187Y-77582190D01*
X166457190Y-77582187D01*
X166543350Y-77467093D01*
X166543354Y-77467086D01*
X166593596Y-77332379D01*
X166593598Y-77332372D01*
X166599999Y-77272844D01*
X166600000Y-77272827D01*
X166600000Y-76872186D01*
X166619685Y-76805147D01*
X166672489Y-76759392D01*
X166741647Y-76749448D01*
X166805203Y-76778473D01*
X166833356Y-76813729D01*
X166912315Y-76961450D01*
X166912317Y-76961452D01*
X167043589Y-77121410D01*
X167140209Y-77200702D01*
X167203550Y-77252685D01*
X167386046Y-77350232D01*
X167584066Y-77410300D01*
X167584065Y-77410300D01*
X167602529Y-77412118D01*
X167790000Y-77430583D01*
X167995934Y-77410300D01*
X168193954Y-77350232D01*
X168376450Y-77252685D01*
X168536410Y-77121410D01*
X168667685Y-76961450D01*
X168765232Y-76778954D01*
X168825300Y-76580934D01*
X168845583Y-76375000D01*
X169274417Y-76375000D01*
X169294699Y-76580932D01*
X169294700Y-76580934D01*
X169354768Y-76778954D01*
X169452315Y-76961450D01*
X169452317Y-76961452D01*
X169583589Y-77121410D01*
X169680209Y-77200702D01*
X169743550Y-77252685D01*
X169926046Y-77350232D01*
X170124066Y-77410300D01*
X170124065Y-77410300D01*
X170142529Y-77412118D01*
X170330000Y-77430583D01*
X170535934Y-77410300D01*
X170733954Y-77350232D01*
X170916450Y-77252685D01*
X171076410Y-77121410D01*
X171207685Y-76961450D01*
X171305232Y-76778954D01*
X171365300Y-76580934D01*
X171385583Y-76375000D01*
X171814417Y-76375000D01*
X171834699Y-76580932D01*
X171834700Y-76580934D01*
X171894768Y-76778954D01*
X171992315Y-76961450D01*
X171992317Y-76961452D01*
X172123589Y-77121410D01*
X172220209Y-77200702D01*
X172283550Y-77252685D01*
X172466046Y-77350232D01*
X172664066Y-77410300D01*
X172664065Y-77410300D01*
X172682529Y-77412118D01*
X172870000Y-77430583D01*
X173075934Y-77410300D01*
X173273954Y-77350232D01*
X173456450Y-77252685D01*
X173616410Y-77121410D01*
X173747685Y-76961450D01*
X173845232Y-76778954D01*
X173905300Y-76580934D01*
X173925583Y-76375000D01*
X174354417Y-76375000D01*
X174374699Y-76580932D01*
X174374700Y-76580934D01*
X174434768Y-76778954D01*
X174532315Y-76961450D01*
X174532317Y-76961452D01*
X174663589Y-77121410D01*
X174760209Y-77200702D01*
X174823550Y-77252685D01*
X175006046Y-77350232D01*
X175204066Y-77410300D01*
X175204065Y-77410300D01*
X175222529Y-77412118D01*
X175410000Y-77430583D01*
X175615934Y-77410300D01*
X175813954Y-77350232D01*
X175996450Y-77252685D01*
X176156410Y-77121410D01*
X176287685Y-76961450D01*
X176385232Y-76778954D01*
X176445300Y-76580934D01*
X176465583Y-76375000D01*
X176894417Y-76375000D01*
X176914699Y-76580932D01*
X176914700Y-76580934D01*
X176974768Y-76778954D01*
X177072315Y-76961450D01*
X177072317Y-76961452D01*
X177203589Y-77121410D01*
X177300209Y-77200702D01*
X177363550Y-77252685D01*
X177546046Y-77350232D01*
X177744066Y-77410300D01*
X177744065Y-77410300D01*
X177762529Y-77412118D01*
X177950000Y-77430583D01*
X178155934Y-77410300D01*
X178353954Y-77350232D01*
X178536450Y-77252685D01*
X178696410Y-77121410D01*
X178827685Y-76961450D01*
X178925232Y-76778954D01*
X178985300Y-76580934D01*
X179005583Y-76375000D01*
X179434417Y-76375000D01*
X179454699Y-76580932D01*
X179454700Y-76580934D01*
X179514768Y-76778954D01*
X179612315Y-76961450D01*
X179612317Y-76961452D01*
X179743589Y-77121410D01*
X179840209Y-77200702D01*
X179903550Y-77252685D01*
X180086046Y-77350232D01*
X180284066Y-77410300D01*
X180284065Y-77410300D01*
X180302529Y-77412118D01*
X180490000Y-77430583D01*
X180695934Y-77410300D01*
X180893954Y-77350232D01*
X181076450Y-77252685D01*
X181236410Y-77121410D01*
X181367685Y-76961450D01*
X181465232Y-76778954D01*
X181525300Y-76580934D01*
X181545583Y-76375000D01*
X181974417Y-76375000D01*
X181994699Y-76580932D01*
X181994700Y-76580934D01*
X182054768Y-76778954D01*
X182152315Y-76961450D01*
X182152317Y-76961452D01*
X182283589Y-77121410D01*
X182380209Y-77200702D01*
X182443550Y-77252685D01*
X182626046Y-77350232D01*
X182824066Y-77410300D01*
X182824065Y-77410300D01*
X182842529Y-77412118D01*
X183030000Y-77430583D01*
X183235934Y-77410300D01*
X183433954Y-77350232D01*
X183616450Y-77252685D01*
X183776410Y-77121410D01*
X183907685Y-76961450D01*
X184005232Y-76778954D01*
X184065300Y-76580934D01*
X184085583Y-76375000D01*
X184514417Y-76375000D01*
X184534699Y-76580932D01*
X184534700Y-76580934D01*
X184594768Y-76778954D01*
X184692315Y-76961450D01*
X184692317Y-76961452D01*
X184823589Y-77121410D01*
X184920209Y-77200702D01*
X184983550Y-77252685D01*
X185166046Y-77350232D01*
X185364066Y-77410300D01*
X185364065Y-77410300D01*
X185382529Y-77412118D01*
X185570000Y-77430583D01*
X185775934Y-77410300D01*
X185973954Y-77350232D01*
X186156450Y-77252685D01*
X186316410Y-77121410D01*
X186447685Y-76961450D01*
X186545232Y-76778954D01*
X186605300Y-76580934D01*
X186625583Y-76375000D01*
X186605300Y-76169066D01*
X186545232Y-75971046D01*
X186447685Y-75788550D01*
X186395702Y-75725209D01*
X186316410Y-75628589D01*
X186156452Y-75497317D01*
X186156453Y-75497317D01*
X186156450Y-75497315D01*
X185973954Y-75399768D01*
X185775934Y-75339700D01*
X185775932Y-75339699D01*
X185775934Y-75339699D01*
X185570000Y-75319417D01*
X185364067Y-75339699D01*
X185166043Y-75399769D01*
X185132634Y-75417627D01*
X184983550Y-75497315D01*
X184983548Y-75497316D01*
X184983547Y-75497317D01*
X184823589Y-75628589D01*
X184692317Y-75788547D01*
X184594769Y-75971043D01*
X184534699Y-76169067D01*
X184514417Y-76375000D01*
X184085583Y-76375000D01*
X184065300Y-76169066D01*
X184005232Y-75971046D01*
X183907685Y-75788550D01*
X183855702Y-75725209D01*
X183776410Y-75628589D01*
X183616452Y-75497317D01*
X183616453Y-75497317D01*
X183616450Y-75497315D01*
X183433954Y-75399768D01*
X183235934Y-75339700D01*
X183235932Y-75339699D01*
X183235934Y-75339699D01*
X183030000Y-75319417D01*
X182824067Y-75339699D01*
X182626043Y-75399769D01*
X182592634Y-75417627D01*
X182443550Y-75497315D01*
X182443548Y-75497316D01*
X182443547Y-75497317D01*
X182283589Y-75628589D01*
X182152317Y-75788547D01*
X182054769Y-75971043D01*
X181994699Y-76169067D01*
X181974417Y-76375000D01*
X181545583Y-76375000D01*
X181525300Y-76169066D01*
X181465232Y-75971046D01*
X181367685Y-75788550D01*
X181315702Y-75725209D01*
X181236410Y-75628589D01*
X181076452Y-75497317D01*
X181076453Y-75497317D01*
X181076450Y-75497315D01*
X180893954Y-75399768D01*
X180695934Y-75339700D01*
X180695932Y-75339699D01*
X180695934Y-75339699D01*
X180490000Y-75319417D01*
X180284067Y-75339699D01*
X180086043Y-75399769D01*
X180052634Y-75417627D01*
X179903550Y-75497315D01*
X179903548Y-75497316D01*
X179903547Y-75497317D01*
X179743589Y-75628589D01*
X179612317Y-75788547D01*
X179514769Y-75971043D01*
X179454699Y-76169067D01*
X179434417Y-76375000D01*
X179005583Y-76375000D01*
X178985300Y-76169066D01*
X178925232Y-75971046D01*
X178827685Y-75788550D01*
X178775702Y-75725209D01*
X178696410Y-75628589D01*
X178536452Y-75497317D01*
X178536453Y-75497317D01*
X178536450Y-75497315D01*
X178353954Y-75399768D01*
X178155934Y-75339700D01*
X178155932Y-75339699D01*
X178155934Y-75339699D01*
X177950000Y-75319417D01*
X177744067Y-75339699D01*
X177546043Y-75399769D01*
X177512634Y-75417627D01*
X177363550Y-75497315D01*
X177363548Y-75497316D01*
X177363547Y-75497317D01*
X177203589Y-75628589D01*
X177072317Y-75788547D01*
X176974769Y-75971043D01*
X176914699Y-76169067D01*
X176894417Y-76375000D01*
X176465583Y-76375000D01*
X176445300Y-76169066D01*
X176385232Y-75971046D01*
X176287685Y-75788550D01*
X176235702Y-75725209D01*
X176156410Y-75628589D01*
X175996452Y-75497317D01*
X175996453Y-75497317D01*
X175996450Y-75497315D01*
X175813954Y-75399768D01*
X175615934Y-75339700D01*
X175615932Y-75339699D01*
X175615934Y-75339699D01*
X175410000Y-75319417D01*
X175204067Y-75339699D01*
X175006043Y-75399769D01*
X174972634Y-75417627D01*
X174823550Y-75497315D01*
X174823548Y-75497316D01*
X174823547Y-75497317D01*
X174663589Y-75628589D01*
X174532317Y-75788547D01*
X174434769Y-75971043D01*
X174374699Y-76169067D01*
X174354417Y-76375000D01*
X173925583Y-76375000D01*
X173905300Y-76169066D01*
X173845232Y-75971046D01*
X173747685Y-75788550D01*
X173695702Y-75725209D01*
X173616410Y-75628589D01*
X173456452Y-75497317D01*
X173456453Y-75497317D01*
X173456450Y-75497315D01*
X173273954Y-75399768D01*
X173075934Y-75339700D01*
X173075932Y-75339699D01*
X173075934Y-75339699D01*
X172870000Y-75319417D01*
X172664067Y-75339699D01*
X172466043Y-75399769D01*
X172432634Y-75417627D01*
X172283550Y-75497315D01*
X172283548Y-75497316D01*
X172283547Y-75497317D01*
X172123589Y-75628589D01*
X171992317Y-75788547D01*
X171894769Y-75971043D01*
X171834699Y-76169067D01*
X171814417Y-76375000D01*
X171385583Y-76375000D01*
X171365300Y-76169066D01*
X171305232Y-75971046D01*
X171207685Y-75788550D01*
X171155702Y-75725209D01*
X171076410Y-75628589D01*
X170916452Y-75497317D01*
X170916453Y-75497317D01*
X170916450Y-75497315D01*
X170733954Y-75399768D01*
X170535934Y-75339700D01*
X170535932Y-75339699D01*
X170535934Y-75339699D01*
X170330000Y-75319417D01*
X170124067Y-75339699D01*
X169926043Y-75399769D01*
X169892634Y-75417627D01*
X169743550Y-75497315D01*
X169743548Y-75497316D01*
X169743547Y-75497317D01*
X169583589Y-75628589D01*
X169452317Y-75788547D01*
X169354769Y-75971043D01*
X169294699Y-76169067D01*
X169274417Y-76375000D01*
X168845583Y-76375000D01*
X168825300Y-76169066D01*
X168765232Y-75971046D01*
X168667685Y-75788550D01*
X168615702Y-75725209D01*
X168536410Y-75628589D01*
X168376452Y-75497317D01*
X168376453Y-75497317D01*
X168376450Y-75497315D01*
X168193954Y-75399768D01*
X167995934Y-75339700D01*
X167995932Y-75339699D01*
X167995934Y-75339699D01*
X167790000Y-75319417D01*
X167584067Y-75339699D01*
X167386043Y-75399769D01*
X167352634Y-75417627D01*
X167203550Y-75497315D01*
X167203548Y-75497316D01*
X167203547Y-75497317D01*
X167043589Y-75628589D01*
X166912317Y-75788547D01*
X166912315Y-75788550D01*
X166840887Y-75922181D01*
X166833358Y-75936267D01*
X166784395Y-75986111D01*
X166716257Y-76001571D01*
X166650578Y-75977739D01*
X166608209Y-75922181D01*
X166600000Y-75877813D01*
X166600000Y-75477172D01*
X166599999Y-75477155D01*
X166593598Y-75417627D01*
X166593596Y-75417620D01*
X166543354Y-75282913D01*
X166543350Y-75282906D01*
X166457190Y-75167812D01*
X166457187Y-75167809D01*
X166342093Y-75081649D01*
X166342086Y-75081645D01*
X166207379Y-75031403D01*
X166207372Y-75031401D01*
X166147844Y-75025000D01*
X165500000Y-75025000D01*
X165500000Y-75941988D01*
X165442993Y-75909075D01*
X165315826Y-75875000D01*
X165184174Y-75875000D01*
X165057007Y-75909075D01*
X165000000Y-75941988D01*
X165000000Y-75025000D01*
X164352155Y-75025000D01*
X164292627Y-75031401D01*
X164292620Y-75031403D01*
X164157913Y-75081645D01*
X164157906Y-75081649D01*
X164042812Y-75167809D01*
X164042809Y-75167812D01*
X163956649Y-75282906D01*
X163956645Y-75282913D01*
X163906403Y-75417620D01*
X163906401Y-75417627D01*
X163900000Y-75477155D01*
X98129388Y-75477155D01*
X98155657Y-75399768D01*
X98175093Y-75342512D01*
X98181291Y-75327547D01*
X98289790Y-75107533D01*
X98297893Y-75093498D01*
X98434182Y-74889527D01*
X98444039Y-74876681D01*
X98605786Y-74692244D01*
X98617244Y-74680786D01*
X98801681Y-74519039D01*
X98814527Y-74509182D01*
X99018498Y-74372893D01*
X99032533Y-74364790D01*
X99252547Y-74256291D01*
X99267512Y-74250093D01*
X99431762Y-74194337D01*
X99499797Y-74171243D01*
X99515464Y-74167045D01*
X99756048Y-74119190D01*
X99772102Y-74117075D01*
X100020957Y-74100765D01*
X100029067Y-74100500D01*
X100090892Y-74100500D01*
X194959108Y-74100500D01*
X195020933Y-74100500D01*
X195029043Y-74100765D01*
G37*
%TD.AperFunction*%
%TD*%
M02*
