%TF.GenerationSoftware,KiCad,Pcbnew,8.0.3-8.0.3-0~ubuntu22.04.1*%
%TF.CreationDate,2024-06-29T20:26:50+10:00*%
%TF.ProjectId,lo_cate_pcb,6c6f5f63-6174-4655-9f70-63622e6b6963,rev?*%
%TF.SameCoordinates,Original*%
%TF.FileFunction,Paste,Top*%
%TF.FilePolarity,Positive*%
%FSLAX46Y46*%
G04 Gerber Fmt 4.6, Leading zero omitted, Abs format (unit mm)*
G04 Created by KiCad (PCBNEW 8.0.3-8.0.3-0~ubuntu22.04.1) date 2024-06-29 20:26:50*
%MOMM*%
%LPD*%
G01*
G04 APERTURE LIST*
G04 Aperture macros list*
%AMRoundRect*
0 Rectangle with rounded corners*
0 $1 Rounding radius*
0 $2 $3 $4 $5 $6 $7 $8 $9 X,Y pos of 4 corners*
0 Add a 4 corners polygon primitive as box body*
4,1,4,$2,$3,$4,$5,$6,$7,$8,$9,$2,$3,0*
0 Add four circle primitives for the rounded corners*
1,1,$1+$1,$2,$3*
1,1,$1+$1,$4,$5*
1,1,$1+$1,$6,$7*
1,1,$1+$1,$8,$9*
0 Add four rect primitives between the rounded corners*
20,1,$1+$1,$2,$3,$4,$5,0*
20,1,$1+$1,$4,$5,$6,$7,0*
20,1,$1+$1,$6,$7,$8,$9,0*
20,1,$1+$1,$8,$9,$2,$3,0*%
G04 Aperture macros list end*
%ADD10RoundRect,0.250000X0.525000X0.250000X-0.525000X0.250000X-0.525000X-0.250000X0.525000X-0.250000X0*%
%ADD11R,1.700000X2.100000*%
%ADD12RoundRect,0.250000X-0.337500X-0.475000X0.337500X-0.475000X0.337500X0.475000X-0.337500X0.475000X0*%
%ADD13RoundRect,0.250000X0.450000X-0.350000X0.450000X0.350000X-0.450000X0.350000X-0.450000X-0.350000X0*%
%ADD14RoundRect,0.250000X0.475000X-0.337500X0.475000X0.337500X-0.475000X0.337500X-0.475000X-0.337500X0*%
%ADD15RoundRect,0.250000X-0.450000X0.350000X-0.450000X-0.350000X0.450000X-0.350000X0.450000X0.350000X0*%
%ADD16RoundRect,0.250000X-0.350000X-0.450000X0.350000X-0.450000X0.350000X0.450000X-0.350000X0.450000X0*%
%ADD17R,1.371600X0.863600*%
%ADD18R,1.950000X1.050000*%
%ADD19R,0.304800X0.584200*%
%ADD20R,0.584200X0.304800*%
%ADD21RoundRect,0.250000X0.337500X0.475000X-0.337500X0.475000X-0.337500X-0.475000X0.337500X-0.475000X0*%
%ADD22RoundRect,0.250000X0.350000X0.450000X-0.350000X0.450000X-0.350000X-0.450000X0.350000X-0.450000X0*%
%ADD23RoundRect,0.250000X-0.475000X0.337500X-0.475000X-0.337500X0.475000X-0.337500X0.475000X0.337500X0*%
%ADD24R,2.300000X0.500000*%
%ADD25R,2.500000X2.000000*%
%ADD26R,0.990600X0.990600*%
%ADD27R,1.041400X2.209800*%
%ADD28R,0.508000X1.181100*%
%ADD29RoundRect,0.075000X0.700000X0.075000X-0.700000X0.075000X-0.700000X-0.075000X0.700000X-0.075000X0*%
%ADD30RoundRect,0.075000X0.075000X0.700000X-0.075000X0.700000X-0.075000X-0.700000X0.075000X-0.700000X0*%
G04 APERTURE END LIST*
D10*
%TO.C,SW4*%
X134525000Y-120800000D03*
X129275000Y-120800000D03*
X134525000Y-117600000D03*
X129275000Y-117600000D03*
%TD*%
D11*
%TO.C,Y1*%
X161500000Y-107025000D03*
X161500000Y-101125000D03*
X158800000Y-101125000D03*
X158800000Y-107025000D03*
%TD*%
D12*
%TO.C,C8*%
X123350000Y-83799999D03*
X125425000Y-83799999D03*
%TD*%
D13*
%TO.C,R12*%
X129525000Y-112100000D03*
X129525000Y-110100000D03*
%TD*%
%TO.C,R1*%
X155775000Y-111812500D03*
X155775000Y-109812500D03*
%TD*%
D12*
%TO.C,C12*%
X133487500Y-101100000D03*
X135562500Y-101100000D03*
%TD*%
D14*
%TO.C,C3*%
X192025000Y-108137500D03*
X192025000Y-106062500D03*
%TD*%
D13*
%TO.C,R2*%
X179375000Y-90400000D03*
X179375000Y-88400000D03*
%TD*%
D12*
%TO.C,C7*%
X123350000Y-80299999D03*
X125425000Y-80299999D03*
%TD*%
D13*
%TO.C,R11*%
X139525000Y-112100000D03*
X139525000Y-110100000D03*
%TD*%
%TO.C,R8*%
X108225000Y-101478900D03*
X108225000Y-99478900D03*
%TD*%
D12*
%TO.C,C17*%
X116687501Y-76566850D03*
X118762501Y-76566850D03*
%TD*%
D13*
%TO.C,R4*%
X183375000Y-81700000D03*
X183375000Y-79700000D03*
%TD*%
%TO.C,R7*%
X107952200Y-114015000D03*
X107952200Y-112015000D03*
%TD*%
D15*
%TO.C,R10*%
X114725000Y-94978900D03*
X114725000Y-96978900D03*
%TD*%
D16*
%TO.C,R6*%
X111952200Y-104965000D03*
X113952200Y-104965000D03*
%TD*%
D17*
%TO.C,U4*%
X179647800Y-84185000D03*
X179647800Y-85615000D03*
X183102200Y-85615000D03*
X183102200Y-84185000D03*
%TD*%
D18*
%TO.C,U6*%
X174125000Y-99850000D03*
X174125000Y-101850000D03*
X174125000Y-103850000D03*
X174125000Y-105850000D03*
X174125000Y-107850000D03*
X174125000Y-109850000D03*
X174125000Y-111850000D03*
X174125000Y-113850000D03*
X188925000Y-113850000D03*
X188925000Y-111850000D03*
X188925000Y-109850000D03*
X188925000Y-107850000D03*
X188925000Y-105850000D03*
X188925000Y-103850000D03*
X188925000Y-101850000D03*
X188925000Y-99850000D03*
%TD*%
D19*
%TO.C,U2*%
X129175001Y-80644299D03*
X128675000Y-80644299D03*
X128175000Y-80644299D03*
X127674999Y-80644299D03*
D20*
X127510600Y-81300000D03*
X127510600Y-81799999D03*
X127510600Y-82299998D03*
D19*
X127674999Y-82955699D03*
X128175000Y-82955699D03*
X128675000Y-82955699D03*
X129175001Y-82955699D03*
D20*
X129339400Y-82299998D03*
X129339400Y-81799999D03*
X129339400Y-81300000D03*
%TD*%
D21*
%TO.C,C6*%
X121562500Y-114600000D03*
X119487500Y-114600000D03*
%TD*%
D22*
%TO.C,R14*%
X154025000Y-96600000D03*
X152025000Y-96600000D03*
%TD*%
D14*
%TO.C,C15*%
X139025000Y-86637500D03*
X139025000Y-84562500D03*
%TD*%
D10*
%TO.C,SW3*%
X144525000Y-120800000D03*
X139275000Y-120800000D03*
X144525000Y-117600000D03*
X139275000Y-117600000D03*
%TD*%
D23*
%TO.C,C9*%
X150525000Y-101062500D03*
X150525000Y-103137500D03*
%TD*%
D16*
%TO.C,R9*%
X111625000Y-99800000D03*
X113625000Y-99800000D03*
%TD*%
D14*
%TO.C,C11*%
X146625000Y-105837500D03*
X146625000Y-103762500D03*
%TD*%
D12*
%TO.C,C16*%
X115937501Y-80566850D03*
X118012501Y-80566850D03*
%TD*%
D21*
%TO.C,C4*%
X141562500Y-114600000D03*
X139487500Y-114600000D03*
%TD*%
D24*
%TO.C,J2*%
X105475000Y-80580000D03*
X105475000Y-81380000D03*
X105475000Y-82180000D03*
X105475000Y-82980000D03*
X105475000Y-83780000D03*
D25*
X105375000Y-77730000D03*
X105375000Y-86630000D03*
X99875000Y-86630000D03*
X99875000Y-77730000D03*
%TD*%
D26*
%TO.C,U8*%
X189025000Y-116649998D03*
D27*
X187775000Y-118124999D03*
D26*
X189025000Y-119600000D03*
D27*
X190275000Y-118124999D03*
%TD*%
D15*
%TO.C,R3*%
X182875000Y-88400000D03*
X182875000Y-90400000D03*
%TD*%
D16*
%TO.C,R5*%
X111552200Y-112215000D03*
X113552200Y-112215000D03*
%TD*%
D21*
%TO.C,C1*%
X152562500Y-112812500D03*
X150487500Y-112812500D03*
%TD*%
D12*
%TO.C,C19*%
X159987500Y-98100000D03*
X162062500Y-98100000D03*
%TD*%
D14*
%TO.C,C10*%
X145825000Y-83837500D03*
X145825000Y-81762500D03*
%TD*%
D10*
%TO.C,SW5*%
X124525000Y-120800000D03*
X119275000Y-120800000D03*
X124525000Y-117600000D03*
X119275000Y-117600000D03*
%TD*%
D17*
%TO.C,U3*%
X108225000Y-107800000D03*
X108225000Y-109230000D03*
X111679400Y-109230000D03*
X111679400Y-107800000D03*
%TD*%
D10*
%TO.C,SW1*%
X169150000Y-119200000D03*
X163900000Y-119200000D03*
X169150000Y-116000000D03*
X163900000Y-116000000D03*
%TD*%
D13*
%TO.C,R13*%
X119525000Y-112100000D03*
X119525000Y-110100000D03*
%TD*%
D21*
%TO.C,C14*%
X156212500Y-90750000D03*
X154137500Y-90750000D03*
%TD*%
D28*
%TO.C,U7*%
X113475001Y-76633150D03*
X112525000Y-76633150D03*
X111574999Y-76633150D03*
X111574999Y-79566850D03*
X113475001Y-79566850D03*
%TD*%
D23*
%TO.C,C13*%
X135775000Y-86462500D03*
X135775000Y-88537500D03*
%TD*%
D10*
%TO.C,SW2*%
X155650000Y-119200000D03*
X150400000Y-119200000D03*
X155650000Y-116000000D03*
X150400000Y-116000000D03*
%TD*%
D17*
%TO.C,U5*%
X108497800Y-95263900D03*
X108497800Y-96693900D03*
X111952200Y-96693900D03*
X111952200Y-95263900D03*
%TD*%
D21*
%TO.C,C2*%
X166062500Y-112100000D03*
X163987500Y-112100000D03*
%TD*%
D29*
%TO.C,U1*%
X148700000Y-99350000D03*
X148700000Y-98850000D03*
X148700000Y-98350000D03*
X148700000Y-97850000D03*
X148700000Y-97350000D03*
X148700000Y-96850000D03*
X148700000Y-96350000D03*
X148700000Y-95850000D03*
X148700000Y-95350000D03*
X148700000Y-94850000D03*
X148700000Y-94350000D03*
X148700000Y-93850000D03*
X148700000Y-93350000D03*
X148700000Y-92850000D03*
X148700000Y-92350000D03*
X148700000Y-91850000D03*
D30*
X146775000Y-89925000D03*
X146275000Y-89925000D03*
X145775000Y-89925000D03*
X145275000Y-89925000D03*
X144775000Y-89925000D03*
X144275000Y-89925000D03*
X143775000Y-89925000D03*
X143275000Y-89925000D03*
X142775000Y-89925000D03*
X142275000Y-89925000D03*
X141775000Y-89925000D03*
X141275000Y-89925000D03*
X140775000Y-89925000D03*
X140275000Y-89925000D03*
X139775000Y-89925000D03*
X139275000Y-89925000D03*
D29*
X137350000Y-91850000D03*
X137350000Y-92350000D03*
X137350000Y-92850000D03*
X137350000Y-93350000D03*
X137350000Y-93850000D03*
X137350000Y-94350000D03*
X137350000Y-94850000D03*
X137350000Y-95350000D03*
X137350000Y-95850000D03*
X137350000Y-96350000D03*
X137350000Y-96850000D03*
X137350000Y-97350000D03*
X137350000Y-97850000D03*
X137350000Y-98350000D03*
X137350000Y-98850000D03*
X137350000Y-99350000D03*
D30*
X139275000Y-101275000D03*
X139775000Y-101275000D03*
X140275000Y-101275000D03*
X140775000Y-101275000D03*
X141275000Y-101275000D03*
X141775000Y-101275000D03*
X142275000Y-101275000D03*
X142775000Y-101275000D03*
X143275000Y-101275000D03*
X143775000Y-101275000D03*
X144275000Y-101275000D03*
X144775000Y-101275000D03*
X145275000Y-101275000D03*
X145775000Y-101275000D03*
X146275000Y-101275000D03*
X146775000Y-101275000D03*
%TD*%
D21*
%TO.C,C18*%
X161187500Y-110200000D03*
X159112500Y-110200000D03*
%TD*%
%TO.C,C5*%
X131562500Y-114600000D03*
X129487500Y-114600000D03*
%TD*%
M02*
